<?xml version="1.0" standalone="no"?><svg class="legend" id="legendSVG" width="980px" height="940px" version="1.1" xmlns="http://www.w3.org/2000/svg"><g id="leg_group" class="legend"><g class="chart1"><text x="0" y="30" font-family="Verdana" font-size="20" font-weight="bold">Ligand type</text><rect x="0" y="70" width="400" height="190" stroke="black" fill="transparent" stroke-width="5"/><rect x="10" y="80" height="10" width="30" class="chart" id="A_A" stroke="#000000" fill="#c86464"/><text x="45" y="90" style="font-family:Verdana; font-size:12;">Aminergic receptors</text><rect x="10" y="100" height="10" width="30" class="chart" id="A_B" stroke="#000000" fill="#c8a564"/><text x="45" y="110" style="font-family:Verdana; font-size:12;">Peptide receptors</text><rect x="10" y="120" height="10" width="30" class="chart" id="A_C" stroke="#000000" fill="#a9c864"/><text x="45" y="130" style="font-family:Verdana; font-size:12;">Protein receptors</text><rect x="10" y="140" height="10" width="30" class="chart" id="A_D" stroke="#000000" fill="#65c864"/><text x="45" y="150" style="font-family:Verdana; font-size:12;">Lipid receptors</text><rect x="10" y="160" height="10" width="30" class="chart" id="A_E" stroke="#000000" fill="#64c8a3"/><text x="45" y="170" style="font-family:Verdana; font-size:12;">Melatonin receptors</text><rect x="10" y="180" height="10" width="30" class="chart" id="A_F" stroke="#000000" fill="#64abc8"/><text x="45" y="190" style="font-family:Verdana; font-size:12;">Nucleotide receptors</text><rect x="10" y="200" height="10" width="30" class="chart" id="A_H" stroke="#000000" fill="#6467c8"/><text x="45" y="210" style="font-family:Verdana; font-size:12;">Alicarboxylic acid receptors</text><rect x="10" y="220" height="10" width="30" class="chart" id="A_I" stroke="#000000" fill="#a064c8"/><text x="45" y="230" style="font-family:Verdana; font-size:12;">Sensory receptors</text><rect x="10" y="240" height="10" width="30" class="chart" id="A_J" stroke="#000000" fill="#c864ae"/><text x="45" y="250" style="font-family:Verdana; font-size:12;">Orphan receptors</text></g><g class="chart2"><text x="440" y="30" font-family="Verdana" font-size="20" font-weight="bold">Receptor family</text><rect x="440" y="70" width="400" height="870" stroke="black" fill="transparent" stroke-width="5"/><rect x="450" y="80" height="10" width="30" class="chart" id="A_A_A" stroke="#000000" fill="#c86464"/><text x="485" y="90" style="font-family:Verdana; font-size:12;">5-Hydroxytryptamine receptors</text><rect x="450" y="100" height="10" width="30" class="chart" id="A_A_B" stroke="#000000" fill="#c87064"/><text x="485" y="110" style="font-family:Verdana; font-size:12;">Acetylcholine receptors (muscarinic)</text><rect x="450" y="120" height="10" width="30" class="chart" id="A_A_C" stroke="#000000" fill="#c87e64"/><text x="485" y="130" style="font-family:Verdana; font-size:12;">Adrenoceptors</text><rect x="450" y="140" height="10" width="30" class="chart" id="A_A_D" stroke="#000000" fill="#c88c64"/><text x="485" y="150" style="font-family:Verdana; font-size:12;">Dopamine receptors</text><rect x="450" y="160" height="10" width="30" class="chart" id="A_A_E" stroke="#000000" fill="#c89964"/><text x="485" y="170" style="font-family:Verdana; font-size:12;">Histamine receptors</text><rect x="450" y="180" height="10" width="30" class="chart" id="A_B_A" stroke="#000000" fill="#c8a764"/><text x="485" y="190" style="font-family:Verdana; font-size:12;">Angiotensin receptors</text><rect x="450" y="200" height="10" width="30" class="chart" id="A_B_BA" stroke="#000000" fill="#c8b664"/><text x="485" y="210" style="font-family:Verdana; font-size:12;">Relaxin family peptide receptors</text><rect x="450" y="220" height="10" width="30" class="chart" id="A_B_BB" stroke="#000000" fill="#c8c464"/><text x="485" y="230" style="font-family:Verdana; font-size:12;">Somatostatin receptors</text><rect x="450" y="240" height="10" width="30" class="chart" id="A_B_BC" stroke="#000000" fill="#bec864"/><text x="485" y="250" style="font-family:Verdana; font-size:12;">Tachykinin receptors</text><rect x="450" y="260" height="10" width="30" class="chart" id="A_B_BF" stroke="#000000" fill="#b0c864"/><text x="485" y="270" style="font-family:Verdana; font-size:12;">Vasopressin and oxytocin receptors</text><rect x="450" y="280" height="10" width="30" class="chart" id="A_B_C" stroke="#000000" fill="#a2c864"/><text x="485" y="290" style="font-family:Verdana; font-size:12;">Bombesin receptors</text><rect x="450" y="300" height="10" width="30" class="chart" id="A_B_D" stroke="#000000" fill="#94c864"/><text x="485" y="310" style="font-family:Verdana; font-size:12;">Bradykinin receptors</text><rect x="450" y="320" height="10" width="30" class="chart" id="A_B_E" stroke="#000000" fill="#86c864"/><text x="485" y="330" style="font-family:Verdana; font-size:12;">Cholecystokinin receptors</text><rect x="450" y="340" height="10" width="30" class="chart" id="A_B_F" stroke="#000000" fill="#78c864"/><text x="485" y="350" style="font-family:Verdana; font-size:12;">Complement peptide receptors</text><rect x="450" y="360" height="10" width="30" class="chart" id="A_B_G" stroke="#000000" fill="#6ac864"/><text x="485" y="370" style="font-family:Verdana; font-size:12;">Endothelin receptors</text><rect x="450" y="380" height="10" width="30" class="chart" id="A_B_H" stroke="#000000" fill="#64c869"/><text x="485" y="390" style="font-family:Verdana; font-size:12;">Formylpeptide receptors</text><rect x="450" y="400" height="10" width="30" class="chart" id="A_B_I" stroke="#000000" fill="#64c877"/><text x="485" y="410" style="font-family:Verdana; font-size:12;">Galanin receptors</text><rect x="450" y="420" height="10" width="30" class="chart" id="A_B_K" stroke="#000000" fill="#64c885"/><text x="485" y="430" style="font-family:Verdana; font-size:12;">Gonadotrophin-releasing hormone receptors</text><rect x="450" y="440" height="10" width="30" class="chart" id="A_B_M" stroke="#000000" fill="#64c893"/><text x="485" y="450" style="font-family:Verdana; font-size:12;">Melanin-concentrating hormone</text><rect x="450" y="460" height="10" width="30" class="chart" id="A_B_N" stroke="#000000" fill="#64c8a0"/><text x="485" y="470" style="font-family:Verdana; font-size:12;">Melanocortin receptors</text><rect x="450" y="480" height="10" width="30" class="chart" id="A_B_P" stroke="#000000" fill="#64c8af"/><text x="485" y="490" style="font-family:Verdana; font-size:12;">Neuromedin U receptors</text><rect x="450" y="500" height="10" width="30" class="chart" id="A_B_S" stroke="#000000" fill="#64c8bd"/><text x="485" y="510" style="font-family:Verdana; font-size:12;">Neuropeptide W/neuropeptide B receptors</text><rect x="450" y="520" height="10" width="30" class="chart" id="A_B_U" stroke="#000000" fill="#64c5c8"/><text x="485" y="530" style="font-family:Verdana; font-size:12;">Neurotensin receptors</text><rect x="450" y="540" height="10" width="30" class="chart" id="A_B_V" stroke="#000000" fill="#64b7c8"/><text x="485" y="550" style="font-family:Verdana; font-size:12;">Opioid receptors</text><rect x="450" y="560" height="10" width="30" class="chart" id="A_B_W" stroke="#000000" fill="#64a9c8"/><text x="485" y="570" style="font-family:Verdana; font-size:12;">Orexin receptors</text><rect x="450" y="580" height="10" width="30" class="chart" id="A_B_Z" stroke="#000000" fill="#649bc8"/><text x="485" y="590" style="font-family:Verdana; font-size:12;">Proteinase-activated receptors</text><rect x="450" y="600" height="10" width="30" class="chart" id="A_C_B" stroke="#000000" fill="#648dc8"/><text x="485" y="610" style="font-family:Verdana; font-size:12;">Chemokine receptors</text><rect x="450" y="620" height="10" width="30" class="chart" id="A_C_C" stroke="#000000" fill="#647fc8"/><text x="485" y="630" style="font-family:Verdana; font-size:12;">Glycoprotein hormone receptors</text><rect x="450" y="640" height="10" width="30" class="chart" id="A_C_D" stroke="#000000" fill="#6471c8"/><text x="485" y="650" style="font-family:Verdana; font-size:12;">Prokineticin receptors</text><rect x="450" y="660" height="10" width="30" class="chart" id="A_D_A" stroke="#000000" fill="#6465c8"/><text x="485" y="670" style="font-family:Verdana; font-size:12;">Free fatty acid receptors</text><rect x="450" y="680" height="10" width="30" class="chart" id="A_D_B" stroke="#000000" fill="#7064c8"/><text x="485" y="690" style="font-family:Verdana; font-size:12;">Leukotriene receptors</text><rect x="450" y="700" height="10" width="30" class="chart" id="A_D_C" stroke="#000000" fill="#7e64c8"/><text x="485" y="710" style="font-family:Verdana; font-size:12;">Lysophospholipid (LPA) receptors</text><rect x="450" y="720" height="10" width="30" class="chart" id="A_D_D" stroke="#000000" fill="#8c64c8"/><text x="485" y="730" style="font-family:Verdana; font-size:12;">Lysophospholipid (S1P) receptors</text><rect x="450" y="740" height="10" width="30" class="chart" id="A_D_E" stroke="#000000" fill="#9964c8"/><text x="485" y="750" style="font-family:Verdana; font-size:12;">Cannabinoid receptors</text><rect x="450" y="760" height="10" width="30" class="chart" id="A_D_F" stroke="#000000" fill="#a764c8"/><text x="485" y="770" style="font-family:Verdana; font-size:12;">GPR18, GPR55 and GPR119</text><rect x="450" y="780" height="10" width="30" class="chart" id="A_D_H" stroke="#000000" fill="#b664c8"/><text x="485" y="790" style="font-family:Verdana; font-size:12;">Prostanoid receptors</text><rect x="450" y="800" height="10" width="30" class="chart" id="A_E_A" stroke="#000000" fill="#c464c8"/><text x="485" y="810" style="font-family:Verdana; font-size:12;">Melatonin</text><rect x="450" y="820" height="10" width="30" class="chart" id="A_F_A" stroke="#000000" fill="#c864be"/><text x="485" y="830" style="font-family:Verdana; font-size:12;">Adenosine receptors</text><rect x="450" y="840" height="10" width="30" class="chart" id="A_F_B" stroke="#000000" fill="#c864b0"/><text x="485" y="850" style="font-family:Verdana; font-size:12;">P2Y receptors</text><rect x="450" y="860" height="10" width="30" class="chart" id="A_H_A" stroke="#000000" fill="#c864a2"/><text x="485" y="870" style="font-family:Verdana; font-size:12;">Hydroxycarboxylic acid receptors</text><rect x="450" y="880" height="10" width="30" class="chart" id="A_I_A" stroke="#000000" fill="#c86494"/><text x="485" y="890" style="font-family:Verdana; font-size:12;">Opsins</text><rect x="450" y="900" height="10" width="30" class="chart" id="A_I_B" stroke="#000000" fill="#c86486"/><text x="485" y="910" style="font-family:Verdana; font-size:12;">Taste 2</text><rect x="450" y="920" height="10" width="30" class="chart" id="A_J_A" stroke="#000000" fill="#c86478"/><text x="485" y="930" style="font-family:Verdana; font-size:12;">Class A orphans</text></g></g></svg>