<?xml version="1.0" standalone="no"?><!DOCTYPE svg PUBLIC "-//W3C//DTD SVG 1.1//EN" "http://www.w3.org/Graphics/SVG/1.1/DTD/svg11.dtd"><svg viewBox="0 0 1120 1200" xmlns:xlink="http://www.w3.org/1999/xlink" xmlns="http://www.w3.org/2000/svg" class="svgtree" id="svgtree" style="overflow: hidden; position: relative; left: -0.5px;" width="1120" version="1.1" height="1200"><defs><style type="text/css"><![CDATA[
a { background-color: transparent; }
@font-face {
  font-family: "Glyphicons Halflings";
  src: url("../fonts/glyphicons-halflings-regular.eot?#iefix") format("embedded-opentype"), url("../fonts/glyphicons-halflings-regular.woff") format("woff"), url("../fonts/glyphicons-halflings-regular.ttf") format("truetype"), url("../fonts/glyphicons-halflings-regular.svg#glyphicons_halflingsregular") format("svg");
}
* { box-sizing: border-box; }
a { color: rgb(51, 122, 183); text-decoration: none; }

]]></style></defs><path stroke-width="2" class="path" id="undefined" d="M659.9277,198.5592A375,375,0,1,0,777.5214,254.534L811.6062,206.6686A433.76114493868306,433.76114493868306,0,1,1,675.586,141.9227Z" stroke="#dddddd" fill="#eeeeee" style=""></path><path class="bgfield" id="E_A_A_A" d="M903.5404,409.6505A375,375,0,0,0,777.5208,254.5337L811.6056,206.6682A433.76114493868306,433.76114493868306,0,0,1,957.372,386.0913Z" stroke="#dddddd" fill="#eeeeee" style=""></path><path class="bgfield" id="E_A_A_I" d="M931.9831,607.4717A375,375,0,0,0,903.5404,409.6505L957.372,386.0913A433.76114493868306,433.76114493868306,0,0,1,990.2715,614.9103Z" stroke="#dddddd" fill="#eeeeee" style=""></path><path class="bgfield" id="E_A_A_H" d="M854.7702,791.8093A375,375,0,0,0,931.9831,607.4717L990.2715,614.9103A433.76114493868306,433.76114493868306,0,0,1,900.9596,828.1329Z" stroke="#dddddd" fill="#eeeeee" style=""></path><path class="bgfield" id="E_A_A_E" d="M693.8327,910.3053A375,375,0,0,0,854.7702,791.8093L900.9596,828.1329A433.76114493868306,433.76114493868306,0,0,1,714.8038,965.1969Z" stroke="#dddddd" fill="#eeeeee" style=""></path><path class="bgfield" id="E_A_A_B" d="M494.8823,929.303A375,375,0,0,0,693.8327,910.3053L714.8038,965.1969A433.76114493868306,433.76114493868306,0,0,1,484.6785,987.1714Z" stroke="#dddddd" fill="#eeeeee" style=""></path><path class="bgfield" id="E_A_A_C" d="M314.4274,843.4063A375,375,0,0,0,494.8823,929.303L484.6785,987.1714A433.76114493868306,433.76114493868306,0,0,1,275.9471,887.815Z" stroke="#dddddd" fill="#eeeeee" style=""></path><path class="bgfield" id="E_A_A_F" d="M203.7234,677.0127A375,375,0,0,0,314.4274,843.4063L275.9471,887.815A433.76114493868306,433.76114493868306,0,0,1,147.8961,695.3482Z" stroke="#dddddd" fill="#eeeeee" style=""></path><path class="bgfield" id="E_A_A_J" d="M194.2138,477.3837A375,375,0,0,0,203.7234,677.0127L147.8961,695.3482A433.76114493868306,433.76114493868306,0,0,1,136.8964,464.438Z" stroke="#dddddd" fill="#eeeeee" style=""></path><path class="bgfield" id="E_A_B_A" d="M288.5997,301.2204A375,375,0,0,0,194.2138,477.3837L136.8964,464.438A433.76114493868306,433.76114493868306,0,0,1,246.0722,260.6706Z" stroke="#dddddd" fill="#eeeeee" style="fill: rgb(109, 205, 225);"></path><path class="bgfield" id="E_A_A_G" d="M460.0723,198.5592A375,375,0,0,0,288.5997,301.2204L246.0722,260.6706A433.76114493868306,433.76114493868306,0,0,1,444.414,141.9227Z" stroke="#dddddd" fill="#eeeeee" style=""></path><path class="bgfield" id="E_A_A_D" d="M659.9277,198.5592A375,375,0,0,0,460.0723,198.5592L444.414,141.9227A433.76114493868306,433.76114493868306,0,0,1,675.586,141.9227Z" stroke="#dddddd" fill="#eeeeee" style=""></path><desc>Created with Raphaël 2.1.4</desc><defs></defs><path class="path" id="undefined" stroke-width="2" d="M560,560L560,544" stroke="#000000" fill="none" style=""></path><path stroke-width="2" class="path2" id="undefined" stroke-dasharray="1,3" d="M560,544L560,185" stroke="#c8c8c8" fill="none" style=""></path><a xlink:href="http://tools.gpcr.org/visualise/protein/fzd4_human"><text transform="matrix(0,-1,1,0,377,743)" font-weight="bold" fill="#000000" stroke="none" font-size="12px" font-family="Verdana" text-anchor="start" y="183" x="560" style="text-anchor: start; font-family: Verdana; font-size: 12px; font-weight: bold;"><tspan dy="5">FZD4</tspan><title>Frizzled-4 (Homo sapiens)</title></text></a><path class="path" id="undefined" stroke-width="2" d="M522.3692,497.1462L499.8997,459.616" stroke="#000000" fill="none" style=""></path><path stroke-width="2" class="path2" id="undefined" stroke-dasharray="1,3" d="M499.8997,459.616L367.3709,238.2563" stroke="#c8c8c8" fill="none" style=""></path><a xlink:href="http://tools.gpcr.org/visualise/protein/fzd7_human"><text transform="matrix(0.5137,0.858,-0.858,0.5137,381.1088,-199.2818)" font-weight="bold" fill="#000000" stroke="none" font-size="12px" font-family="Verdana" text-anchor="end" y="236.5403" x="366.3436" style="text-anchor: end; font-family: Verdana; font-size: 12px; font-weight: bold;"><tspan dy="5.0000015380859395">FZD7</tspan><title>Frizzled-7 (Homo sapiens)</title></text></a><path class="path" id="undefined" stroke-width="2" d="M461.8604,507.4181L449.8183,500.9662" stroke="#000000" fill="none" style=""></path><path stroke-width="2" class="path2" id="undefined" stroke-dasharray="1,3" d="M449.8183,500.9662L229.4549,382.8985" stroke="#c8c8c8" fill="none" style=""></path><a xlink:href="http://tools.gpcr.org/visualise/protein/smo_human"><text transform="matrix(0.8815,0.4723,-0.4723,0.8815,207.3778,-62.253)" font-weight="bold" fill="#000000" stroke="none" font-size="12px" font-family="Verdana" text-anchor="end" y="381.9539" x="227.692" style="text-anchor: end; font-family: Verdana; font-size: 12px; font-weight: bold;"><tspan dy="5.000012060546851">SMO</tspan><title>Smoothened homolog (Homo sapiens)</title></text></a><path class="path" id="undefined" stroke-width="2" d="M430.0629,566.1897L388.1948,568.1842" stroke="#000000" fill="none" style=""></path><path stroke-width="2" class="path2" id="undefined" stroke-dasharray="1,3" d="M388.1948,568.1842L185.4248,577.8434" stroke="#c8c8c8" fill="none" style=""></path><a xlink:href="http://tools.gpcr.org/visualise/protein/fzd10_human"><text transform="matrix(0.9989,-0.0476,0.0476,0.9989,-27.2919,9.3825)" font-weight="bold" fill="#000000" stroke="none" font-size="12px" font-family="Verdana" text-anchor="end" y="577.9386" x="183.427" style="text-anchor: end; font-family: Verdana; font-size: 12px; font-weight: bold;"><tspan dy="5.000001367187451">FZD10</tspan><title>Frizzled-10 (Homo sapiens)</title></text></a><path class="path" id="undefined" stroke-width="2" d="M428.2505,647.6548L396.8164,668.5684" stroke="#000000" fill="none" style=""></path><path stroke-width="2" class="path2" id="undefined" stroke-dasharray="1,3" d="M396.8164,668.5684L247.7864,767.7202" stroke="#c8c8c8" fill="none" style=""></path><a xlink:href="http://tools.gpcr.org/visualise/protein/fzd6_human"><text transform="matrix(0.8326,-0.5539,0.5539,0.8326,-384.6615,265.0569)" font-weight="bold" fill="#000000" stroke="none" font-size="12px" font-family="Verdana" text-anchor="end" y="768.8281" x="246.1213" style="text-anchor: end; font-family: Verdana; font-size: 12px; font-weight: bold;"><tspan dy="4.999974999999949">FZD6</tspan><title>Frizzled-6 (Homo sapiens)</title></text></a><path class="path" id="undefined" stroke-width="2" d="M472.7117,743.3783L471.0326,746.9059" stroke="#000000" fill="none" style=""></path><path stroke-width="2" class="path2" id="undefined" stroke-dasharray="1,3" d="M471.0326,746.9059L398.8272,898.5976" stroke="#c8c8c8" fill="none" style=""></path><a xlink:href="http://tools.gpcr.org/visualise/protein/fzd3_human"><text transform="matrix(0.4298,-0.9029,0.9029,0.4298,-586.075,872.7509)" font-weight="bold" fill="#000000" stroke="none" font-size="12px" font-family="Verdana" text-anchor="end" y="900.4034" x="397.9676" style="text-anchor: end; font-family: Verdana; font-size: 12px; font-weight: bold;"><tspan dy="5.000018652343783">FZD3</tspan><title>Frizzled-3 (Homo sapiens)</title></text></a><path class="path" id="undefined" stroke-width="2" d="M583.4682,805.7672L586.1407,833.7548" stroke="#000000" fill="none" style=""></path><path stroke-width="2" class="path2" id="undefined" stroke-dasharray="1,3" d="M586.1407,833.7548L595.6464,933.3019" stroke="#c8c8c8" fill="none" style=""></path><a xlink:href="http://tools.gpcr.org/visualise/protein/fzd2_human"><text transform="matrix(0.0951,0.9955,-0.9955,0.0951,1470.2558,253.2483)" font-weight="bold" fill="#000000" stroke="none" font-size="12px" font-family="Verdana" text-anchor="start" y="935.2929" x="595.8365" style="text-anchor: start; font-family: Verdana; font-size: 12px; font-weight: bold;"><tspan dy="4.9999922851562815">FZD2</tspan><title>Frizzled-2 (Homo sapiens)</title></text></a><path class="path" id="undefined" stroke-width="2" d="M753.6467,823.0047L782.3408,861.9761" stroke="#000000" fill="none" style=""></path><path stroke-width="2" class="path2" id="undefined" stroke-dasharray="1,3" d="M782.3408,861.9761L782.3408,861.9761" stroke="#c8c8c8" fill="none" style=""></path><a xlink:href="http://tools.gpcr.org/visualise/protein/fzd5_human"><text transform="matrix(0.5929,0.8053,-0.8053,0.5929,1014.3868,-279.3917)" font-weight="bold" fill="#000000" stroke="none" font-size="12px" font-family="Verdana" text-anchor="start" y="863.5866" x="783.5266" style="text-anchor: start; font-family: Verdana; font-size: 12px; font-weight: bold;"><tspan dy="4.999991113281226">FZD5</tspan><title>Frizzled-5 (Homo sapiens)</title></text></a><path class="path" id="undefined" stroke-width="2" d="M861.2452,686.1817L862.5324,686.7208" stroke="#000000" fill="none" style=""></path><path stroke-width="2" class="path2" id="undefined" stroke-dasharray="1,3" d="M862.5324,686.7208L905.883,704.879" stroke="#c8c8c8" fill="none" style=""></path><a xlink:href="http://tools.gpcr.org/visualise/protein/fzd8_human"><text transform="matrix(0.9224,0.3863,-0.3863,0.9224,343.105,-295.9047)" font-weight="bold" fill="#000000" stroke="none" font-size="12px" font-family="Verdana" text-anchor="start" y="705.6517" x="907.7278" style="text-anchor: start; font-family: Verdana; font-size: 12px; font-weight: bold;"><tspan dy="5.000027636718755">FZD8</tspan><title>Frizzled-8 (Homo sapiens)</title></text></a><path class="path" id="undefined" stroke-width="2" d="M753.6526,823.0127L753.6467,823.0047A326.60450000000003,326.60450000000003,0,0,0,861.2452,686.1817L861.2544,686.1855" stroke="#000000" fill="none" style=""></path><path class="path" id="undefined" stroke-width="2" d="M775.8331,729.7323L816.7289,761.893" stroke="#000000" fill="none" style=""></path><path class="path" id="undefined" stroke-width="2" d="M831.7829,520.9231L838.1398,520.0091" stroke="#000000" fill="none" style=""></path><path stroke-width="2" class="path2" id="undefined" stroke-dasharray="1,3" d="M838.1398,520.0091L931.183,506.6314" stroke="#c8c8c8" fill="none" style=""></path><a xlink:href="http://tools.gpcr.org/visualise/protein/fzd9_human"><text transform="matrix(0.9898,-0.1423,0.1423,0.9898,-62.5629,137.9582)" font-weight="bold" fill="#000000" stroke="none" font-size="12px" font-family="Verdana" text-anchor="start" y="506.3468" x="933.1626" style="text-anchor: start; font-family: Verdana; font-size: 12px; font-weight: bold;"><tspan dy="4.999998242187473">FZD9</tspan><title>Frizzled-9 (Homo sapiens)</title></text></a><path class="path" id="undefined" stroke-width="2" d="M775.8409,729.7385L775.8331,729.7323A274.5778,274.5778,0,0,0,831.7829,520.9231L831.7928,520.9217" stroke="#000000" fill="none" style=""></path><path class="path" id="undefined" stroke-width="2" d="M798.4728,623.8981L825.2219,631.0655" stroke="#000000" fill="none" style=""></path><path class="path" id="undefined" stroke-width="2" d="M583.4691,805.7771L583.4682,805.7672A246.88510000000002,246.88510000000002,0,0,0,798.4728,623.8981L798.4825,623.9007" stroke="#000000" fill="none" style=""></path><path class="path" id="undefined" stroke-width="2" d="M691.1622,715.0591L719.444,748.4936" stroke="#000000" fill="none" style=""></path><path class="path" id="undefined" stroke-width="2" d="M472.7074,743.3873L472.7117,743.3783A203.09320000000002,203.09320000000002,0,0,0,691.1622,715.0591L691.1687,715.0667" stroke="#000000" fill="none" style=""></path><path class="path" id="undefined" stroke-width="2" d="M580.3442,716.9312L586.1101,761.4078" stroke="#000000" fill="none" style=""></path><path class="path" id="undefined" stroke-width="2" d="M428.2422,647.6604L428.2505,647.6548A158.2444,158.2444,0,0,0,580.3442,716.9312L580.3455,716.9411" stroke="#000000" fill="none" style=""></path><path class="path" id="undefined" stroke-width="2" d="M506.0786,678.3826L494.406,704.0094" stroke="#000000" fill="none" style=""></path><path class="path" id="undefined" stroke-width="2" d="M430.053,566.1902L430.0629,566.1897A130.08440000000002,130.08440000000002,0,0,0,506.0786,678.3826L506.0745,678.3917" stroke="#000000" fill="none" style=""></path><path class="path" id="undefined" stroke-width="2" d="M467.8262,622.4519L452.307,632.9669" stroke="#000000" fill="none" style=""></path><path class="path" id="undefined" stroke-width="2" d="M461.8516,507.4134L461.8604,507.4181A111.33840000000001,111.33840000000001,0,0,0,467.8262,622.4519L467.8179,622.4575" stroke="#000000" fill="none" style=""></path><path class="path" id="undefined" stroke-width="2" d="M486.8407,563.7942L448.811,565.7665" stroke="#000000" fill="none" style=""></path><path class="path" id="undefined" stroke-width="2" d="M522.3641,497.1376L522.3692,497.1462A73.2576,73.2576,0,0,0,486.8407,563.7942L486.8307,563.7947" stroke="#000000" fill="none" style=""></path><path class="path" id="undefined" stroke-width="2" d="M560,560L495.354,525.5388" stroke="#000000" fill="none" style=""></path><path class="path" id="undefined" stroke-width="2" d="M560,560L612.0017,517.7529" stroke="#000000" fill="none" style=""></path><path stroke-width="2" class="path2" id="undefined" stroke-dasharray="1,3" d="M612.0017,517.7529L851.0545,323.5423" stroke="#c8c8c8" fill="none" style=""></path><a xlink:href="http://tools.gpcr.org/visualise/protein/fzd1_human"><text transform="matrix(0.7761,-0.6306,0.6306,0.7761,-12.3558,609.7587)" font-weight="bold" fill="#000000" stroke="none" font-size="12px" font-family="Verdana" text-anchor="start" y="322.2812" x="852.6068" style="text-anchor: start; font-family: Verdana; font-size: 12px; font-weight: bold;"><tspan dy="5.0000110351562626">FZD1</tspan><title>Frizzled-1 (Homo sapiens)</title></text></a><g transform="translate (510 1120)" id="leg_group" class="legend"></g></svg>