<?xml version="1.0" standalone="no"?><!DOCTYPE svg PUBLIC "-//W3C//DTD SVG 1.1//EN" "http://www.w3.org/Graphics/SVG/1.1/DTD/svg11.dtd"><svg viewBox="0 0 1340 1420" xmlns:xlink="http://www.w3.org/1999/xlink" xmlns="http://www.w3.org/2000/svg" class="svgtree" id="svgtree" style="overflow: hidden; position: relative; left: -0.366638px;" width="1340" version="1.1" height="1420"><defs><style type="text/css"><![CDATA[
a { background-color: transparent; }
@font-face {
  font-family: "Glyphicons Halflings";
  src: url("../fonts/glyphicons-halflings-regular.eot?#iefix") format("embedded-opentype"), url("../fonts/glyphicons-halflings-regular.woff") format("woff"), url("../fonts/glyphicons-halflings-regular.ttf") format("truetype"), url("../fonts/glyphicons-halflings-regular.svg#glyphicons_halflingsregular") format("svg");
}
* { box-sizing: border-box; }
a { color: rgb(51, 122, 183); text-decoration: none; }

]]></style></defs><path stroke-width="2" class="path" id="undefined" d="M730.3714,225.0772A449,449,0,1,0,878.9031,272.5576L942.8699,150.8595A586.4851926402275,586.4851926402275,0,1,1,748.8573,88.8405Z" stroke="#dddddd" fill="#eeeeee" style=""></path><path class="bgfield" id="D_A_A_A" d="M977.2631,342.6006A449,449,0,0,0,878.9101,272.5612L942.879,150.8642A586.4851926402275,586.4851926402275,0,0,1,1071.348,242.3498Z" stroke="#dddddd" fill="#eeeeee" style=""></path><path class="bgfield" id="D_B_A_A" d="M1053.3963,436.3159A449,449,0,0,0,977.2631,342.6006L1071.348,242.3498A586.4851926402275,586.4851926402275,0,0,1,1170.7935,364.7611Z" stroke="#dddddd" fill="#eeeeee" style=""></path><path class="bgfield" id="D_D_A_A" d="M1101.8041,546.9301A449,449,0,0,0,1053.3963,436.3159L1170.7935,364.7611A586.4851926402275,586.4851926402275,0,0,1,1234.0239,509.2458Z" stroke="#dddddd" fill="#eeeeee" style=""></path><path class="bgfield" id="D_B_A_B" d="M1118.9859,666.4442A449,449,0,0,0,1101.8041,546.9301L1234.0239,509.2458A586.4851926402275,586.4851926402275,0,0,1,1256.4668,665.3554Z" stroke="#dddddd" fill="#eeeeee" style=""></path><path class="bgfield" id="D_B_B_H" d="M1103.6992,786.2154A449,449,0,0,0,1118.9859,666.4442L1256.4668,665.3554A586.4851926402275,586.4851926402275,0,0,1,1236.4992,821.801Z" stroke="#dddddd" fill="#eeeeee" style=""></path><path class="bgfield" id="D_C_A_A" d="M1057.0494,897.5825A449,449,0,0,0,1103.6992,786.2154L1236.4992,821.801A586.4851926402275,586.4851926402275,0,0,1,1175.5651,967.269Z" stroke="#dddddd" fill="#eeeeee" style=""></path><path class="bgfield" id="D_B_B_F" d="M982.41,992.4919A449,449,0,0,0,1057.0494,897.5825L1175.5651,967.269A586.4851926402275,586.4851926402275,0,0,1,1078.0709,1091.2399Z" stroke="#dddddd" fill="#eeeeee" style=""></path><path class="bgfield" id="D_D_A_G" d="M885.1786,1064.0802A449,449,0,0,0,982.41,992.4919L1078.0709,1091.2399A586.4851926402275,586.4851926402275,0,0,1,951.0669,1184.7487Z" stroke="#dddddd" fill="#eeeeee" style=""></path><path class="bgfield" id="D_C_A_B" d="M772.3865,1107.1705A449,449,0,0,0,885.1786,1064.0802L951.0669,1184.7487A586.4851926402275,586.4851926402275,0,0,1,803.7375,1241.0334Z" stroke="#dddddd" fill="#eeeeee" style=""></path><path class="bgfield" id="D_D_A_E" d="M652.1903,1118.6466A449,449,0,0,0,772.3865,1107.1705L803.7375,1241.0334A586.4851926402275,586.4851926402275,0,0,1,646.7369,1256.0236Z" stroke="#dddddd" fill="#eeeeee" style=""></path><path class="bgfield" id="D_D_A_D" d="M533.282,1097.6788A449,449,0,0,0,652.1903,1118.6466L646.7369,1256.0236A586.4851926402275,586.4851926402275,0,0,1,491.4185,1228.6354Z" stroke="#dddddd" fill="#eeeeee" style=""></path><path class="bgfield" id="D_B_B_D" d="M424.2605,1045.7833A449,449,0,0,0,533.282,1097.6788L491.4185,1228.6354A586.4851926402275,586.4851926402275,0,0,1,349.0143,1160.8493Z" stroke="#dddddd" fill="#eeeeee" style=""></path><path class="bgfield" id="D_B_B_C" d="M333.0097,966.7129A449,449,0,0,0,424.2605,1045.7833L349.0143,1160.8493A586.4851926402275,586.4851926402275,0,0,1,229.8223,1057.5674Z" stroke="#dddddd" fill="#eeeeee" style=""></path><path class="bgfield" id="D_B_B_B" d="M266.1285,866.1857A449,449,0,0,0,333.0097,966.7129L229.8223,1057.5674A586.4851926402275,586.4851926402275,0,0,1,142.4618,926.2583Z" stroke="#dddddd" fill="#eeeeee" style=""></path><path class="bgfield" id="D_B_B_A" d="M228.4534,751.4712A449,449,0,0,0,266.1285,866.1857L142.4618,926.2583A586.4851926402275,586.4851926402275,0,0,1,93.2504,776.4179Z" stroke="#dddddd" fill="#eeeeee" style="fill: rgb(109, 205, 225);"></path><path class="bgfield" id="D_B_B_G" d="M222.7088,630.8651A449,449,0,0,0,228.4534,751.4712L93.2504,776.4179A586.4851926402275,586.4851926402275,0,0,1,85.7468,618.8819Z" stroke="#dddddd" fill="#eeeeee" style=""></path><path class="bgfield" id="D_D_A_B" d="M249.3101,513.0891A449,449,0,0,0,222.7088,630.8651L85.7468,618.8819A586.4851926402275,586.4851926402275,0,0,1,120.4936,465.0425Z" stroke="#dddddd" fill="#eeeeee" style=""></path><path class="bgfield" id="D_B_B_E" d="M306.3338,406.6601A449,449,0,0,0,249.3101,513.0891L120.4936,465.0425A586.4851926402275,586.4851926402275,0,0,1,194.9781,326.0246Z" stroke="#dddddd" fill="#eeeeee" style="fill: rgb(109, 205, 225);"></path><path class="bgfield" id="D_A_A_B" d="M389.6561,319.2746A449,449,0,0,0,306.3338,406.6601L194.9781,326.0246A586.4851926402275,586.4851926402275,0,0,1,303.8139,211.8814Z" stroke="#dddddd" fill="#eeeeee" style=""></path><path class="bgfield" id="D_C_A_C" d="M493.2515,257.2519A449,449,0,0,0,389.6561,319.2746L303.8139,211.8814A586.4851926402275,586.4851926402275,0,0,1,439.1306,130.8672Z" stroke="#dddddd" fill="#eeeeee" style=""></path><path class="bgfield" id="D_D_A_F" d="M609.6286,225.0772A449,449,0,0,0,493.2515,257.2519L439.1306,130.8672A586.4851926402275,586.4851926402275,0,0,1,591.1427,88.8405Z" stroke="#dddddd" fill="#eeeeee" style=""></path><path class="bgfield" id="D_D_A_C" d="M730.3714,225.0772A449,449,0,0,0,609.6286,225.0772L591.1427,88.8405A586.4851926402275,586.4851926402275,0,0,1,748.8573,88.8405Z" stroke="#dddddd" fill="#eeeeee" style=""></path><desc>Created with Raphaël 2.1.4</desc><defs></defs><path class="path" id="undefined" stroke-width="2" d="M670,670L670,625" stroke="#000000" fill="none" style=""></path><path stroke-width="2" class="path2" id="undefined" stroke-dasharray="1,3" d="M670,625L670,221" stroke="#c8c8c8" fill="none" style=""></path><a xlink:href="http://tools.gpcr.org/visualise/protein/gp179_human"><text transform="matrix(0,-1,1,0,451,889)" font-weight="bold" fill="#000000" stroke="none" font-size="12px" font-family="Verdana" text-anchor="start" y="219" x="670" style="text-anchor: start; font-family: Verdana; font-size: 12px; font-weight: bold;"><tspan dy="4.375">GPR179</tspan><title>Probable G-protein coupled receptor 179 (Homo sapiens)</title></text></a><path class="path" id="undefined" stroke-width="2" d="M660.6292,636.1056L654.0116,612.1695" stroke="#000000" fill="none" style=""></path><path stroke-width="2" class="path2" id="undefined" stroke-dasharray="1,3" d="M654.0116,612.1695L550.3536,237.2348" stroke="#c8c8c8" fill="none" style=""></path><a xlink:href="http://tools.gpcr.org/visualise/protein/gpc5c_human"><text transform="matrix(0.2665,0.9638,-0.9638,0.2665,630.1073,-357.3364)" font-weight="bold" fill="#000000" stroke="none" font-size="12px" font-family="Verdana" text-anchor="end" y="235.3071" x="549.8207" style="text-anchor: end; font-family: Verdana; font-size: 12px; font-weight: bold;"><tspan dy="4.375001611328116">GPRC5C</tspan><title>G-protein coupled receptor family C group 5 member C (Homo sapiens)</title></text></a><path class="path" id="undefined" stroke-width="2" d="M614.8682,577.9144L608.8726,567.8999" stroke="#000000" fill="none" style=""></path><path stroke-width="2" class="path2" id="undefined" stroke-dasharray="1,3" d="M608.8726,567.8999L439.3595,284.7651" stroke="#c8c8c8" fill="none" style=""></path><a xlink:href="http://tools.gpcr.org/visualise/protein/ts1r3_human"><text transform="matrix(0.5137,0.858,-0.858,0.5137,456.0231,-238.4285)" font-weight="bold" fill="#000000" stroke="none" font-size="12px" font-family="Verdana" text-anchor="end" y="283.0491" x="438.3321" style="text-anchor: end; font-family: Verdana; font-size: 12px; font-weight: bold;"><tspan dy="4.374997216796885">TAS1R3</tspan><title>Taste receptor type 1 member 3 (Homo sapiens)</title></text></a><path class="path" id="undefined" stroke-width="2" d="M573.4203,577.911L562.1639,567.178" stroke="#000000" fill="none" style=""></path><path stroke-width="2" class="path2" id="undefined" stroke-dasharray="1,3" d="M562.1639,567.178L345.0442,360.1538" stroke="#c8c8c8" fill="none" style=""></path><a xlink:href="http://tools.gpcr.org/visualise/protein/gpc6a_human"><text transform="matrix(0.7237,0.6901,-0.6901,0.7237,342.5074,-137.9919)" font-weight="bold" fill="#000000" stroke="none" font-size="12px" font-family="Verdana" text-anchor="end" y="358.7736" x="343.5967" style="text-anchor: end; font-family: Verdana; font-size: 12px; font-weight: bold;"><tspan dy="4.375009912109363">GPRC6 receptor</tspan><title>G-protein coupled receptor family C group 6 member A (Homo sapiens)</title></text></a><path class="path" id="undefined" stroke-width="2" d="M552.3732,606.9766L526.3233,593.0194" stroke="#000000" fill="none" style=""></path><path stroke-width="2" class="path2" id="undefined" stroke-dasharray="1,3" d="M526.3233,593.0194L274.2281,457.949" stroke="#c8c8c8" fill="none" style=""></path><a xlink:href="http://tools.gpcr.org/visualise/protein/grm5_human"><text transform="matrix(0.8815,0.4723,-0.4723,0.8815,248.1315,-74.5012)" font-weight="bold" fill="#000000" stroke="none" font-size="12px" font-family="Verdana" text-anchor="end" y="457.0045" x="272.4652" style="text-anchor: end; font-family: Verdana; font-size: 12px; font-weight: bold;"><tspan dy="4.375013916015632">mGlu5 receptor</tspan><title>Metabotropic glutamate receptor 5 (Homo sapiens)</title></text></a><path class="path" id="undefined" stroke-width="2" d="M573.4131,577.9041L573.4203,577.911A133.4467,133.4467,0,0,0,552.3732,606.9766L552.3643,606.9719" stroke="#000000" fill="none" style=""></path><path class="path" id="undefined" stroke-width="2" d="M583.07,607.0519L561.9152,591.7332" stroke="#000000" fill="none" style=""></path><path class="path" id="undefined" stroke-width="2" d="M614.8631,577.9058L614.8682,577.9144A107.3279,107.3279,0,0,0,583.07,607.0519L583.0619,607.0461" stroke="#000000" fill="none" style=""></path><path class="path" id="undefined" stroke-width="2" d="M622.8998,618.599L597.4905,590.8694" stroke="#000000" fill="none" style=""></path><path class="path" id="undefined" stroke-width="2" d="M557.7981,644.6576L555.8748,644.2232" stroke="#000000" fill="none" style=""></path><path stroke-width="2" class="path2" id="undefined" stroke-dasharray="1,3" d="M555.8748,644.2232L232.0324,571.0788" stroke="#c8c8c8" fill="none" style=""></path><a xlink:href="http://tools.gpcr.org/visualise/protein/gp158_human"><text transform="matrix(0.9754,0.2203,-0.2203,0.9754,131.3732,-36.6691)" font-weight="bold" fill="#000000" stroke="none" font-size="12px" font-family="Verdana" text-anchor="end" y="570.6382" x="230.0816" style="text-anchor: end; font-family: Verdana; font-size: 12px; font-weight: bold;"><tspan dy="4.3750164062499834">GPR158</tspan><title>Probable G-protein coupled receptor 158 (Homo sapiens)</title></text></a><path class="path" id="undefined" stroke-width="2" d="M527.5006,676.7874L503.1891,677.9454" stroke="#000000" fill="none" style=""></path><path stroke-width="2" class="path2" id="undefined" stroke-dasharray="1,3" d="M503.1891,677.9454L221.5085,691.3621" stroke="#c8c8c8" fill="none" style=""></path><a xlink:href="http://tools.gpcr.org/visualise/protein/grm7_human"><text transform="matrix(0.9989,-0.0476,0.0476,0.9989,-32.649,11.2267)" font-weight="bold" fill="#000000" stroke="none" font-size="12px" font-family="Verdana" text-anchor="end" y="691.4573" x="219.5107" style="text-anchor: end; font-family: Verdana; font-size: 12px; font-weight: bold;"><tspan dy="4.375024609375032">mGlu7 receptor</tspan><title>Metabotropic glutamate receptor 7 (Homo sapiens)</title></text></a><path class="path" id="undefined" stroke-width="2" d="M528.9414,716.3272L519.8885,719.3005" stroke="#000000" fill="none" style=""></path><path stroke-width="2" class="path2" id="undefined" stroke-dasharray="1,3" d="M519.8885,719.3005L243.4173,810.1006" stroke="#c8c8c8" fill="none" style=""></path><a xlink:href="http://tools.gpcr.org/visualise/protein/grm1_human"><text transform="matrix(0.9501,-0.312,0.312,0.9501,-240.9107,115.8373)" font-weight="bold" fill="#000000" stroke="none" font-size="12px" font-family="Verdana" text-anchor="end" y="810.7247" x="241.5171" style="text-anchor: end; font-family: Verdana; font-size: 12px; font-weight: bold;"><tspan dy="4.375029589843734">mGlu1 receptor</tspan><title>Metabotropic glutamate receptor 1 (Homo sapiens)</title></text></a><path class="path" id="undefined" stroke-width="2" d="M535.5547,759.447L515.9739,772.4742" stroke="#000000" fill="none" style=""></path><path stroke-width="2" class="path2" id="undefined" stroke-dasharray="1,3" d="M515.9739,772.4742L296.1746,918.7077" stroke="#c8c8c8" fill="none" style=""></path><a xlink:href="http://tools.gpcr.org/visualise/protein/grm2_human"><text transform="matrix(0.8326,-0.5539,0.5539,0.8326,-460.1907,317.1347)" font-weight="bold" fill="#000000" stroke="none" font-size="12px" font-family="Verdana" text-anchor="end" y="919.8156" x="294.5094" style="text-anchor: end; font-family: Verdana; font-size: 12px; font-weight: bold;"><tspan dy="4.374987207031268">mGlu2 receptor</tspan><title>Metabotropic glutamate receptor 2 (Homo sapiens)</title></text></a><path class="path" id="undefined" stroke-width="2" d="M549.4455,809.1253L530.5135,830.9737" stroke="#000000" fill="none" style=""></path><path stroke-width="2" class="path2" id="undefined" stroke-dasharray="1,3" d="M530.5135,830.9737L375.9651,1009.3295" stroke="#c8c8c8" fill="none" style=""></path><a xlink:href="http://tools.gpcr.org/visualise/protein/grm3_human"><text transform="matrix(0.6549,-0.7557,0.7557,0.6549,-634.6316,632.0193)" font-weight="bold" fill="#000000" stroke="none" font-size="12px" font-family="Verdana" text-anchor="end" y="1010.8409" x="374.6554" style="text-anchor: end; font-family: Verdana; font-size: 12px; font-weight: bold;"><tspan dy="4.375018652343783">mGlu3 receptor</tspan><title>Metabotropic glutamate receptor 3 (Homo sapiens)</title></text></a><path class="path" id="undefined" stroke-width="2" d="M509.6677,1006.8242L486.9043,1054.6453" stroke="#000000" fill="none" style=""></path><path stroke-width="2" class="path2" id="undefined" stroke-dasharray="1,3" d="M486.9043,1054.6453L477.0189,1075.4125" stroke="#c8c8c8" fill="none" style=""></path><a xlink:href="http://tools.gpcr.org/visualise/protein/grm4_human"><text transform="matrix(0.4298,-0.9029,0.9029,0.4298,-701.1403,1044.1629)" font-weight="bold" fill="#000000" stroke="none" font-size="12px" font-family="Verdana" text-anchor="end" y="1077.2183" x="476.1593" style="text-anchor: end; font-family: Verdana; font-size: 12px; font-weight: bold;"><tspan dy="4.375038281249999">mGlu4 receptor</tspan><title>Metabotropic glutamate receptor 4 (Homo sapiens)</title></text></a><path class="path" id="undefined" stroke-width="2" d="M605.2195,1037.3697L592.0281,1112.178" stroke="#000000" fill="none" style=""></path><path stroke-width="2" class="path2" id="undefined" stroke-dasharray="1,3" d="M592.0281,1112.178L592.0281,1112.178" stroke="#c8c8c8" fill="none" style=""></path><a xlink:href="http://tools.gpcr.org/visualise/protein/rai3_human"><text transform="matrix(0.1737,-0.9848,0.9848,0.1737,-608.2881,1503.3593)" font-weight="bold" fill="#000000" stroke="none" font-size="12px" font-family="Verdana" text-anchor="end" y="1114.1476" x="591.6808" style="text-anchor: end; font-family: Verdana; font-size: 12px; font-weight: bold;"><tspan dy="4.375016992187511">GPRC5A</tspan><title>Retinoic acid-induced protein 3 (Homo sapiens)</title></text></a><path class="path" id="undefined" stroke-width="2" d="M509.6634,1006.8332L509.6677,1006.8242A373.0375,373.0375,0,0,0,605.2195,1037.3697L605.2178,1037.3795" stroke="#000000" fill="none" style=""></path><path class="path" id="undefined" stroke-width="2" d="M563.7233,1002.4518L556.4119,1025.3234" stroke="#000000" fill="none" style=""></path><path class="path" id="undefined" stroke-width="2" d="M703.1737,1017.4456L706.0226,1047.2842" stroke="#000000" fill="none" style=""></path><path stroke-width="2" class="path2" id="undefined" stroke-dasharray="1,3" d="M706.0226,1047.2842L712.6759,1116.9673" stroke="#c8c8c8" fill="none" style=""></path><a xlink:href="http://tools.gpcr.org/visualise/protein/gpc5b_human"><text transform="matrix(0.095,0.9955,-0.9955,0.095,1759.003,302.9663)" font-weight="bold" fill="#000000" stroke="none" font-size="12px" font-family="Verdana" text-anchor="start" y="1118.9582" x="712.866" style="text-anchor: start; font-family: Verdana; font-size: 12px; font-weight: bold;"><tspan dy="4.3749480468750335">GPRC5B</tspan><title>G-protein coupled receptor family C group 5 member B (Homo sapiens)</title></text></a><path class="path" id="undefined" stroke-width="2" d="M563.7203,1002.4613L563.7233,1002.4518A349.02570000000003,349.02570000000003,0,0,0,703.1737,1017.4456L703.1746,1017.4556" stroke="#000000" fill="none" style=""></path><path class="path" id="undefined" stroke-width="2" d="M644.2695,909.3073L632.6876,1017.0255" stroke="#000000" fill="none" style=""></path><path class="path" id="undefined" stroke-width="2" d="M784.5069,969.7306L785.628,972.6651" stroke="#000000" fill="none" style=""></path><path stroke-width="2" class="path2" id="undefined" stroke-dasharray="1,3" d="M785.628,972.6651L830.2376,1089.434" stroke="#c8c8c8" fill="none" style=""></path><a xlink:href="http://tools.gpcr.org/visualise/protein/ts1r2_human"><text transform="matrix(0.3569,0.9342,-0.9342,0.3569,1553.846,-74.3924)" font-weight="bold" fill="#000000" stroke="none" font-size="12px" font-family="Verdana" text-anchor="start" y="1091.3023" x="830.9513" style="text-anchor: start; font-family: Verdana; font-size: 12px; font-weight: bold;"><tspan dy="4.375053906250059">TAS1R2</tspan><title>Taste receptor type 1 member 2 (Homo sapiens)</title></text></a><path class="path" id="undefined" stroke-width="2" d="M860.2367,928.38L880.4791,955.8733" stroke="#000000" fill="none" style=""></path><path stroke-width="2" class="path2" id="undefined" stroke-dasharray="1,3" d="M880.4791,955.8733L936.2116,1031.5693" stroke="#c8c8c8" fill="none" style=""></path><a xlink:href="http://tools.gpcr.org/visualise/protein/gpc5d_human"><text transform="matrix(0.5929,0.8053,-0.8053,0.5929,1213.6113,-334.2558)" font-weight="bold" fill="#000000" stroke="none" font-size="12px" font-family="Verdana" text-anchor="start" y="1033.1799" x="937.3974" style="text-anchor: start; font-family: Verdana; font-size: 12px; font-weight: bold;"><tspan dy="4.374968359375089">GPRC5D</tspan><title>G-protein coupled receptor family C group 5 member D (Homo sapiens)</title></text></a><path class="path" id="undefined" stroke-width="2" d="M784.5105,969.7399L784.5069,969.7306A320.8586,320.8586,0,0,0,860.2367,928.38L860.2427,928.3881" stroke="#000000" fill="none" style=""></path><path class="path" id="undefined" stroke-width="2" d="M801.335,910.5277L823.7684,951.6124" stroke="#000000" fill="none" style=""></path><path class="path" id="undefined" stroke-width="2" d="M885.4145,839.408L893.237,845.5598" stroke="#000000" fill="none" style=""></path><path stroke-width="2" class="path2" id="undefined" stroke-dasharray="1,3" d="M893.237,845.5598L1022.9345,947.5576" stroke="#c8c8c8" fill="none" style=""></path><a xlink:href="http://tools.gpcr.org/visualise/protein/grm6_human"><text transform="matrix(0.786,0.6182,-0.6182,0.786,805.7119,-430.319)" font-weight="bold" fill="#000000" stroke="none" font-size="12px" font-family="Verdana" text-anchor="start" y="948.7939" x="1024.5066" style="text-anchor: start; font-family: Verdana; font-size: 12px; font-weight: bold;"><tspan dy="4.375015722656258">mGlu6 receptor</tspan><title>Metabotropic glutamate receptor 6 (Homo sapiens)</title></text></a><path class="path" id="undefined" stroke-width="2" d="M801.3398,910.5365L801.335,910.5277A274.04830000000004,274.04830000000004,0,0,0,885.4145,839.408L885.4224,839.4142" stroke="#000000" fill="none" style=""></path><path class="path" id="undefined" stroke-width="2" d="M825.4387,853.7631L846.9841,879.2346" stroke="#000000" fill="none" style=""></path><path class="path" id="undefined" stroke-width="2" d="M644.2685,909.3172L644.2695,909.3073A240.68660000000003,240.68660000000003,0,0,0,825.4387,853.7631L825.4451,853.7707" stroke="#000000" fill="none" style=""></path><path class="path" id="undefined" stroke-width="2" d="M737.2063,889.2073L740.5503,900.1145" stroke="#000000" fill="none" style=""></path><path class="path" id="undefined" stroke-width="2" d="M881.4747,758.5832L883.0627,759.2484" stroke="#000000" fill="none" style=""></path><path stroke-width="2" class="path2" id="undefined" stroke-dasharray="1,3" d="M883.0627,759.2484L1084.1349,843.4742" stroke="#c8c8c8" fill="none" style=""></path><a xlink:href="http://tools.gpcr.org/visualise/protein/ts1r1_human"><text transform="matrix(0.9223,0.3864,-0.3864,0.9223,410.5075,-354.0194)" font-weight="bold" fill="#000000" stroke="none" font-size="12px" font-family="Verdana" text-anchor="start" y="844.2469" x="1085.9796" style="text-anchor: start; font-family: Verdana; font-size: 12px; font-weight: bold;"><tspan dy="4.375012792968732">TAS1R1</tspan><title>Taste receptor type 1 member 1 (Homo sapiens)</title></text></a><path class="path" id="undefined" stroke-width="2" d="M737.2092,889.2169L737.2063,889.2073A229.27830000000003,229.27830000000003,0,0,0,881.4747,758.5832L881.4839,758.5871" stroke="#000000" fill="none" style=""></path><path class="path" id="undefined" stroke-width="2" d="M807.7465,822.1345L823.8879,839.9619" stroke="#000000" fill="none" style=""></path><path class="path" id="undefined" stroke-width="2" d="M873.5777,695.9832L905.0929,700.0056" stroke="#000000" fill="none" style=""></path><path stroke-width="2" class="path2" id="undefined" stroke-dasharray="1,3" d="M905.0929,700.0056L1115.3869,726.846" stroke="#c8c8c8" fill="none" style=""></path><a xlink:href="http://tools.gpcr.org/visualise/protein/grm8_human"><text transform="matrix(0.992,0.1266,-0.1266,0.992,101.0464,-135.6148)" font-weight="bold" fill="#000000" stroke="none" font-size="12px" font-family="Verdana" text-anchor="start" y="727.0992" x="1117.3709" style="text-anchor: start; font-family: Verdana; font-size: 12px; font-weight: bold;"><tspan dy="4.375017871093746">mGlu8 receptor</tspan><title>Metabotropic glutamate receptor 8 (Homo sapiens)</title></text></a><path class="path" id="undefined" stroke-width="2" d="M807.7532,822.142L807.7465,822.1345A205.22920000000002,205.22920000000002,0,0,0,873.5777,695.9832L873.5877,695.9845" stroke="#000000" fill="none" style=""></path><path class="path" id="undefined" stroke-width="2" d="M833.2047,755.1673L851.9453,764.9469" stroke="#000000" fill="none" style=""></path><path class="path" id="undefined" stroke-width="2" d="M549.4389,809.1329L549.4455,809.1253A184.0903,184.0903,0,0,0,833.2047,755.1673L833.2136,755.1719" stroke="#000000" fill="none" style=""></path><path class="path" id="undefined" stroke-width="2" d="M700.1659,828.639L704.3893,850.8497" stroke="#000000" fill="none" style=""></path><path class="path" id="undefined" stroke-width="2" d="M535.5464,759.4526L535.5547,759.447A161.48160000000001,161.48160000000001,0,0,0,700.1659,828.639L700.1678,828.6488" stroke="#000000" fill="none" style=""></path><path class="path" id="undefined" stroke-width="2" d="M611.6662,808.7795L607.4267,818.8654" stroke="#000000" fill="none" style=""></path><path class="path" id="undefined" stroke-width="2" d="M981.5199,625.2147L1064.9396,613.222" stroke="#000000" fill="none" style=""></path><path stroke-width="2" class="path2" id="undefined" stroke-dasharray="1,3" d="M1064.9396,613.222L1114.4307,606.107" stroke="#c8c8c8" fill="none" style=""></path><a xlink:href="http://tools.gpcr.org/visualise/protein/gabr2_human"><text transform="matrix(0.9898,-0.1423,0.1423,0.9898,-74.8478,165.0312)" font-weight="bold" fill="#000000" stroke="none" font-size="12px" font-family="Verdana" text-anchor="start" y="605.8224" x="1116.4104" style="text-anchor: start; font-family: Verdana; font-size: 12px; font-weight: bold;"><tspan dy="4.375012304687516">GABAB2</tspan><title>Gamma-aminobutyric acid type B receptor subunit 2 (Homo sapiens)</title></text></a><path class="path" id="undefined" stroke-width="2" d="M958.322,543.8224L994.3045,528.0755" stroke="#000000" fill="none" style=""></path><path stroke-width="2" class="path2" id="undefined" stroke-dasharray="1,3" d="M994.3045,528.0755L1081.3354,489.9884" stroke="#c8c8c8" fill="none" style=""></path><a xlink:href="http://tools.gpcr.org/visualise/protein/gp156_human"><text transform="matrix(0.9161,-0.4009,0.4009,0.9161,-105.261,475.2957)" font-weight="bold" fill="#000000" stroke="none" font-size="12px" font-family="Verdana" text-anchor="start" y="489.1866" x="1083.1676" style="text-anchor: start; font-family: Verdana; font-size: 12px; font-weight: bold;"><tspan dy="4.3749850097656235">GPR156</tspan><title>Probable G-protein coupled receptor 156 (Homo sapiens)</title></text></a><path class="path" id="undefined" stroke-width="2" d="M981.5298,625.2133L981.5199,625.2147A314.72270000000003,314.72270000000003,0,0,0,958.322,543.8224L958.3312,543.8184" stroke="#000000" fill="none" style=""></path><path class="path" id="undefined" stroke-width="2" d="M906.3557,602.6357L972.6695,583.7355" stroke="#000000" fill="none" style=""></path><path class="path" id="undefined" stroke-width="2" d="M860.7545,515.0333L867.1437,509.8428" stroke="#000000" fill="none" style=""></path><path stroke-width="2" class="path2" id="undefined" stroke-dasharray="1,3" d="M867.1437,509.8428L1018.4943,386.8874" stroke="#c8c8c8" fill="none" style=""></path><a xlink:href="http://tools.gpcr.org/visualise/protein/gabr1_human"><text transform="matrix(0.7762,-0.6305,0.6305,0.7762,-14.8221,729.5005)" font-weight="bold" fill="#000000" stroke="none" font-size="12px" font-family="Verdana" text-anchor="start" y="385.6263" x="1020.0466" style="text-anchor: start; font-family: Verdana; font-size: 12px; font-weight: bold;"><tspan dy="4.37498774414064">GABAB1</tspan><title>Gamma-aminobutyric acid type B receptor subunit 1 (Homo sapiens)</title></text></a><path class="path" id="undefined" stroke-width="2" d="M906.3653,602.633L906.3557,602.6357A245.7681,245.7681,0,0,0,860.7545,515.0333L860.7623,515.027" stroke="#000000" fill="none" style=""></path><path class="path" id="undefined" stroke-width="2" d="M803.5326,600.49L888.0007,556.5203" stroke="#000000" fill="none" style=""></path><path class="path" id="undefined" stroke-width="2" d="M611.6623,808.7887L611.6662,808.7795A150.54100000000003,150.54100000000003,0,0,0,803.5326,600.49L803.5415,600.4854" stroke="#000000" fill="none" style=""></path><path class="path" id="undefined" stroke-width="2" d="M779.2019,770.5916L780.7242,771.9939" stroke="#000000" fill="none" style=""></path><path class="path" id="undefined" stroke-width="2" d="M528.9319,716.3303L528.9414,716.3272A148.4713,148.4713,0,0,0,779.2019,770.5916L779.2093,770.5984" stroke="#000000" fill="none" style=""></path><path class="path" id="undefined" stroke-width="2" d="M639.7692,809.4212L638.538,815.0995" stroke="#000000" fill="none" style=""></path><path class="path" id="undefined" stroke-width="2" d="M527.4906,676.7879L527.5006,676.7874A142.661,142.661,0,0,0,639.7692,809.4212L639.7671,809.4309" stroke="#000000" fill="none" style=""></path><path class="path" id="undefined" stroke-width="2" d="M582.202,744.317L561.1107,762.1699" stroke="#000000" fill="none" style=""></path><path class="path" id="undefined" stroke-width="2" d="M557.7883,644.6554L557.7981,644.6576A115.0283,115.0283,0,0,0,582.202,744.317L582.1944,744.3235" stroke="#000000" fill="none" style=""></path><path class="path" id="undefined" stroke-width="2" d="M602.2835,686.5819L558.2727,697.3589" stroke="#000000" fill="none" style=""></path><path class="path" id="undefined" stroke-width="2" d="M622.8931,618.5916L622.8998,618.599A69.71719999999999,69.71719999999999,0,0,0,602.2835,686.5819L602.2738,686.5843" stroke="#000000" fill="none" style=""></path><path class="path" id="undefined" stroke-width="2" d="M636.3475,659.7946L603.2831,649.7676" stroke="#000000" fill="none" style=""></path><path class="path" id="undefined" stroke-width="2" d="M660.6266,636.096L660.6292,636.1056A35.1659,35.1659,0,0,0,636.3475,659.7946L636.3379,659.7917" stroke="#000000" fill="none" style=""></path><path class="path" id="undefined" stroke-width="2" d="M670,670L645.4431,644.8286" stroke="#000000" fill="none" style=""></path><path class="path" id="undefined" stroke-width="2" d="M670,670L693.2028,637.4173" stroke="#000000" fill="none" style=""></path><path stroke-width="2" class="path2" id="undefined" stroke-dasharray="1,3" d="M693.2028,637.4173L930.4516,304.2597" stroke="#c8c8c8" fill="none" style=""></path><a xlink:href="http://tools.gpcr.org/visualise/protein/casr_human"><text transform="matrix(0.5801,-0.8146,0.8146,0.5801,144.6986,885.9431)" font-weight="bold" fill="#000000" stroke="none" font-size="12px" font-family="Verdana" text-anchor="start" y="302.6306" x="931.6118" style="text-anchor: start; font-family: Verdana; font-size: 12px; font-weight: bold;"><tspan dy="4.374984765625015">CaS receptor</tspan><title>Extracellular calcium-sensing receptor (Homo sapiens)</title></text></a><g transform="translate (620 1340)" id="leg_group" class="legend"></g><circle style="display: none;" stroke="#ff0000" fill="none" r="5" cy="567.178" cx="562.1639"></circle><circle style="display: none;" stroke="#ff0000" fill="none" r="5" cy="772.4742" cx="515.9739"></circle></svg>