<?xml version="1.0" standalone="no"?><!DOCTYPE svg PUBLIC "-//W3C//DTD SVG 1.1//EN" "http://www.w3.org/Graphics/SVG/1.1/DTD/svg11.dtd"><svg viewBox="0 0 1020 1100" xmlns:xlink="http://www.w3.org/1999/xlink" xmlns="http://www.w3.org/2000/svg" class="svgtree" id="svgtree" style="overflow: hidden; position: relative; left: -0.616638px;" width="1020" version="1.1" height="1100"><defs><style type="text/css"><![CDATA[
a { background-color: transparent; }
@font-face {
  font-family: "Glyphicons Halflings";
  src: url("../fonts/glyphicons-halflings-regular.eot?#iefix") format("embedded-opentype"), url("../fonts/glyphicons-halflings-regular.woff") format("woff"), url("../fonts/glyphicons-halflings-regular.ttf") format("truetype"), url("../fonts/glyphicons-halflings-regular.svg#glyphicons_halflingsregular") format("svg");
}
* { box-sizing: border-box; }
a { color: rgb(51, 122, 183); text-decoration: none; }

]]></style></defs><path stroke-width="2" class="path" id="undefined" d="M601.1341,180.366A342,342,0,1,0,708.3795,231.415L740.8711,185.7869A398.0145408042318,398.0145408042318,0,1,1,616.0605,126.3768Z" stroke="#dddddd" fill="#eeeeee" style=""></path><path class="bgfield" id="E_A_A_A" d="M823.3089,372.8813A342,342,0,0,0,708.379,231.4147L740.8705,185.7865A398.0145408042318,398.0145408042318,0,0,1,874.6242,350.4233Z" stroke="#dddddd" fill="#eeeeee" style=""></path><path class="bgfield" id="E_A_A_F" d="M849.2486,553.2942A342,342,0,0,0,823.3089,372.8813L874.6242,350.4233A398.0145408042318,398.0145408042318,0,0,1,904.8125,560.3851Z" stroke="#dddddd" fill="#eeeeee" style=""></path><path class="bgfield" id="E_A_A_C" d="M778.8304,721.4101A342,342,0,0,0,849.2486,553.2942L904.8125,560.3851A398.0145408042318,398.0145408042318,0,0,1,822.8609,756.0359Z" stroke="#dddddd" fill="#eeeeee" style=""></path><path class="bgfield" id="E_A_B_A" d="M632.0554,829.4784A342,342,0,0,0,778.8304,721.4101L822.8609,756.0359A398.0145408042318,398.0145408042318,0,0,1,652.0463,881.8043Z" stroke="#dddddd" fill="#eeeeee" style="fill: rgb(109, 205, 225);"></path><path class="bgfield" id="E_A_A_H" d="M450.6126,846.8043A342,342,0,0,0,632.0554,829.4784L652.0463,881.8043A398.0145408042318,398.0145408042318,0,0,1,440.8858,901.9679Z" stroke="#dddddd" fill="#eeeeee" style=""></path><path class="bgfield" id="E_A_A_E" d="M286.0378,768.4665A342,342,0,0,0,450.6126,846.8043L440.8858,901.9679A398.0145408042318,398.0145408042318,0,0,1,249.3561,810.7995Z" stroke="#dddddd" fill="#eeeeee" style=""></path><path class="bgfield" id="E_A_A_I" d="M185.0757,616.7156A342,342,0,0,0,286.0378,768.4665L249.3561,810.7995A398.0145408042318,398.0145408042318,0,0,1,131.8579,634.1941Z" stroke="#dddddd" fill="#eeeeee" style=""></path><path class="bgfield" id="E_A_A_J" d="M176.403,434.6539A342,342,0,0,0,185.0757,616.7156L131.8579,634.1941A398.0145408042318,398.0145408042318,0,0,1,121.7647,422.3134Z" stroke="#dddddd" fill="#eeeeee" style=""></path><path class="bgfield" id="E_A_A_D" d="M262.4829,273.993A342,342,0,0,0,176.403,434.6539L121.7647,422.3134A398.0145408042318,398.0145408042318,0,0,1,221.9433,235.3386Z" stroke="#dddddd" fill="#eeeeee" style=""></path><path class="bgfield" id="E_A_A_B" d="M418.8659,180.366A342,342,0,0,0,262.4829,273.993L221.9433,235.3386A398.0145408042318,398.0145408042318,0,0,1,403.9395,126.3768Z" stroke="#dddddd" fill="#eeeeee" style=""></path><path class="bgfield" id="E_A_A_G" d="M601.1341,180.366A342,342,0,0,0,418.8659,180.366L403.9395,126.3768A398.0145408042318,398.0145408042318,0,0,1,616.0605,126.3768Z" stroke="#dddddd" fill="#eeeeee" style=""></path><desc>Created with Raphaël 2.1.4</desc><defs></defs><path class="path" id="undefined" stroke-width="2" d="M510,510L510,447" stroke="#000000" fill="none" style=""></path><path stroke-width="2" class="path2" id="undefined" stroke-dasharray="1,3" d="M510,447L510,168" stroke="#c8c8c8" fill="none" style=""></path><a xlink:href="http://tools.gpcr.org/visualise/protein/fzd7_human"><text transform="matrix(0,-1,1,0,344,676)" font-weight="bold" fill="#000000" stroke="none" font-size="12px" font-family="Verdana" text-anchor="start" y="166" x="510" style="text-anchor: start; font-family: Verdana; font-size: 12px; font-weight: bold;"><tspan dy="4.375">FZD7</tspan><title>Frizzled-7 (Homo sapiens)</title></text></a><path class="path" id="undefined" stroke-width="2" d="M507.5621,505.9281L478.152,456.805" stroke="#000000" fill="none" style=""></path><path stroke-width="2" class="path2" id="undefined" stroke-dasharray="1,3" d="M478.152,456.805L334.3223,216.5697" stroke="#c8c8c8" fill="none" style=""></path><a xlink:href="http://tools.gpcr.org/visualise/protein/fzd2_human"><text transform="matrix(0.5137,0.858,-0.858,0.5137,346.4297,-181.4733)" font-weight="bold" fill="#000000" stroke="none" font-size="12px" font-family="Verdana" text-anchor="end" y="214.8537" x="333.2949" style="text-anchor: end; font-family: Verdana; font-size: 12px; font-weight: bold;"><tspan dy="4.3750012695312535">FZD2</tspan><title>Frizzled-2 (Homo sapiens)</title></text></a><path class="path" id="undefined" stroke-width="2" d="M459.2282,482.7972L379.5449,440.1039" stroke="#000000" fill="none" style=""></path><path stroke-width="2" class="path2" id="undefined" stroke-dasharray="1,3" d="M379.5449,440.1039L208.5429,348.4834" stroke="#c8c8c8" fill="none" style=""></path><a xlink:href="http://tools.gpcr.org/visualise/protein/fzd4_human"><text transform="matrix(0.8815,0.4723,-0.4723,0.8815,188.6455,-56.4567)" font-weight="bold" fill="#000000" stroke="none" font-size="12px" font-family="Verdana" text-anchor="end" y="347.5388" x="206.78" style="text-anchor: end; font-family: Verdana; font-size: 12px; font-weight: bold;"><tspan dy="4.375012158203106">FZD4</tspan><title>Frizzled-4 (Homo sapiens)</title></text></a><path class="path" id="undefined" stroke-width="2" d="M444.4202,513.124L363.1665,516.9946" stroke="#000000" fill="none" style=""></path><path stroke-width="2" class="path2" id="undefined" stroke-dasharray="1,3" d="M363.1665,516.9946L168.3874,526.2732" stroke="#c8c8c8" fill="none" style=""></path><a xlink:href="http://tools.gpcr.org/visualise/protein/fzd10_human"><text transform="matrix(0.9989,-0.0476,0.0476,0.9989,-24.8574,8.5134)" font-weight="bold" fill="#000000" stroke="none" font-size="12px" font-family="Verdana" text-anchor="end" y="526.3683" x="166.3896" style="text-anchor: end; font-family: Verdana; font-size: 12px; font-weight: bold;"><tspan dy="4.3750138671874765">FZD10</tspan><title>Frizzled-10 (Homo sapiens)</title></text></a><path class="path" id="undefined" stroke-width="2" d="M455.3383,546.3672L380.9517,595.8577" stroke="#000000" fill="none" style=""></path><path stroke-width="2" class="path2" id="undefined" stroke-dasharray="1,3" d="M380.9517,595.8577L225.2612,699.4408" stroke="#c8c8c8" fill="none" style=""></path><a xlink:href="http://tools.gpcr.org/visualise/protein/fzd9_human"><text transform="matrix(0.8326,-0.5539,0.5539,0.8326,-350.6115,241.1477)" font-weight="bold" fill="#000000" stroke="none" font-size="12px" font-family="Verdana" text-anchor="end" y="700.5487" x="223.5961" style="text-anchor: end; font-family: Verdana; font-size: 12px; font-weight: bold;"><tspan dy="4.3749939453125535">FZD9</tspan><title>Frizzled-9 (Homo sapiens)</title></text></a><path class="path" id="undefined" stroke-width="2" d="M444.4102,513.1245L444.4202,513.124A65.6542,65.6542,0,0,0,455.3383,546.3672L455.33,546.3728" stroke="#000000" fill="none" style=""></path><path class="path" id="undefined" stroke-width="2" d="M455.2758,527.9732L447.6239,530.4864" stroke="#000000" fill="none" style=""></path><path class="path" id="undefined" stroke-width="2" d="M459.2194,482.7924L459.2282,482.7972A57.6001,57.6001,0,0,0,455.2758,527.9732L455.2663,527.9764" stroke="#000000" fill="none" style=""></path><path class="path" id="undefined" stroke-width="2" d="M481.113,507.4728L452.6191,504.9799" stroke="#000000" fill="none" style=""></path><path class="path" id="undefined" stroke-width="2" d="M479.3596,574.3704L450.6884,634.6039" stroke="#000000" fill="none" style=""></path><path stroke-width="2" class="path2" id="undefined" stroke-dasharray="1,3" d="M450.6884,634.6039L363.0104,818.801" stroke="#c8c8c8" fill="none" style=""></path><a xlink:href="http://tools.gpcr.org/visualise/protein/fzd5_human"><text transform="matrix(0.4298,-0.9029,0.9029,0.4298,-534.4474,794.9105)" font-weight="bold" fill="#000000" stroke="none" font-size="12px" font-family="Verdana" text-anchor="end" y="820.6068" x="362.1508" style="text-anchor: end; font-family: Verdana; font-size: 12px; font-weight: bold;"><tspan dy="4.374988476562521">FZD5</tspan><title>Frizzled-5 (Homo sapiens)</title></text></a><path class="path" id="undefined" stroke-width="2" d="M516.7767,580.968L524.8289,665.2936" stroke="#000000" fill="none" style=""></path><path stroke-width="2" class="path2" id="undefined" stroke-dasharray="1,3" d="M524.8289,665.2936L542.5095,850.4514" stroke="#c8c8c8" fill="none" style=""></path><a xlink:href="http://tools.gpcr.org/visualise/protein/fzd8_human"><text transform="matrix(0.0951,0.9955,-0.9955,0.0951,1339.6945,231.1695)" font-weight="bold" fill="#000000" stroke="none" font-size="12px" font-family="Verdana" text-anchor="start" y="852.4423" x="542.6996" style="text-anchor: start; font-family: Verdana; font-size: 12px; font-weight: bold;"><tspan dy="4.374978222656296">FZD8</tspan><title>Frizzled-8 (Homo sapiens)</title></text></a><path class="path" id="undefined" stroke-width="2" d="M479.3553,574.3794L479.3596,574.3704A71.2908,71.2908,0,0,0,516.7767,580.968L516.7776,580.9779" stroke="#000000" fill="none" style=""></path><path class="path" id="undefined" stroke-width="2" d="M502.89,550.3228L497.6205,580.2077" stroke="#000000" fill="none" style=""></path><path class="path" id="undefined" stroke-width="2" d="M534.2765,542.9716L712.7748,785.4022" stroke="#000000" fill="none" style=""></path><path stroke-width="2" class="path2" id="undefined" stroke-dasharray="1,3" d="M712.7748,785.4022L712.7748,785.4022" stroke="#c8c8c8" fill="none" style=""></path><a xlink:href="http://tools.gpcr.org/visualise/protein/smo_human"><text transform="matrix(0.5929,0.8053,-0.8053,0.5929,924.4045,-254.5448)" font-weight="bold" fill="#000000" stroke="none" font-size="12px" font-family="Verdana" text-anchor="start" y="787.0127" x="713.9606" style="text-anchor: start; font-family: Verdana; font-size: 12px; font-weight: bold;"><tspan dy="4.375004687499995">SMO</tspan><title>Smoothened homolog (Homo sapiens)</title></text></a><path class="path" id="undefined" stroke-width="2" d="M502.8883,550.3326L502.89,550.3228A40.9448,40.9448,0,0,0,534.2765,542.9716L534.2825,542.9797" stroke="#000000" fill="none" style=""></path><path class="path" id="undefined" stroke-width="2" d="M516.6126,538.2332L519.3372,549.8659" stroke="#000000" fill="none" style=""></path><path class="path" id="undefined" stroke-width="2" d="M481.1031,507.4719L481.113,507.4728A28.9973,28.9973,0,0,0,516.6126,538.2332L516.6149,538.243" stroke="#000000" fill="none" style=""></path><path class="path" id="undefined" stroke-width="2" d="M504.834,515.9619L491.0108,531.9147" stroke="#000000" fill="none" style=""></path><path class="path" id="undefined" stroke-width="2" d="M571.4014,535.719L657.5768,571.815" stroke="#000000" fill="none" style=""></path><path stroke-width="2" class="path2" id="undefined" stroke-dasharray="1,3" d="M657.5768,571.815L825.4453,642.1296" stroke="#c8c8c8" fill="none" style=""></path><a xlink:href="http://tools.gpcr.org/visualise/protein/fzd3_human"><text transform="matrix(0.9224,0.3863,-0.3863,0.9224,312.6165,-269.7002)" font-weight="bold" fill="#000000" stroke="none" font-size="12px" font-family="Verdana" text-anchor="start" y="642.9023" x="827.29" style="text-anchor: start; font-family: Verdana; font-size: 12px; font-weight: bold;"><tspan dy="4.375017285156218">FZD3</tspan><title>Frizzled-3 (Homo sapiens)</title></text></a><path class="path" id="undefined" stroke-width="2" d="M575.8927,500.526L672.3307,486.6601" stroke="#000000" fill="none" style=""></path><path stroke-width="2" class="path2" id="undefined" stroke-dasharray="1,3" d="M672.3307,486.6601L848.5189,461.3278" stroke="#c8c8c8" fill="none" style=""></path><a xlink:href="http://tools.gpcr.org/visualise/protein/fzd6_human"><text transform="matrix(0.9898,-0.1423,0.1423,0.9898,-56.9569,125.7326)" font-weight="bold" fill="#000000" stroke="none" font-size="12px" font-family="Verdana" text-anchor="start" y="461.0432" x="850.4985" style="text-anchor: start; font-family: Verdana; font-size: 12px; font-weight: bold;"><tspan dy="4.374987109375013">FZD6</tspan><title>Frizzled-6 (Homo sapiens)</title></text></a><path class="path" id="undefined" stroke-width="2" d="M571.4107,535.7229L571.4014,535.719A66.5703,66.5703,0,0,0,575.8927,500.526L575.9026,500.5245" stroke="#000000" fill="none" style=""></path><path class="path" id="undefined" stroke-width="2" d="M517.8252,510.9986L576.0347,518.4272" stroke="#000000" fill="none" style=""></path><path class="path" id="undefined" stroke-width="2" d="M504.8275,515.9694L504.834,515.9619A7.8887,7.8887,0,0,0,517.8252,510.9986L517.8352,510.9999" stroke="#000000" fill="none" style=""></path><path class="path" id="undefined" stroke-width="2" d="M511.6938,514.4334L512.8154,517.3692" stroke="#000000" fill="none" style=""></path><path class="path" id="undefined" stroke-width="2" d="M507.557,505.9195L507.5621,505.9281A4.7459,4.7459,0,0,0,511.6938,514.4334L511.6973,514.4427" stroke="#000000" fill="none" style=""></path><path class="path" id="undefined" stroke-width="2" d="M510,510L505.7311,512.0737" stroke="#000000" fill="none" style=""></path><path class="path" id="undefined" stroke-width="2" d="M510,510L555.0164,473.4279" stroke="#000000" fill="none" style=""></path><path stroke-width="2" class="path2" id="undefined" stroke-dasharray="1,3" d="M555.0164,473.4279L775.4417,294.3506" stroke="#c8c8c8" fill="none" style=""></path><a xlink:href="http://tools.gpcr.org/visualise/protein/fzd1_human"><text transform="matrix(0.7761,-0.6306,0.6306,0.7761,-10.8751,555.546)" font-weight="bold" fill="#000000" stroke="none" font-size="12px" font-family="Verdana" text-anchor="start" y="293.0895" x="776.994" style="text-anchor: start; font-family: Verdana; font-size: 12px; font-weight: bold;"><tspan dy="4.374991943359362">FZD1</tspan><title>Frizzled-1 (Homo sapiens)</title></text></a><g transform="translate (460 1020)" id="leg_group" class="legend"></g></svg>