<?xml version="1.0" standalone="no"?><!DOCTYPE svg PUBLIC "-//W3C//DTD SVG 1.1//EN" "http://www.w3.org/Graphics/SVG/1.1/DTD/svg11.dtd"><svg height="1480" version="1.1" width="1300" style="overflow: hidden; position: relative;" id="svgtree" class="svgtree" xmlns="http://www.w3.org/2000/svg" xmlns:xlink="http://www.w3.org/1999/xlink" viewBox="0 0 1300 1480"><defs><style type="text/css"><![CDATA[
a { background-color: transparent; }
@font-face { font-family: 'Glyphicons Halflings'; src: url(http://localhost:8000/static/bootstrap/fonts/glyphicons-halflings-regular.eot?#iefix) format(embedded-opentype), url(http://localhost:8000/static/bootstrap/fonts/glyphicons-halflings-regular.woff) format(woff), url(http://localhost:8000/static/bootstrap/fonts/glyphicons-halflings-regular.ttf) format(truetype), url(http://localhost:8000/static/bootstrap/fonts/glyphicons-halflings-regular.svg#glyphicons_halflingsregular) format(svg); }
* { box-sizing: border-box; }
a { color: rgb(51, 122, 183); text-decoration: none; }
.label { display: inline; padding: 0.2em 0.6em 0.3em; font-size: 75%; font-weight: 700; line-height: 1; color: rgb(255, 255, 255); text-align: center; white-space: nowrap; vertical-align: baseline; border-radius: 0.25em; }

]]></style></defs><path fill="#0a0a0a" stroke="#0a0a0a" d="M774.7208,27.7189A634.6566340110396,634.6566340110396,0,1,0,980.0271,107.9012L985.2272,99.3596A644.6566340110396,644.6566340110396,0,1,1,776.6859,17.9139Z" id="B" class="chart0" style="-webkit-tap-highlight-color: rgba(0, 0, 0, 0); fill: rgb(10, 10, 10); visibility: hidden;"></path><text x="417.2997" y="1245.8281" text-anchor="middle" font-family="Verdana" font-size="10px" stroke="none" fill="#ffffff" style="-webkit-tap-highlight-color: rgba(0, 0, 0, 0); text-anchor: middle; font-family: Verdana; font-size: 10px; font-weight: bold;" font-weight="bold" class="label" transform="matrix(-0.9315,-0.3638,0.3638,-0.9315,352.7971,2558.1047)"><tspan style="-webkit-tap-highlight-color: rgba(0, 0, 0, 0);" dy="2.4999749999999494">CLASS B</tspan></text><path fill="#c86464" stroke="#000000" d="M772.5591,38.5044A623.6566340110396,623.6566340110396,0,1,0,974.307,117.2969L979.5071,108.7553A633.6566340110396,633.6566340110396,0,1,1,774.5242,28.6994Z" id="B_A" class="chart1" style="-webkit-tap-highlight-color: rgba(0, 0, 0, 0); fill: rgb(200, 100, 100); visibility: hidden;"></path><path fill="#aa64c8" stroke="#000000" d="M1145.6468,289.8856A612.6566340110396,612.6566340110396,0,0,0,968.5869,126.6927L973.787,118.1511A622.6566340110396,622.6566340110396,0,0,1,1153.7369,284.0077Z" id="B_A_A" class="chart2" style="-webkit-tap-highlight-color: rgba(0, 0, 0, 0); fill: rgb(170, 100, 200); visibility: hidden;"></path><path fill="#c86481" stroke="#000000" d="M1246.1414,508.7073A612.6566340110396,612.6566340110396,0,0,0,1145.6468,289.8856L1153.7369,284.0077A622.6566340110396,622.6566340110396,0,0,1,1255.8718,506.4011Z" id="B_A_C" class="chart2" style="-webkit-tap-highlight-color: rgba(0, 0, 0, 0); fill: rgb(200, 100, 129); visibility: hidden;"></path><path fill="#c8af64" stroke="#000000" d="M1004.3219,1149.8041A612.6566340110396,612.6566340110396,0,0,0,1246.1414,508.7073L1255.8718,506.4011A622.6566340110396,622.6566340110396,0,0,1,1010.1053,1157.9621Z" id="B_A_E" class="chart2" style="-webkit-tap-highlight-color: rgba(0, 0, 0, 0); fill: rgb(200, 175, 100); visibility: hidden;"></path><path fill="#c86481" stroke="#000000" d="M50.7317,777.38A612.6566340110396,612.6566340110396,0,0,0,1004.3219,1149.8041L1010.1053,1157.9621A622.6566340110396,622.6566340110396,0,0,1,40.9502,779.4592Z" id="B_A_C" class="chart2" style="-webkit-tap-highlight-color: rgba(0, 0, 0, 0); fill: rgb(200, 100, 129); visibility: hidden;"></path><path fill="#c87c64" stroke="#000000" d="M138.1324,313.3404A612.6566340110396,612.6566340110396,0,0,0,50.7317,777.38L40.9502,779.4592A622.6566340110396,622.6566340110396,0,0,1,129.7775,307.8453Z" id="B_A_D" class="chart2" style="-webkit-tap-highlight-color: rgba(0, 0, 0, 0); fill: rgb(200, 124, 100); visibility: hidden;"></path><path fill="#c864b2" stroke="#000000" d="M529.6026,49.2899A612.6566340110396,612.6566340110396,0,0,0,138.1324,313.3404L129.7775,307.8453A622.6566340110396,622.6566340110396,0,0,1,527.6375,39.4849Z" id="B_A_B" class="chart2" style="-webkit-tap-highlight-color: rgba(0, 0, 0, 0); fill: rgb(200, 100, 178); visibility: hidden;"></path><path fill="#aa64c8" stroke="#000000" d="M770.3974,49.2899A612.6566340110396,612.6566340110396,0,0,0,529.6026,49.2899L527.6375,39.4849A622.6566340110396,622.6566340110396,0,0,1,772.3625,39.4849Z" id="B_A_A" class="chart2" style="-webkit-tap-highlight-color: rgba(0, 0, 0, 0); fill: rgb(170, 100, 200); visibility: hidden;"></path><path fill="#eeeeee" stroke="#dddddd" d="M735.6814,222.5018A436,436,0,1,0,876.7271,277.5879L968.5915,126.6955A612.6566340110396,612.6566340110396,0,1,1,770.3974,49.2899Z" id="undefined" class="path" stroke-width="2" style="-webkit-tap-highlight-color: rgba(0, 0, 0, 0);"></path><path fill="#eeeeee" stroke="#dddddd" d="M1002.7294,393.7229A436,436,0,0,0,876.7239,277.5859L968.5869,126.6927A612.6566340110396,612.6566340110396,0,0,1,1145.6468,289.8856Z" id="B_A_A_A" class="bgfield" style="-webkit-tap-highlight-color: rgba(0, 0, 0, 0);"></path><path fill="#eeeeee" stroke="#dddddd" d="M1074.2468,549.4484A436,436,0,0,0,1002.7294,393.7229L1145.6468,289.8856A612.6566340110396,612.6566340110396,0,0,1,1246.1414,508.7073Z" id="B_A_C_A" class="bgfield" style="-webkit-tap-highlight-color: rgba(0, 0, 0, 0);"></path><path fill="#eeeeee" stroke="#dddddd" d="M1080.2285,720.7067A436,436,0,0,0,1074.2468,549.4484L1246.1414,508.7073A612.6566340110396,612.6566340110396,0,0,1,1254.5467,749.3553Z" id="B_A_E_B" class="bgfield" style="-webkit-tap-highlight-color: rgba(0, 0, 0, 0);"></path><path fill="#eeeeee" stroke="#dddddd" d="M1019.7504,881.0425A436,436,0,0,0,1080.2285,720.7067L1254.5467,749.3553A612.6566340110396,612.6566340110396,0,0,1,1169.5643,974.6554Z" id="B_A_E_C" class="bgfield" style="-webkit-tap-highlight-color: rgba(0, 0, 0, 0);"></path><path fill="#eeeeee" stroke="#dddddd" d="M902.1549,1005.688A436,436,0,0,0,1019.7504,881.0425L1169.5643,974.6554A612.6566340110396,612.6566340110396,0,0,1,1004.3219,1149.8041Z" id="B_A_E_A" class="bgfield" style="-webkit-tap-highlight-color: rgba(0, 0, 0, 0);"></path><path fill="#eeeeee" stroke="#dddddd" d="M745.6076,1075.3883A436,436,0,0,0,902.1549,1005.688L1004.3219,1149.8041A612.6566340110396,612.6566340110396,0,0,1,784.3455,1247.7453Z" id="B_A_C_F" class="bgfield" style="-webkit-tap-highlight-color: rgba(0, 0, 0, 0);"></path><path fill="#eeeeee" stroke="#dddddd" d="M574.2913,1079.3765A436,436,0,0,0,745.6076,1075.3883L784.3455,1247.7453A612.6566340110396,612.6566340110396,0,0,1,543.6159,1253.3495Z" id="B_A_C_D" class="bgfield" style="-webkit-tap-highlight-color: rgba(0, 0, 0, 0);"></path><path fill="#eeeeee" stroke="#dddddd" d="M414.6701,1017.0366A436,436,0,0,0,574.2913,1079.3765L543.6159,1253.3495A612.6566340110396,612.6566340110396,0,0,1,319.3201,1165.7509Z" id="B_A_C_E" class="bgfield" style="-webkit-tap-highlight-color: rgba(0, 0, 0, 0); fill: rgb(109, 205, 225);"></path><path fill="#eeeeee" stroke="#dddddd" d="M291.4017,897.9984A436,436,0,0,0,414.6701,1017.0366L319.3201,1165.7509A612.6566340110396,612.6566340110396,0,0,1,146.1063,998.4814Z" id="B_A_C_B" class="bgfield" style="-webkit-tap-highlight-color: rgba(0, 0, 0, 0);"></path><path fill="#eeeeee" stroke="#dddddd" d="M223.5279,740.6506A436,436,0,0,0,291.4017,897.9984L146.1063,998.4814A612.6566340110396,612.6566340110396,0,0,1,50.7317,777.38Z" id="B_A_C_C" class="bgfield" style="-webkit-tap-highlight-color: rgba(0, 0, 0, 0);"></path><path fill="#eeeeee" stroke="#dddddd" d="M221.5336,569.2995A436,436,0,0,0,223.5279,740.6506L50.7317,777.38A612.6566340110396,612.6566340110396,0,0,1,47.9294,536.6016Z" id="B_A_D_B" class="bgfield" style="-webkit-tap-highlight-color: rgba(0, 0, 0, 0);"></path><path fill="#eeeeee" stroke="#dddddd" d="M285.727,410.4146A436,436,0,0,0,221.5336,569.2995L47.9294,536.6016A612.6566340110396,612.6566340110396,0,0,1,138.1324,313.3404Z" id="B_A_D_A" class="bgfield" style="-webkit-tap-highlight-color: rgba(0, 0, 0, 0);"></path><path fill="#eeeeee" stroke="#dddddd" d="M406.1916,288.5398A436,436,0,0,0,285.727,410.4146L138.1324,313.3404A612.6566340110396,612.6566340110396,0,0,1,307.4063,142.0849Z" id="B_A_B_B" class="bgfield" style="-webkit-tap-highlight-color: rgba(0, 0, 0, 0);"></path><path fill="#eeeeee" stroke="#dddddd" d="M564.3186,222.5018A436,436,0,0,0,406.1916,288.5398L307.4063,142.0849A612.6566340110396,612.6566340110396,0,0,1,529.6026,49.2899Z" id="B_A_B_A" class="bgfield" style="-webkit-tap-highlight-color: rgba(0, 0, 0, 0); fill: rgb(109, 205, 225);"></path><path fill="#eeeeee" stroke="#dddddd" d="M735.6814,222.5018A436,436,0,0,0,564.3186,222.5018L529.6026,49.2899A612.6566340110396,612.6566340110396,0,0,1,770.3974,49.2899Z" id="B_A_A_E" class="bgfield" style="-webkit-tap-highlight-color: rgba(0, 0, 0, 0);"></path><desc style="-webkit-tap-highlight-color: rgba(0, 0, 0, 0);">Created with Raphaël 2.1.4</desc><defs style="-webkit-tap-highlight-color: rgba(0, 0, 0, 0);"></defs><path fill="none" stroke="#000000" d="M650,650L650,561" stroke-width="2" id="undefined" class="path" style="-webkit-tap-highlight-color: rgba(0, 0, 0, 0);"></path><path fill="none" stroke="#c8c8c8" d="M650,561L650,214" stroke-dasharray="1,3" id="undefined" class="path2" stroke-width="2" style="-webkit-tap-highlight-color: rgba(0, 0, 0, 0);"></path><a xlink:href="http://tools.gpcr.org/visualise/protein/calrl_human" style="-webkit-tap-highlight-color: rgba(0, 0, 0, 0);"><text x="650" y="212" text-anchor="start" font-family="Verdana" font-size="12px" stroke="none" fill="#000000" style="-webkit-tap-highlight-color: rgba(0, 0, 0, 0); text-anchor: start; font-family: Verdana; font-size: 12px; font-weight: bold;" font-weight="bold" transform="matrix(0,-1,1,0,438,862)"><tspan style="-webkit-tap-highlight-color: rgba(0, 0, 0, 0);" dy="4.5">calcitonin receptor-like ...</tspan><title style="-webkit-tap-highlight-color: rgba(0, 0, 0, 0);">Calcitonin gene-related peptide type 1 receptor (Homo sapiens)</title></text></a><path fill="none" stroke="#000000" d="M520.1074,338.9742L505.8717,304.8869" stroke-width="2" id="undefined" class="path" style="-webkit-tap-highlight-color: rgba(0, 0, 0, 0);"></path><path fill="none" stroke="#c8c8c8" d="M505.8717,304.8869L481.9788,247.6757" stroke-dasharray="1,3" id="undefined" class="path2" stroke-width="2" style="-webkit-tap-highlight-color: rgba(0, 0, 0, 0);"></path><a xlink:href="http://tools.gpcr.org/visualise/protein/crfr1_human" style="-webkit-tap-highlight-color: rgba(0, 0, 0, 0);"><text x="481.208" y="245.8301" text-anchor="end" font-family="Verdana" font-size="12px" stroke="none" fill="#000000" style="-webkit-tap-highlight-color: rgba(0, 0, 0, 0); text-anchor: end; font-family: Verdana; font-size: 12px; font-weight: bold;" font-weight="bold" transform="matrix(0.3854,0.9228,-0.9228,0.3854,522.6077,-292.946)"><tspan style="-webkit-tap-highlight-color: rgba(0, 0, 0, 0);" dy="4.494162499999987">CRF1 receptor</tspan><title style="-webkit-tap-highlight-color: rgba(0, 0, 0, 0);">Corticotropin-releasing factor receptor 1 (Homo sapiens)</title></text></a><path fill="none" stroke="#000000" d="M410.2801,413.0538L377.6068,380.7586" stroke-width="2" id="undefined" class="path" style="-webkit-tap-highlight-color: rgba(0, 0, 0, 0);"></path><path fill="none" stroke="#c8c8c8" d="M377.6068,380.7586L339.9127,343.5006" stroke-dasharray="1,3" id="undefined" class="path2" stroke-width="2" style="-webkit-tap-highlight-color: rgba(0, 0, 0, 0);"></path><a xlink:href="http://tools.gpcr.org/visualise/protein/crfr2_human" style="-webkit-tap-highlight-color: rgba(0, 0, 0, 0);"><text x="338.4903" y="342.0947" text-anchor="end" font-family="Verdana" font-size="12px" stroke="none" fill="#000000" style="-webkit-tap-highlight-color: rgba(0, 0, 0, 0); text-anchor: end; font-family: Verdana; font-size: 12px; font-weight: bold;" font-weight="bold" transform="matrix(0.7112,0.703,-0.703,0.7112,338.2386,-139.1583)"><tspan style="-webkit-tap-highlight-color: rgba(0, 0, 0, 0);" dy="4.493137499999989">CRF2 receptor</tspan><title style="-webkit-tap-highlight-color: rgba(0, 0, 0, 0);">Corticotropin-releasing factor receptor 2 (Homo sapiens)</title></text></a><path fill="none" stroke="#000000" d="M520.1036,338.965L520.1074,338.9742A337.05949999999996,337.05949999999996,0,0,0,410.2801,413.0538L410.273,413.0468" stroke-width="2" id="undefined" class="path" style="-webkit-tap-highlight-color: rgba(0, 0, 0, 0);"></path><path fill="none" stroke="#000000" d="M560.1,516.7183L461.5182,370.5653" stroke-width="2" id="undefined" class="path" style="-webkit-tap-highlight-color: rgba(0, 0, 0, 0);"></path><path fill="none" stroke="#000000" d="M384.9275,542.9043L328.267,520.0121" stroke-width="2" id="undefined" class="path" style="-webkit-tap-highlight-color: rgba(0, 0, 0, 0);"></path><path fill="none" stroke="#c8c8c8" d="M328.267,520.0121L245.7476,486.6722" stroke-dasharray="1,3" id="undefined" class="path2" stroke-width="2" style="-webkit-tap-highlight-color: rgba(0, 0, 0, 0);"></path><a xlink:href="http://tools.gpcr.org/visualise/protein/pth1r_human" style="-webkit-tap-highlight-color: rgba(0, 0, 0, 0);"><text x="243.8932" y="485.923" text-anchor="end" font-family="Verdana" font-size="12px" stroke="none" fill="#000000" style="-webkit-tap-highlight-color: rgba(0, 0, 0, 0); text-anchor: end; font-family: Verdana; font-size: 12px; font-weight: bold;" font-weight="bold" transform="matrix(0.9272,0.3746,-0.3746,0.9272,199.7884,-55.9809)"><tspan style="-webkit-tap-highlight-color: rgba(0, 0, 0, 0);" dy="4.493312500000002">PTH1 receptor</tspan><title style="-webkit-tap-highlight-color: rgba(0, 0, 0, 0);">Parathyroid hormone/parathyroid hormone-related peptide receptor (Homo sapiens)</title></text></a><path fill="none" stroke="#000000" d="M364.1297,653.3271L255.0267,654.5968" stroke-width="2" id="undefined" class="path" style="-webkit-tap-highlight-color: rgba(0, 0, 0, 0);"></path><path fill="none" stroke="#c8c8c8" d="M255.0267,654.5968L214.0295,655.074" stroke-dasharray="1,3" id="undefined" class="path2" stroke-width="2" style="-webkit-tap-highlight-color: rgba(0, 0, 0, 0);"></path><a xlink:href="http://tools.gpcr.org/visualise/protein/pth2r_human" style="-webkit-tap-highlight-color: rgba(0, 0, 0, 0);"><text x="212.0297" y="655.0973" text-anchor="end" font-family="Verdana" font-size="12px" stroke="none" fill="#000000" style="-webkit-tap-highlight-color: rgba(0, 0, 0, 0); text-anchor: end; font-family: Verdana; font-size: 12px; font-weight: bold;" font-weight="bold" transform="matrix(0.9999,-0.0116,0.0116,0.9999,-7.6094,2.5119)"><tspan style="-webkit-tap-highlight-color: rgba(0, 0, 0, 0);" dy="4.495737500000018">PTH2 receptor</tspan><title style="-webkit-tap-highlight-color: rgba(0, 0, 0, 0);">Parathyroid hormone 2 receptor (Homo sapiens)</title></text></a><path fill="none" stroke="#000000" d="M384.9182,542.9005L384.9275,542.9043A285.8897,285.8897,0,0,0,364.1297,653.3271L364.1197,653.3272" stroke-width="2" id="undefined" class="path" style="-webkit-tap-highlight-color: rgba(0, 0, 0, 0);"></path><path fill="none" stroke="#000000" d="M427.0698,608.0119L369.0501,597.0841" stroke-width="2" id="undefined" class="path" style="-webkit-tap-highlight-color: rgba(0, 0, 0, 0);"></path><path fill="none" stroke="#000000" d="M353.188,778.0332L252.4129,821.5037" stroke-width="2" id="undefined" class="path" style="-webkit-tap-highlight-color: rgba(0, 0, 0, 0);"></path><path fill="none" stroke="#c8c8c8" d="M252.4129,821.5037L249.6583,822.6919" stroke-dasharray="1,3" id="undefined" class="path2" stroke-width="2" style="-webkit-tap-highlight-color: rgba(0, 0, 0, 0);"></path><a xlink:href="http://tools.gpcr.org/visualise/protein/glp1r_human" style="-webkit-tap-highlight-color: rgba(0, 0, 0, 0);"><text x="247.8218" y="823.4841" text-anchor="end" font-family="Verdana" font-size="12px" stroke="none" fill="#000000" style="-webkit-tap-highlight-color: rgba(0, 0, 0, 0); text-anchor: end; font-family: Verdana; font-size: 12px; font-weight: bold;" font-weight="bold" transform="matrix(0.9182,-0.3961,0.3961,0.9182,-305.8995,165.5065)"><tspan style="-webkit-tap-highlight-color: rgba(0, 0, 0, 0);" dy="4.507537500000012">GLP-1 receptor</tspan><title style="-webkit-tap-highlight-color: rgba(0, 0, 0, 0);">Glucagon-like peptide 1 receptor (Homo sapiens)</title></text></a><path fill="none" stroke="#000000" d="M413.4133,894.9944L354.7713,955.7204" stroke-width="2" id="undefined" class="path" style="-webkit-tap-highlight-color: rgba(0, 0, 0, 0);"></path><path fill="none" stroke="#c8c8c8" d="M354.7713,955.7204L347.13,963.6332" stroke-dasharray="1,3" id="undefined" class="path2" stroke-width="2" style="-webkit-tap-highlight-color: rgba(0, 0, 0, 0);"></path><a xlink:href="http://tools.gpcr.org/visualise/protein/gipr_human" style="-webkit-tap-highlight-color: rgba(0, 0, 0, 0);"><text x="345.7407" y="965.0719" text-anchor="end" font-family="Verdana" font-size="12px" stroke="none" fill="#000000" style="-webkit-tap-highlight-color: rgba(0, 0, 0, 0); text-anchor: end; font-family: Verdana; font-size: 12px; font-weight: bold;" font-weight="bold" transform="matrix(0.6947,-0.7193,0.7193,0.6947,-588.6471,543.3849)"><tspan style="-webkit-tap-highlight-color: rgba(0, 0, 0, 0);" dy="4.501587500000028">GIP receptor</tspan><title style="-webkit-tap-highlight-color: rgba(0, 0, 0, 0);">Gastric inhibitory polypeptide receptor (Homo sapiens)</title></text></a><path fill="none" stroke="#000000" d="M526.1002,967.2449L492.843,1052.3999" stroke-width="2" id="undefined" class="path" style="-webkit-tap-highlight-color: rgba(0, 0, 0, 0);"></path><path fill="none" stroke="#c8c8c8" d="M492.843,1052.3999L491.3878,1056.1258" stroke-dasharray="1,3" id="undefined" class="path2" stroke-width="2" style="-webkit-tap-highlight-color: rgba(0, 0, 0, 0);"></path><a xlink:href="http://tools.gpcr.org/visualise/protein/glr_human" style="-webkit-tap-highlight-color: rgba(0, 0, 0, 0);"><text x="490.6602" y="1057.9888" text-anchor="end" font-family="Verdana" font-size="12px" stroke="none" fill="#000000" style="-webkit-tap-highlight-color: rgba(0, 0, 0, 0); text-anchor: end; font-family: Verdana; font-size: 12px; font-weight: bold;" font-weight="bold" transform="matrix(0.3638,-0.9315,0.9315,0.3638,-673.3335,1130.1444)"><tspan style="-webkit-tap-highlight-color: rgba(0, 0, 0, 0);" dy="4.496612500000083">glucagon receptor</tspan><title style="-webkit-tap-highlight-color: rgba(0, 0, 0, 0);">Glucagon receptor (Homo sapiens)</title></text></a><path fill="none" stroke="#000000" d="M413.4064,895.0016L413.4133,894.9944A340.58109999999994,340.58109999999994,0,0,0,526.1002,967.2449L526.0966,967.2542" stroke-width="2" id="undefined" class="path" style="-webkit-tap-highlight-color: rgba(0, 0, 0, 0);"></path><path fill="none" stroke="#000000" d="M475.5275,922.1198L466.1725,936.7105" stroke-width="2" id="undefined" class="path" style="-webkit-tap-highlight-color: rgba(0, 0, 0, 0);"></path><path fill="none" stroke="#000000" d="M353.1788,778.0372L353.188,778.0332A323.24889999999994,323.24889999999994,0,0,0,475.5275,922.1198L475.5221,922.1282" stroke-width="2" id="undefined" class="path" style="-webkit-tap-highlight-color: rgba(0, 0, 0, 0);"></path><path fill="none" stroke="#000000" d="M415.3792,849.2096L403.591,859.2186" stroke-width="2" id="undefined" class="path" style="-webkit-tap-highlight-color: rgba(0, 0, 0, 0);"></path><path fill="none" stroke="#000000" d="M657.1633,957.7012L660.1473,1085.8819" stroke-width="2" id="undefined" class="path" style="-webkit-tap-highlight-color: rgba(0, 0, 0, 0);"></path><path fill="none" stroke="#c8c8c8" d="M660.1473,1085.8819L660.1473,1085.8819" stroke-dasharray="1,3" id="undefined" class="path2" stroke-width="2" style="-webkit-tap-highlight-color: rgba(0, 0, 0, 0);"></path><a xlink:href="http://tools.gpcr.org/visualise/protein/glp2r_human" style="-webkit-tap-highlight-color: rgba(0, 0, 0, 0);"><text x="660.1938" y="1087.8814" text-anchor="start" font-family="Verdana" font-size="12px" stroke="none" fill="#000000" style="-webkit-tap-highlight-color: rgba(0, 0, 0, 0); text-anchor: start; font-family: Verdana; font-size: 12px; font-weight: bold;" font-weight="bold" transform="matrix(0.0233,0.9997,-0.9997,0.0233,1732.4154,402.5475)"><tspan style="-webkit-tap-highlight-color: rgba(0, 0, 0, 0);" dy="4.498587499999985">GLP-2 receptor</tspan><title style="-webkit-tap-highlight-color: rgba(0, 0, 0, 0);">Glucagon-like peptide 2 receptor (Homo sapiens)</title></text></a><path fill="none" stroke="#000000" d="M415.3716,849.216L415.3792,849.2096A307.78459999999995,307.78459999999995,0,0,0,657.1633,957.7012L657.1635,957.7112" stroke-width="2" id="undefined" class="path" style="-webkit-tap-highlight-color: rgba(0, 0, 0, 0);"></path><path fill="none" stroke="#000000" d="M541.8861,890.9421L523.9967,930.8105" stroke-width="2" id="undefined" class="path" style="-webkit-tap-highlight-color: rgba(0, 0, 0, 0);"></path><path fill="none" stroke="#000000" d="M765.1995,908.7388L798.8674,984.3569" stroke-width="2" id="undefined" class="path" style="-webkit-tap-highlight-color: rgba(0, 0, 0, 0);"></path><path fill="none" stroke="#c8c8c8" d="M798.8674,984.3569L827.3393,1048.3049" stroke-dasharray="1,3" id="undefined" class="path2" stroke-width="2" style="-webkit-tap-highlight-color: rgba(0, 0, 0, 0);"></path><a xlink:href="http://tools.gpcr.org/visualise/protein/sctr_human" style="-webkit-tap-highlight-color: rgba(0, 0, 0, 0);"><text x="828.1527" y="1050.132" text-anchor="start" font-family="Verdana" font-size="12px" stroke="none" fill="#000000" style="-webkit-tap-highlight-color: rgba(0, 0, 0, 0); text-anchor: start; font-family: Verdana; font-size: 12px; font-weight: bold;" font-weight="bold" transform="matrix(0.4067,0.9135,-0.9135,0.4067,1450.6498,-133.5536)"><tspan style="-webkit-tap-highlight-color: rgba(0, 0, 0, 0);" dy="4.499187500000062">secretin receptor</tspan><title style="-webkit-tap-highlight-color: rgba(0, 0, 0, 0);">Secretin receptor (Homo sapiens)</title></text></a><path fill="none" stroke="#000000" d="M871.225,858.7126L941.6784,925.1812" stroke-width="2" id="undefined" class="path" style="-webkit-tap-highlight-color: rgba(0, 0, 0, 0);"></path><path fill="none" stroke="#c8c8c8" d="M941.6784,925.1812L967.1366,949.1995" stroke-dasharray="1,3" id="undefined" class="path2" stroke-width="2" style="-webkit-tap-highlight-color: rgba(0, 0, 0, 0);"></path><a xlink:href="http://tools.gpcr.org/visualise/protein/pacr_human" style="-webkit-tap-highlight-color: rgba(0, 0, 0, 0);"><text x="968.5914" y="950.572" text-anchor="start" font-family="Verdana" font-size="12px" stroke="none" fill="#000000" style="-webkit-tap-highlight-color: rgba(0, 0, 0, 0); text-anchor: start; font-family: Verdana; font-size: 12px; font-weight: bold;" font-weight="bold" transform="matrix(0.7274,0.6862,-0.6862,0.7274,916.3777,-405.5365)"><tspan style="-webkit-tap-highlight-color: rgba(0, 0, 0, 0);" dy="4.501687500000003">PAC1 receptor</tspan><title style="-webkit-tap-highlight-color: rgba(0, 0, 0, 0);">Pituitary adenylate cyclase-activating polypeptide type I receptor (Homo sapiens)</title></text></a><path fill="none" stroke="#000000" d="M934.5696,757.3387L1042.9737,798.2283" stroke-width="2" id="undefined" class="path" style="-webkit-tap-highlight-color: rgba(0, 0, 0, 0);"></path><path fill="none" stroke="#c8c8c8" d="M1042.9737,798.2283L1057.9442,803.8751" stroke-dasharray="1,3" id="undefined" class="path2" stroke-width="2" style="-webkit-tap-highlight-color: rgba(0, 0, 0, 0);"></path><a xlink:href="http://tools.gpcr.org/visualise/protein/vipr2_human" style="-webkit-tap-highlight-color: rgba(0, 0, 0, 0);"><text x="1059.8155" y="804.581" text-anchor="start" font-family="Verdana" font-size="12px" stroke="none" fill="#000000" style="-webkit-tap-highlight-color: rgba(0, 0, 0, 0); text-anchor: start; font-family: Verdana; font-size: 12px; font-weight: bold;" font-weight="bold" transform="matrix(0.9357,0.3529,-0.3529,0.9357,352.1537,-322.2616)"><tspan style="-webkit-tap-highlight-color: rgba(0, 0, 0, 0);" dy="4.495062500000017">VPAC2 receptor</tspan><title style="-webkit-tap-highlight-color: rgba(0, 0, 0, 0);">Vasoactive intestinal polypeptide receptor 2 (Homo sapiens)</title></text></a><path fill="none" stroke="#000000" d="M871.2323,858.7195L871.225,858.7126A304.1404999999999,304.1404999999999,0,0,0,934.5696,757.3387L934.579,757.3422" stroke-width="2" id="undefined" class="path" style="-webkit-tap-highlight-color: rgba(0, 0, 0, 0);"></path><path fill="none" stroke="#000000" d="M901.5125,807.16L907.9269,811.1681" stroke-width="2" id="undefined" class="path" style="-webkit-tap-highlight-color: rgba(0, 0, 0, 0);"></path><path fill="none" stroke="#000000" d="M946.3961,639.6475L1028.769,636.7704" stroke-width="2" id="undefined" class="path" style="-webkit-tap-highlight-color: rgba(0, 0, 0, 0);"></path><path fill="none" stroke="#c8c8c8" d="M1028.769,636.7704L1085.7343,634.7808" stroke-dasharray="1,3" id="undefined" class="path2" stroke-width="2" style="-webkit-tap-highlight-color: rgba(0, 0, 0, 0);"></path><a xlink:href="http://tools.gpcr.org/visualise/protein/vipr1_human" style="-webkit-tap-highlight-color: rgba(0, 0, 0, 0);"><text x="1087.7331" y="634.711" text-anchor="start" font-family="Verdana" font-size="12px" stroke="none" fill="#000000" style="-webkit-tap-highlight-color: rgba(0, 0, 0, 0); text-anchor: start; font-family: Verdana; font-size: 12px; font-weight: bold;" font-weight="bold" transform="matrix(0.9994,-0.0349,0.0349,0.9994,-21.4926,38.3557)"><tspan style="-webkit-tap-highlight-color: rgba(0, 0, 0, 0);" dy="4.500062500000013">VPAC1 receptor</tspan><title style="-webkit-tap-highlight-color: rgba(0, 0, 0, 0);">Vasoactive intestinal polypeptide receptor 1 (Homo sapiens)</title></text></a><path fill="none" stroke="#000000" d="M901.521,807.1653L901.5125,807.16A296.57679999999993,296.57679999999993,0,0,0,946.3961,639.6475L946.4061,639.6472" stroke-width="2" id="undefined" class="path" style="-webkit-tap-highlight-color: rgba(0, 0, 0, 0);"></path><path fill="none" stroke="#000000" d="M923.5753,723.3022L936.4717,726.7577" stroke-width="2" id="undefined" class="path" style="-webkit-tap-highlight-color: rgba(0, 0, 0, 0);"></path><path fill="none" stroke="#000000" d="M765.2036,908.7479L765.1995,908.7388A283.22549999999995,283.22549999999995,0,0,0,923.5753,723.3022L923.585,723.3048" stroke-width="2" id="undefined" class="path" style="-webkit-tap-highlight-color: rgba(0, 0, 0, 0);"></path><path fill="none" stroke="#000000" d="M855.9603,825.9042L865.3676,833.9387" stroke-width="2" id="undefined" class="path" style="-webkit-tap-highlight-color: rgba(0, 0, 0, 0);"></path><path fill="none" stroke="#000000" d="M896.1381,536.9603L1038.9441,471.3762" stroke-width="2" id="undefined" class="path" style="-webkit-tap-highlight-color: rgba(0, 0, 0, 0);"></path><path fill="none" stroke="#c8c8c8" d="M1038.9441,471.3762L1046.2141,468.0374" stroke-dasharray="1,3" id="undefined" class="path2" stroke-width="2" style="-webkit-tap-highlight-color: rgba(0, 0, 0, 0);"></path><a xlink:href="http://tools.gpcr.org/visualise/protein/ghrhr_human" style="-webkit-tap-highlight-color: rgba(0, 0, 0, 0);"><text x="1048.0316" y="467.2027" text-anchor="start" font-family="Verdana" font-size="12px" stroke="none" fill="#000000" style="-webkit-tap-highlight-color: rgba(0, 0, 0, 0); text-anchor: start; font-family: Verdana; font-size: 12px; font-weight: bold;" font-weight="bold" transform="matrix(0.9087,-0.4173,0.4173,0.9087,-99.3499,480.0243)"><tspan style="-webkit-tap-highlight-color: rgba(0, 0, 0, 0);" dy="4.507387499999993">GHRH receptor</tspan><title style="-webkit-tap-highlight-color: rgba(0, 0, 0, 0);">Growth hormone-releasing hormone receptor (Homo sapiens)</title></text></a><path fill="none" stroke="#000000" d="M855.9679,825.9107L855.9603,825.9042A270.85409999999996,270.85409999999996,0,0,0,896.1381,536.9603L896.1472,536.9561" stroke-width="2" id="undefined" class="path" style="-webkit-tap-highlight-color: rgba(0, 0, 0, 0);"></path><path fill="none" stroke="#000000" d="M911.57,686.3712L918.273,687.3033" stroke-width="2" id="undefined" class="path" style="-webkit-tap-highlight-color: rgba(0, 0, 0, 0);"></path><path fill="none" stroke="#000000" d="M541.882,890.9513L541.8861,890.9421A264.0866,264.0866,0,0,0,911.57,686.3712L911.5799,686.3726" stroke-width="2" id="undefined" class="path" style="-webkit-tap-highlight-color: rgba(0, 0, 0, 0);"></path><path fill="none" stroke="#000000" d="M759.836,848.4866L777.8652,881.0676" stroke-width="2" id="undefined" class="path" style="-webkit-tap-highlight-color: rgba(0, 0, 0, 0);"></path><path fill="none" stroke="#000000" d="M427.06,608.01L427.0698,608.0119A226.8499,226.8499,0,0,0,759.836,848.4866L759.8408,848.4954" stroke-width="2" id="undefined" class="path" style="-webkit-tap-highlight-color: rgba(0, 0, 0, 0);"></path><path fill="none" stroke="#000000" d="M555.8355,780.3038L517.1294,833.8648" stroke-width="2" id="undefined" class="path" style="-webkit-tap-highlight-color: rgba(0, 0, 0, 0);"></path><path fill="none" stroke="#000000" d="M560.0944,516.71L560.1,516.7183A160.767,160.767,0,0,0,555.8355,780.3038L555.8296,780.3119" stroke-width="2" id="undefined" class="path" style="-webkit-tap-highlight-color: rgba(0, 0, 0, 0);"></path><path fill="none" stroke="#000000" d="M650,650L489.254,647.3993" stroke-width="2" id="undefined" class="path" style="-webkit-tap-highlight-color: rgba(0, 0, 0, 0);"></path><path fill="none" stroke="#000000" d="M650,650L674.3981,623.5287" stroke-width="2" id="undefined" class="path" style="-webkit-tap-highlight-color: rgba(0, 0, 0, 0);"></path><path fill="none" stroke="#c8c8c8" d="M674.3981,623.5287L945.4885,329.4029" stroke-dasharray="1,3" id="undefined" class="path2" stroke-width="2" style="-webkit-tap-highlight-color: rgba(0, 0, 0, 0);"></path><a xlink:href="http://tools.gpcr.org/visualise/protein/calcr_human" style="-webkit-tap-highlight-color: rgba(0, 0, 0, 0);"><text x="946.844" y="327.9322" text-anchor="start" font-family="Verdana" font-size="12px" stroke="none" fill="#000000" style="-webkit-tap-highlight-color: rgba(0, 0, 0, 0); text-anchor: start; font-family: Verdana; font-size: 12px; font-weight: bold;" font-weight="bold" transform="matrix(0.6777,-0.7353,0.7353,0.6777,64.0099,801.9122)"><tspan style="-webkit-tap-highlight-color: rgba(0, 0, 0, 0);" dy="4.502512500000023">CT receptor</tspan><title style="-webkit-tap-highlight-color: rgba(0, 0, 0, 0);">Calcitonin receptor (Homo sapiens)</title></text></a><g id="leg_group" class="legend" transform="translate (150 1300)"><g class="chart0" style="visibility: hidden;"><text x="0" y="30" font-family="Verdana" font-size="20" font-weight="bold">Class (Outer ring)</text><rect x="0" y="70" width="300" height="30" stroke="black" fill="transparent" stroke-width="5"></rect><rect x="10" y="80" height="10" width="30" class="chart" id="B" style="stroke:#000000; fill: #0a0a0a"></rect><text x="45" y="90" style="font-family:Verdana; font-size:12;">Class B</text></g><g class="chart1" style="visibility: hidden;"><text x="320" y="30" font-family="Verdana" font-size="20" font-weight="bold">Ligand type (Middle ring)</text><rect x="320" y="70" width="300" height="30" stroke="black" fill="transparent" stroke-width="5"></rect><rect x="330" y="80" height="10" width="30" class="chart" id="B_A" style="stroke:#000000; fill: #c86464"></rect><text x="365" y="90" style="font-family:Verdana; font-size:12;">Peptide receptors</text></g><g class="chart2" style="visibility: hidden;"><rect x="640" y="70" width="345" height="110" stroke="black" fill="transparent" stroke-width="5"></rect><text x="640" y="30" font-family="Verdana" font-size="20" font-weight="bold">Receptor type (Inner ring)</text><rect x="650" y="80" height="10" width="30" class="chart" id="B_A_A" style="stroke:#000000; fill: #aa64c8"></rect><text x="685" y="90" style="font-family:Verdana; font-size:12;">Calcitonin receptors</text><rect x="650" y="100" height="10" width="30" class="chart" id="B_A_B" style="stroke:#000000; fill: #c864b2"></rect><text x="685" y="110" style="font-family:Verdana; font-size:12;">Corticotropin-releasing factor receptors</text><rect x="650" y="120" height="10" width="30" class="chart" id="B_A_C" style="stroke:#000000; fill: #c86481"></rect><text x="685" y="130" style="font-family:Verdana; font-size:12;">Glucagon receptor family</text><rect x="650" y="140" height="10" width="30" class="chart" id="B_A_D" style="stroke:#000000; fill: #c87c64"></rect><text x="685" y="150" style="font-family:Verdana; font-size:12;">Parathyroid hormone receptors</text><rect x="650" y="160" height="10" width="30" class="chart" id="B_A_E" style="stroke:#000000; fill: #c8af64"></rect><text x="685" y="170" style="font-family:Verdana; font-size:12;">VIP and PACAP receptors</text></g></g><circle cx="377.6068" cy="380.7586" r="5" fill="none" stroke="#ff0000" style="-webkit-tap-highlight-color: rgba(0, 0, 0, 0); display: none;"></circle><circle cx="492.843" cy="1052.3999" r="5" fill="none" stroke="#ff0000" style="-webkit-tap-highlight-color: rgba(0, 0, 0, 0); display: none;"></circle></svg>