<?xml version="1.0" standalone="no"?><!DOCTYPE svg PUBLIC "-//W3C//DTD SVG 1.1//EN" "http://www.w3.org/Graphics/SVG/1.1/DTD/svg11.dtd"><svg viewBox="0 0 1240 1320" xmlns:xlink="http://www.w3.org/1999/xlink" xmlns="http://www.w3.org/2000/svg" class="svgtree" id="svgtree" style="overflow: hidden; position: relative; left: -0.616638px;" width="1240" version="1.1" height="1320"><defs><style type="text/css"><![CDATA[
a { background-color: transparent; }
@font-face {
  font-family: "Glyphicons Halflings";
  src: url("../fonts/glyphicons-halflings-regular.eot?#iefix") format("embedded-opentype"), url("../fonts/glyphicons-halflings-regular.woff") format("woff"), url("../fonts/glyphicons-halflings-regular.ttf") format("truetype"), url("../fonts/glyphicons-halflings-regular.svg#glyphicons_halflingsregular") format("svg");
}
* { box-sizing: border-box; }
a { color: rgb(51, 122, 183); text-decoration: none; }

]]></style></defs><path stroke-width="2" class="path" id="undefined" d="M675.7999,208.7685A415,415,0,1,0,813.0842,252.6534L872.2014,140.1817A542.0619316544727,542.0619316544727,0,1,1,692.8843,82.8603Z" stroke="#dddddd" fill="#eeeeee" style=""></path><path class="bgfield" id="D_A_A_A" d="M903.996,317.3925A415,415,0,0,0,813.0906,252.6568L872.2098,140.1861A542.0619316544727,542.0619316544727,0,0,1,990.9479,224.7422Z" stroke="#dddddd" fill="#eeeeee" style=""></path><path class="bgfield" id="D_B_B_C" d="M974.3641,404.0113A415,415,0,0,0,903.996,317.3925L990.9479,224.7422A542.0619316544727,542.0619316544727,0,0,1,1082.8609,337.8814Z" stroke="#dddddd" fill="#eeeeee" style=""></path><path class="bgfield" id="D_B_B_E" d="M1019.1063,506.2495A415,415,0,0,0,974.3641,404.0113L1082.8609,337.8814A542.0619316544727,542.0619316544727,0,0,1,1141.302,471.4221Z" stroke="#dddddd" fill="#eeeeee" style="fill: rgb(109, 205, 225);"></path><path class="bgfield" id="D_B_B_A" d="M1034.987,616.7135A415,415,0,0,0,1019.1063,506.2495L1141.302,471.4221A542.0619316544727,542.0619316544727,0,0,1,1162.0449,615.7072Z" stroke="#dddddd" fill="#eeeeee" style="fill: rgb(109, 205, 225);"></path><path class="bgfield" id="D_B_B_B" d="M1020.8578,727.4152A415,415,0,0,0,1034.987,616.7135L1162.0449,615.7072A542.0619316544727,542.0619316544727,0,0,1,1143.5898,760.3028Z" stroke="#dddddd" fill="#eeeeee" style=""></path><path class="bgfield" id="D_B_B_F" d="M977.7405,830.3491A415,415,0,0,0,1020.8578,727.4152L1143.5898,760.3028A542.0619316544727,542.0619316544727,0,0,1,1087.2711,894.7524Z" stroke="#dddddd" fill="#eeeeee" style=""></path><path class="bgfield" id="D_B_B_H" d="M908.7531,918.0716A415,415,0,0,0,977.7405,830.3491L1087.2711,894.7524A542.0619316544727,542.0619316544727,0,0,1,997.1616,1009.3331Z" stroke="#dddddd" fill="#eeeeee" style=""></path><path class="bgfield" id="D_B_B_G" d="M818.8844,984.2389A415,415,0,0,0,908.7531,918.0716L997.1616,1009.3331A542.0619316544727,542.0619316544727,0,0,1,879.7775,1095.7592Z" stroke="#dddddd" fill="#eeeeee" style=""></path><path class="bgfield" id="D_B_B_D" d="M714.6334,1024.0662A415,415,0,0,0,818.8844,984.2389L879.7775,1095.7592A542.0619316544727,542.0619316544727,0,0,1,743.6076,1147.7805Z" stroke="#dddddd" fill="#eeeeee" style=""></path><path class="bgfield" id="D_D_A_C" d="M603.5389,1034.6734A415,415,0,0,0,714.6334,1024.0662L743.6076,1147.7805A542.0619316544727,542.0619316544727,0,0,1,598.499,1161.6353Z" stroke="#dddddd" fill="#eeeeee" style=""></path><path class="bgfield" id="D_D_A_B" d="M493.6348,1015.2934A415,415,0,0,0,603.5389,1034.6734L598.499,1161.6353A542.0619316544727,542.0619316544727,0,0,1,454.9452,1136.3216Z" stroke="#dddddd" fill="#eeeeee" style=""></path><path class="bgfield" id="D_D_A_A" d="M392.8689,967.3276A415,415,0,0,0,493.6348,1015.2934L454.9452,1136.3216A542.0619316544727,542.0619316544727,0,0,1,323.3274,1073.67Z" stroke="#dddddd" fill="#eeeeee" style=""></path><path class="bgfield" id="D_B_A_A" d="M308.5279,894.2447A415,415,0,0,0,392.8689,967.3276L323.3274,1073.67A542.0619316544727,542.0619316544727,0,0,1,213.1635,978.2111Z" stroke="#dddddd" fill="#eeeeee" style=""></path><path class="bgfield" id="D_B_A_B" d="M246.7112,801.3298A415,415,0,0,0,308.5279,894.2447L213.1635,978.2111A542.0619316544727,542.0619316544727,0,0,1,132.4201,856.8481Z" stroke="#dddddd" fill="#eeeeee" style=""></path><path class="bgfield" id="D_D_A_D" d="M211.889,695.3019A415,415,0,0,0,246.7112,801.3298L132.4201,856.8481A542.0619316544727,542.0619316544727,0,0,1,86.9362,718.3573Z" stroke="#dddddd" fill="#eeeeee" style=""></path><path class="bgfield" id="D_D_A_G" d="M206.5794,583.8286A415,415,0,0,0,211.889,695.3019L86.9362,718.3573A542.0619316544727,542.0619316544727,0,0,1,80.001,572.7538Z" stroke="#dddddd" fill="#eeeeee" style=""></path><path class="bgfield" id="D_D_A_F" d="M231.1664,474.971A415,415,0,0,0,206.5794,583.8286L80.001,572.7538A542.0619316544727,542.0619316544727,0,0,1,112.1159,430.567Z" stroke="#dddddd" fill="#eeeeee" style=""></path><path class="bgfield" id="D_D_A_E" d="M283.872,376.6012A415,415,0,0,0,231.1664,474.971L112.1159,430.567A542.0619316544727,542.0619316544727,0,0,1,180.9586,302.079Z" stroke="#dddddd" fill="#eeeeee" style=""></path><path class="bgfield" id="D_C_A_B" d="M360.8848,295.8329A415,415,0,0,0,283.872,376.6012L180.9586,302.079A542.0619316544727,542.0619316544727,0,0,1,281.5507,196.5815Z" stroke="#dddddd" fill="#eeeeee" style=""></path><path class="bgfield" id="D_A_A_B" d="M456.6356,238.5068A415,415,0,0,0,360.8848,295.8329L281.5507,196.5815A542.0619316544727,542.0619316544727,0,0,1,406.6178,121.7037Z" stroke="#dddddd" fill="#eeeeee" style=""></path><path class="bgfield" id="D_C_A_A" d="M564.2001,208.7685A415,415,0,0,0,456.6356,238.5068L406.6178,121.7037A542.0619316544727,542.0619316544727,0,0,1,547.1157,82.8603Z" stroke="#dddddd" fill="#eeeeee" style=""></path><path class="bgfield" id="D_C_A_C" d="M675.7999,208.7685A415,415,0,0,0,564.2001,208.7685L547.1157,82.8603A542.0619316544727,542.0619316544727,0,0,1,692.8843,82.8603Z" stroke="#dddddd" fill="#eeeeee" style=""></path><desc>Created with Raphaël 2.1.4</desc><defs></defs><path class="path" id="undefined" stroke-width="2" d="M620,581.54L620,421" stroke="#000000" fill="none" style=""></path><path stroke-width="2" class="path2" id="undefined" stroke-dasharray="1,3" d="M620,421L620,205" stroke="#c8c8c8" fill="none" style=""></path><a xlink:href="http://tools.gpcr.org/visualise/protein/ts1r3_human"><text transform="matrix(0,-1,1,0,417,823)" font-weight="bold" fill="#000000" stroke="none" font-size="12px" font-family="Verdana" text-anchor="start" y="203" x="620" style="text-anchor: start; font-family: Verdana; font-size: 12px; font-weight: bold;"><tspan dy="4.375">TAS1R3</tspan><title>Taste receptor type 1 member 3 (Homo sapiens)</title></text></a><path class="path" id="undefined" stroke-width="2" d="M609.7514,582.9306L574.6996,456.1468" stroke="#000000" fill="none" style=""></path><path stroke-width="2" class="path2" id="undefined" stroke-dasharray="1,3" d="M574.6996,456.1468L509.4137,220.0054" stroke="#c8c8c8" fill="none" style=""></path><a xlink:href="http://tools.gpcr.org/visualise/protein/ts1r1_human"><text transform="matrix(0.2665,0.9638,-0.9638,0.2665,583.4702,-330.5149)" font-weight="bold" fill="#000000" stroke="none" font-size="12px" font-family="Verdana" text-anchor="end" y="218.0777" x="508.8807" style="text-anchor: end; font-family: Verdana; font-size: 12px; font-weight: bold;"><tspan dy="4.375002246093743">TAS1R1</tspan><title>Taste receptor type 1 member 1 (Homo sapiens)</title></text></a><path class="path" id="undefined" stroke-width="2" d="M620,581.53L620,581.54A38.46,38.46,0,0,0,609.7514,582.9306L609.7488,582.921" stroke="#000000" fill="none" style=""></path><path class="path" id="undefined" stroke-width="2" d="M618.3523,607.857L614.8287,581.8892" stroke="#000000" fill="none" style=""></path><path class="path" id="undefined" stroke-width="2" d="M613.7053,609.486L541.9212,489.5864" stroke="#000000" fill="none" style=""></path><path stroke-width="2" class="path2" id="undefined" stroke-dasharray="1,3" d="M541.9212,489.5864L406.8244,263.9365" stroke="#c8c8c8" fill="none" style=""></path><a xlink:href="http://tools.gpcr.org/visualise/protein/gpc6a_human"><text transform="matrix(0.5137,0.858,-0.858,0.5137,422.33,-220.6433)" font-weight="bold" fill="#000000" stroke="none" font-size="12px" font-family="Verdana" text-anchor="end" y="262.2206" x="405.7971" style="text-anchor: end; font-family: Verdana; font-size: 12px; font-weight: bold;"><tspan dy="4.374988427734365">GPRC6 receptor</tspan><title>G-protein coupled receptor family C group 6 member A (Homo sapiens)</title></text></a><path class="path" id="undefined" stroke-width="2" d="M618.351,607.8471L618.3523,607.857A12.2543,12.2543,0,0,0,613.7053,609.486L613.7001,609.4774" stroke="#000000" fill="none" style=""></path><path class="path" id="undefined" stroke-width="2" d="M620,620L615.9461,608.4357" stroke="#000000" fill="none" style=""></path><path class="path" id="undefined" stroke-width="2" d="M609.84,610.3124L473.0823,479.9136" stroke="#000000" fill="none" style=""></path><path stroke-width="2" class="path2" id="undefined" stroke-dasharray="1,3" d="M473.0823,479.9136L319.6511,333.6165" stroke="#c8c8c8" fill="none" style=""></path><a xlink:href="http://tools.gpcr.org/visualise/protein/ts1r2_human"><text transform="matrix(0.7237,0.6901,-0.6901,0.7237,317.1792,-127.8)" font-weight="bold" fill="#000000" stroke="none" font-size="12px" font-family="Verdana" text-anchor="end" y="332.2363" x="318.2036" style="text-anchor: end; font-family: Verdana; font-size: 12px; font-weight: bold;"><tspan dy="4.375002392578153">TAS1R2</tspan><title>Taste receptor type 1 member 2 (Homo sapiens)</title></text></a><path class="path" id="undefined" stroke-width="2" d="M552.5747,583.8742L497.4782,554.3539" stroke="#000000" fill="none" style=""></path><path stroke-width="2" class="path2" id="undefined" stroke-dasharray="1,3" d="M497.4782,554.3539L254.1975,424.0063" stroke="#c8c8c8" fill="none" style=""></path><a xlink:href="http://tools.gpcr.org/visualise/protein/gpc5b_human"><text transform="matrix(0.8815,0.4723,-0.4723,0.8815,229.7267,-69.0651)" font-weight="bold" fill="#000000" stroke="none" font-size="12px" font-family="Verdana" text-anchor="end" y="423.0618" x="252.4346" style="text-anchor: end; font-family: Verdana; font-size: 12px; font-weight: bold;"><tspan dy="4.37500190429688">GPRC5B</tspan><title>G-protein coupled receptor family C group 5 member B (Homo sapiens)</title></text></a><path class="path" id="undefined" stroke-width="2" d="M535.1478,600.8349L458.0788,583.4278" stroke="#000000" fill="none" style=""></path><path stroke-width="2" class="path2" id="undefined" stroke-dasharray="1,3" d="M458.0788,583.4278L215.197,528.5695" stroke="#c8c8c8" fill="none" style=""></path><a xlink:href="http://tools.gpcr.org/visualise/protein/gpc5c_human"><text transform="matrix(0.9754,0.2203,-0.2203,0.9754,121.5941,-34.0045)" font-weight="bold" fill="#000000" stroke="none" font-size="12px" font-family="Verdana" text-anchor="end" y="528.1289" x="213.2461" style="text-anchor: end; font-family: Verdana; font-size: 12px; font-weight: bold;"><tspan dy="4.374993750000044">GPRC5C</tspan><title>G-protein coupled receptor family C group 5 member C (Homo sapiens)</title></text></a><path class="path" id="undefined" stroke-width="2" d="M516.6087,624.9246L471.1687,627.089" stroke="#000000" fill="none" style=""></path><path stroke-width="2" class="path2" id="undefined" stroke-dasharray="1,3" d="M471.1687,627.089L205.47,639.7445" stroke="#c8c8c8" fill="none" style=""></path><a xlink:href="http://tools.gpcr.org/visualise/protein/gpc5d_human"><text transform="matrix(0.9989,-0.0476,0.0476,0.9989,-30.2113,10.4052)" font-weight="bold" fill="#000000" stroke="none" font-size="12px" font-family="Verdana" text-anchor="end" y="639.8397" x="203.4722" style="text-anchor: end; font-family: Verdana; font-size: 12px; font-weight: bold;"><tspan dy="4.3749783203124935">GPRC5D</tspan><title>G-protein coupled receptor family C group 5 member D (Homo sapiens)</title></text></a><path class="path" id="undefined" stroke-width="2" d="M521.6594,652.2976L451.8371,675.229" stroke="#000000" fill="none" style=""></path><path stroke-width="2" class="path2" id="undefined" stroke-dasharray="1,3" d="M451.8371,675.229L225.7198,749.4917" stroke="#c8c8c8" fill="none" style=""></path><a xlink:href="http://tools.gpcr.org/visualise/protein/rai3_human"><text transform="matrix(0.9501,-0.312,0.312,0.9501,-222.8826,107.2892)" font-weight="bold" fill="#000000" stroke="none" font-size="12px" font-family="Verdana" text-anchor="end" y="750.1157" x="223.8196" style="text-anchor: end; font-family: Verdana; font-size: 12px; font-weight: bold;"><tspan dy="4.374977343749947">GPRC5A</tspan><title>Retinoic acid-induced protein 3 (Homo sapiens)</title></text></a><path class="path" id="undefined" stroke-width="2" d="M516.5987,624.9251L516.6087,624.9246A103.50850000000001,103.50850000000001,0,0,0,521.6594,652.2976L521.6499,652.3007" stroke="#000000" fill="none" style=""></path><path class="path" id="undefined" stroke-width="2" d="M534.4544,635.7844L518.2097,638.7817" stroke="#000000" fill="none" style=""></path><path class="path" id="undefined" stroke-width="2" d="M535.1381,600.8327L535.1478,600.8349A86.98960000000001,86.98960000000001,0,0,0,534.4544,635.7844L534.4446,635.7862" stroke="#000000" fill="none" style=""></path><path class="path" id="undefined" stroke-width="2" d="M543.5217,618.4827L533.0275,618.2745" stroke="#000000" fill="none" style=""></path><path class="path" id="undefined" stroke-width="2" d="M552.5659,583.8694L552.5747,583.8742A76.49340000000001,76.49340000000001,0,0,0,543.5217,618.4827L543.5117,618.4825" stroke="#000000" fill="none" style=""></path><path class="path" id="undefined" stroke-width="2" d="M570.9451,607.1679L545.9966,600.6418" stroke="#000000" fill="none" style=""></path><path class="path" id="undefined" stroke-width="2" d="M456.5704,728.7304L346.0834,802.238" stroke="#000000" fill="none" style=""></path><path stroke-width="2" class="path2" id="undefined" stroke-dasharray="1,3" d="M346.0834,802.238L274.4821,849.8746" stroke="#c8c8c8" fill="none" style=""></path><a xlink:href="http://tools.gpcr.org/visualise/protein/gabr2_human"><text transform="matrix(0.8326,-0.5539,0.5539,0.8326,-425.695,293.5944)" font-weight="bold" fill="#000000" stroke="none" font-size="12px" font-family="Verdana" text-anchor="end" y="850.9825" x="272.8169" style="text-anchor: end; font-family: Verdana; font-size: 12px; font-weight: bold;"><tspan dy="4.375017089843709">GABAB2</tspan><title>Gamma-aminobutyric acid type B receptor subunit 2 (Homo sapiens)</title></text></a><path class="path" id="undefined" stroke-width="2" d="M491.4534,768.3486L380.319,896.6026" stroke="#000000" fill="none" style=""></path><path stroke-width="2" class="path2" id="undefined" stroke-dasharray="1,3" d="M380.319,896.6026L348.2306,933.6341" stroke="#c8c8c8" fill="none" style=""></path><a xlink:href="http://tools.gpcr.org/visualise/protein/gabr1_human"><text transform="matrix(0.6549,-0.7557,0.7557,0.6549,-586.9974,584.934)" font-weight="bold" fill="#000000" stroke="none" font-size="12px" font-family="Verdana" text-anchor="end" y="935.1456" x="346.9208" style="text-anchor: end; font-family: Verdana; font-size: 12px; font-weight: bold;"><tspan dy="4.374970117187445">GABAB1</tspan><title>Gamma-aminobutyric acid type B receptor subunit 1 (Homo sapiens)</title></text></a><path class="path" id="undefined" stroke-width="2" d="M456.5621,728.736L456.5704,728.7304A196.2945,196.2945,0,0,0,491.4534,768.3486L491.4468,768.3561" stroke="#000000" fill="none" style=""></path><path class="path" id="undefined" stroke-width="2" d="M476.1231,746.6808L472.6742,749.7175" stroke="#000000" fill="none" style=""></path><path class="path" id="undefined" stroke-width="2" d="M537.6073,793.0896L501.3746,869.2068" stroke="#000000" fill="none" style=""></path><path stroke-width="2" class="path2" id="undefined" stroke-dasharray="1,3" d="M501.3746,869.2068L441.6321,994.7131" stroke="#c8c8c8" fill="none" style=""></path><a xlink:href="http://tools.gpcr.org/visualise/protein/gp156_human"><text transform="matrix(0.4298,-0.9029,0.9029,0.4298,-648.4524,966.1967)" font-weight="bold" fill="#000000" stroke="none" font-size="12px" font-family="Verdana" text-anchor="end" y="996.5189" x="440.7725" style="text-anchor: end; font-family: Verdana; font-size: 12px; font-weight: bold;"><tspan dy="4.374979101562531">GPR156</tspan><title>Probable G-protein coupled receptor 156 (Homo sapiens)</title></text></a><path class="path" id="undefined" stroke-width="2" d="M476.1156,746.6874L476.1231,746.6808A191.6992,191.6992,0,0,0,537.6073,793.0896L537.603,793.0987" stroke="#000000" fill="none" style=""></path><path class="path" id="undefined" stroke-width="2" d="M558.6791,701.2404L504.5102,773.0055" stroke="#000000" fill="none" style=""></path><path class="path" id="undefined" stroke-width="2" d="M569.3836,907.0454L553.8368,995.2112" stroke="#000000" fill="none" style=""></path><path stroke-width="2" class="path2" id="undefined" stroke-dasharray="1,3" d="M553.8368,995.2112L547.9324,1028.6946" stroke="#c8c8c8" fill="none" style=""></path><a xlink:href="http://tools.gpcr.org/visualise/protein/gp158_human"><text transform="matrix(0.1737,-0.9848,0.9848,0.1737,-562.5113,1390.9476)" font-weight="bold" fill="#000000" stroke="none" font-size="12px" font-family="Verdana" text-anchor="end" y="1030.6642" x="547.5851" style="text-anchor: end; font-family: Verdana; font-size: 12px; font-weight: bold;"><tspan dy="4.375015429687437">GPR158</tspan><title>Probable G-protein coupled receptor 158 (Homo sapiens)</title></text></a><path class="path" id="undefined" stroke-width="2" d="M647.7036,910.1544L659.4443,1033.1212" stroke="#000000" fill="none" style=""></path><path stroke-width="2" class="path2" id="undefined" stroke-dasharray="1,3" d="M659.4443,1033.1212L659.4443,1033.1212" stroke="#c8c8c8" fill="none" style=""></path><a xlink:href="http://tools.gpcr.org/visualise/protein/gp179_human"><text transform="matrix(0.095,0.9955,-0.9955,0.095,1627.3645,280.0802)" font-weight="bold" fill="#000000" stroke="none" font-size="12px" font-family="Verdana" text-anchor="start" y="1035.1122" x="659.6344" style="text-anchor: start; font-family: Verdana; font-size: 12px; font-weight: bold;"><tspan dy="4.37501738281253">GPR179</tspan><title>Probable G-protein coupled receptor 179 (Homo sapiens)</title></text></a><path class="path" id="undefined" stroke-width="2" d="M569.3818,907.0553L569.3836,907.0454A291.474,291.474,0,0,0,647.7036,910.1544L647.7046,910.1644" stroke="#000000" fill="none" style=""></path><path class="path" id="undefined" stroke-width="2" d="M615.9627,721.7052L608.4389,911.2446" stroke="#000000" fill="none" style=""></path><path class="path" id="undefined" stroke-width="2" d="M558.6731,701.2483L558.6791,701.2404A101.78529999999999,101.78529999999999,0,0,0,615.9627,721.7052L615.9623,721.7152" stroke="#000000" fill="none" style=""></path><path class="path" id="undefined" stroke-width="2" d="M596.2388,686.5104L585.7564,715.8521" stroke="#000000" fill="none" style=""></path><path class="path" id="undefined" stroke-width="2" d="M693.6497,812.7837L708.8623,852.6037" stroke="#000000" fill="none" style=""></path><path stroke-width="2" class="path2" id="undefined" stroke-dasharray="1,3" d="M708.8623,852.6037L768.1038,1007.6729" stroke="#c8c8c8" fill="none" style=""></path><a xlink:href="http://tools.gpcr.org/visualise/protein/grm4_human"><text transform="matrix(0.3569,0.9342,-0.9342,0.3569,1437.509,-68.9325)" font-weight="bold" fill="#000000" stroke="none" font-size="12px" font-family="Verdana" text-anchor="start" y="1009.5412" x="768.8175" style="text-anchor: start; font-family: Verdana; font-size: 12px; font-weight: bold;"><tspan dy="4.3750012695312535">mGlu4 receptor</tspan><title>Metabotropic glutamate receptor 4 (Homo sapiens)</title></text></a><path class="path" id="undefined" stroke-width="2" d="M742.3583,786.1874L768.2247,821.3192" stroke="#000000" fill="none" style=""></path><path stroke-width="2" class="path2" id="undefined" stroke-dasharray="1,3" d="M768.2247,821.3192L866.0531,954.1899" stroke="#c8c8c8" fill="none" style=""></path><a xlink:href="http://tools.gpcr.org/visualise/protein/grm7_human"><text transform="matrix(0.5929,0.8053,-0.8053,0.5929,1122.7378,-309.2601)" font-weight="bold" fill="#000000" stroke="none" font-size="12px" font-family="Verdana" text-anchor="start" y="955.8004" x="867.2389" style="text-anchor: start; font-family: Verdana; font-size: 12px; font-weight: bold;"><tspan dy="4.374984960937468">mGlu7 receptor</tspan><title>Metabotropic glutamate receptor 7 (Homo sapiens)</title></text></a><path class="path" id="undefined" stroke-width="2" d="M693.6533,812.793L693.6497,812.7837A206.373,206.373,0,0,0,742.3583,786.1874L742.3643,786.1955" stroke="#000000" fill="none" style=""></path><path class="path" id="undefined" stroke-width="2" d="M703.136,772.2557L718.9023,801.1302" stroke="#000000" fill="none" style=""></path><path class="path" id="undefined" stroke-width="2" d="M756.3589,727.2364L820.4417,777.6329" stroke="#000000" fill="none" style=""></path><path stroke-width="2" class="path2" id="undefined" stroke-dasharray="1,3" d="M820.4417,777.6329L946.209,876.5399" stroke="#c8c8c8" fill="none" style=""></path><a xlink:href="http://tools.gpcr.org/visualise/protein/grm8_human"><text transform="matrix(0.786,0.6182,-0.6182,0.786,745.3953,-398.0843)" font-weight="bold" fill="#000000" stroke="none" font-size="12px" font-family="Verdana" text-anchor="start" y="877.7762" x="947.7811" style="text-anchor: start; font-family: Verdana; font-size: 12px; font-weight: bold;"><tspan dy="4.375015917968767">mGlu8 receptor</tspan><title>Metabotropic glutamate receptor 8 (Homo sapiens)</title></text></a><path class="path" id="undefined" stroke-width="2" d="M703.1408,772.2645L703.136,772.2557A173.47449999999998,173.47449999999998,0,0,0,756.3589,727.2364L756.3668,727.2426" stroke="#000000" fill="none" style=""></path><path class="path" id="undefined" stroke-width="2" d="M714.6079,731.8476L732.0322,752.4469" stroke="#000000" fill="none" style=""></path><path class="path" id="undefined" stroke-width="2" d="M755.1188,676.599L834.9074,710.0211" stroke="#000000" fill="none" style=""></path><path stroke-width="2" class="path2" id="undefined" stroke-dasharray="1,3" d="M834.9074,710.0211L1002.775,780.3381" stroke="#c8c8c8" fill="none" style=""></path><a xlink:href="http://tools.gpcr.org/visualise/protein/grm6_human"><text transform="matrix(0.9223,0.3864,-0.3864,0.9223,379.7968,-327.488)" font-weight="bold" fill="#000000" stroke="none" font-size="12px" font-family="Verdana" text-anchor="start" y="781.1108" x="1004.6197" style="text-anchor: start; font-family: Verdana; font-size: 12px; font-weight: bold;"><tspan dy="4.37502119140629">mGlu6 receptor</tspan><title>Metabotropic glutamate receptor 6 (Homo sapiens)</title></text></a><path class="path" id="undefined" stroke-width="2" d="M714.6144,731.8552L714.6079,731.8476A146.49419999999998,146.49419999999998,0,0,0,755.1188,676.599L755.1281,676.6029" stroke="#000000" fill="none" style=""></path><path class="path" id="undefined" stroke-width="2" d="M706.5545,683.4658L738.1386,706.6247" stroke="#000000" fill="none" style=""></path><path class="path" id="undefined" stroke-width="2" d="M736.7738,634.9042L840.2136,648.1065" stroke="#000000" fill="none" style=""></path><path stroke-width="2" class="path2" id="undefined" stroke-dasharray="1,3" d="M840.2136,648.1065L1031.6605,672.5414" stroke="#c8c8c8" fill="none" style=""></path><a xlink:href="http://tools.gpcr.org/visualise/protein/grm2_human"><text transform="matrix(0.992,0.1266,-0.1266,0.992,93.4973,-125.4515)" font-weight="bold" fill="#000000" stroke="none" font-size="12px" font-family="Verdana" text-anchor="start" y="672.7946" x="1033.6444" style="text-anchor: start; font-family: Verdana; font-size: 12px; font-weight: bold;"><tspan dy="4.374983300781196">mGlu2 receptor</tspan><title>Metabotropic glutamate receptor 2 (Homo sapiens)</title></text></a><path class="path" id="undefined" stroke-width="2" d="M784.3349,596.3746L895.1709,580.4404" stroke="#000000" fill="none" style=""></path><path stroke-width="2" class="path2" id="undefined" stroke-dasharray="1,3" d="M895.1709,580.4404L1030.7767,560.9452" stroke="#c8c8c8" fill="none" style=""></path><a xlink:href="http://tools.gpcr.org/visualise/protein/grm1_human"><text transform="matrix(0.9898,-0.1423,0.1423,0.9898,-69.2725,152.6675)" font-weight="bold" fill="#000000" stroke="none" font-size="12px" font-family="Verdana" text-anchor="start" y="560.6606" x="1032.7564" style="text-anchor: start; font-family: Verdana; font-size: 12px; font-weight: bold;"><tspan dy="4.375016503906295">mGlu1 receptor</tspan><title>Metabotropic glutamate receptor 1 (Homo sapiens)</title></text></a><path class="path" id="undefined" stroke-width="2" d="M772.0975,553.438L874.6798,508.5452" stroke="#000000" fill="none" style=""></path><path stroke-width="2" class="path2" id="undefined" stroke-dasharray="1,3" d="M874.6798,508.5452L1000.1875,453.6196" stroke="#c8c8c8" fill="none" style=""></path><a xlink:href="http://tools.gpcr.org/visualise/protein/grm5_human"><text transform="matrix(0.9161,-0.4009,0.4009,0.9161,-97.4873,439.7113)" font-weight="bold" fill="#000000" stroke="none" font-size="12px" font-family="Verdana" text-anchor="start" y="452.8177" x="1002.0197" style="text-anchor: start; font-family: Verdana; font-size: 12px; font-weight: bold;"><tspan dy="4.375012011718752">mGlu5 receptor</tspan><title>Metabotropic glutamate receptor 5 (Homo sapiens)</title></text></a><path class="path" id="undefined" stroke-width="2" d="M784.3448,596.3732L784.3349,596.3746A166.0245,166.0245,0,0,0,772.0975,553.438L772.1066,553.434" stroke="#000000" fill="none" style=""></path><path class="path" id="undefined" stroke-width="2" d="M738.5861,586.2015L779.6661,574.4932" stroke="#000000" fill="none" style=""></path><path class="path" id="undefined" stroke-width="2" d="M715.7068,542.249L798.516,474.9757" stroke="#000000" fill="none" style=""></path><path stroke-width="2" class="path2" id="undefined" stroke-dasharray="1,3" d="M798.516,474.9757L942.1049,358.3258" stroke="#c8c8c8" fill="none" style=""></path><a xlink:href="http://tools.gpcr.org/visualise/protein/grm3_human"><text transform="matrix(0.7762,-0.6305,0.6305,0.7762,-13.9121,674.9406)" font-weight="bold" fill="#000000" stroke="none" font-size="12px" font-family="Verdana" text-anchor="start" y="357.0647" x="943.6572" style="text-anchor: start; font-family: Verdana; font-size: 12px; font-weight: bold;"><tspan dy="4.375002734375016">mGlu3 receptor</tspan><title>Metabotropic glutamate receptor 3 (Homo sapiens)</title></text></a><path class="path" id="undefined" stroke-width="2" d="M738.5958,586.1988L738.5861,586.2015A123.3086,123.3086,0,0,0,715.7068,542.249L715.7145,542.2426" stroke="#000000" fill="none" style=""></path><path class="path" id="undefined" stroke-width="2" d="M724.4207,565.6441L729.377,563.0641" stroke="#000000" fill="none" style=""></path><path class="path" id="undefined" stroke-width="2" d="M736.7837,634.9054L736.7738,634.9042A117.72109999999999,117.72109999999999,0,0,0,724.4207,565.6441L724.4296,565.6395" stroke="#000000" fill="none" style=""></path><path class="path" id="undefined" stroke-width="2" d="M725.6618,601.1544L735.8922,599.3297" stroke="#000000" fill="none" style=""></path><path class="path" id="undefined" stroke-width="2" d="M706.5625,683.4717L706.5545,683.4658A107.32929999999999,107.32929999999999,0,0,0,725.6618,601.1544L725.6717,601.1527" stroke="#000000" fill="none" style=""></path><path class="path" id="undefined" stroke-width="2" d="M688.7981,635.9705L724.5493,644.2696" stroke="#000000" fill="none" style=""></path><path class="path" id="undefined" stroke-width="2" d="M596.2355,686.5198L596.2388,686.5104A70.6274,70.6274,0,0,0,688.7981,635.9705L688.8078,635.9727" stroke="#000000" fill="none" style=""></path><path class="path" id="undefined" stroke-width="2" d="M644.3001,664.5034L653.8475,681.9885" stroke="#000000" fill="none" style=""></path><path class="path" id="undefined" stroke-width="2" d="M570.9354,607.1654L570.9451,607.1679A50.7055,50.7055,0,0,0,644.3001,664.5034L644.3049,664.5122" stroke="#000000" fill="none" style=""></path><path class="path" id="undefined" stroke-width="2" d="M611.3548,631.0606L588.7744,659.9501" stroke="#000000" fill="none" style=""></path><path class="path" id="undefined" stroke-width="2" d="M609.8327,610.3055L609.84,610.3124A14.0384,14.0384,0,0,0,611.3548,631.0606L611.3487,631.0685" stroke="#000000" fill="none" style=""></path><path class="path" id="undefined" stroke-width="2" d="M620,620L605.9989,621.0223" stroke="#000000" fill="none" style=""></path><path class="path" id="undefined" stroke-width="2" d="M620,620L702.37,504.3316" stroke="#000000" fill="none" style=""></path><path stroke-width="2" class="path2" id="undefined" stroke-dasharray="1,3" d="M702.37,504.3316L860.7292,281.955" stroke="#c8c8c8" fill="none" style=""></path><a xlink:href="http://tools.gpcr.org/visualise/protein/casr_human"><text transform="matrix(0.5801,-0.8146,0.8146,0.5801,133.5888,819.7832)" font-weight="bold" fill="#000000" stroke="none" font-size="12px" font-family="Verdana" text-anchor="start" y="280.3259" x="861.8894" style="text-anchor: start; font-family: Verdana; font-size: 12px; font-weight: bold;"><tspan dy="4.375002783203115">CaS receptor</tspan><title>Extracellular calcium-sensing receptor (Homo sapiens)</title></text></a><g transform="translate (570 1240)" id="leg_group" class="legend"></g><circle style="display: none;" stroke="#ff0000" fill="none" r="5" cy="995.2112" cx="553.8368"></circle></svg>