<?xml version="1.0" standalone="no"?><!DOCTYPE svg PUBLIC "-//W3C//DTD SVG 1.1//EN" "http://www.w3.org/Graphics/SVG/1.1/DTD/svg11.dtd"><svg viewBox="0 0 1560 1640" xmlns:xlink="http://www.w3.org/1999/xlink" xmlns="http://www.w3.org/2000/svg" class="svgtree" id="svgtree" style="overflow: hidden; position: relative; left: -0.5px;" width="1560" version="1.1" height="1640"><defs><style type="text/css"><![CDATA[
a { background-color: transparent; }
@font-face {
  font-family: "Glyphicons Halflings";
  src: url("../fonts/glyphicons-halflings-regular.eot?#iefix") format("embedded-opentype"), url("../fonts/glyphicons-halflings-regular.woff") format("woff"), url("../fonts/glyphicons-halflings-regular.ttf") format("truetype"), url("../fonts/glyphicons-halflings-regular.svg#glyphicons_halflingsregular") format("svg");
}
* { box-sizing: border-box; }
a { color: rgb(51, 122, 183); text-decoration: none; }

]]></style></defs><path stroke-width="2" class="path" id="undefined" d="M826.9599,259.1125A523,523,0,1,0,1002.2819,306.5871L1035.8537,235.0865A601.9898721978402,601.9898721978402,0,1,1,834.0524,180.4417Z" stroke="#dddddd" fill="#eeeeee" style=""></path><path class="bgfield" id="C_A_A_A" d="M1083.3769,353.9818A523,523,0,0,0,1002.2902,306.591L1035.8632,235.091A601.9898721978402,601.9898721978402,0,0,1,1129.1966,289.6393Z" stroke="#dddddd" fill="#eeeeee" style=""></path><path class="bgfield" id="C_A_A_H" d="M1154.6801,415.1112A523,523,0,0,0,1083.3769,353.9818L1129.1966,289.6393A601.9898721978402,601.9898721978402,0,0,1,1211.2688,360.0012Z" stroke="#dddddd" fill="#eeeeee" style=""></path><path class="bgfield" id="C_A_A_I" d="M1213.9003,488.0077A523,523,0,0,0,1154.6801,415.1112L1211.2688,360.0012A601.9898721978402,601.9898721978402,0,0,1,1279.4333,443.9074Z" stroke="#dddddd" fill="#eeeeee" style=""></path><path class="bgfield" id="C_A_A_V" d="M1259.1279,570.3206A523,523,0,0,0,1213.9003,488.0077L1279.4333,443.9074A601.9898721978402,601.9898721978402,0,0,1,1331.4917,538.6522Z" stroke="#dddddd" fill="#eeeeee" style=""></path><path class="bgfield" id="C_A_A_S" d="M1288.9042,659.3953A523,523,0,0,0,1259.1279,570.3206L1331.4917,538.6522A601.9898721978402,601.9898721978402,0,0,1,1365.7652,641.1801Z" stroke="#dddddd" fill="#eeeeee" style=""></path><path class="bgfield" id="C_A_A_BC" d="M1302.2691,752.3594A523,523,0,0,0,1288.9042,659.3953L1365.7652,641.1801A601.9898721978402,601.9898721978402,0,0,1,1381.1486,748.1848Z" stroke="#dddddd" fill="#eeeeee" style=""></path><path class="bgfield" id="C_A_A_W" d="M1298.7915,846.2148A523,523,0,0,0,1302.2691,752.3594L1381.1486,748.1848A601.9898721978402,601.9898721978402,0,0,1,1377.1457,856.2154Z" stroke="#dddddd" fill="#eeeeee" style=""></path><path class="bgfield" id="C_A_A_T" d="M1278.5835,937.935A523,523,0,0,0,1298.7915,846.2148L1377.1457,856.2154A601.9898721978402,601.9898721978402,0,0,1,1353.8857,961.7882Z" stroke="#dddddd" fill="#eeeeee" style=""></path><path class="bgfield" id="C_A_A_BE" d="M1242.297,1024.5619A523,523,0,0,0,1278.5835,937.935L1353.8857,961.7882A601.9898721978402,601.9898721978402,0,0,1,1312.1187,1061.4986Z" stroke="#dddddd" fill="#eeeeee" style=""></path><path class="bgfield" id="C_A_A_L" d="M1191.1019,1103.302A523,523,0,0,0,1242.297,1024.5619L1312.1187,1061.4986A601.9898721978402,601.9898721978402,0,0,1,1253.1916,1152.1311Z" stroke="#dddddd" fill="#eeeeee" style=""></path><path class="bgfield" id="C_A_A_K" d="M1126.6494,1171.6161A523,523,0,0,0,1191.1019,1103.302L1253.1916,1152.1311A601.9898721978402,601.9898721978402,0,0,1,1179.0046,1230.7628Z" stroke="#dddddd" fill="#eeeeee" style=""></path><path class="bgfield" id="C_A_A_J" d="M1051.0179,1227.3011A523,523,0,0,0,1126.6494,1171.6161L1179.0046,1230.7628A601.9898721978402,601.9898721978402,0,0,1,1091.9504,1294.858Z" stroke="#dddddd" fill="#eeeeee" style=""></path><path class="bgfield" id="C_A_A_X" d="M966.6465,1268.5613A523,523,0,0,0,1051.0179,1227.3011L1091.9504,1294.858A601.9898721978402,601.9898721978402,0,0,1,994.8361,1342.3498Z" stroke="#dddddd" fill="#eeeeee" style=""></path><path class="bgfield" id="C_A_A_O" d="M876.2559,1294.066A523,523,0,0,0,966.6465,1268.5613L994.8361,1342.3498A601.9898721978402,601.9898721978402,0,0,1,890.7937,1371.7065Z" stroke="#dddddd" fill="#eeeeee" style=""></path><path class="bgfield" id="C_A_A_P" d="M782.7612,1302.9927A523,523,0,0,0,876.2559,1294.066L890.7937,1371.7065A601.9898721978402,601.9898721978402,0,0,1,783.1783,1381.9815Z" stroke="#dddddd" fill="#eeeeee" style=""></path><path class="bgfield" id="C_A_A_R" d="M689.1775,1295.0537A523,523,0,0,0,782.7612,1302.9927L783.1783,1381.9815A601.9898721978402,601.9898721978402,0,0,1,675.4604,1372.8434Z" stroke="#dddddd" fill="#eeeeee" style=""></path><path class="bgfield" id="C_A_A_Z" d="M598.5227,1270.5048A523,523,0,0,0,689.1775,1295.0537L675.4604,1372.8434A601.9898721978402,601.9898721978402,0,0,1,571.1138,1344.5869Z" stroke="#dddddd" fill="#eeeeee" style=""></path><path class="bgfield" id="C_A_A_C" d="M513.7203,1230.1379A523,523,0,0,0,598.5227,1270.5048L571.1138,1344.5869A601.9898721978402,601.9898721978402,0,0,1,473.5034,1298.1232Z" stroke="#dddddd" fill="#eeeeee" style=""></path><path class="bgfield" id="C_A_A_M" d="M437.505,1175.2546A523,523,0,0,0,513.7203,1230.1379L473.5034,1298.1232A601.9898721978402,601.9898721978402,0,0,1,385.7772,1234.9508Z" stroke="#dddddd" fill="#eeeeee" style=""></path><path class="bgfield" id="C_A_A_Q" d="M372.3348,1107.6249A523,523,0,0,0,437.505,1175.2546L385.7772,1234.9508A601.9898721978402,601.9898721978402,0,0,1,310.7642,1157.1068Z" stroke="#dddddd" fill="#eeeeee" style=""></path><path class="bgfield" id="C_A_A_BG" d="M320.3112,1029.4297A523,523,0,0,0,372.3348,1107.6249L310.7642,1157.1068A601.9898721978402,601.9898721978402,0,0,1,250.8833,1067.1016Z" stroke="#dddddd" fill="#eeeeee" style=""></path><path class="bgfield" id="C_A_A_D" d="M283.1119,943.1907A523,523,0,0,0,320.3112,1029.4297L250.8833,1067.1016A601.9898721978402,601.9898721978402,0,0,1,208.0658,967.8378Z" stroke="#dddddd" fill="#eeeeee" style=""></path><path class="bgfield" id="C_A_A_E" d="M261.9366,851.6891A523,523,0,0,0,283.1119,943.1907L208.0658,967.8378A601.9898721978402,601.9898721978402,0,0,1,183.6923,862.5165Z" stroke="#dddddd" fill="#eeeeee" style=""></path><path class="bgfield" id="C_A_A_U" d="M257.4682,757.8756A523,523,0,0,0,261.9366,851.6891L183.6923,862.5165A601.9898721978402,601.9898721978402,0,0,1,178.549,754.5341Z" stroke="#dddddd" fill="#eeeeee" style=""></path><path class="bgfield" id="C_A_A_BB" d="M269.8507,664.7756A523,523,0,0,0,257.4682,757.8756L178.549,754.5341A601.9898721978402,601.9898721978402,0,0,1,192.8017,647.373Z" stroke="#dddddd" fill="#eeeeee" style=""></path><path class="bgfield" id="C_A_A_Y" d="M298.6848,575.3914A523,523,0,0,0,269.8507,664.7756L192.8017,647.373A601.9898721978402,601.9898721978402,0,0,1,225.9907,544.4889Z" stroke="#dddddd" fill="#eeeeee" style=""></path><path class="bgfield" id="C_A_A_G" d="M343.0407,492.6055A523,523,0,0,0,298.6848,575.3914L225.9907,544.4889A601.9898721978402,601.9898721978402,0,0,1,277.0458,449.1997Z" stroke="#dddddd" fill="#eeeeee" style=""></path><path class="bgfield" id="C_A_A_N" d="M401.488,419.0878A523,523,0,0,0,343.0407,492.6055L277.0458,449.1997A601.9898721978402,601.9898721978402,0,0,1,344.3204,364.5784Z" stroke="#dddddd" fill="#eeeeee" style=""></path><path class="bgfield" id="C_A_A_BA" d="M472.1417,357.209A523,523,0,0,0,401.488,419.0878L344.3204,364.5784A601.9898721978402,601.9898721978402,0,0,1,425.6452,293.3539Z" stroke="#dddddd" fill="#eeeeee" style=""></path><path class="bgfield" id="C_A_A_BF" d="M552.7235,308.9646A523,523,0,0,0,472.1417,357.209L425.6452,293.3539A601.9898721978402,601.9898721978402,0,0,1,518.3974,237.823Z" stroke="#dddddd" fill="#eeeeee" style=""></path><path class="bgfield" id="C_A_A_F" d="M640.6346,275.9104A523,523,0,0,0,552.7235,308.9646L518.3974,237.823A601.9898721978402,601.9898721978402,0,0,1,619.5859,199.7767Z" stroke="#dddddd" fill="#eeeeee" style=""></path><path class="bgfield" id="C_A_A_BD" d="M733.0401,259.1125A523,523,0,0,0,640.6346,275.9104L619.5859,199.7767A601.9898721978402,601.9898721978402,0,0,1,725.9476,180.4417Z" stroke="#dddddd" fill="#eeeeee" style=""></path><path class="bgfield" id="C_A_A_B" d="M826.9599,259.1125A523,523,0,0,0,733.0401,259.1125L725.9476,180.4417A601.9898721978402,601.9898721978402,0,0,1,834.0524,180.4417Z" stroke="#dddddd" fill="#eeeeee" style=""></path><desc>Created with Raphaël 2.1.4</desc><defs></defs><path class="path" id="undefined" stroke-width="2" d="M780,667.3076L780,667" stroke="#000000" fill="none" style=""></path><path stroke-width="2" class="path2" id="undefined" stroke-dasharray="1,3" d="M780,667L780,257" stroke="#c8c8c8" fill="none" style=""></path><a xlink:href="http://tools.gpcr.org/visualise/protein/bai2_human"><text transform="matrix(0,-1,1,0,525,1035)" font-weight="bold" fill="#000000" stroke="none" font-size="12px" font-family="Verdana" text-anchor="start" y="255" x="780" style="text-anchor: start; font-family: Verdana; font-size: 12px; font-weight: bold;"><tspan dy="5">BAI2</tspan><title>Brain-specific angiogenesis inhibitor 2 (Homo sapiens)</title></text></a><path class="path" id="undefined" stroke-width="2" d="M751.9288,625.5803L729.0267,499.5954" stroke="#000000" fill="none" style=""></path><path stroke-width="2" class="path2" id="undefined" stroke-dasharray="1,3" d="M729.0267,499.5954L686.4595,265.433" stroke="#c8c8c8" fill="none" style=""></path><a xlink:href="http://tools.gpcr.org/visualise/protein/gp144_human"><text transform="matrix(0.1789,0.9839,-0.9839,0.1789,822.607,-458.6953)" font-weight="bold" fill="#000000" stroke="none" font-size="12px" font-family="Verdana" text-anchor="end" y="263.4653" x="686.1018" style="text-anchor: end; font-family: Verdana; font-size: 12px; font-weight: bold;"><tspan dy="4.999998486328138">GPR144</tspan><title>Probable G-protein coupled receptor 144 (Homo sapiens)</title></text></a><path class="path" id="undefined" stroke-width="2" d="M724.7629,633.0909L703.2772,575.9471" stroke="#000000" fill="none" style=""></path><path stroke-width="2" class="path2" id="undefined" stroke-dasharray="1,3" d="M703.2772,575.9471L595.9356,290.4601" stroke="#c8c8c8" fill="none" style=""></path><a xlink:href="http://tools.gpcr.org/visualise/protein/celr2_human"><text transform="matrix(0.3519,0.936,-0.936,0.3519,655.8711,-370.1279)" font-weight="bold" fill="#000000" stroke="none" font-size="12px" font-family="Verdana" text-anchor="end" y="288.5881" x="595.2317" style="text-anchor: end; font-family: Verdana; font-size: 12px; font-weight: bold;"><tspan dy="4.999995751953122">CELSR2</tspan><title>Cadherin EGF LAG seven-pass G-type receptor 2 (Homo sapiens)</title></text></a><path class="path" id="undefined" stroke-width="2" d="M751.927,625.5705L751.9288,625.5803A156.9504,156.9504,0,0,0,724.7629,633.0909L724.7594,633.0815" stroke="#000000" fill="none" style=""></path><path class="path" id="undefined" stroke-width="2" d="M749.9705,671.3823L738.1769,628.7246" stroke="#000000" fill="none" style=""></path><path class="path" id="undefined" stroke-width="2" d="M780,667.2976L780,667.3076A112.69239999999999,112.69239999999999,0,0,0,749.9705,671.3823L749.9678,671.3727" stroke="#000000" fill="none" style=""></path><path class="path" id="undefined" stroke-width="2" d="M772.2165,722.6378L764.8476,668.3309" stroke="#000000" fill="none" style=""></path><path class="path" id="undefined" stroke-width="2" d="M750.2644,730.3331L743.529,719.0831" stroke="#000000" fill="none" style=""></path><path stroke-width="2" class="path2" id="undefined" stroke-dasharray="1,3" d="M743.529,719.0831L511.3474,331.2742" stroke="#c8c8c8" fill="none" style=""></path><a xlink:href="http://tools.gpcr.org/visualise/protein/lphn2_human"><text transform="matrix(0.5137,0.858,-0.858,0.5137,530.9367,-277.5745)" font-weight="bold" fill="#000000" stroke="none" font-size="12px" font-family="Verdana" text-anchor="end" y="329.5583" x="510.3201" style="text-anchor: end; font-family: Verdana; font-size: 12px; font-weight: bold;"><tspan dy="5.000011425781224">LPHN2</tspan><title>Latrophilin-2 (Homo sapiens)</title></text></a><path class="path" id="undefined" stroke-width="2" d="M772.2151,722.6279L772.2165,722.6378A57.8879,57.8879,0,0,0,750.2644,730.3331L750.2592,730.3245" stroke="#000000" fill="none" style=""></path><path class="path" id="undefined" stroke-width="2" d="M771.6417,756.1568L760.8499,725.3714" stroke="#000000" fill="none" style=""></path><path class="path" id="undefined" stroke-width="2" d="M718.6523,709.9527L713.4564,704.02" stroke="#000000" fill="none" style=""></path><path stroke-width="2" class="path2" id="undefined" stroke-dasharray="1,3" d="M713.4564,704.02L435.423,386.5592" stroke="#c8c8c8" fill="none" style=""></path><a xlink:href="http://tools.gpcr.org/visualise/protein/gp126_human"><text transform="matrix(0.6588,0.7523,-0.7523,0.6588,437.764,-195.2049)" font-weight="bold" fill="#000000" stroke="none" font-size="12px" font-family="Verdana" text-anchor="end" y="385.0546" x="434.1053" style="text-anchor: end; font-family: Verdana; font-size: 12px; font-weight: bold;"><tspan dy="5.0000040527343685">GPR126</tspan><title>G-protein coupled receptor 126 (Homo sapiens)</title></text></a><path class="path" id="undefined" stroke-width="2" d="M679.7605,700.3088L640.6667,669.2289" stroke="#000000" fill="none" style=""></path><path stroke-width="2" class="path2" id="undefined" stroke-dasharray="1,3" d="M640.6667,669.2289L370.6107,454.532" stroke="#c8c8c8" fill="none" style=""></path><a xlink:href="http://tools.gpcr.org/visualise/protein/gpr64_human"><text transform="matrix(0.7828,0.6223,-0.6223,0.7828,362.2524,-131.1933)" font-weight="bold" fill="#000000" stroke="none" font-size="12px" font-family="Verdana" text-anchor="end" y="453.2874" x="369.0452" style="text-anchor: end; font-family: Verdana; font-size: 12px; font-weight: bold;"><tspan dy="4.999985449218741">GPR64</tspan><title>G-protein coupled receptor 64 (Homo sapiens)</title></text></a><path class="path" id="undefined" stroke-width="2" d="M667.1237,719.5219L647.7822,709.1589" stroke="#000000" fill="none" style=""></path><path stroke-width="2" class="path2" id="undefined" stroke-dasharray="1,3" d="M647.7822,709.1589L319.0007,533.0008" stroke="#c8c8c8" fill="none" style=""></path><a xlink:href="http://tools.gpcr.org/visualise/protein/celr3_human"><text transform="matrix(0.8815,0.4723,-0.4723,0.8815,288.8842,-86.7489)" font-weight="bold" fill="#000000" stroke="none" font-size="12px" font-family="Verdana" text-anchor="end" y="532.0562" x="317.2378" style="text-anchor: end; font-family: Verdana; font-size: 12px; font-weight: bold;"><tspan dy="4.99998662109374">CELSR3</tspan><title>Cadherin EGF LAG seven-pass G-type receptor 3 (Homo sapiens)</title></text></a><path class="path" id="undefined" stroke-width="2" d="M679.7527,700.3025L679.7605,700.3088A128.0572,128.0572,0,0,0,667.1237,719.5219L667.1149,719.5172" stroke="#000000" fill="none" style=""></path><path class="path" id="undefined" stroke-width="2" d="M702.2048,728.833L673.01,709.6311" stroke="#000000" fill="none" style=""></path><path class="path" id="undefined" stroke-width="2" d="M718.6457,709.9452L718.6523,709.9527A93.1137,93.1137,0,0,0,702.2048,728.833L702.1964,728.8275" stroke="#000000" fill="none" style=""></path><path class="path" id="undefined" stroke-width="2" d="M729.9381,736.3886L709.791,718.8375" stroke="#000000" fill="none" style=""></path><path class="path" id="undefined" stroke-width="2" d="M716.8125,759.6166L701.96,754.8254" stroke="#000000" fill="none" style=""></path><path stroke-width="2" class="path2" id="undefined" stroke-dasharray="1,3" d="M701.96,754.8254L282.2572,619.4349" stroke="#c8c8c8" fill="none" style=""></path><a xlink:href="http://tools.gpcr.org/visualise/protein/gp124_human"><text transform="matrix(0.9517,0.307,-0.307,0.9517,203.522,-56.1861)" font-weight="bold" fill="#000000" stroke="none" font-size="12px" font-family="Verdana" text-anchor="end" y="618.8209" x="280.3538" style="text-anchor: end; font-family: Verdana; font-size: 12px; font-weight: bold;"><tspan dy="4.9999771484375515">GPR124</tspan><title>G-protein coupled receptor 124 (Homo sapiens)</title></text></a><path class="path" id="undefined" stroke-width="2" d="M729.9305,736.3821L729.9381,736.3886A66.3939,66.3939,0,0,0,716.8125,759.6166L716.8029,759.6135" stroke="#000000" fill="none" style=""></path><path class="path" id="undefined" stroke-width="2" d="M758.0032,767.5701L722.1965,747.3364" stroke="#000000" fill="none" style=""></path><path class="path" id="undefined" stroke-width="2" d="M771.6384,756.1473L771.6417,756.1568A25.2658,25.2658,0,0,0,758.0032,767.5701L757.9945,767.5652" stroke="#000000" fill="none" style=""></path><path class="path" id="undefined" stroke-width="2" d="M780,780L763.7851,760.6238" stroke="#000000" fill="none" style=""></path><path class="path" id="undefined" stroke-width="2" d="M742.2942,774.9851L701.6896,769.5845" stroke="#000000" fill="none" style=""></path><path stroke-width="2" class="path2" id="undefined" stroke-dasharray="1,3" d="M701.6896,769.5845L261.5653,711.0471" stroke="#c8c8c8" fill="none" style=""></path><a xlink:href="http://tools.gpcr.org/visualise/protein/gp128_human"><text transform="matrix(0.9913,0.1318,-0.1318,0.9913,95.9765,-28.0192)" font-weight="bold" fill="#000000" stroke="none" font-size="12px" font-family="Verdana" text-anchor="end" y="710.7834" x="259.5828" style="text-anchor: end; font-family: Verdana; font-size: 12px; font-weight: bold;"><tspan dy="5.000013769531279">GPR128</tspan><title>Probable G-protein coupled receptor 128 (Homo sapiens)</title></text></a><path class="path" id="undefined" stroke-width="2" d="M697.0158,783.9526L665.1302,785.4714" stroke="#000000" fill="none" style=""></path><path stroke-width="2" class="path2" id="undefined" stroke-dasharray="1,3" d="M665.1302,785.4714L257.5923,804.8829" stroke="#c8c8c8" fill="none" style=""></path><a xlink:href="http://tools.gpcr.org/visualise/protein/gp114_human"><text transform="matrix(0.9989,-0.0476,0.0476,0.9989,-38.0091,13.072)" font-weight="bold" fill="#000000" stroke="none" font-size="12px" font-family="Verdana" text-anchor="end" y="804.978" x="255.5945" style="text-anchor: end; font-family: Verdana; font-size: 12px; font-weight: bold;"><tspan dy="4.999972656249952">GPR114</tspan><title>Probable G-protein coupled receptor 114 (Homo sapiens)</title></text></a><path class="path" id="undefined" stroke-width="2" d="M678.4442,803.502L670.8838,805.2517" stroke="#000000" fill="none" style=""></path><path stroke-width="2" class="path2" id="undefined" stroke-dasharray="1,3" d="M670.8838,805.2517L270.4661,897.9162" stroke="#c8c8c8" fill="none" style=""></path><a xlink:href="http://tools.gpcr.org/visualise/protein/celr1_human"><text transform="matrix(0.9743,-0.2255,0.2255,0.9743,-195.6332,83.6713)" font-weight="bold" fill="#000000" stroke="none" font-size="12px" font-family="Verdana" text-anchor="end" y="898.3671" x="268.5176" style="text-anchor: end; font-family: Verdana; font-size: 12px; font-weight: bold;"><tspan dy="4.9999735351563">CELSR1</tspan><title>Cadherin EGF LAG seven-pass G-type receptor 1 (Homo sapiens)</title></text></a><path class="path" id="undefined" stroke-width="2" d="M669.5339,827.6497L663.3863,830.3015" stroke="#000000" fill="none" style=""></path><path stroke-width="2" class="path2" id="undefined" stroke-dasharray="1,3" d="M663.3863,830.3015L299.7718,987.1469" stroke="#c8c8c8" fill="none" style=""></path><a xlink:href="http://tools.gpcr.org/visualise/protein/cd97_human"><text transform="matrix(0.9182,-0.3961,0.3961,0.9182,-366.9318,198.7998)" font-weight="bold" fill="#000000" stroke="none" font-size="12px" font-family="Verdana" text-anchor="end" y="987.9391" x="297.9353" style="text-anchor: end; font-family: Verdana; font-size: 12px; font-weight: bold;"><tspan dy="5.000013085937553">CD97</tspan><title>CD97 antigen (Homo sapiens)</title></text></a><path class="path" id="undefined" stroke-width="2" d="M669.5929,853.4544L640.1277,873.0577" stroke="#000000" fill="none" style=""></path><path stroke-width="2" class="path2" id="undefined" stroke-dasharray="1,3" d="M640.1277,873.0577L344.5641,1069.6974" stroke="#c8c8c8" fill="none" style=""></path><a xlink:href="http://tools.gpcr.org/visualise/protein/lphn3_human"><text transform="matrix(0.8326,-0.5539,0.5539,0.8326,-535.7245,369.2181)" font-weight="bold" fill="#000000" stroke="none" font-size="12px" font-family="Verdana" text-anchor="end" y="1070.8053" x="342.899" style="text-anchor: end; font-family: Verdana; font-size: 12px; font-weight: bold;"><tspan dy="5.000002148437488">LPHN3</tspan><title>Latrophilin-3 (Homo sapiens)</title></text></a><path class="path" id="undefined" stroke-width="2" d="M678.7331,877.5842L644.6252,910.4517" stroke="#000000" fill="none" style=""></path><path stroke-width="2" class="path2" id="undefined" stroke-dasharray="1,3" d="M644.6252,910.4517L403.3987,1142.9056" stroke="#c8c8c8" fill="none" style=""></path><a xlink:href="http://tools.gpcr.org/visualise/protein/gp110_human"><text transform="matrix(0.7201,-0.6939,0.6939,0.7201,-681.4995,599.2276)" font-weight="bold" fill="#000000" stroke="none" font-size="12px" font-family="Verdana" text-anchor="end" y="1144.2934" x="401.9585" style="text-anchor: end; font-family: Verdana; font-size: 12px; font-weight: bold;"><tspan dy="4.99994296875002">GPR110</tspan><title>Probable G-protein coupled receptor 110 (Homo sapiens)</title></text></a><path class="path" id="undefined" stroke-width="2" d="M697.8192,894.1227L688.8394,906.5928" stroke="#000000" fill="none" style=""></path><path stroke-width="2" class="path2" id="undefined" stroke-dasharray="1,3" d="M688.8394,906.5928L474.3782,1204.4105" stroke="#c8c8c8" fill="none" style=""></path><a xlink:href="http://tools.gpcr.org/visualise/protein/gpr56_human"><text transform="matrix(0.5844,-0.8115,0.8115,0.5844,-782.0037,885.278)" font-weight="bold" fill="#000000" stroke="none" font-size="12px" font-family="Verdana" text-anchor="end" y="1206.0335" x="473.2094" style="text-anchor: end; font-family: Verdana; font-size: 12px; font-weight: bold;"><tspan dy="5.000052734375004">GPR56</tspan><title>G-protein coupled receptor 56 (Homo sapiens)</title></text></a><path class="path" id="undefined" stroke-width="2" d="M678.7259,877.5911L678.7331,877.5842A140.6331,140.6331,0,0,0,697.8192,894.1227L697.8134,894.1308" stroke="#000000" fill="none" style=""></path><path class="path" id="undefined" stroke-width="2" d="M689.0492,884.9613L687.9041,886.2827" stroke="#000000" fill="none" style=""></path><path class="path" id="undefined" stroke-width="2" d="M664.9451,1021.7059L653.2084,1046.3623" stroke="#000000" fill="none" style=""></path><path stroke-width="2" class="path2" id="undefined" stroke-dasharray="1,3" d="M653.2084,1046.3623L555.2135,1252.2288" stroke="#c8c8c8" fill="none" style=""></path><a xlink:href="http://tools.gpcr.org/visualise/protein/bai3_human"><text transform="matrix(0.4298,-0.9029,0.9029,0.4298,-816.2054,1215.5869)" font-weight="bold" fill="#000000" stroke="none" font-size="12px" font-family="Verdana" text-anchor="end" y="1254.0346" x="554.3539" style="text-anchor: end; font-family: Verdana; font-size: 12px; font-weight: bold;"><tspan dy="5.000054101562455">BAI3</tspan><title>Brain-specific angiogenesis inhibitor 3 (Homo sapiens)</title></text></a><path class="path" id="undefined" stroke-width="2" d="M675.8749,1164.517L656.1056,1237.5218" stroke="#000000" fill="none" style=""></path><path stroke-width="2" class="path2" id="undefined" stroke-dasharray="1,3" d="M656.1056,1237.5218L643.2979,1284.8183" stroke="#c8c8c8" fill="none" style=""></path><a xlink:href="http://tools.gpcr.org/visualise/protein/gp125_human"><text transform="matrix(0.2614,-0.9652,0.9652,0.2614,-767.2498,1570.8472)" font-weight="bold" fill="#000000" stroke="none" font-size="12px" font-family="Verdana" text-anchor="end" y="1286.7488" x="642.7752" style="text-anchor: end; font-family: Verdana; font-size: 12px; font-weight: bold;"><tspan dy="5.000020703125074">GPR125</tspan><title>Probable G-protein coupled receptor 125 (Homo sapiens)</title></text></a><path class="path" id="undefined" stroke-width="2" d="M746.3261,1176.9401L735.7908,1301.1281" stroke="#000000" fill="none" style=""></path><path stroke-width="2" class="path2" id="undefined" stroke-dasharray="1,3" d="M735.7908,1301.1281L735.7908,1301.1281" stroke="#c8c8c8" fill="none" style=""></path><a xlink:href="http://tools.gpcr.org/visualise/protein/gp111_human"><text transform="matrix(0.0845,-0.9964,0.9964,0.0845,-625.0175,1925.957)" font-weight="bold" fill="#000000" stroke="none" font-size="12px" font-family="Verdana" text-anchor="end" y="1303.121" x="735.6217" style="text-anchor: end; font-family: Verdana; font-size: 12px; font-weight: bold;"><tspan dy="5.000028320312595">GPR111</tspan><title>Probable G-protein coupled receptor 111 (Homo sapiens)</title></text></a><path class="path" id="undefined" stroke-width="2" d="M675.8723,1164.5267L675.8749,1164.517A398.36589999999995,398.36589999999995,0,0,0,746.3261,1176.9401L746.3253,1176.9501" stroke="#000000" fill="none" style=""></path><path class="path" id="undefined" stroke-width="2" d="M717.9097,1132.1137L710.8211,1172.3132" stroke="#000000" fill="none" style=""></path><path class="path" id="undefined" stroke-width="2" d="M813.9835,1135.9275L815.6425,1153.3023" stroke="#000000" fill="none" style=""></path><path stroke-width="2" class="path2" id="undefined" stroke-dasharray="1,3" d="M815.6425,1153.3023L829.7094,1300.6323" stroke="#c8c8c8" fill="none" style=""></path><a xlink:href="http://tools.gpcr.org/visualise/protein/gpr98_human"><text transform="matrix(0.095,0.9955,-0.9955,0.095,2047.7463,352.671)" font-weight="bold" fill="#000000" stroke="none" font-size="12px" font-family="Verdana" text-anchor="start" y="1302.6232" x="829.8994" style="text-anchor: start; font-family: Verdana; font-size: 12px; font-weight: bold;"><tspan dy="5.000031054687497">VLGR1</tspan><title>G-protein coupled receptor 98 (Homo sapiens)</title></text></a><path class="path" id="undefined" stroke-width="2" d="M717.9079,1132.1236L717.9097,1132.1137A357.54619999999994,357.54619999999994,0,0,0,813.9835,1135.9275L813.9845,1135.9375" stroke="#000000" fill="none" style=""></path><path class="path" id="undefined" stroke-width="2" d="M769.3821,1047.482L765.8181,1137.2648" stroke="#000000" fill="none" style=""></path><path class="path" id="undefined" stroke-width="2" d="M664.9408,1021.715L664.9451,1021.7059A267.69269999999995,267.69269999999995,0,0,0,769.3821,1047.482L769.3817,1047.492" stroke="#000000" fill="none" style=""></path><path class="path" id="undefined" stroke-width="2" d="M726.9135,995.0906L715.8555,1039.894" stroke="#000000" fill="none" style=""></path><path class="path" id="undefined" stroke-width="2" d="M840.1623,993.2197L844.3593,1008.094" stroke="#000000" fill="none" style=""></path><path stroke-width="2" class="path2" id="undefined" stroke-dasharray="1,3" d="M844.3593,1008.094L922.0249,1283.3467" stroke="#c8c8c8" fill="none" style=""></path><a xlink:href="http://tools.gpcr.org/visualise/protein/gpr97_human"><text transform="matrix(0.2716,0.9624,-0.9624,0.2716,1909.011,48.346)" font-weight="bold" fill="#000000" stroke="none" font-size="12px" font-family="Verdana" text-anchor="start" y="1285.2716" x="922.568" style="text-anchor: start; font-family: Verdana; font-size: 12px; font-weight: bold;"><tspan dy="4.999993554687535">GPR97</tspan><title>Probable G-protein coupled receptor 97 (Homo sapiens)</title></text></a><path class="path" id="undefined" stroke-width="2" d="M726.9111,995.1003L726.9135,995.0906A221.54489999999996,221.54489999999996,0,0,0,840.1623,993.2197L840.165,993.2293" stroke="#000000" fill="none" style=""></path><path class="path" id="undefined" stroke-width="2" d="M783.071,965.8853L783.6597,1001.5147" stroke="#000000" fill="none" style=""></path><path class="path" id="undefined" stroke-width="2" d="M861.6728,947.01L875.77,975.8369" stroke="#000000" fill="none" style=""></path><path stroke-width="2" class="path2" id="undefined" stroke-dasharray="1,3" d="M875.77,975.8369L1009.7602,1249.8289" stroke="#c8c8c8" fill="none" style=""></path><a xlink:href="http://tools.gpcr.org/visualise/protein/gp123_human"><text transform="matrix(0.4393,0.8983,-0.8983,0.4393,1691.0314,-206.1205)" font-weight="bold" fill="#000000" stroke="none" font-size="12px" font-family="Verdana" text-anchor="start" y="1251.6256" x="1010.6389" style="text-anchor: start; font-family: Verdana; font-size: 12px; font-weight: bold;"><tspan dy="4.999989648437577">GPR123</tspan><title>Probable G-protein coupled receptor 123 (Homo sapiens)</title></text></a><path class="path" id="undefined" stroke-width="2" d="M783.0712,965.8953L783.071,965.8853A185.91069999999996,185.91069999999996,0,0,0,861.6728,947.01L861.6772,947.019" stroke="#000000" fill="none" style=""></path><path class="path" id="undefined" stroke-width="2" d="M820.2038,947.4185L823.4104,960.7715" stroke="#000000" fill="none" style=""></path><path class="path" id="undefined" stroke-width="2" d="M896.7799,938.6108L910.4378,957.1609" stroke="#000000" fill="none" style=""></path><path stroke-width="2" class="path2" id="undefined" stroke-dasharray="1,3" d="M910.4378,957.1609L1090.0862,1201.1598" stroke="#c8c8c8" fill="none" style=""></path><a xlink:href="http://tools.gpcr.org/visualise/protein/emr2_human"><text transform="matrix(0.5929,0.8053,-0.8053,0.5929,1412.821,-389.1271)" font-weight="bold" fill="#000000" stroke="none" font-size="12px" font-family="Verdana" text-anchor="start" y="1202.7703" x="1091.272" style="text-anchor: start; font-family: Verdana; font-size: 12px; font-weight: bold;"><tspan dy="5.0000363281249065">EMR2</tspan><title>EGF-like module-containing mucin-like hormone receptor-like 2 (Homo sapiens)</title></text></a><path class="path" id="undefined" stroke-width="2" d="M923.2651,915.1668L929.11,920.6813" stroke="#000000" fill="none" style=""></path><path stroke-width="2" class="path2" id="undefined" stroke-dasharray="1,3" d="M929.11,920.6813L1160.4122,1138.9088" stroke="#c8c8c8" fill="none" style=""></path><a xlink:href="http://tools.gpcr.org/visualise/protein/emr3_human"><text transform="matrix(0.7274,0.6863,-0.6863,0.7274,1099.283,-486.4515)" font-weight="bold" fill="#000000" stroke="none" font-size="12px" font-family="Verdana" text-anchor="start" y="1140.2813" x="1161.867" style="text-anchor: start; font-family: Verdana; font-size: 12px; font-weight: bold;"><tspan dy="5.000050000000101">EMR3</tspan><title>EGF-like module-containing mucin-like hormone receptor-like 3 (Homo sapiens)</title></text></a><path class="path" id="undefined" stroke-width="2" d="M896.7859,938.6188L896.7799,938.6108A196.96429999999995,196.96429999999995,0,0,0,923.2651,915.1668L923.2723,915.1736" stroke="#000000" fill="none" style=""></path><path class="path" id="undefined" stroke-width="2" d="M900.5176,916.1509L910.5498,927.4845" stroke="#000000" fill="none" style=""></path><path class="path" id="undefined" stroke-width="2" d="M932.4405,879.1133L958.574,896.1047" stroke="#000000" fill="none" style=""></path><path stroke-width="2" class="path2" id="undefined" stroke-dasharray="1,3" d="M958.574,896.1047L1218.4705,1065.0835" stroke="#c8c8c8" fill="none" style=""></path><a xlink:href="http://tools.gpcr.org/visualise/protein/emr4_human"><text transform="matrix(0.8384,0.5451,-0.5451,0.8384,778.3689,-492.7739)" font-weight="bold" fill="#000000" stroke="none" font-size="12px" font-family="Verdana" text-anchor="start" y="1066.1737" x="1220.1473" style="text-anchor: start; font-family: Verdana; font-size: 12px; font-weight: bold;"><tspan dy="4.9999939453125535">EMR4P</tspan><title>Putative EGF-like module-containing mucin-like hormone receptor-like 4 (Homo sapiens)</title></text></a><path class="path" id="undefined" stroke-width="2" d="M900.5242,916.1584L900.5176,916.1509A181.82839999999996,181.82839999999996,0,0,0,932.4405,879.1133L932.4489,879.1188" stroke="#000000" fill="none" style=""></path><path class="path" id="undefined" stroke-width="2" d="M910.42,892.4096L917.7298,898.71" stroke="#000000" fill="none" style=""></path><path class="path" id="undefined" stroke-width="2" d="M820.2062,947.4282L820.2038,947.4185A172.17809999999997,172.17809999999997,0,0,0,910.42,892.4096L910.4276,892.4161" stroke="#000000" fill="none" style=""></path><path class="path" id="undefined" stroke-width="2" d="M861.1093,913.0213L869.6362,927.0056" stroke="#000000" fill="none" style=""></path><path class="path" id="undefined" stroke-width="2" d="M1042.4252,889.9256L1047.4813,892.0435" stroke="#000000" fill="none" style=""></path><path stroke-width="2" class="path2" id="undefined" stroke-dasharray="1,3" d="M1047.4813,892.0435L1262.3887,982.0646" stroke="#c8c8c8" fill="none" style=""></path><a xlink:href="http://tools.gpcr.org/visualise/protein/lphn1_human"><text transform="matrix(0.9223,0.3864,-0.3864,0.9223,477.8944,-412.1273)" font-weight="bold" fill="#000000" stroke="none" font-size="12px" font-family="Verdana" text-anchor="start" y="982.8373" x="1264.2334" style="text-anchor: start; font-family: Verdana; font-size: 12px; font-weight: bold;"><tspan dy="5.0000197265625275">LPHN1</tspan><title>Latrophilin-1 (Homo sapiens)</title></text></a><path class="path" id="undefined" stroke-width="2" d="M1057.8544,841.2174L1143.2872,860.0401" stroke="#000000" fill="none" style=""></path><path stroke-width="2" class="path2" id="undefined" stroke-dasharray="1,3" d="M1143.2872,860.0401L1290.7505,892.5294" stroke="#c8c8c8" fill="none" style=""></path><a xlink:href="http://tools.gpcr.org/visualise/protein/gp113_human"><text transform="matrix(0.9766,0.2152,-0.2152,0.9766,222.4076,-257.2255)" font-weight="bold" fill="#000000" stroke="none" font-size="12px" font-family="Verdana" text-anchor="start" y="892.9598" x="1292.7037" style="text-anchor: start; font-family: Verdana; font-size: 12px; font-weight: bold;"><tspan dy="5.000022167968723">GPR113</tspan><title>Probable G-protein coupled receptor 113 (Homo sapiens)</title></text></a><path class="path" id="undefined" stroke-width="2" d="M1042.4344,889.9294L1042.4252,889.9256A284.5182,284.5182,0,0,0,1057.8544,841.2174L1057.8641,841.2195" stroke="#000000" fill="none" style=""></path><path class="path" id="undefined" stroke-width="2" d="M1025.017,857.6134L1051.2354,865.9185" stroke="#000000" fill="none" style=""></path><path class="path" id="undefined" stroke-width="2" d="M1036.8397,789.5166L1051.8135,790.0715" stroke="#000000" fill="none" style=""></path><path stroke-width="2" class="path2" id="undefined" stroke-dasharray="1,3" d="M1051.8135,790.0715L1302.6414,799.3653" stroke="#c8c8c8" fill="none" style=""></path><a xlink:href="http://tools.gpcr.org/visualise/protein/gp116_human"><text transform="matrix(0.9993,0.037,-0.037,0.9993,30.4958,-47.7592)" font-weight="bold" fill="#000000" stroke="none" font-size="12px" font-family="Verdana" text-anchor="start" y="799.4394" x="1304.64" style="text-anchor: start; font-family: Verdana; font-size: 12px; font-weight: bold;"><tspan dy="5.000007910156228">GPR116</tspan><title>Probable G-protein coupled receptor 116 (Homo sapiens)</title></text></a><path class="path" id="undefined" stroke-width="2" d="M1025.0265,857.6164L1025.017,857.6134A257.0159,257.0159,0,0,0,1036.8397,789.5166L1036.8496,789.517" stroke="#000000" fill="none" style=""></path><path class="path" id="undefined" stroke-width="2" d="M1010.3314,819.9888L1033.2278,823.964" stroke="#000000" fill="none" style=""></path><path class="path" id="undefined" stroke-width="2" d="M1020.4955,745.4255L1059.1302,739.8712" stroke="#000000" fill="none" style=""></path><path stroke-width="2" class="path2" id="undefined" stroke-dasharray="1,3" d="M1059.1302,739.8712L1297.6777,705.5767" stroke="#c8c8c8" fill="none" style=""></path><a xlink:href="http://tools.gpcr.org/visualise/protein/gp133_human"><text transform="matrix(0.9898,-0.1423,0.1423,0.9898,-87.1376,192.1196)" font-weight="bold" fill="#000000" stroke="none" font-size="12px" font-family="Verdana" text-anchor="start" y="705.2921" x="1299.6573" style="text-anchor: start; font-family: Verdana; font-size: 12px; font-weight: bold;"><tspan dy="4.999985742187505">GPR133</tspan><title>Probable G-protein coupled receptor 133 (Homo sapiens)</title></text></a><path class="path" id="undefined" stroke-width="2" d="M1010.4339,702.9694L1051.2459,689.3266" stroke="#000000" fill="none" style=""></path><path stroke-width="2" class="path2" id="undefined" stroke-dasharray="1,3" d="M1051.2459,689.3266L1276.0196,614.1882" stroke="#c8c8c8" fill="none" style=""></path><a xlink:href="http://tools.gpcr.org/visualise/protein/gp112_human"><text transform="matrix(0.9484,-0.317,0.317,0.9484,-128.5962,436.8023)" font-weight="bold" fill="#000000" stroke="none" font-size="12px" font-family="Verdana" text-anchor="start" y="613.5541" x="1277.9164" style="text-anchor: start; font-family: Verdana; font-size: 12px; font-weight: bold;"><tspan dy="5.0000228515624485">GPR112</tspan><title>Probable G-protein coupled receptor 112 (Homo sapiens)</title></text></a><path class="path" id="undefined" stroke-width="2" d="M1020.5054,745.424L1020.4955,745.4255A242.96810000000002,242.96810000000002,0,0,0,1010.4339,702.9694L1010.4434,702.9663" stroke="#000000" fill="none" style=""></path><path class="path" id="undefined" stroke-width="2" d="M1007.4762,726.0906L1016.4197,723.9711" stroke="#000000" fill="none" style=""></path><path class="path" id="undefined" stroke-width="2" d="M1010.3412,819.9906L1010.3314,819.9888A233.7769,233.7769,0,0,0,1007.4762,726.0906L1007.4859,726.0883" stroke="#000000" fill="none" style=""></path><path class="path" id="undefined" stroke-width="2" d="M981.1578,773.8832L1013.6689,772.8947" stroke="#000000" fill="none" style=""></path><path class="path" id="undefined" stroke-width="2" d="M956.3794,683.0867L970.1823,675.5026" stroke="#000000" fill="none" style=""></path><path stroke-width="2" class="path2" id="undefined" stroke-dasharray="1,3" d="M970.1823,675.5026L1238.3655,528.1468" stroke="#c8c8c8" fill="none" style=""></path><a xlink:href="http://tools.gpcr.org/visualise/protein/gp115_human"><text transform="matrix(0.8764,-0.4816,0.4816,0.8764,-100.609,662.3365)" font-weight="bold" fill="#000000" stroke="none" font-size="12px" font-family="Verdana" text-anchor="start" y="527.1837" x="1240.1184" style="text-anchor: start; font-family: Verdana; font-size: 12px; font-weight: bold;"><tspan dy="4.999984179687544">GPR115</tspan><title>Probable G-protein coupled receptor 115 (Homo sapiens)</title></text></a><path class="path" id="undefined" stroke-width="2" d="M981.1678,773.8829L981.1578,773.8832A201.2508,201.2508,0,0,0,956.3794,683.0867L956.3882,683.0819" stroke="#000000" fill="none" style=""></path><path class="path" id="undefined" stroke-width="2" d="M950.9901,733.3366L974.1509,727.016" stroke="#000000" fill="none" style=""></path><path class="path" id="undefined" stroke-width="2" d="M917.5683,668.2411L928.2459,659.5668" stroke="#000000" fill="none" style=""></path><path stroke-width="2" class="path2" id="undefined" stroke-dasharray="1,3" d="M928.2459,659.5668L1185.9298,450.2274" stroke="#c8c8c8" fill="none" style=""></path><a xlink:href="http://tools.gpcr.org/visualise/protein/emr1_human"><text transform="matrix(0.7762,-0.6305,0.6305,0.7762,-17.2812,849.2536)" font-weight="bold" fill="#000000" stroke="none" font-size="12px" font-family="Verdana" text-anchor="start" y="448.9663" x="1187.4821" style="text-anchor: start; font-family: Verdana; font-size: 12px; font-weight: bold;"><tspan dy="4.99999140624999">EMR1</tspan><title>EGF-like module-containing mucin-like hormone receptor-like 1 (Homo sapiens)</title></text></a><path class="path" id="undefined" stroke-width="2" d="M950.9997,733.3339L950.9901,733.3366A177.243,177.243,0,0,0,917.5683,668.2411L917.5761,668.2348" stroke="#000000" fill="none" style=""></path><path class="path" id="undefined" stroke-width="2" d="M918.5987,708.8397L937.6751,699.0453" stroke="#000000" fill="none" style=""></path><path class="path" id="undefined" stroke-width="2" d="M861.1145,913.0299L861.1093,913.0213A155.79919999999998,155.79919999999998,0,0,0,918.5987,708.8397L918.6076,708.8351" stroke="#000000" fill="none" style=""></path><path class="path" id="undefined" stroke-width="2" d="M929.5539,822.1084L929.9681,822.225" stroke="#000000" fill="none" style=""></path><path class="path" id="undefined" stroke-width="2" d="M881.1245,662.0452L899.7595,640.3087" stroke="#000000" fill="none" style=""></path><path stroke-width="2" class="path2" id="undefined" stroke-dasharray="1,3" d="M899.7595,640.3087L1120.4034,382.9427" stroke="#c8c8c8" fill="none" style=""></path><a xlink:href="http://tools.gpcr.org/visualise/protein/eltd1_human"><text transform="matrix(0.6509,-0.7592,0.7592,0.6509,102.0501,984.7572)" font-weight="bold" fill="#000000" stroke="none" font-size="12px" font-family="Verdana" text-anchor="start" y="381.4243" x="1121.7052" style="text-anchor: start; font-family: Verdana; font-size: 12px; font-weight: bold;"><tspan dy="5.0000141113281416">ELTD1</tspan><title>EGF, latrophilin and seven transmembrane domain-containing protein 1 (Homo sapiens)</title></text></a><path class="path" id="undefined" stroke-width="2" d="M929.5636,822.1111L929.5539,822.1084A155.3689,155.3689,0,0,0,881.1245,662.0452L881.131,662.0376" stroke="#000000" fill="none" style=""></path><path class="path" id="undefined" stroke-width="2" d="M912.9331,739.7793L928.7111,735.0055" stroke="#000000" fill="none" style=""></path><path class="path" id="undefined" stroke-width="2" d="M689.0427,884.9688L689.0492,884.9613A138.8845,138.8845,0,0,0,912.9331,739.7793L912.9426,739.7764" stroke="#000000" fill="none" style=""></path><path class="path" id="undefined" stroke-width="2" d="M852.1509,891.2633L855.5651,896.5282" stroke="#000000" fill="none" style=""></path><path class="path" id="undefined" stroke-width="2" d="M669.5845,853.4599L669.5929,853.4544A132.6095,132.6095,0,0,0,852.1509,891.2633L852.1564,891.2717" stroke="#000000" fill="none" style=""></path><path class="path" id="undefined" stroke-width="2" d="M755.6019,897.8048L753.1064,909.8538" stroke="#000000" fill="none" style=""></path><path class="path" id="undefined" stroke-width="2" d="M669.5247,827.6536L669.5339,827.6497A120.3048,120.3048,0,0,0,755.6019,897.8048L755.5998,897.8146" stroke="#000000" fill="none" style=""></path><path class="path" id="undefined" stroke-width="2" d="M714.1401,860.7986L703.99,873.2509" stroke="#000000" fill="none" style=""></path><path class="path" id="undefined" stroke-width="2" d="M678.4344,803.5043L678.4442,803.502A104.2398,104.2398,0,0,0,714.1401,860.7986L714.1338,860.8063" stroke="#000000" fill="none" style=""></path><path class="path" id="undefined" stroke-width="2" d="M709.4866,823.9302L691.5256,835.12" stroke="#000000" fill="none" style=""></path><path class="path" id="undefined" stroke-width="2" d="M697.0058,783.9531L697.0158,783.9526A83.0783,83.0783,0,0,0,709.4866,823.9302L709.4781,823.9355" stroke="#000000" fill="none" style=""></path><path class="path" id="undefined" stroke-width="2" d="M743.688,791.3274L700.6909,804.7401" stroke="#000000" fill="none" style=""></path><path class="path" id="undefined" stroke-width="2" d="M742.2843,774.9837L742.2942,774.9851A38.0378,38.0378,0,0,0,743.688,791.3274L743.6784,791.3304" stroke="#000000" fill="none" style=""></path><path class="path" id="undefined" stroke-width="2" d="M780,780L742.0998,783.2323" stroke="#000000" fill="none" style=""></path><path class="path" id="undefined" stroke-width="2" d="M780,780L782.5229,775.6832" stroke="#000000" fill="none" style=""></path><path stroke-width="2" class="path2" id="undefined" stroke-dasharray="1,3" d="M782.5229,775.6832L1043.8995,328.4625" stroke="#c8c8c8" fill="none" style=""></path><a xlink:href="http://tools.gpcr.org/visualise/protein/bai1_human"><text transform="matrix(0.5046,-0.8634,0.8634,0.5046,235.5696,1064.0015)" font-weight="bold" fill="#000000" stroke="none" font-size="12px" font-family="Verdana" text-anchor="start" y="326.7358" x="1044.9086" style="text-anchor: start; font-family: Verdana; font-size: 12px; font-weight: bold;"><tspan dy="4.999990673828108">BAI1</tspan><title>Brain-specific angiogenesis inhibitor 1 (Homo sapiens)</title></text></a><g transform="translate (730 1560)" id="leg_group" class="legend"></g><circle style="display: none;" stroke="#ff0000" fill="none" r="5" cy="704.02" cx="713.4564"></circle><circle style="display: none;" stroke="#ff0000" fill="none" r="5" cy="719.0831" cx="743.529"></circle><circle style="display: none;" stroke="#ff0000" fill="none" r="5" cy="669.2289" cx="640.6667"></circle></svg>