<?xml version="1.0" standalone="no"?><!DOCTYPE svg PUBLIC "-//W3C//DTD SVG 1.1//EN" "http://www.w3.org/Graphics/SVG/1.1/DTD/svg11.dtd"><svg height="1620" version="1.1" width="1440" style="overflow: hidden; position: relative;" id="svgtree" class="svgtree" xmlns="http://www.w3.org/2000/svg" xmlns:xlink="http://www.w3.org/1999/xlink" viewBox="0 0 1440 1620"><defs><style type="text/css"><![CDATA[
a { background-color: transparent; }
@font-face { font-family: 'Glyphicons Halflings'; src: url(http://localhost:8000/static/bootstrap/fonts/glyphicons-halflings-regular.eot?#iefix) format(embedded-opentype), url(http://localhost:8000/static/bootstrap/fonts/glyphicons-halflings-regular.woff) format(woff), url(http://localhost:8000/static/bootstrap/fonts/glyphicons-halflings-regular.ttf) format(truetype), url(http://localhost:8000/static/bootstrap/fonts/glyphicons-halflings-regular.svg#glyphicons_halflingsregular) format(svg); }
* { box-sizing: border-box; }
a { color: rgb(51, 122, 183); text-decoration: none; }
.label { display: inline; padding: 0.2em 0.6em 0.3em; font-size: 75%; font-weight: 700; line-height: 1; color: rgb(255, 255, 255); text-align: center; white-space: nowrap; vertical-align: baseline; border-radius: 0.25em; }

]]></style></defs><path fill="#0a0a0a" stroke="#0a0a0a" d="M804.5405,96.9571A628.7523639872182,628.7523639872182,0,1,0,1012.545,163.4508L1017.1978,154.5992A638.7523639872182,638.7523639872182,0,1,1,805.885,87.0479Z" id="C" class="chart0" style="-webkit-tap-highlight-color: rgba(0, 0, 0, 0); fill: rgb(10, 10, 10); visibility: hidden;"></path><text x="527.0259" y="1323.6581" text-anchor="middle" font-family="Verdana" font-size="10px" stroke="none" fill="#ffffff" style="-webkit-tap-highlight-color: rgba(0, 0, 0, 0); text-anchor: middle; font-family: Verdana; font-size: 10px; font-weight: bold;" font-weight="bold" class="label" transform="matrix(-0.9525,-0.3045,0.3045,-0.9525,625.9771,2744.918)"><tspan style="-webkit-tap-highlight-color: rgba(0, 0, 0, 0);" dy="2.494037500000104">CLASS C</tspan></text><path fill="#c86464" stroke="#000000" d="M1142.745,269.5506A617.7523639872182,617.7523639872182,0,0,0,1007.4269,173.1876L1012.0797,164.336A627.7523639872182,627.7523639872182,0,0,1,1149.5883,262.2589Z" id="C_A" class="chart1" style="-webkit-tap-highlight-color: rgba(0, 0, 0, 0); fill: rgb(200, 100, 100); visibility: hidden;"></path><path fill="#b5c864" stroke="#000000" d="M860.8675,1321.4768A617.7523639872182,617.7523639872182,0,0,0,1142.745,269.5506L1149.5883,262.2589A627.7523639872182,627.7523639872182,0,0,1,863.1478,1331.2133Z" id="C_B" class="chart1" style="-webkit-tap-highlight-color: rgba(0, 0, 0, 0); fill: rgb(181, 200, 100); visibility: hidden;"></path><path fill="#648fc8" stroke="#000000" d="M112.5023,832.0914A617.7523639872182,617.7523639872182,0,0,0,860.8675,1321.4768L863.1478,1331.2133A627.7523639872182,627.7523639872182,0,0,1,102.6683,833.9059Z" id="C_D" class="chart1" style="-webkit-tap-highlight-color: rgba(0, 0, 0, 0); fill: rgb(100, 143, 200); visibility: hidden;"></path><path fill="#b5c864" stroke="#000000" d="M104.5986,666.1566A617.7523639872182,617.7523639872182,0,0,0,112.5023,832.0914L102.6683,833.9059A627.7523639872182,627.7523639872182,0,0,1,94.6367,665.285Z" id="C_B" class="chart1" style="-webkit-tap-highlight-color: rgba(0, 0, 0, 0); fill: rgb(181, 200, 100); visibility: hidden;"></path><path fill="#648fc8" stroke="#000000" d="M141.1979,504.1156A617.7523639872182,617.7523639872182,0,0,0,104.5986,666.1566L94.6367,665.285A627.7523639872182,627.7523639872182,0,0,1,131.8284,500.6209Z" id="C_D" class="chart1" style="-webkit-tap-highlight-color: rgba(0, 0, 0, 0); fill: rgb(100, 143, 200); visibility: hidden;"></path><path fill="#b5c864" stroke="#000000" d="M219.6533,357.6863A617.7523639872182,617.7523639872182,0,0,0,141.1979,504.1156L131.8284,500.6209A627.7523639872182,627.7523639872182,0,0,1,211.5539,351.8213Z" id="C_B" class="chart1" style="-webkit-tap-highlight-color: rgba(0, 0, 0, 0); fill: rgb(181, 200, 100); visibility: hidden;"></path><path fill="#64c88a" stroke="#000000" d="M636.9386,107.8572A617.7523639872182,617.7523639872182,0,0,0,219.6533,357.6863L211.5539,351.8213A627.7523639872182,627.7523639872182,0,0,1,635.594,97.948Z" id="C_C" class="chart1" style="-webkit-tap-highlight-color: rgba(0, 0, 0, 0); fill: rgb(100, 200, 138); visibility: hidden;"></path><path fill="#c86464" stroke="#000000" d="M803.0614,107.8572A617.7523639872182,617.7523639872182,0,0,0,636.9386,107.8572L635.594,97.948A627.7523639872182,627.7523639872182,0,0,1,804.406,97.948Z" id="C_A" class="chart1" style="-webkit-tap-highlight-color: rgba(0, 0, 0, 0); fill: rgb(200, 100, 100); visibility: hidden;"></path><path fill="#c86486" stroke="#000000" d="M1135.2174,277.5715A606.7523639872182,606.7523639872182,0,0,0,1002.3089,182.9245L1006.9616,174.0728A616.7523639872182,616.7523639872182,0,0,1,1142.0607,270.2798Z" id="C_A_A" class="chart2" style="-webkit-tap-highlight-color: rgba(0, 0, 0, 0); fill: rgb(200, 100, 134); visibility: hidden;"></path><path fill="#b5c864" stroke="#000000" d="M858.3591,1310.7666A606.7523639872182,606.7523639872182,0,0,0,1135.2174,277.5715L1142.0607,270.2798A616.7523639872182,616.7523639872182,0,0,1,860.6394,1320.5031Z" id="C_B_B" class="chart2" style="-webkit-tap-highlight-color: rgba(0, 0, 0, 0); fill: rgb(181, 200, 100); visibility: hidden;"></path><path fill="#64aec8" stroke="#000000" d="M123.3197,830.0954A606.7523639872182,606.7523639872182,0,0,0,858.3591,1310.7666L860.6394,1320.5031A616.7523639872182,616.7523639872182,0,0,1,113.4857,831.9099Z" id="C_D_A" class="chart2" style="-webkit-tap-highlight-color: rgba(0, 0, 0, 0); fill: rgb(100, 174, 200); visibility: hidden;"></path><path fill="#c8b364" stroke="#000000" d="M115.5567,667.1154A606.7523639872182,606.7523639872182,0,0,0,123.3197,830.0954L113.4857,831.9099A616.7523639872182,616.7523639872182,0,0,1,105.5948,666.2438Z" id="C_B_A" class="chart2" style="-webkit-tap-highlight-color: rgba(0, 0, 0, 0); fill: rgb(200, 179, 100); visibility: hidden;"></path><path fill="#64aec8" stroke="#000000" d="M151.5043,507.9598A606.7523639872182,606.7523639872182,0,0,0,115.5567,667.1154L105.5948,666.2438A616.7523639872182,616.7523639872182,0,0,1,142.1348,504.4651Z" id="C_D_A" class="chart2" style="-webkit-tap-highlight-color: rgba(0, 0, 0, 0); fill: rgb(100, 174, 200); visibility: hidden;"></path><path fill="#c8b364" stroke="#000000" d="M228.5628,364.1378A606.7523639872182,606.7523639872182,0,0,0,151.5043,507.9598L142.1348,504.4651A616.7523639872182,616.7523639872182,0,0,1,220.4633,358.2728Z" id="C_B_A" class="chart2" style="-webkit-tap-highlight-color: rgba(0, 0, 0, 0); fill: rgb(200, 179, 100); visibility: hidden;"></path><path fill="#64c86b" stroke="#000000" d="M638.4176,118.7573A606.7523639872182,606.7523639872182,0,0,0,228.5628,364.1378L220.4633,358.2728A616.7523639872182,616.7523639872182,0,0,1,637.073,108.8481Z" id="C_C_A" class="chart2" style="-webkit-tap-highlight-color: rgba(0, 0, 0, 0); fill: rgb(100, 200, 107); visibility: hidden;"></path><path fill="#c86486" stroke="#000000" d="M801.5824,118.7573A606.7523639872182,606.7523639872182,0,0,0,638.4176,118.7573L637.073,108.8481A616.7523639872182,616.7523639872182,0,0,1,802.927,108.8481Z" id="C_A_A" class="chart2" style="-webkit-tap-highlight-color: rgba(0, 0, 0, 0); fill: rgb(200, 100, 134); visibility: hidden;"></path><path fill="#eeeeee" stroke="#dddddd" d="M784.8085,242.3769A482,482,0,1,0,944.2568,293.3469L1002.2995,182.9195A606.7523639872182,606.7523639872182,0,1,1,801.5824,118.7573Z" id="undefined" class="path" stroke-width="2" style="-webkit-tap-highlight-color: rgba(0, 0, 0, 0);"></path><path fill="#eeeeee" stroke="#dddddd" d="M1049.8459,368.5378A482,482,0,0,0,944.2643,293.3508L1002.3089,182.9245A606.7523639872182,606.7523639872182,0,0,1,1135.2174,277.5715Z" id="C_A_A_A" class="bgfield" style="-webkit-tap-highlight-color: rgba(0, 0, 0, 0);"></path><path fill="#eeeeee" stroke="#dddddd" d="M1131.5747,469.1409A482,482,0,0,0,1049.8459,368.5378L1135.2174,277.5715A606.7523639872182,606.7523639872182,0,0,1,1238.0994,404.2129Z" id="C_B_B_G" class="bgfield" style="-webkit-tap-highlight-color: rgba(0, 0, 0, 0);"></path><path fill="#eeeeee" stroke="#dddddd" d="M1183.5403,587.8849A482,482,0,0,0,1131.5747,469.1409L1238.0994,404.2129A606.7523639872182,606.7523639872182,0,0,1,1303.5149,553.6906Z" id="C_B_B_H" class="bgfield" style="-webkit-tap-highlight-color: rgba(0, 0, 0, 0);"></path><path fill="#eeeeee" stroke="#dddddd" d="M1201.9849,716.1829A482,482,0,0,0,1183.5403,587.8849L1303.5149,553.6906A606.7523639872182,606.7523639872182,0,0,1,1326.7333,715.1949Z" id="C_B_B_D" class="bgfield" style="-webkit-tap-highlight-color: rgba(0, 0, 0, 0);"></path><path fill="#eeeeee" stroke="#dddddd" d="M1185.5746,844.7569A482,482,0,0,0,1201.9849,716.1829L1326.7333,715.1949A606.7523639872182,606.7523639872182,0,0,1,1306.0757,877.0467Z" id="C_B_B_F" class="bgfield" style="-webkit-tap-highlight-color: rgba(0, 0, 0, 0);"></path><path fill="#eeeeee" stroke="#dddddd" d="M1135.4962,964.309A482,482,0,0,0,1185.5746,844.7569L1306.0757,877.0467A606.7523639872182,606.7523639872182,0,0,1,1243.0359,1027.5417Z" id="C_B_B_A" class="bgfield" style="-webkit-tap-highlight-color: rgba(0, 0, 0, 0); fill: rgb(109, 205, 225);"></path><path fill="#eeeeee" stroke="#dddddd" d="M1055.3711,1066.194A482,482,0,0,0,1135.4962,964.309L1243.0359,1027.5417A606.7523639872182,606.7523639872182,0,0,1,1142.1726,1155.7967Z" id="C_B_B_E" class="bgfield" style="-webkit-tap-highlight-color: rgba(0, 0, 0, 0); fill: rgb(109, 205, 225);"></path><path fill="#eeeeee" stroke="#dddddd" d="M950.9935,1143.0437A482,482,0,0,0,1055.3711,1066.194L1142.1726,1155.7967A606.7523639872182,606.7523639872182,0,0,1,1010.7798,1252.5369Z" id="C_B_B_C" class="bgfield" style="-webkit-tap-highlight-color: rgba(0, 0, 0, 0);"></path><path fill="#eeeeee" stroke="#dddddd" d="M829.9115,1189.301A482,482,0,0,0,950.9935,1143.0437L1010.7798,1252.5369A606.7523639872182,606.7523639872182,0,0,1,858.3591,1310.7666Z" id="C_B_B_B" class="bgfield" style="-webkit-tap-highlight-color: rgba(0, 0, 0, 0);"></path><path fill="#eeeeee" stroke="#dddddd" d="M700.8813,1201.6207A482,482,0,0,0,829.9115,1189.301L858.3591,1310.7666A606.7523639872182,606.7523639872182,0,0,1,695.933,1326.2749Z" id="C_D_A_E" class="bgfield" style="-webkit-tap-highlight-color: rgba(0, 0, 0, 0);"></path><path fill="#eeeeee" stroke="#dddddd" d="M573.2337,1179.1118A482,482,0,0,0,700.8813,1201.6207L695.933,1326.2749A606.7523639872182,606.7523639872182,0,0,1,535.2473,1297.9402Z" id="C_D_A_F" class="bgfield" style="-webkit-tap-highlight-color: rgba(0, 0, 0, 0);"></path><path fill="#eeeeee" stroke="#dddddd" d="M456.1995,1123.4021A482,482,0,0,0,573.2337,1179.1118L535.2473,1297.9402A606.7523639872182,606.7523639872182,0,0,1,387.922,1227.8116Z" id="C_D_A_D" class="bgfield" style="-webkit-tap-highlight-color: rgba(0, 0, 0, 0);"></path><path fill="#eeeeee" stroke="#dddddd" d="M358.2421,1038.5204A482,482,0,0,0,456.1995,1123.4021L387.922,1227.8116A606.7523639872182,606.7523639872182,0,0,1,264.6111,1120.9605Z" id="C_D_A_G" class="bgfield" style="-webkit-tap-highlight-color: rgba(0, 0, 0, 0);"></path><path fill="#eeeeee" stroke="#dddddd" d="M286.4453,930.6047A482,482,0,0,0,358.2421,1038.5204L264.6111,1120.9605A606.7523639872182,606.7523639872182,0,0,1,174.2317,985.1139Z" id="C_D_A_C" class="bgfield" style="-webkit-tap-highlight-color: rgba(0, 0, 0, 0);"></path><path fill="#eeeeee" stroke="#dddddd" d="M246.0011,807.4591A482,482,0,0,0,286.4453,930.6047L174.2317,985.1139A606.7523639872182,606.7523639872182,0,0,1,123.3197,830.0954Z" id="C_D_A_B" class="bgfield" style="-webkit-tap-highlight-color: rgba(0, 0, 0, 0);"></path><path fill="#eeeeee" stroke="#dddddd" d="M239.8343,677.9888A482,482,0,0,0,246.0011,807.4591L123.3197,830.0954A606.7523639872182,606.7523639872182,0,0,1,115.5567,667.1154Z" id="C_B_A_A" class="bgfield" style="-webkit-tap-highlight-color: rgba(0, 0, 0, 0);"></path><path fill="#eeeeee" stroke="#dddddd" d="M268.3908,551.5567A482,482,0,0,0,239.8343,677.9888L115.5567,667.1154A606.7523639872182,606.7523639872182,0,0,1,151.5043,507.9598Z" id="C_D_A_A" class="bgfield" style="-webkit-tap-highlight-color: rgba(0, 0, 0, 0);"></path><path fill="#eeeeee" stroke="#dddddd" d="M329.6056,437.3055A482,482,0,0,0,268.3908,551.5567L151.5043,507.9598A606.7523639872182,606.7523639872182,0,0,1,228.5628,364.1378Z" id="C_B_A_B" class="bgfield" style="-webkit-tap-highlight-color: rgba(0, 0, 0, 0);"></path><path fill="#eeeeee" stroke="#dddddd" d="M419.0518,343.4975A482,482,0,0,0,329.6056,437.3055L228.5628,364.1378A606.7523639872182,606.7523639872182,0,0,1,341.1596,246.0502Z" id="C_C_A_C" class="bgfield" style="-webkit-tap-highlight-color: rgba(0, 0, 0, 0);"></path><path fill="#eeeeee" stroke="#dddddd" d="M530.2611,276.9163A482,482,0,0,0,419.0518,343.4975L341.1596,246.0502A606.7523639872182,606.7523639872182,0,0,1,481.1525,162.2364Z" id="C_C_A_A" class="bgfield" style="-webkit-tap-highlight-color: rgba(0, 0, 0, 0);"></path><path fill="#eeeeee" stroke="#dddddd" d="M655.1915,242.3769A482,482,0,0,0,530.2611,276.9163L481.1525,162.2364A606.7523639872182,606.7523639872182,0,0,1,638.4176,118.7573Z" id="C_C_A_B" class="bgfield" style="-webkit-tap-highlight-color: rgba(0, 0, 0, 0);"></path><path fill="#eeeeee" stroke="#dddddd" d="M784.8085,242.3769A482,482,0,0,0,655.1915,242.3769L638.4176,118.7573A606.7523639872182,606.7523639872182,0,0,1,801.5824,118.7573Z" id="C_A_A_B" class="bgfield" style="-webkit-tap-highlight-color: rgba(0, 0, 0, 0);"></path><desc style="-webkit-tap-highlight-color: rgba(0, 0, 0, 0);">Created with Raphaël 2.1.4</desc><defs style="-webkit-tap-highlight-color: rgba(0, 0, 0, 0);"></defs><path fill="none" stroke="#000000" d="M720,720L720,644" stroke-width="2" id="undefined" class="path" style="-webkit-tap-highlight-color: rgba(0, 0, 0, 0);"></path><path fill="none" stroke="#c8c8c8" d="M720,644L720,238" stroke-dasharray="1,3" id="undefined" class="path2" stroke-width="2" style="-webkit-tap-highlight-color: rgba(0, 0, 0, 0);"></path><a xlink:href="http://tools.gpcr.org/visualise/protein/gpc6a_human" style="-webkit-tap-highlight-color: rgba(0, 0, 0, 0);"><text x="720" y="236" text-anchor="start" font-family="Verdana" font-size="12px" stroke="none" fill="#000000" style="-webkit-tap-highlight-color: rgba(0, 0, 0, 0); text-anchor: start; font-family: Verdana; font-size: 12px; font-weight: bold;" font-weight="bold" transform="matrix(0,-1,1,0,484,956)"><tspan style="-webkit-tap-highlight-color: rgba(0, 0, 0, 0);" dy="4.5">GPRC6 receptor</tspan><title style="-webkit-tap-highlight-color: rgba(0, 0, 0, 0);">G-protein coupled receptor family C group 6 member A (Homo sapiens)</title></text></a><path fill="none" stroke="#000000" d="M698.2087,641.1801L668.0378,532.0507" stroke-width="2" id="undefined" class="path" style="-webkit-tap-highlight-color: rgba(0, 0, 0, 0);"></path><path fill="none" stroke="#c8c8c8" d="M668.0378,532.0507L591.56,255.428" stroke-dasharray="1,3" id="undefined" class="path2" stroke-width="2" style="-webkit-tap-highlight-color: rgba(0, 0, 0, 0);"></path><a xlink:href="http://tools.gpcr.org/visualise/protein/ts1r2_human" style="-webkit-tap-highlight-color: rgba(0, 0, 0, 0);"><text x="591.027" y="253.5003" text-anchor="end" font-family="Verdana" font-size="12px" stroke="none" fill="#000000" style="-webkit-tap-highlight-color: rgba(0, 0, 0, 0); text-anchor: end; font-family: Verdana; font-size: 12px; font-weight: bold;" font-weight="bold" transform="matrix(0.2665,0.9638,-0.9638,0.2665,677.8686,-383.7076)"><tspan style="-webkit-tap-highlight-color: rgba(0, 0, 0, 0);" dy="4.49248750000001">TAS1R2</tspan><title style="-webkit-tap-highlight-color: rgba(0, 0, 0, 0);">Taste receptor type 1 member 2 (Homo sapiens)</title></text></a><path fill="none" stroke="#000000" d="M677.9932,649.8368L613.6691,542.3973" stroke-width="2" id="undefined" class="path" style="-webkit-tap-highlight-color: rgba(0, 0, 0, 0);"></path><path fill="none" stroke="#c8c8c8" d="M613.6691,542.3973L472.4082,306.4516" stroke-dasharray="1,3" id="undefined" class="path2" stroke-width="2" style="-webkit-tap-highlight-color: rgba(0, 0, 0, 0);"></path><a xlink:href="http://tools.gpcr.org/visualise/protein/ts1r1_human" style="-webkit-tap-highlight-color: rgba(0, 0, 0, 0);"><text x="471.3808" y="304.7356" text-anchor="end" font-family="Verdana" font-size="12px" stroke="none" fill="#000000" style="-webkit-tap-highlight-color: rgba(0, 0, 0, 0); text-anchor: end; font-family: Verdana; font-size: 12px; font-weight: bold;" font-weight="bold" transform="matrix(0.5137,0.858,-0.858,0.5137,490.7021,-256.2371)"><tspan style="-webkit-tap-highlight-color: rgba(0, 0, 0, 0);" dy="4.493412499999977">TAS1R1</tspan><title style="-webkit-tap-highlight-color: rgba(0, 0, 0, 0);">Taste receptor type 1 member 1 (Homo sapiens)</title></text></a><path fill="none" stroke="#000000" d="M698.206,641.1704L698.2087,641.1801A81.77680000000001,81.77680000000001,0,0,0,677.9932,649.8368L677.9881,649.8282" stroke-width="2" id="undefined" class="path" style="-webkit-tap-highlight-color: rgba(0, 0, 0, 0);"></path><path fill="none" stroke="#000000" d="M695.9681,663.8803L687.8086,644.8258" stroke-width="2" id="undefined" class="path" style="-webkit-tap-highlight-color: rgba(0, 0, 0, 0);"></path><path fill="none" stroke="#000000" d="M675.817,677.8714L542.6856,550.9302" stroke-width="2" id="undefined" class="path" style="-webkit-tap-highlight-color: rgba(0, 0, 0, 0);"></path><path fill="none" stroke="#c8c8c8" d="M542.6856,550.9302L371.161,387.3811" stroke-dasharray="1,3" id="undefined" class="path2" stroke-width="2" style="-webkit-tap-highlight-color: rgba(0, 0, 0, 0);"></path><a xlink:href="http://tools.gpcr.org/visualise/protein/ts1r3_human" style="-webkit-tap-highlight-color: rgba(0, 0, 0, 0);"><text x="369.7135" y="386.0009" text-anchor="end" font-family="Verdana" font-size="12px" stroke="none" fill="#000000" style="-webkit-tap-highlight-color: rgba(0, 0, 0, 0); text-anchor: end; font-family: Verdana; font-size: 12px; font-weight: bold;" font-weight="bold" transform="matrix(0.7237,0.6901,-0.6901,0.7237,368.5116,-148.4926)"><tspan style="-webkit-tap-highlight-color: rgba(0, 0, 0, 0);" dy="4.4930875000000015">TAS1R3</tspan><title style="-webkit-tap-highlight-color: rgba(0, 0, 0, 0);">Taste receptor type 1 member 3 (Homo sapiens)</title></text></a><path fill="none" stroke="#000000" d="M695.9642,663.8711L695.9681,663.8803A61.0488,61.0488,0,0,0,675.817,677.8714L675.8098,677.8645" stroke-width="2" id="undefined" class="path" style="-webkit-tap-highlight-color: rgba(0, 0, 0, 0);"></path><path fill="none" stroke="#000000" d="M710.0053,705.6048L685.1825,669.8532" stroke-width="2" id="undefined" class="path" style="-webkit-tap-highlight-color: rgba(0, 0, 0, 0);"></path><path fill="none" stroke="#000000" d="M509.9892,607.4782L447.6314,574.0674" stroke-width="2" id="undefined" class="path" style="-webkit-tap-highlight-color: rgba(0, 0, 0, 0);"></path><path fill="none" stroke="#c8c8c8" d="M447.6314,574.0674L295.1402,492.364" stroke-dasharray="1,3" id="undefined" class="path2" stroke-width="2" style="-webkit-tap-highlight-color: rgba(0, 0, 0, 0);"></path><a xlink:href="http://tools.gpcr.org/visualise/protein/gabr2_human" style="-webkit-tap-highlight-color: rgba(0, 0, 0, 0);"><text x="293.3773" y="491.4194" text-anchor="end" font-family="Verdana" font-size="12px" stroke="none" fill="#000000" style="-webkit-tap-highlight-color: rgba(0, 0, 0, 0); text-anchor: end; font-family: Verdana; font-size: 12px; font-weight: bold;" font-weight="bold" transform="matrix(0.8815,0.4723,-0.4723,0.8815,266.8639,-80.2976)"><tspan style="-webkit-tap-highlight-color: rgba(0, 0, 0, 0);" dy="4.505337499999996">GABAB2</tspan><title style="-webkit-tap-highlight-color: rgba(0, 0, 0, 0);">Gamma-aminobutyric acid type B receptor subunit 2 (Homo sapiens)</title></text></a><path fill="none" stroke="#000000" d="M487.5987,667.5089L317.1479,629.0102" stroke-width="2" id="undefined" class="path" style="-webkit-tap-highlight-color: rgba(0, 0, 0, 0);"></path><path fill="none" stroke="#c8c8c8" d="M317.1479,629.0102L249.8433,613.8085" stroke-dasharray="1,3" id="undefined" class="path2" stroke-width="2" style="-webkit-tap-highlight-color: rgba(0, 0, 0, 0);"></path><a xlink:href="http://tools.gpcr.org/visualise/protein/gp156_human" style="-webkit-tap-highlight-color: rgba(0, 0, 0, 0);"><text x="247.8924" y="613.3678" text-anchor="end" font-family="Verdana" font-size="12px" stroke="none" fill="#000000" style="-webkit-tap-highlight-color: rgba(0, 0, 0, 0); text-anchor: end; font-family: Verdana; font-size: 12px; font-weight: bold;" font-weight="bold" transform="matrix(0.9754,0.2203,-0.2203,0.9754,141.2247,-39.5432)"><tspan style="-webkit-tap-highlight-color: rgba(0, 0, 0, 0);" dy="4.500612499999988">GPR156</tspan><title style="-webkit-tap-highlight-color: rgba(0, 0, 0, 0);">Probable G-protein coupled receptor 156 (Homo sapiens)</title></text></a><path fill="none" stroke="#000000" d="M509.9804,607.4734L509.9892,607.4782A238.25549999999998,238.25549999999998,0,0,0,487.5987,667.5089L487.5889,667.5067" stroke-width="2" id="undefined" class="path" style="-webkit-tap-highlight-color: rgba(0, 0, 0, 0);"></path><path fill="none" stroke="#000000" d="M509.1654,641.3621L496.7668,636.7376" stroke-width="2" id="undefined" class="path" style="-webkit-tap-highlight-color: rgba(0, 0, 0, 0);"></path><path fill="none" stroke="#000000" d="M495.2323,730.7059L413.3477,734.6062" stroke-width="2" id="undefined" class="path" style="-webkit-tap-highlight-color: rgba(0, 0, 0, 0);"></path><path fill="none" stroke="#c8c8c8" d="M413.3477,734.6062L238.5458,742.9322" stroke-dasharray="1,3" id="undefined" class="path2" stroke-width="2" style="-webkit-tap-highlight-color: rgba(0, 0, 0, 0);"></path><a xlink:href="http://tools.gpcr.org/visualise/protein/gabr1_human" style="-webkit-tap-highlight-color: rgba(0, 0, 0, 0);"><text x="236.5481" y="743.0273" text-anchor="end" font-family="Verdana" font-size="12px" stroke="none" fill="#000000" style="-webkit-tap-highlight-color: rgba(0, 0, 0, 0); text-anchor: end; font-family: Verdana; font-size: 12px; font-weight: bold;" font-weight="bold" transform="matrix(0.9989,-0.0476,0.0476,0.9989,-35.0833,12.0957)"><tspan style="-webkit-tap-highlight-color: rgba(0, 0, 0, 0);" dy="4.503862499999968">GABAB1</tspan><title style="-webkit-tap-highlight-color: rgba(0, 0, 0, 0);">Gamma-aminobutyric acid type B receptor subunit 1 (Homo sapiens)</title></text></a><path fill="none" stroke="#000000" d="M509.1561,641.3586L509.1654,641.3621A225.02249999999998,225.02249999999998,0,0,0,495.2323,730.7059L495.2223,730.7064" stroke-width="2" id="undefined" class="path" style="-webkit-tap-highlight-color: rgba(0, 0, 0, 0);"></path><path fill="none" stroke="#000000" d="M583.8272,698.764L497.6649,685.3271" stroke-width="2" id="undefined" class="path" style="-webkit-tap-highlight-color: rgba(0, 0, 0, 0);"></path><path fill="none" stroke="#000000" d="M327.423,848.9323L301.9679,857.2924" stroke-width="2" id="undefined" class="path" style="-webkit-tap-highlight-color: rgba(0, 0, 0, 0);"></path><path fill="none" stroke="#c8c8c8" d="M301.9679,857.2924L262.0649,870.3976" stroke-dasharray="1,3" id="undefined" class="path2" stroke-width="2" style="-webkit-tap-highlight-color: rgba(0, 0, 0, 0);"></path><a xlink:href="http://tools.gpcr.org/visualise/protein/gp158_human" style="-webkit-tap-highlight-color: rgba(0, 0, 0, 0);"><text x="260.1647" y="871.0216" text-anchor="end" font-family="Verdana" font-size="12px" stroke="none" fill="#000000" style="-webkit-tap-highlight-color: rgba(0, 0, 0, 0); text-anchor: end; font-family: Verdana; font-size: 12px; font-weight: bold;" font-weight="bold" transform="matrix(0.9501,-0.312,0.312,0.9501,-258.794,124.6663)"><tspan style="-webkit-tap-highlight-color: rgba(0, 0, 0, 0);" dy="4.498162500000035">GPR158</tspan><title style="-webkit-tap-highlight-color: rgba(0, 0, 0, 0);">Probable G-protein coupled receptor 158 (Homo sapiens)</title></text></a><path fill="none" stroke="#000000" d="M375.9746,948.8816L318.6996,986.9869" stroke-width="2" id="undefined" class="path" style="-webkit-tap-highlight-color: rgba(0, 0, 0, 0);"></path><path fill="none" stroke="#c8c8c8" d="M318.6996,986.9869L318.6996,986.9869" stroke-dasharray="1,3" id="undefined" class="path2" stroke-width="2" style="-webkit-tap-highlight-color: rgba(0, 0, 0, 0);"></path><a xlink:href="http://tools.gpcr.org/visualise/protein/gp179_human" style="-webkit-tap-highlight-color: rgba(0, 0, 0, 0);"><text x="317.0345" y="988.0948" text-anchor="end" font-family="Verdana" font-size="12px" stroke="none" fill="#000000" style="-webkit-tap-highlight-color: rgba(0, 0, 0, 0); text-anchor: end; font-family: Verdana; font-size: 12px; font-weight: bold;" font-weight="bold" transform="matrix(0.8326,-0.5539,0.5539,0.8326,-494.2403,341.0435)"><tspan style="-webkit-tap-highlight-color: rgba(0, 0, 0, 0);" dy="4.493237499999964">GPR179</tspan><title style="-webkit-tap-highlight-color: rgba(0, 0, 0, 0);">Probable G-protein coupled receptor 179 (Homo sapiens)</title></text></a><path fill="none" stroke="#000000" d="M327.4135,848.9354L327.423,848.9323A413.2073,413.2073,0,0,0,375.9746,948.8816L375.9663,948.8872" stroke-width="2" id="undefined" class="path" style="-webkit-tap-highlight-color: rgba(0, 0, 0, 0);"></path><path fill="none" stroke="#000000" d="M596.0334,780.2185L348.3239,900.5468" stroke-width="2" id="undefined" class="path" style="-webkit-tap-highlight-color: rgba(0, 0, 0, 0);"></path><path fill="none" stroke="#000000" d="M583.8173,698.7625L583.8272,698.764A137.81869999999998,137.81869999999998,0,0,0,596.0334,780.2185L596.0244,780.2229" stroke-width="2" id="undefined" class="path" style="-webkit-tap-highlight-color: rgba(0, 0, 0, 0);"></path><path fill="none" stroke="#000000" d="M641.3098,731.7919L583.7031,740.4244" stroke-width="2" id="undefined" class="path" style="-webkit-tap-highlight-color: rgba(0, 0, 0, 0);"></path><path fill="none" stroke="#000000" d="M539.2399,928.6053L514.372,957.3039" stroke-width="2" id="undefined" class="path" style="-webkit-tap-highlight-color: rgba(0, 0, 0, 0);"></path><path fill="none" stroke="#c8c8c8" d="M514.372,957.3039L404.3545,1084.269" stroke-dasharray="1,3" id="undefined" class="path2" stroke-width="2" style="-webkit-tap-highlight-color: rgba(0, 0, 0, 0);"></path><a xlink:href="http://tools.gpcr.org/visualise/protein/gpc5d_human" style="-webkit-tap-highlight-color: rgba(0, 0, 0, 0);"><text x="403.0448" y="1085.7805" text-anchor="end" font-family="Verdana" font-size="12px" stroke="none" fill="#000000" style="-webkit-tap-highlight-color: rgba(0, 0, 0, 0); text-anchor: end; font-family: Verdana; font-size: 12px; font-weight: bold;" font-weight="bold" transform="matrix(0.6549,-0.7557,0.7557,0.6549,-681.4687,679.3387)"><tspan style="-webkit-tap-highlight-color: rgba(0, 0, 0, 0);" dy="4.507062500000075">GPRC5D</tspan><title style="-webkit-tap-highlight-color: rgba(0, 0, 0, 0);">G-protein coupled receptor family C group 5 member D (Homo sapiens)</title></text></a><path fill="none" stroke="#000000" d="M601.3634,969.2303L574.7269,1025.188" stroke-width="2" id="undefined" class="path" style="-webkit-tap-highlight-color: rgba(0, 0, 0, 0);"></path><path fill="none" stroke="#c8c8c8" d="M574.7269,1025.188L512.8354,1155.2089" stroke-dasharray="1,3" id="undefined" class="path2" stroke-width="2" style="-webkit-tap-highlight-color: rgba(0, 0, 0, 0);"></path><a xlink:href="http://tools.gpcr.org/visualise/protein/rai3_human" style="-webkit-tap-highlight-color: rgba(0, 0, 0, 0);"><text x="511.9758" y="1157.0148" text-anchor="end" font-family="Verdana" font-size="12px" stroke="none" fill="#000000" style="-webkit-tap-highlight-color: rgba(0, 0, 0, 0); text-anchor: end; font-family: Verdana; font-size: 12px; font-weight: bold;" font-weight="bold" transform="matrix(0.4298,-0.9029,0.9029,0.4298,-752.7679,1122.0022)"><tspan style="-webkit-tap-highlight-color: rgba(0, 0, 0, 0);" dy="4.506987499999923">GPRC5A</tspan><title style="-webkit-tap-highlight-color: rgba(0, 0, 0, 0);">Retinoic acid-induced protein 3 (Homo sapiens)</title></text></a><path fill="none" stroke="#000000" d="M539.2333,928.6129L539.2399,928.6053A276.0261,276.0261,0,0,0,601.3634,969.2303L601.3591,969.2394" stroke-width="2" id="undefined" class="path" style="-webkit-tap-highlight-color: rgba(0, 0, 0, 0);"></path><path fill="none" stroke="#000000" d="M583.2617,929.0998L568.93,951.0157" stroke-width="2" id="undefined" class="path" style="-webkit-tap-highlight-color: rgba(0, 0, 0, 0);"></path><path fill="none" stroke="#000000" d="M676.6136,966.0441L663.2142,1042.0316" stroke-width="2" id="undefined" class="path" style="-webkit-tap-highlight-color: rgba(0, 0, 0, 0);"></path><path fill="none" stroke="#c8c8c8" d="M663.2142,1042.0316L636.2974,1194.6766" stroke-dasharray="1,3" id="undefined" class="path2" stroke-width="2" style="-webkit-tap-highlight-color: rgba(0, 0, 0, 0);"></path><a xlink:href="http://tools.gpcr.org/visualise/protein/gpc5c_human" style="-webkit-tap-highlight-color: rgba(0, 0, 0, 0);"><text x="635.9501" y="1196.6462" text-anchor="end" font-family="Verdana" font-size="12px" stroke="none" fill="#000000" style="-webkit-tap-highlight-color: rgba(0, 0, 0, 0); text-anchor: end; font-family: Verdana; font-size: 12px; font-weight: bold;" font-weight="bold" transform="matrix(0.1737,-0.9848,0.9848,0.1737,-652.9516,1615.1281)"><tspan style="-webkit-tap-highlight-color: rgba(0, 0, 0, 0);" dy="4.497762499999908">GPRC5C</tspan><title style="-webkit-tap-highlight-color: rgba(0, 0, 0, 0);">G-protein coupled receptor family C group 5 member C (Homo sapiens)</title></text></a><path fill="none" stroke="#000000" d="M583.2562,929.1081L583.2617,929.0998A249.84009999999998,249.84009999999998,0,0,0,676.6136,966.0441L676.6118,966.0539" stroke-width="2" id="undefined" class="path" style="-webkit-tap-highlight-color: rgba(0, 0, 0, 0);"></path><path fill="none" stroke="#000000" d="M632.4232,941.2918L628.063,952.3094" stroke-width="2" id="undefined" class="path" style="-webkit-tap-highlight-color: rgba(0, 0, 0, 0);"></path><path fill="none" stroke="#000000" d="M742.6202,956.9137L747.5635,1008.6871" stroke-width="2" id="undefined" class="path" style="-webkit-tap-highlight-color: rgba(0, 0, 0, 0);"></path><path fill="none" stroke="#c8c8c8" d="M747.5635,1008.6871L765.8124,1199.8179" stroke-dasharray="1,3" id="undefined" class="path2" stroke-width="2" style="-webkit-tap-highlight-color: rgba(0, 0, 0, 0);"></path><a xlink:href="http://tools.gpcr.org/visualise/protein/gpc5b_human" style="-webkit-tap-highlight-color: rgba(0, 0, 0, 0);"><text x="766.0025" y="1201.8088" text-anchor="start" font-family="Verdana" font-size="12px" stroke="none" fill="#000000" style="-webkit-tap-highlight-color: rgba(0, 0, 0, 0); text-anchor: start; font-family: Verdana; font-size: 12px; font-weight: bold;" font-weight="bold" transform="matrix(0.095,0.9955,-0.9955,0.095,1889.5646,325.0463)"><tspan style="-webkit-tap-highlight-color: rgba(0, 0, 0, 0);" dy="4.504112500000019">GPRC5B</tspan><title style="-webkit-tap-highlight-color: rgba(0, 0, 0, 0);">G-protein coupled receptor family C group 5 member B (Homo sapiens)</title></text></a><path fill="none" stroke="#000000" d="M632.4196,941.3011L632.4232,941.2918A237.9911,237.9911,0,0,0,742.6202,956.9137L742.6212,956.9236" stroke-width="2" id="undefined" class="path" style="-webkit-tap-highlight-color: rgba(0, 0, 0, 0);"></path><path fill="none" stroke="#000000" d="M708.4892,801.1983L686.5959,955.6352" stroke-width="2" id="undefined" class="path" style="-webkit-tap-highlight-color: rgba(0, 0, 0, 0);"></path><path fill="none" stroke="#000000" d="M772.6027,857.6915L778.1709,872.2667" stroke-width="2" id="undefined" class="path" style="-webkit-tap-highlight-color: rgba(0, 0, 0, 0);"></path><path fill="none" stroke="#c8c8c8" d="M778.1709,872.2667L892.0145,1170.261" stroke-dasharray="1,3" id="undefined" class="path2" stroke-width="2" style="-webkit-tap-highlight-color: rgba(0, 0, 0, 0);"></path><a xlink:href="http://tools.gpcr.org/visualise/protein/grm2_human" style="-webkit-tap-highlight-color: rgba(0, 0, 0, 0);"><text x="892.7283" y="1172.1293" text-anchor="start" font-family="Verdana" font-size="12px" stroke="none" fill="#000000" style="-webkit-tap-highlight-color: rgba(0, 0, 0, 0); text-anchor: start; font-family: Verdana; font-size: 12px; font-weight: bold;" font-weight="bold" transform="matrix(0.3569,0.9342,-0.9342,0.3569,1669.0809,-80.1197)"><tspan style="-webkit-tap-highlight-color: rgba(0, 0, 0, 0);" dy="4.4964875000000575">mGlu2 receptor</tspan><title style="-webkit-tap-highlight-color: rgba(0, 0, 0, 0);">Metabotropic glutamate receptor 2 (Homo sapiens)</title></text></a><path fill="none" stroke="#000000" d="M807.3918,838.6957L826.7218,864.9498" stroke-width="2" id="undefined" class="path" style="-webkit-tap-highlight-color: rgba(0, 0, 0, 0);"></path><path fill="none" stroke="#c8c8c8" d="M826.7218,864.9498L1005.7773,1108.1434" stroke-dasharray="1,3" id="undefined" class="path2" stroke-width="2" style="-webkit-tap-highlight-color: rgba(0, 0, 0, 0);"></path><a xlink:href="http://tools.gpcr.org/visualise/protein/grm3_human" style="-webkit-tap-highlight-color: rgba(0, 0, 0, 0);"><text x="1006.9631" y="1109.754" text-anchor="start" font-family="Verdana" font-size="12px" stroke="none" fill="#000000" style="-webkit-tap-highlight-color: rgba(0, 0, 0, 0); text-anchor: start; font-family: Verdana; font-size: 12px; font-weight: bold;" font-weight="bold" transform="matrix(0.5929,0.8053,-0.8053,0.5929,1303.5949,-359.1021)"><tspan style="-webkit-tap-highlight-color: rgba(0, 0, 0, 0);" dy="4.496187499999905">mGlu3 receptor</tspan><title style="-webkit-tap-highlight-color: rgba(0, 0, 0, 0);">Metabotropic glutamate receptor 3 (Homo sapiens)</title></text></a><path fill="none" stroke="#000000" d="M772.6062,857.7008L772.6027,857.6915A147.3974,147.3974,0,0,0,807.3918,838.6957L807.3977,838.7038" stroke-width="2" id="undefined" class="path" style="-webkit-tap-highlight-color: rgba(0, 0, 0, 0);"></path><path fill="none" stroke="#000000" d="M781.8005,833.1819L790.6388,849.3683" stroke-width="2" id="undefined" class="path" style="-webkit-tap-highlight-color: rgba(0, 0, 0, 0);"></path><path fill="none" stroke="#000000" d="M860.8081,830.7354L878.7812,844.87" stroke-width="2" id="undefined" class="path" style="-webkit-tap-highlight-color: rgba(0, 0, 0, 0);"></path><path fill="none" stroke="#c8c8c8" d="M878.7812,844.87L1098.874,1017.9571" stroke-dasharray="1,3" id="undefined" class="path2" stroke-width="2" style="-webkit-tap-highlight-color: rgba(0, 0, 0, 0);"></path><a xlink:href="http://tools.gpcr.org/visualise/protein/grm5_human" style="-webkit-tap-highlight-color: rgba(0, 0, 0, 0);"><text x="1100.4461" y="1019.1935" text-anchor="start" font-family="Verdana" font-size="12px" stroke="none" fill="#000000" style="-webkit-tap-highlight-color: rgba(0, 0, 0, 0); text-anchor: start; font-family: Verdana; font-size: 12px; font-weight: bold;" font-weight="bold" transform="matrix(0.786,0.6182,-0.6182,0.786,865.4783,-462.2001)"><tspan style="-webkit-tap-highlight-color: rgba(0, 0, 0, 0);" dy="4.498187499999972">mGlu5 receptor</tspan><title style="-webkit-tap-highlight-color: rgba(0, 0, 0, 0);">Metabotropic glutamate receptor 5 (Homo sapiens)</title></text></a><path fill="none" stroke="#000000" d="M885.2248,789.2099L905.3922,797.6577" stroke-width="2" id="undefined" class="path" style="-webkit-tap-highlight-color: rgba(0, 0, 0, 0);"></path><path fill="none" stroke="#c8c8c8" d="M905.3922,797.6577L1164.5724,906.224" stroke-dasharray="1,3" id="undefined" class="path2" stroke-width="2" style="-webkit-tap-highlight-color: rgba(0, 0, 0, 0);"></path><a xlink:href="http://tools.gpcr.org/visualise/protein/grm1_human" style="-webkit-tap-highlight-color: rgba(0, 0, 0, 0);"><text x="1166.4171" y="906.9967" text-anchor="start" font-family="Verdana" font-size="12px" stroke="none" fill="#000000" style="-webkit-tap-highlight-color: rgba(0, 0, 0, 0); text-anchor: start; font-family: Verdana; font-size: 12px; font-weight: bold;" font-weight="bold" transform="matrix(0.9223,0.3864,-0.3864,0.9223,440.9974,-380.2244)"><tspan style="-webkit-tap-highlight-color: rgba(0, 0, 0, 0);" dy="4.504512500000033">mGlu1 receptor</tspan><title style="-webkit-tap-highlight-color: rgba(0, 0, 0, 0);">Metabotropic glutamate receptor 1 (Homo sapiens)</title></text></a><path fill="none" stroke="#000000" d="M860.8159,830.7416L860.8081,830.7354A179.13469999999998,179.13469999999998,0,0,0,885.2248,789.2099L885.234,789.2138" stroke-width="2" id="undefined" class="path" style="-webkit-tap-highlight-color: rgba(0, 0, 0, 0);"></path><path fill="none" stroke="#000000" d="M834.554,787.3569L874.4187,810.797" stroke-width="2" id="undefined" class="path" style="-webkit-tap-highlight-color: rgba(0, 0, 0, 0);"></path><path fill="none" stroke="#000000" d="M887.7905,741.4156L915.4148,744.9413" stroke-width="2" id="undefined" class="path" style="-webkit-tap-highlight-color: rgba(0, 0, 0, 0);"></path><path fill="none" stroke="#c8c8c8" d="M915.4148,744.9413L1198.1214,781.024" stroke-dasharray="1,3" id="undefined" class="path2" stroke-width="2" style="-webkit-tap-highlight-color: rgba(0, 0, 0, 0);"></path><a xlink:href="http://tools.gpcr.org/visualise/protein/grm6_human" style="-webkit-tap-highlight-color: rgba(0, 0, 0, 0);"><text x="1200.1053" y="781.2772" text-anchor="start" font-family="Verdana" font-size="12px" stroke="none" fill="#000000" style="-webkit-tap-highlight-color: rgba(0, 0, 0, 0); text-anchor: start; font-family: Verdana; font-size: 12px; font-weight: bold;" font-weight="bold" transform="matrix(0.992,0.1266,-0.1266,0.992,108.5714,-145.6535)"><tspan style="-webkit-tap-highlight-color: rgba(0, 0, 0, 0);" dy="4.5037624999999935">mGlu6 receptor</tspan><title style="-webkit-tap-highlight-color: rgba(0, 0, 0, 0);">Metabotropic glutamate receptor 6 (Homo sapiens)</title></text></a><path fill="none" stroke="#000000" d="M890.7548,695.4516L904.1072,693.5321" stroke-width="2" id="undefined" class="path" style="-webkit-tap-highlight-color: rgba(0, 0, 0, 0);"></path><path fill="none" stroke="#c8c8c8" d="M904.1072,693.5321L1197.0949,651.4111" stroke-dasharray="1,3" id="undefined" class="path2" stroke-width="2" style="-webkit-tap-highlight-color: rgba(0, 0, 0, 0);"></path><a xlink:href="http://tools.gpcr.org/visualise/protein/grm4_human" style="-webkit-tap-highlight-color: rgba(0, 0, 0, 0);"><text x="1199.0746" y="651.1265" text-anchor="start" font-family="Verdana" font-size="12px" stroke="none" fill="#000000" style="-webkit-tap-highlight-color: rgba(0, 0, 0, 0); text-anchor: start; font-family: Verdana; font-size: 12px; font-weight: bold;" font-weight="bold" transform="matrix(0.9898,-0.1423,0.1423,0.9898,-80.4533,177.2554)"><tspan style="-webkit-tap-highlight-color: rgba(0, 0, 0, 0);" dy="4.4936874999999645">mGlu4 receptor</tspan><title style="-webkit-tap-highlight-color: rgba(0, 0, 0, 0);">Metabotropic glutamate receptor 4 (Homo sapiens)</title></text></a><path fill="none" stroke="#000000" d="M883.1819,648.5871L890.3973,645.4295" stroke-width="2" id="undefined" class="path" style="-webkit-tap-highlight-color: rgba(0, 0, 0, 0);"></path><path fill="none" stroke="#c8c8c8" d="M890.3973,645.4295L1161.5672,526.7581" stroke-dasharray="1,3" id="undefined" class="path2" stroke-width="2" style="-webkit-tap-highlight-color: rgba(0, 0, 0, 0);"></path><a xlink:href="http://tools.gpcr.org/visualise/protein/grm8_human" style="-webkit-tap-highlight-color: rgba(0, 0, 0, 0);"><text x="1163.3994" y="525.9563" text-anchor="start" font-family="Verdana" font-size="12px" stroke="none" fill="#000000" style="-webkit-tap-highlight-color: rgba(0, 0, 0, 0); text-anchor: start; font-family: Verdana; font-size: 12px; font-weight: bold;" font-weight="bold" transform="matrix(0.9161,-0.4009,0.4009,0.9161,-113.2723,510.5464)"><tspan style="-webkit-tap-highlight-color: rgba(0, 0, 0, 0);" dy="4.495362500000056">mGlu8 receptor</tspan><title style="-webkit-tap-highlight-color: rgba(0, 0, 0, 0);">Metabotropic glutamate receptor 8 (Homo sapiens)</title></text></a><path fill="none" stroke="#000000" d="M858.252,607.6857L869.022,598.9363" stroke-width="2" id="undefined" class="path" style="-webkit-tap-highlight-color: rgba(0, 0, 0, 0);"></path><path fill="none" stroke="#c8c8c8" d="M869.022,598.9363L1094.1074,416.0796" stroke-dasharray="1,3" id="undefined" class="path2" stroke-width="2" style="-webkit-tap-highlight-color: rgba(0, 0, 0, 0);"></path><a xlink:href="http://tools.gpcr.org/visualise/protein/grm7_human" style="-webkit-tap-highlight-color: rgba(0, 0, 0, 0);"><text x="1095.6597" y="414.8185" text-anchor="start" font-family="Verdana" font-size="12px" stroke="none" fill="#000000" style="-webkit-tap-highlight-color: rgba(0, 0, 0, 0); text-anchor: start; font-family: Verdana; font-size: 12px; font-weight: bold;" font-weight="bold" transform="matrix(0.7762,-0.6305,0.6305,0.7762,-16.3035,783.7121)"><tspan style="-webkit-tap-highlight-color: rgba(0, 0, 0, 0);" dy="4.498187499999972">mGlu7 receptor</tspan><title style="-webkit-tap-highlight-color: rgba(0, 0, 0, 0);">Metabotropic glutamate receptor 7 (Homo sapiens)</title></text></a><path fill="none" stroke="#000000" d="M883.191,648.5831L883.1819,648.5871A178.1239,178.1239,0,0,0,858.252,607.6857L858.2598,607.6794" stroke-width="2" id="undefined" class="path" style="-webkit-tap-highlight-color: rgba(0, 0, 0, 0);"></path><path fill="none" stroke="#000000" d="M867.3047,630.216L872.098,627.2945" stroke-width="2" id="undefined" class="path" style="-webkit-tap-highlight-color: rgba(0, 0, 0, 0);"></path><path fill="none" stroke="#000000" d="M890.7647,695.4502L890.7548,695.4516A172.5104,172.5104,0,0,0,867.3047,630.216L867.3133,630.2108" stroke-width="2" id="undefined" class="path" style="-webkit-tap-highlight-color: rgba(0, 0, 0, 0);"></path><path fill="none" stroke="#000000" d="M879.1796,662.78L882.3404,661.6438" stroke-width="2" id="undefined" class="path" style="-webkit-tap-highlight-color: rgba(0, 0, 0, 0);"></path><path fill="none" stroke="#000000" d="M887.8004,741.4168L887.7905,741.4156A169.1516,169.1516,0,0,0,879.1796,662.78L879.189,662.7766" stroke-width="2" id="undefined" class="path" style="-webkit-tap-highlight-color: rgba(0, 0, 0, 0);"></path><path fill="none" stroke="#000000" d="M852.0997,705.5346L888.1465,701.5873" stroke-width="2" id="undefined" class="path" style="-webkit-tap-highlight-color: rgba(0, 0, 0, 0);"></path><path fill="none" stroke="#000000" d="M834.5626,787.3619L834.554,787.3569A132.8893,132.8893,0,0,0,852.0997,705.5346L852.1096,705.5335" stroke-width="2" id="undefined" class="path" style="-webkit-tap-highlight-color: rgba(0, 0, 0, 0);"></path><path fill="none" stroke="#000000" d="M846.0888,747.038L849.9355,747.8629" stroke-width="2" id="undefined" class="path" style="-webkit-tap-highlight-color: rgba(0, 0, 0, 0);"></path><path fill="none" stroke="#000000" d="M781.8053,833.1907L781.8005,833.1819A128.9552,128.9552,0,0,0,846.0888,747.038L846.0986,747.0401" stroke-width="2" id="undefined" class="path" style="-webkit-tap-highlight-color: rgba(0, 0, 0, 0);"></path><path fill="none" stroke="#000000" d="M785.7249,769.0498L823.3479,797.1275" stroke-width="2" id="undefined" class="path" style="-webkit-tap-highlight-color: rgba(0, 0, 0, 0);"></path><path fill="none" stroke="#000000" d="M708.4878,801.2082L708.4892,801.1983A82.0101,82.0101,0,0,0,785.7249,769.0498L785.733,769.0558" stroke-width="2" id="undefined" class="path" style="-webkit-tap-highlight-color: rgba(0, 0, 0, 0);"></path><path fill="none" stroke="#000000" d="M750.5765,793.4593L751.5146,795.7132" stroke-width="2" id="undefined" class="path" style="-webkit-tap-highlight-color: rgba(0, 0, 0, 0);"></path><path fill="none" stroke="#000000" d="M641.2999,731.7934L641.3098,731.7919A79.5688,79.5688,0,0,0,750.5765,793.4593L750.5804,793.4685" stroke-width="2" id="undefined" class="path" style="-webkit-tap-highlight-color: rgba(0, 0, 0, 0);"></path><path fill="none" stroke="#000000" d="M711.3866,735.2619L680.8918,789.2946" stroke-width="2" id="undefined" class="path" style="-webkit-tap-highlight-color: rgba(0, 0, 0, 0);"></path><path fill="none" stroke="#000000" d="M709.9996,705.5966L710.0053,705.6048A17.5247,17.5247,0,0,0,711.3866,735.2619L711.3817,735.2706" stroke-width="2" id="undefined" class="path" style="-webkit-tap-highlight-color: rgba(0, 0, 0, 0);"></path><path fill="none" stroke="#000000" d="M720,720L702.4943,720.8154" stroke-width="2" id="undefined" class="path" style="-webkit-tap-highlight-color: rgba(0, 0, 0, 0);"></path><path fill="none" stroke="#000000" d="M720,720L754.8042,671.126" stroke-width="2" id="undefined" class="path" style="-webkit-tap-highlight-color: rgba(0, 0, 0, 0);"></path><path fill="none" stroke="#c8c8c8" d="M754.8042,671.126L999.594,327.379" stroke-dasharray="1,3" id="undefined" class="path2" stroke-width="2" style="-webkit-tap-highlight-color: rgba(0, 0, 0, 0);"></path><a xlink:href="http://tools.gpcr.org/visualise/protein/casr_human" style="-webkit-tap-highlight-color: rgba(0, 0, 0, 0);"><text x="1000.7541" y="325.7499" text-anchor="start" font-family="Verdana" font-size="12px" stroke="none" fill="#000000" style="-webkit-tap-highlight-color: rgba(0, 0, 0, 0); text-anchor: start; font-family: Verdana; font-size: 12px; font-weight: bold;" font-weight="bold" transform="matrix(0.5801,-0.8146,0.8146,0.5801,154.9013,951.9726)"><tspan style="-webkit-tap-highlight-color: rgba(0, 0, 0, 0);" dy="4.507712500000025">CaS receptor</tspan><title style="-webkit-tap-highlight-color: rgba(0, 0, 0, 0);">Extracellular calcium-sensing receptor (Homo sapiens)</title></text></a><g id="leg_group" class="legend" transform="translate (220 1440)"><g class="chart0" style="visibility: hidden;"><text x="0" y="30" font-family="Verdana" font-size="20" font-weight="bold">Class (Outer ring)</text><rect x="0" y="70" width="300" height="90" stroke="black" fill="transparent" stroke-width="5"></rect><rect x="10" y="80" height="10" width="30" class="chart" id="C" style="stroke:#000000; fill: #0a0a0a"></rect><text x="45" y="90" style="font-family:Verdana; font-size:12;">Class C</text></g><g class="chart1" style="visibility: hidden;"><text x="320" y="30" font-family="Verdana" font-size="20" font-weight="bold">Ligand type (Middle ring)</text><rect x="320" y="70" width="300" height="90" stroke="black" fill="transparent" stroke-width="5"></rect><rect x="330" y="80" height="10" width="30" class="chart" id="C_A" style="stroke:#000000; fill: #c86464"></rect><text x="365" y="90" style="font-family:Verdana; font-size:12;">Ion receptors</text><rect x="330" y="100" height="10" width="30" class="chart" id="C_B" style="stroke:#000000; fill: #b5c864"></rect><text x="365" y="110" style="font-family:Verdana; font-size:12;">Amino acid receptors</text><rect x="330" y="120" height="10" width="30" class="chart" id="C_C" style="stroke:#000000; fill: #64c88a"></rect><text x="365" y="130" style="font-family:Verdana; font-size:12;">Taste 1 receptors</text><rect x="330" y="140" height="10" width="30" class="chart" id="C_D" style="stroke:#000000; fill: #648fc8"></rect><text x="365" y="150" style="font-family:Verdana; font-size:12;">Other</text></g><g class="chart2" style="visibility: hidden;"><rect x="640" y="70" width="345" height="110" stroke="black" fill="transparent" stroke-width="5"></rect><text x="640" y="30" font-family="Verdana" font-size="20" font-weight="bold">Receptor type (Inner ring)</text><rect x="650" y="80" height="10" width="30" class="chart" id="C_A_A" style="stroke:#000000; fill: #c86486"></rect><text x="685" y="90" style="font-family:Verdana; font-size:12;">Calcium-sensing receptors</text><rect x="650" y="100" height="10" width="30" class="chart" id="C_B_A" style="stroke:#000000; fill: #c8b364"></rect><text x="685" y="110" style="font-family:Verdana; font-size:12;">GABA</text></g></g></svg>