<?xml version="1.0" standalone="no"?><!DOCTYPE svg PUBLIC "-//W3C//DTD SVG 1.1//EN" "http://www.w3.org/Graphics/SVG/1.1/DTD/svg11.dtd"><svg viewBox="0 0 1100 1180" xmlns:xlink="http://www.w3.org/1999/xlink" xmlns="http://www.w3.org/2000/svg" class="svgtree" id="svgtree" style="overflow: hidden; position: relative; left: -0.616638px;" width="1100" version="1.1" height="1180"><defs><style type="text/css"><![CDATA[
a { background-color: transparent; }
@font-face {
  font-family: "Glyphicons Halflings";
  src: url("../fonts/glyphicons-halflings-regular.eot?#iefix") format("embedded-opentype"), url("../fonts/glyphicons-halflings-regular.woff") format("woff"), url("../fonts/glyphicons-halflings-regular.ttf") format("truetype"), url("../fonts/glyphicons-halflings-regular.svg#glyphicons_halflingsregular") format("svg");
}
* { box-sizing: border-box; }
a { color: rgb(51, 122, 183); text-decoration: none; }

]]></style></defs><path stroke-width="2" class="path" id="undefined" d="M622.5147,188.1953A369,369,0,1,0,741.886,234.8163L833.2919,84.6771A544.7748883764823,544.7748883764823,0,1,1,657.0575,15.848Z" stroke="#dddddd" fill="#eeeeee" style=""></path><path class="bgfield" id="B_A_A_A" d="M848.5256,333.1049A369,369,0,0,0,741.8833,234.8147L833.2878,84.6746A544.7748883764823,544.7748883764823,0,0,1,990.7296,229.7859Z" stroke="#dddddd" fill="#eeeeee" style=""></path><path class="bgfield" id="B_A_C_A" d="M909.0529,464.9001A369,369,0,0,0,848.5256,333.1049L990.7296,229.7859A544.7748883764823,544.7748883764823,0,0,1,1080.0895,424.3624Z" stroke="#dddddd" fill="#eeeeee" style=""></path><path class="bgfield" id="B_A_C_D" d="M914.1154,609.8412A369,369,0,0,0,909.0529,464.9001L1080.0895,424.3624A544.7748883764823,544.7748883764823,0,0,1,1087.5635,638.3469Z" stroke="#dddddd" fill="#eeeeee" style=""></path><path class="bgfield" id="B_A_C_B" d="M862.9309,745.5383A369,369,0,0,0,914.1154,609.8412L1087.5635,638.3469A544.7748883764823,544.7748883764823,0,0,1,1011.9971,838.6839Z" stroke="#dddddd" fill="#eeeeee" style=""></path><path class="bgfield" id="B_A_C_E" d="M763.4063,851.0295A369,369,0,0,0,862.9309,745.5383L1011.9971,838.6839A544.7748883764823,544.7748883764823,0,0,1,865.0634,994.4263Z" stroke="#dddddd" fill="#eeeeee" style="fill: rgb(109, 205, 225);"></path><path class="bgfield" id="B_A_C_C" d="M630.9156,910.019A369,369,0,0,0,763.4063,851.0295L865.0634,994.4263A544.7748883764823,544.7748883764823,0,0,1,669.4601,1081.5157Z" stroke="#dddddd" fill="#eeeeee" style=""></path><path class="bgfield" id="B_A_C_F" d="M485.9254,913.3943A369,369,0,0,0,630.9156,910.019L669.4601,1081.5157A544.7748883764823,544.7748883764823,0,0,1,455.4032,1086.4989Z" stroke="#dddddd" fill="#eeeeee" style=""></path><path class="bgfield" id="B_A_E_B" d="M350.8332,860.6342A369,369,0,0,0,485.9254,913.3943L455.4032,1086.4989A544.7748883764823,544.7748883764823,0,0,1,255.9591,1008.6062Z" stroke="#dddddd" fill="#eeeeee" style=""></path><path class="bgfield" id="B_A_E_C" d="M246.5074,759.8886A369,369,0,0,0,350.8332,860.6342L255.9591,1008.6062A544.7748883764823,544.7748883764823,0,0,1,101.9372,859.87Z" stroke="#dddddd" fill="#eeeeee" style=""></path><path class="bgfield" id="B_A_E_A" d="M189.0637,626.7204A369,369,0,0,0,246.5074,759.8886L101.9372,859.87A544.7748883764823,544.7748883764823,0,0,1,17.13,663.2665Z" stroke="#dddddd" fill="#eeeeee" style=""></path><path class="bgfield" id="B_A_D_B" d="M187.3759,481.7007A369,369,0,0,0,189.0637,626.7204L17.13,663.2665A544.7748883764823,544.7748883764823,0,0,1,14.6383,449.166Z" stroke="#dddddd" fill="#eeeeee" style=""></path><path class="bgfield" id="B_A_D_A" d="M241.7047,347.2316A369,369,0,0,0,187.3759,481.7007L14.6383,449.166A544.7748883764823,544.7748883764823,0,0,1,94.8468,250.642Z" stroke="#dddddd" fill="#eeeeee" style=""></path><path class="bgfield" id="B_A_B_B" d="M343.6576,244.0853A369,369,0,0,0,241.7047,347.2316L94.8468,250.642A544.7748883764823,544.7748883764823,0,0,1,245.3654,98.3614Z" stroke="#dddddd" fill="#eeeeee" style=""></path><path class="bgfield" id="B_A_B_A" d="M477.4853,188.1953A369,369,0,0,0,343.6576,244.0853L245.3654,98.3614A544.7748883764823,544.7748883764823,0,0,1,442.9425,15.848Z" stroke="#dddddd" fill="#eeeeee" style="fill: rgb(109, 205, 225);"></path><path class="bgfield" id="B_A_A_E" d="M622.5147,188.1953A369,369,0,0,0,477.4853,188.1953L442.9425,15.848A544.7748883764823,544.7748883764823,0,0,1,657.0575,15.848Z" stroke="#dddddd" fill="#eeeeee" style=""></path><desc>Created with Raphaël 2.1.4</desc><defs></defs><path class="path" id="undefined" stroke-width="2" d="M550,550L550,455" stroke="#000000" fill="none" style=""></path><path stroke-width="2" class="path2" id="undefined" stroke-dasharray="1,3" d="M550,455L550,181" stroke="#c8c8c8" fill="none" style=""></path><a xlink:href="http://tools.gpcr.org/visualise/protein/calrl_human"><text transform="matrix(0,-1,1,0,371,729)" font-weight="bold" fill="#000000" stroke="none" font-size="12px" font-family="Verdana" text-anchor="start" y="179" x="550" style="text-anchor: start; font-family: Verdana; font-size: 12px; font-weight: bold;"><tspan dy="4.375">calcitonin receptor-like ...</tspan><title>Calcitonin gene-related peptide type 1 receptor (Homo sapiens)</title></text></a><path class="path" id="undefined" stroke-width="2" d="M458.8551,331.7549L437.8574,281.4762" stroke="#000000" fill="none" style=""></path><path stroke-width="2" class="path2" id="undefined" stroke-dasharray="1,3" d="M437.8574,281.4762L407.7985,209.5007" stroke="#c8c8c8" fill="none" style=""></path><a xlink:href="http://tools.gpcr.org/visualise/protein/crfr1_human"><text transform="matrix(0.3854,0.9228,-0.9228,0.3854,441.788,-247.9587)" font-weight="bold" fill="#000000" stroke="none" font-size="12px" font-family="Verdana" text-anchor="end" y="207.6552" x="407.0278" style="text-anchor: end; font-family: Verdana; font-size: 12px; font-weight: bold;"><tspan dy="4.37500285644532">CRF1 receptor</tspan><title>Corticotropin-releasing factor receptor 1 (Homo sapiens)</title></text></a><path class="path" id="undefined" stroke-width="2" d="M381.7899,383.7362L338.0596,340.5119" stroke="#000000" fill="none" style=""></path><path stroke-width="2" class="path2" id="undefined" stroke-dasharray="1,3" d="M338.0596,340.5119L287.5637,290.6003" stroke="#c8c8c8" fill="none" style=""></path><a xlink:href="http://tools.gpcr.org/visualise/protein/crfr2_human"><text transform="matrix(0.7112,0.703,-0.703,0.7112,285.9328,-117.6351)" font-weight="bold" fill="#000000" stroke="none" font-size="12px" font-family="Verdana" text-anchor="end" y="289.1943" x="286.1413" style="text-anchor: end; font-family: Verdana; font-size: 12px; font-weight: bold;"><tspan dy="4.374994580078123">CRF2 receptor</tspan><title>Corticotropin-releasing factor receptor 2 (Homo sapiens)</title></text></a><path class="path" id="undefined" stroke-width="2" d="M458.8513,331.7457L458.8551,331.7549A236.51279999999997,236.51279999999997,0,0,0,381.7899,383.7362L381.7828,383.7291" stroke="#000000" fill="none" style=""></path><path class="path" id="undefined" stroke-width="2" d="M499.7781,475.5433L417.7434,353.9222" stroke="#000000" fill="none" style=""></path><path class="path" id="undefined" stroke-width="2" d="M371.785,477.9968L287.6068,443.9868" stroke="#000000" fill="none" style=""></path><path stroke-width="2" class="path2" id="undefined" stroke-dasharray="1,3" d="M287.6068,443.9868L207.8689,411.7708" stroke="#c8c8c8" fill="none" style=""></path><a xlink:href="http://tools.gpcr.org/visualise/protein/pth1r_human"><text transform="matrix(0.9272,0.3746,-0.3746,0.9272,168.9718,-47.2453)" font-weight="bold" fill="#000000" stroke="none" font-size="12px" font-family="Verdana" text-anchor="end" y="411.0216" x="206.0145" style="text-anchor: end; font-family: Verdana; font-size: 12px; font-weight: bold;"><tspan dy="4.374993554687478">PTH1 receptor</tspan><title>Parathyroid hormone/parathyroid hormone-related peptide receptor (Homo sapiens)</title></text></a><path class="path" id="undefined" stroke-width="2" d="M357.8021,552.2369L222.0222,553.8171" stroke="#000000" fill="none" style=""></path><path stroke-width="2" class="path2" id="undefined" stroke-dasharray="1,3" d="M222.0222,553.8171L181.025,554.2943" stroke="#c8c8c8" fill="none" style=""></path><a xlink:href="http://tools.gpcr.org/visualise/protein/pth2r_human"><text transform="matrix(0.9999,-0.0116,0.0116,0.9999,-6.4388,2.121)" font-weight="bold" fill="#000000" stroke="none" font-size="12px" font-family="Verdana" text-anchor="end" y="554.3175" x="179.0251" style="text-anchor: end; font-family: Verdana; font-size: 12px; font-weight: bold;"><tspan dy="4.3749951171874955">PTH2 receptor</tspan><title>Parathyroid hormone 2 receptor (Homo sapiens)</title></text></a><path class="path" id="undefined" stroke-width="2" d="M371.7758,477.9931L371.785,477.9968A192.2109,192.2109,0,0,0,357.8021,552.2369L357.7921,552.237" stroke="#000000" fill="none" style=""></path><path class="path" id="undefined" stroke-width="2" d="M402.2104,522.1644L361.1103,514.4233" stroke="#000000" fill="none" style=""></path><path class="path" id="undefined" stroke-width="2" d="M373.2578,626.2398L282.7994,665.26" stroke="#000000" fill="none" style=""></path><path stroke-width="2" class="path2" id="undefined" stroke-dasharray="1,3" d="M282.7994,665.26L211.1787,696.1544" stroke="#c8c8c8" fill="none" style=""></path><a xlink:href="http://tools.gpcr.org/visualise/protein/pacr_human"><text transform="matrix(0.9182,-0.3961,0.3961,0.9182,-258.9272,139.9166)" font-weight="bold" fill="#000000" stroke="none" font-size="12px" font-family="Verdana" text-anchor="end" y="696.9466" x="209.3423" style="text-anchor: end; font-family: Verdana; font-size: 12px; font-weight: bold;"><tspan dy="4.3750057617187394">PAC1 receptor</tspan><title>Pituitary adenylate cyclase-activating polypeptide type I receptor (Homo sapiens)</title></text></a><path class="path" id="undefined" stroke-width="2" d="M416.2894,688.4623L336.7407,770.8381" stroke="#000000" fill="none" style=""></path><path stroke-width="2" class="path2" id="undefined" stroke-dasharray="1,3" d="M336.7407,770.8381L293.672,815.4373" stroke="#c8c8c8" fill="none" style=""></path><a xlink:href="http://tools.gpcr.org/visualise/protein/vipr2_human"><text transform="matrix(0.6947,-0.7193,0.7193,0.6947,-498.3666,459.6796)" font-weight="bold" fill="#000000" stroke="none" font-size="12px" font-family="Verdana" text-anchor="end" y="816.876" x="292.2827" style="text-anchor: end; font-family: Verdana; font-size: 12px; font-weight: bold;"><tspan dy="4.375023437499976">VPAC2 receptor</tspan><title>Vasoactive intestinal polypeptide receptor 2 (Homo sapiens)</title></text></a><path class="path" id="undefined" stroke-width="2" d="M373.2486,626.2437L373.2578,626.2398A192.4846,192.4846,0,0,0,416.2894,688.4623L416.2825,688.4695" stroke="#000000" fill="none" style=""></path><path class="path" id="undefined" stroke-width="2" d="M398.2009,654.981L391.6867,659.4861" stroke="#000000" fill="none" style=""></path><path class="path" id="undefined" stroke-width="2" d="M482.8575,721.9182L451.0493,803.3629" stroke="#000000" fill="none" style=""></path><path stroke-width="2" class="path2" id="undefined" stroke-dasharray="1,3" d="M451.0493,803.3629L415.7617,893.7166" stroke="#c8c8c8" fill="none" style=""></path><a xlink:href="http://tools.gpcr.org/visualise/protein/vipr1_human"><text transform="matrix(0.3638,-0.9315,0.9315,0.3638,-570.1664,956.3736)" font-weight="bold" fill="#000000" stroke="none" font-size="12px" font-family="Verdana" text-anchor="end" y="895.5795" x="415.0341" style="text-anchor: end; font-family: Verdana; font-size: 12px; font-weight: bold;"><tspan dy="4.374971191406303">VPAC1 receptor</tspan><title>Vasoactive intestinal polypeptide receptor 1 (Homo sapiens)</title></text></a><path class="path" id="undefined" stroke-width="2" d="M398.1927,654.9867L398.2009,654.981A184.5643,184.5643,0,0,0,482.8575,721.9182L482.8538,721.9275" stroke="#000000" fill="none" style=""></path><path class="path" id="undefined" stroke-width="2" d="M444.5932,683.3098L435.5273,694.7756" stroke="#000000" fill="none" style=""></path><path class="path" id="undefined" stroke-width="2" d="M554.2277,731.6014L556.3537,822.9261" stroke="#000000" fill="none" style=""></path><path stroke-width="2" class="path2" id="undefined" stroke-dasharray="1,3" d="M556.3537,822.9261L558.588,918.9001" stroke="#c8c8c8" fill="none" style=""></path><a xlink:href="http://tools.gpcr.org/visualise/protein/sctr_human"><text transform="matrix(0.0233,0.9997,-0.9997,0.0233,1466.2831,340.9837)" font-weight="bold" fill="#000000" stroke="none" font-size="12px" font-family="Verdana" text-anchor="start" y="920.8995" x="558.6345" style="text-anchor: start; font-family: Verdana; font-size: 12px; font-weight: bold;"><tspan dy="4.375024902343739">secretin receptor</tspan><title>Secretin receptor (Homo sapiens)</title></text></a><path class="path" id="undefined" stroke-width="2" d="M645.368,764.197L690.3258,865.1724" stroke="#000000" fill="none" style=""></path><path stroke-width="2" class="path2" id="undefined" stroke-dasharray="1,3" d="M690.3258,865.1724L700.0876,887.0975" stroke="#c8c8c8" fill="none" style=""></path><a xlink:href="http://tools.gpcr.org/visualise/protein/glp1r_human"><text transform="matrix(0.4067,0.9135,-0.9135,0.4067,1227.8867,-112.9414)" font-weight="bold" fill="#000000" stroke="none" font-size="12px" font-family="Verdana" text-anchor="start" y="888.9246" x="700.9011" style="text-anchor: start; font-family: Verdana; font-size: 12px; font-weight: bold;"><tspan dy="4.374978417968805">GLP-1 receptor</tspan><title>Glucagon-like peptide 1 receptor (Homo sapiens)</title></text></a><path class="path" id="undefined" stroke-width="2" d="M720.5471,710.901L800.2179,786.0657" stroke="#000000" fill="none" style=""></path><path stroke-width="2" class="path2" id="undefined" stroke-dasharray="1,3" d="M800.2179,786.0657L818.4023,803.2216" stroke="#c8c8c8" fill="none" style=""></path><a xlink:href="http://tools.gpcr.org/visualise/protein/glr_human"><text transform="matrix(0.7274,0.6862,-0.6862,0.7274,775.654,-343.2663)" font-weight="bold" fill="#000000" stroke="none" font-size="12px" font-family="Verdana" text-anchor="start" y="804.5941" x="819.8571" style="text-anchor: start; font-family: Verdana; font-size: 12px; font-weight: bold;"><tspan dy="4.374983789062526">glucagon receptor</tspan><title>Glucagon receptor (Homo sapiens)</title></text></a><path class="path" id="undefined" stroke-width="2" d="M645.3721,764.2062L645.368,764.197A234.4684,234.4684,0,0,0,720.5471,710.901L720.5543,710.9078" stroke="#000000" fill="none" style=""></path><path class="path" id="undefined" stroke-width="2" d="M681.8313,735.96L685.6019,741.2788" stroke="#000000" fill="none" style=""></path><path class="path" id="undefined" stroke-width="2" d="M763.2806,630.4487L863.4433,668.2297" stroke="#000000" fill="none" style=""></path><path stroke-width="2" class="path2" id="undefined" stroke-dasharray="1,3" d="M863.4433,668.2297L895.2555,680.2292" stroke="#c8c8c8" fill="none" style=""></path><a xlink:href="http://tools.gpcr.org/visualise/protein/gipr_human"><text transform="matrix(0.9357,0.3529,-0.3529,0.9357,298.0472,-272.8011)" font-weight="bold" fill="#000000" stroke="none" font-size="12px" font-family="Verdana" text-anchor="start" y="680.935" x="897.1268" style="text-anchor: start; font-family: Verdana; font-size: 12px; font-weight: bold;"><tspan dy="4.375002441406195">GIP receptor</tspan><title>Gastric inhibitory polypeptide receptor (Homo sapiens)</title></text></a><path class="path" id="undefined" stroke-width="2" d="M681.8371,735.9682L681.8313,735.96A227.9487,227.9487,0,0,0,763.2806,630.4487L763.29,630.4522" stroke="#000000" fill="none" style=""></path><path class="path" id="undefined" stroke-width="2" d="M719.7617,681.0473L730.4403,689.2907" stroke="#000000" fill="none" style=""></path><path class="path" id="undefined" stroke-width="2" d="M764.3278,542.514L918.7751,537.1195" stroke="#000000" fill="none" style=""></path><path stroke-width="2" class="path2" id="undefined" stroke-dasharray="1,3" d="M918.7751,537.1195L918.7751,537.1195" stroke="#c8c8c8" fill="none" style=""></path><a xlink:href="http://tools.gpcr.org/visualise/protein/glp2r_human"><text transform="matrix(0.9994,-0.0349,0.0349,0.9994,-18.1854,32.4683)" font-weight="bold" fill="#000000" stroke="none" font-size="12px" font-family="Verdana" text-anchor="start" y="537.0497" x="920.7739" style="text-anchor: start; font-family: Verdana; font-size: 12px; font-weight: bold;"><tspan dy="4.37501738281253">GLP-2 receptor</tspan><title>Glucagon-like peptide 2 receptor (Homo sapiens)</title></text></a><path class="path" id="undefined" stroke-width="2" d="M719.7696,681.0535L719.7617,681.0473A214.45850000000002,214.45850000000002,0,0,0,764.3278,542.514L764.3378,542.5137" stroke="#000000" fill="none" style=""></path><path class="path" id="undefined" stroke-width="2" d="M722.923,605.629L754.1546,615.6762" stroke="#000000" fill="none" style=""></path><path class="path" id="undefined" stroke-width="2" d="M554.2279,731.6114L554.2277,731.6014A181.65060000000003,181.65060000000003,0,0,0,722.923,605.629L722.9325,605.6321" stroke="#000000" fill="none" style=""></path><path class="path" id="undefined" stroke-width="2" d="M651.6846,686.1702L658.687,695.5475" stroke="#000000" fill="none" style=""></path><path class="path" id="undefined" stroke-width="2" d="M444.587,683.3176L444.5932,683.3098A169.9473,169.9473,0,0,0,651.6846,686.1702L651.6906,686.1782" stroke="#000000" fill="none" style=""></path><path class="path" id="undefined" stroke-width="2" d="M547.7499,712.913L547.653,719.9311" stroke="#000000" fill="none" style=""></path><path class="path" id="undefined" stroke-width="2" d="M698.0609,482.0026L821.7156,425.2137" stroke="#000000" fill="none" style=""></path><path stroke-width="2" class="path2" id="undefined" stroke-dasharray="1,3" d="M821.7156,425.2137L885.328,395.9996" stroke="#c8c8c8" fill="none" style=""></path><a xlink:href="http://tools.gpcr.org/visualise/protein/ghrhr_human"><text transform="matrix(0.9087,-0.4173,0.4173,0.9087,-83.9664,406.3056)" font-weight="bold" fill="#000000" stroke="none" font-size="12px" font-family="Verdana" text-anchor="start" y="395.1649" x="887.1455" style="text-anchor: start; font-family: Verdana; font-size: 12px; font-weight: bold;"><tspan dy="4.375013525390614">GHRH receptor</tspan><title>Growth hormone-releasing hormone receptor (Homo sapiens)</title></text></a><path class="path" id="undefined" stroke-width="2" d="M547.7498,712.923L547.7499,712.913A162.9285,162.9285,0,0,0,698.0609,482.0026L698.07,481.9984" stroke="#000000" fill="none" style=""></path><path class="path" id="undefined" stroke-width="2" d="M676.0372,632.0439L686.5471,638.8853" stroke="#000000" fill="none" style=""></path><path class="path" id="undefined" stroke-width="2" d="M402.2006,522.1625L402.2104,522.1644A150.3881,150.3881,0,0,0,676.0372,632.0439L676.0456,632.0493" stroke="#000000" fill="none" style=""></path><path class="path" id="undefined" stroke-width="2" d="M516.5535,633.3509L493.994,689.5705" stroke="#000000" fill="none" style=""></path><path class="path" id="undefined" stroke-width="2" d="M499.7725,475.535L499.7781,475.5433A89.8111,89.8111,0,0,0,516.5535,633.3509L516.5498,633.3601" stroke="#000000" fill="none" style=""></path><path class="path" id="undefined" stroke-width="2" d="M550,550L460.6921,559.4937" stroke="#000000" fill="none" style=""></path><path class="path" id="undefined" stroke-width="2" d="M550,550L657.7584,433.085" stroke="#000000" fill="none" style=""></path><path stroke-width="2" class="path2" id="undefined" stroke-dasharray="1,3" d="M657.7584,433.085L800.0809,278.6689" stroke="#c8c8c8" fill="none" style=""></path><a xlink:href="http://tools.gpcr.org/visualise/protein/calcr_human"><text transform="matrix(0.6777,-0.7353,0.7353,0.6777,54.4541,678.6416)" font-weight="bold" fill="#000000" stroke="none" font-size="12px" font-family="Verdana" text-anchor="start" y="277.1983" x="801.4363" style="text-anchor: start; font-family: Verdana; font-size: 12px; font-weight: bold;"><tspan dy="4.3749967773437675">CT receptor</tspan><title>Calcitonin receptor (Homo sapiens)</title></text></a><g transform="translate (500 1100)" id="leg_group" class="legend"></g><circle style="display: none;" stroke="#ff0000" fill="none" r="5" cy="865.1724" cx="690.3258"></circle></svg>