<?xml version="1.0" standalone="no"?><!DOCTYPE svg PUBLIC "-//W3C//DTD SVG 1.1//EN" "http://www.w3.org/Graphics/SVG/1.1/DTD/svg11.dtd"><svg viewBox="0 0 1200 1280" xmlns:xlink="http://www.w3.org/1999/xlink" xmlns="http://www.w3.org/2000/svg" class="svgtree" id="svgtree" style="overflow: hidden; position: relative; left: -0.5px;" width="1200" version="1.1" height="1280"><defs><style type="text/css"><![CDATA[
a { background-color: transparent; }
@font-face {
  font-family: "Glyphicons Halflings";
  src: url("../fonts/glyphicons-halflings-regular.eot?#iefix") format("embedded-opentype"), url("../fonts/glyphicons-halflings-regular.woff") format("woff"), url("../fonts/glyphicons-halflings-regular.ttf") format("truetype"), url("../fonts/glyphicons-halflings-regular.svg#glyphicons_halflingsregular") format("svg");
}
* { box-sizing: border-box; }
a { color: rgb(51, 122, 183); text-decoration: none; }

]]></style></defs><path stroke-width="2" class="path" id="undefined" d="M678.9998,205.8388A402,402,0,1,0,809.0466,256.6292L909.3978,91.7967A594.976975384302,594.976975384302,0,1,1,716.923,16.6248Z" stroke="#dddddd" fill="#eeeeee" style=""></path><path class="bgfield" id="B_A_A_A" d="M925.223,363.7078A402,402,0,0,0,809.0436,256.6273L909.3933,91.794A594.976975384302,594.976975384302,0,0,1,1081.3437,250.2775Z" stroke="#dddddd" fill="#eeeeee" style=""></path><path class="bgfield" id="B_A_D_A" d="M991.1634,507.2896A402,402,0,0,0,925.223,363.7078L1081.3437,250.2775A594.976975384302,594.976975384302,0,0,1,1178.9383,462.7847Z" stroke="#dddddd" fill="#eeeeee" style=""></path><path class="bgfield" id="B_A_D_B" d="M996.6786,665.1929A402,402,0,0,0,991.1634,507.2896L1178.9383,462.7847A594.976975384302,594.976975384302,0,0,1,1187.101,696.4882Z" stroke="#dddddd" fill="#eeeeee" style=""></path><path class="bgfield" id="B_A_C_A" d="M940.9166,813.0255A402,402,0,0,0,996.6786,665.1929L1187.101,696.4882A594.976975384302,594.976975384302,0,0,1,1104.571,915.2867Z" stroke="#dddddd" fill="#eeeeee" style=""></path><path class="bgfield" id="B_A_A_E" d="M832.4914,927.9508A402,402,0,0,0,940.9166,813.0255L1104.571,915.2867A594.976975384302,594.976975384302,0,0,1,944.0971,1085.3811Z" stroke="#dddddd" fill="#eeeeee" style=""></path><path class="bgfield" id="B_A_E_C" d="M688.1519,992.2158A402,402,0,0,0,832.4914,927.9508L944.0971,1085.3811A594.976975384302,594.976975384302,0,0,1,730.4686,1180.4959Z" stroke="#dddddd" fill="#eeeeee" style=""></path><path class="bgfield" id="B_A_C_C" d="M530.1952,995.893A402,402,0,0,0,688.1519,992.2158L730.4686,1180.4959A594.976975384302,594.976975384302,0,0,1,496.6859,1185.9384Z" stroke="#dddddd" fill="#eeeeee" style=""></path><path class="bgfield" id="B_A_C_B" d="M383.0215,938.4144A402,402,0,0,0,530.1952,995.893L496.6859,1185.9384A594.976975384302,594.976975384302,0,0,1,278.8627,1100.8677Z" stroke="#dddddd" fill="#eeeeee" style=""></path><path class="bgfield" id="B_A_E_B" d="M269.3657,828.6591A402,402,0,0,0,383.0215,938.4144L278.8627,1100.8677A594.976975384302,594.976975384302,0,0,1,110.6473,938.4251Z" stroke="#dddddd" fill="#eeeeee" style=""></path><path class="bgfield" id="B_A_B_B" d="M206.7849,683.5815A402,402,0,0,0,269.3657,828.6591L110.6473,938.4251A594.976975384302,594.976975384302,0,0,1,18.025,723.7042Z" stroke="#dddddd" fill="#eeeeee" style=""></path><path class="bgfield" id="B_A_B_A" d="M204.9461,525.5926A402,402,0,0,0,206.7849,683.5815L18.025,723.7042A594.976975384302,594.976975384302,0,0,1,15.3036,489.874Z" stroke="#dddddd" fill="#eeeeee" style="fill: rgb(109, 205, 225);"></path><path class="bgfield" id="B_A_C_E" d="M264.1336,379.0979A402,402,0,0,0,204.9461,525.5926L15.3036,489.874A594.976975384302,594.976975384302,0,0,1,102.9035,273.0555Z" stroke="#dddddd" fill="#eeeeee" style="fill: rgb(109, 205, 225);"></path><path class="bgfield" id="B_A_C_F" d="M375.2042,266.7271A402,402,0,0,0,264.1336,379.0979L102.9035,273.0555A594.976975384302,594.976975384302,0,0,1,267.2927,106.742Z" stroke="#dddddd" fill="#eeeeee" style=""></path><path class="bgfield" id="B_A_E_A" d="M521.0002,205.8388A402,402,0,0,0,375.2042,266.7271L267.2927,106.742A594.976975384302,594.976975384302,0,0,1,483.077,16.6248Z" stroke="#dddddd" fill="#eeeeee" style=""></path><path class="bgfield" id="B_A_C_D" d="M678.9998,205.8388A402,402,0,0,0,521.0002,205.8388L483.077,16.6248A594.976975384302,594.976975384302,0,0,1,716.923,16.6248Z" stroke="#dddddd" fill="#eeeeee" style=""></path><desc>Created with Raphaël 2.1.4</desc><defs></defs><path class="path" id="undefined" stroke-width="2" d="M600,600L600,538" stroke="#000000" fill="none" style=""></path><path stroke-width="2" class="path2" id="undefined" stroke-dasharray="1,3" d="M600,538L600,198" stroke="#c8c8c8" fill="none" style=""></path><a xlink:href="http://tools.gpcr.org/visualise/protein/glp2r_human"><text transform="matrix(0,-1,1,0,404,796)" font-weight="bold" fill="#000000" stroke="none" font-size="12px" font-family="Verdana" text-anchor="start" y="196" x="600" style="text-anchor: start; font-family: Verdana; font-size: 12px; font-weight: bold;"><tspan dy="5">GLP-2 receptor</tspan><title>Glucagon-like peptide 2 receptor (Homo sapiens)</title></text></a><path class="path" id="undefined" stroke-width="2" d="M524.7246,419.7541L503.2722,368.3867" stroke="#000000" fill="none" style=""></path><path stroke-width="2" class="path2" id="undefined" stroke-dasharray="1,3" d="M503.2722,368.3867L445.0813,229.0496" stroke="#c8c8c8" fill="none" style=""></path><a xlink:href="http://tools.gpcr.org/visualise/protein/pacr_human"><text transform="matrix(0.3854,0.9228,-0.9228,0.3854,482.7421,-270.3465)" font-weight="bold" fill="#000000" stroke="none" font-size="12px" font-family="Verdana" text-anchor="end" y="227.2041" x="444.3106" style="text-anchor: end; font-family: Verdana; font-size: 12px; font-weight: bold;"><tspan dy="4.999998437500011">PAC1 receptor</tspan><title>Pituitary adenylate cyclase-activating polypeptide type I receptor (Homo sapiens)</title></text></a><path class="path" id="undefined" stroke-width="2" d="M461.0773,462.6848L454.2021,455.8891" stroke="#000000" fill="none" style=""></path><path stroke-width="2" class="path2" id="undefined" stroke-dasharray="1,3" d="M454.2021,455.8891L314.0938,317.4019" stroke="#c8c8c8" fill="none" style=""></path><a xlink:href="http://tools.gpcr.org/visualise/protein/sctr_human"><text transform="matrix(0.7112,0.703,-0.703,0.7112,312.4355,-128.5451)" font-weight="bold" fill="#000000" stroke="none" font-size="12px" font-family="Verdana" text-anchor="end" y="315.996" x="312.6714" style="text-anchor: end; font-family: Verdana; font-size: 12px; font-weight: bold;"><tspan dy="4.999997802734356">secretin receptor</tspan><title>Secretin receptor (Homo sapiens)</title></text></a><path class="path" id="undefined" stroke-width="2" d="M524.7207,419.7449L524.7246,419.7541A195.33300000000003,195.33300000000003,0,0,0,461.0773,462.6848L461.0702,462.6777" stroke="#000000" fill="none" style=""></path><path class="path" id="undefined" stroke-width="2" d="M503.2691,456.591L490.7709,438.0618" stroke="#000000" fill="none" style=""></path><path class="path" id="undefined" stroke-width="2" d="M439.6131,535.1998L430.3252,531.4473" stroke="#000000" fill="none" style=""></path><path stroke-width="2" class="path2" id="undefined" stroke-dasharray="1,3" d="M430.3252,531.4473L227.2718,449.4088" stroke="#c8c8c8" fill="none" style=""></path><a xlink:href="http://tools.gpcr.org/visualise/protein/glr_human"><text transform="matrix(0.9272,0.3746,-0.3746,0.9272,184.484,-51.7731)" font-weight="bold" fill="#000000" stroke="none" font-size="12px" font-family="Verdana" text-anchor="end" y="448.6596" x="225.4175" style="text-anchor: end; font-family: Verdana; font-size: 12px; font-weight: bold;"><tspan dy="4.999993066406262">glucagon receptor</tspan><title>Glucagon receptor (Homo sapiens)</title></text></a><path class="path" id="undefined" stroke-width="2" d="M503.2635,456.5827L503.2691,456.591A172.98270000000002,172.98270000000002,0,0,0,439.6131,535.1998L439.6038,535.1961" stroke="#000000" fill="none" style=""></path><path class="path" id="undefined" stroke-width="2" d="M493.4808,513.7428L465.567,491.1387" stroke="#000000" fill="none" style=""></path><path class="path" id="undefined" stroke-width="2" d="M290.0568,603.6072L270.0223,603.8404" stroke="#000000" fill="none" style=""></path><path stroke-width="2" class="path2" id="undefined" stroke-dasharray="1,3" d="M270.0223,603.8404L198.0272,604.6783" stroke="#c8c8c8" fill="none" style=""></path><a xlink:href="http://tools.gpcr.org/visualise/protein/crfr1_human"><text transform="matrix(0.9999,-0.0116,0.0116,0.9999,-7.024,2.3222)" font-weight="bold" fill="#000000" stroke="none" font-size="12px" font-family="Verdana" text-anchor="end" y="604.7016" x="196.0274" style="text-anchor: end; font-family: Verdana; font-size: 12px; font-weight: bold;"><tspan dy="5.000000878906235">CRF1 receptor</tspan><title>Corticotropin-releasing factor receptor 1 (Homo sapiens)</title></text></a><path class="path" id="undefined" stroke-width="2" d="M286.0733,735.4158L230.8776,759.2251" stroke="#000000" fill="none" style=""></path><path stroke-width="2" class="path2" id="undefined" stroke-dasharray="1,3" d="M230.8776,759.2251L230.8776,759.2251" stroke="#c8c8c8" fill="none" style=""></path><a xlink:href="http://tools.gpcr.org/visualise/protein/crfr2_human"><text transform="matrix(0.9182,-0.3961,0.3961,0.9182,-282.2974,152.8772)" font-weight="bold" fill="#000000" stroke="none" font-size="12px" font-family="Verdana" text-anchor="end" y="760.0173" x="229.0412" style="text-anchor: end; font-family: Verdana; font-size: 12px; font-weight: bold;"><tspan dy="5.0000270507812274">CRF2 receptor</tspan><title>Corticotropin-releasing factor receptor 2 (Homo sapiens)</title></text></a><path class="path" id="undefined" stroke-width="2" d="M362.5055,845.9345L361.733,846.7344" stroke="#000000" fill="none" style=""></path><path stroke-width="2" class="path2" id="undefined" stroke-dasharray="1,3" d="M361.733,846.7344L320.7483,889.1756" stroke="#c8c8c8" fill="none" style=""></path><a xlink:href="http://tools.gpcr.org/visualise/protein/vipr1_human"><text transform="matrix(0.6947,-0.7193,0.7193,0.6947,-543.1421,501.6723)" font-weight="bold" fill="#000000" stroke="none" font-size="12px" font-family="Verdana" text-anchor="end" y="890.6143" x="319.359" style="text-anchor: end; font-family: Verdana; font-size: 12px; font-weight: bold;"><tspan dy="4.999981152343707">VPAC1 receptor</tspan><title>Vasoactive intestinal polypeptide receptor 1 (Homo sapiens)</title></text></a><path class="path" id="undefined" stroke-width="2" d="M286.0641,735.4198L286.0733,735.4158A341.88800000000003,341.88800000000003,0,0,0,362.5055,845.9345L362.4986,845.9417" stroke="#000000" fill="none" style=""></path><path class="path" id="undefined" stroke-width="2" d="M345.0629,776.309L318.8064,794.4674" stroke="#000000" fill="none" style=""></path><path class="path" id="undefined" stroke-width="2" d="M290.0468,603.6074L290.0568,603.6072A309.9642,309.9642,0,0,0,345.0629,776.309L345.0547,776.3147" stroke="#000000" fill="none" style=""></path><path class="path" id="undefined" stroke-width="2" d="M360.5014,676.2813L304.6547,694.0688" stroke="#000000" fill="none" style=""></path><path class="path" id="undefined" stroke-width="2" d="M508.5604,834.1308L496.6838,864.5407" stroke="#000000" fill="none" style=""></path><path stroke-width="2" class="path2" id="undefined" stroke-dasharray="1,3" d="M496.6838,864.5407L453.7567,974.4555" stroke="#c8c8c8" fill="none" style=""></path><a xlink:href="http://tools.gpcr.org/visualise/protein/gipr_human"><text transform="matrix(0.3638,-0.9315,0.9315,0.3638,-621.2003,1043.1322)" font-weight="bold" fill="#000000" stroke="none" font-size="12px" font-family="Verdana" text-anchor="end" y="976.3184" x="453.0291" style="text-anchor: end; font-family: Verdana; font-size: 12px; font-weight: bold;"><tspan dy="4.999979589843747">GIP receptor</tspan><title>Gastric inhibitory polypeptide receptor (Homo sapiens)</title></text></a><path class="path" id="undefined" stroke-width="2" d="M360.4919,676.2844L360.5014,676.2813A251.35320000000002,251.35320000000002,0,0,0,508.5604,834.1308L508.5567,834.1401" stroke="#000000" fill="none" style=""></path><path class="path" id="undefined" stroke-width="2" d="M434.6819,755.0644L416.672,771.9572" stroke="#000000" fill="none" style=""></path><path class="path" id="undefined" stroke-width="2" d="M605.2752,826.5993L605.958,855.9307" stroke="#000000" fill="none" style=""></path><path stroke-width="2" class="path2" id="undefined" stroke-dasharray="1,3" d="M605.958,855.9307L609.356,1001.8911" stroke="#c8c8c8" fill="none" style=""></path><a xlink:href="http://tools.gpcr.org/visualise/protein/glp1r_human"><text transform="matrix(0.0233,0.9997,-0.9997,0.0233,1598.8382,371.289)" font-weight="bold" fill="#000000" stroke="none" font-size="12px" font-family="Verdana" text-anchor="start" y="1003.8906" x="609.4025" style="text-anchor: start; font-family: Verdana; font-size: 12px; font-weight: bold;"><tspan dy="4.999974999999949">GLP-1 receptor</tspan><title>Glucagon-like peptide 1 receptor (Homo sapiens)</title></text></a><path class="path" id="undefined" stroke-width="2" d="M434.6746,755.0713L434.6819,755.0644A226.66070000000002,226.66070000000002,0,0,0,605.2752,826.5993L605.2754,826.6093" stroke="#000000" fill="none" style=""></path><path class="path" id="undefined" stroke-width="2" d="M521.2319,787.8434L512.3489,809.0272" stroke="#000000" fill="none" style=""></path><path class="path" id="undefined" stroke-width="2" d="M698.4628,821.148L706.1595,838.4348" stroke="#000000" fill="none" style=""></path><path stroke-width="2" class="path2" id="undefined" stroke-dasharray="1,3" d="M706.1595,838.4348L763.5101,967.2444" stroke="#c8c8c8" fill="none" style=""></path><a xlink:href="http://tools.gpcr.org/visualise/protein/vipr2_human"><text transform="matrix(0.4067,0.9135,-0.9135,0.4067,1338.7303,-123.3327)" font-weight="bold" fill="#000000" stroke="none" font-size="12px" font-family="Verdana" text-anchor="start" y="969.0715" x="764.3235" style="text-anchor: start; font-family: Verdana; font-size: 12px; font-weight: bold;"><tspan dy="5.0000278320312646">VPAC2 receptor</tspan><title>Vasoactive intestinal polypeptide receptor 2 (Homo sapiens)</title></text></a><path class="path" id="undefined" stroke-width="2" d="M813.5842,801.5039L816.0312,803.8125" stroke="#000000" fill="none" style=""></path><path stroke-width="2" class="path2" id="undefined" stroke-dasharray="1,3" d="M816.0312,803.8125L892.4058,875.8674" stroke="#c8c8c8" fill="none" style=""></path><a xlink:href="http://tools.gpcr.org/visualise/protein/calrl_human"><text transform="matrix(0.7274,0.6862,-0.6862,0.7274,845.6812,-374.2454)" font-weight="bold" fill="#000000" stroke="none" font-size="12px" font-family="Verdana" text-anchor="start" y="877.2399" x="893.8606" style="text-anchor: start; font-family: Verdana; font-size: 12px; font-weight: bold;"><tspan dy="4.999970800781284">calcitonin receptor-like ...</tspan><title>Calcitonin gene-related peptide type 1 receptor (Homo sapiens)</title></text></a><path class="path" id="undefined" stroke-width="2" d="M901.867,713.8632L936.8346,727.0528" stroke="#000000" fill="none" style=""></path><path stroke-width="2" class="path2" id="undefined" stroke-dasharray="1,3" d="M936.8346,727.0528L976.132,741.8757" stroke="#c8c8c8" fill="none" style=""></path><a xlink:href="http://tools.gpcr.org/visualise/protein/ghrhr_human"><text transform="matrix(0.9357,0.3529,-0.3529,0.9357,325.008,-297.3776)" font-weight="bold" fill="#000000" stroke="none" font-size="12px" font-family="Verdana" text-anchor="start" y="742.5815" x="978.0033" style="text-anchor: start; font-family: Verdana; font-size: 12px; font-weight: bold;"><tspan dy="5.0000180664062555">GHRH receptor</tspan><title>Growth hormone-releasing hormone receptor (Homo sapiens)</title></text></a><path class="path" id="undefined" stroke-width="2" d="M922.4309,588.7382L928.7995,588.5158" stroke="#000000" fill="none" style=""></path><path stroke-width="2" class="path2" id="undefined" stroke-dasharray="1,3" d="M928.7995,588.5158L1001.755,585.9676" stroke="#c8c8c8" fill="none" style=""></path><a xlink:href="http://tools.gpcr.org/visualise/protein/pth2r_human"><text transform="matrix(0.9994,-0.0349,0.0349,0.9994,-19.8399,35.3946)" font-weight="bold" fill="#000000" stroke="none" font-size="12px" font-family="Verdana" text-anchor="start" y="585.8978" x="1003.7538" style="text-anchor: start; font-family: Verdana; font-size: 12px; font-weight: bold;"><tspan dy="4.999972851562461">PTH2 receptor</tspan><title>Parathyroid hormone 2 receptor (Homo sapiens)</title></text></a><path class="path" id="undefined" stroke-width="2" d="M901.8763,713.8667L901.867,713.8632A322.6275,322.6275,0,0,0,922.4309,588.7382L922.4409,588.7379" stroke="#000000" fill="none" style=""></path><path class="path" id="undefined" stroke-width="2" d="M889.749,647.6191L918.3568,652.3207" stroke="#000000" fill="none" style=""></path><path class="path" id="undefined" stroke-width="2" d="M813.5915,801.5108L813.5842,801.5039A293.6359,293.6359,0,0,0,889.749,647.6191L889.7588,647.6207" stroke="#000000" fill="none" style=""></path><path class="path" id="undefined" stroke-width="2" d="M834.0159,715.8251L863.1659,730.2527" stroke="#000000" fill="none" style=""></path><path class="path" id="undefined" stroke-width="2" d="M837.284,491.0266L848.9969,485.6474" stroke="#000000" fill="none" style=""></path><path stroke-width="2" class="path2" id="undefined" stroke-dasharray="1,3" d="M848.9969,485.6474L965.3167,432.2272" stroke="#c8c8c8" fill="none" style=""></path><a xlink:href="http://tools.gpcr.org/visualise/protein/pth1r_human"><text transform="matrix(0.9087,-0.4173,0.4173,0.9087,-91.7867,442.9944)" font-weight="bold" fill="#000000" stroke="none" font-size="12px" font-family="Verdana" text-anchor="start" y="431.3925" x="967.1342" style="text-anchor: start; font-family: Verdana; font-size: 12px; font-weight: bold;"><tspan dy="5.000013427734359">PTH1 receptor</tspan><title>Parathyroid hormone/parathyroid hormone-related peptide receptor (Homo sapiens)</title></text></a><path class="path" id="undefined" stroke-width="2" d="M834.0249,715.8295L834.0159,715.8251A261.1109,261.1109,0,0,0,837.284,491.0266L837.2931,491.0224" stroke="#000000" fill="none" style=""></path><path class="path" id="undefined" stroke-width="2" d="M842.0516,603.5189L861.0833,603.7956" stroke="#000000" fill="none" style=""></path><path class="path" id="undefined" stroke-width="2" d="M698.4669,821.1571L698.4628,821.148A242.07720000000003,242.07720000000003,0,0,0,842.0516,603.5189L842.0616,603.5191" stroke="#000000" fill="none" style=""></path><path class="path" id="undefined" stroke-width="2" d="M770.0182,712.1757L802.0597,733.3163" stroke="#000000" fill="none" style=""></path><path class="path" id="undefined" stroke-width="2" d="M521.228,787.8527L521.2319,787.8434A203.68990000000002,203.68990000000002,0,0,0,770.0182,712.1757L770.0265,712.1812" stroke="#000000" fill="none" style=""></path><path class="path" id="undefined" stroke-width="2" d="M639.8838,731.1333L659.2709,794.8757" stroke="#000000" fill="none" style=""></path><path class="path" id="undefined" stroke-width="2" d="M493.473,513.7365L493.4808,513.7428A137.0644,137.0644,0,0,0,639.8838,731.1333L639.8867,731.1428" stroke="#000000" fill="none" style=""></path><path class="path" id="undefined" stroke-width="2" d="M600,600L486.3131,676.5633" stroke="#000000" fill="none" style=""></path><path class="path" id="undefined" stroke-width="2" d="M600,600L640.6636,555.8811" stroke="#000000" fill="none" style=""></path><path stroke-width="2" class="path2" id="undefined" stroke-dasharray="1,3" d="M640.6636,555.8811L872.4459,304.4036" stroke="#c8c8c8" fill="none" style=""></path><a xlink:href="http://tools.gpcr.org/visualise/protein/calcr_human"><text transform="matrix(0.6777,-0.7353,0.7353,0.6777,58.8525,740.1462)" font-weight="bold" fill="#000000" stroke="none" font-size="12px" font-family="Verdana" text-anchor="start" y="302.9329" x="873.8013" style="text-anchor: start; font-family: Verdana; font-size: 12px; font-weight: bold;"><tspan dy="5.000008154296893">CT receptor</tspan><title>Calcitonin receptor (Homo sapiens)</title></text></a><g transform="translate (550 1200)" id="leg_group" class="legend"></g></svg>