<?xml version="1.0" standalone="no"?><!DOCTYPE svg PUBLIC "-//W3C//DTD SVG 1.1//EN" "http://www.w3.org/Graphics/SVG/1.1/DTD/svg11.dtd"><svg viewBox="0 0 1460 1540" xmlns:xlink="http://www.w3.org/1999/xlink" xmlns="http://www.w3.org/2000/svg" class="svgtree" id="svgtree" style="overflow: hidden; position: relative; left: -0.616638px;" width="1460" version="1.1" height="1540"><defs><style type="text/css"><![CDATA[
a { background-color: transparent; }
@font-face {
  font-family: "Glyphicons Halflings";
  src: url("../fonts/glyphicons-halflings-regular.eot?#iefix") format("embedded-opentype"), url("../fonts/glyphicons-halflings-regular.woff") format("woff"), url("../fonts/glyphicons-halflings-regular.ttf") format("truetype"), url("../fonts/glyphicons-halflings-regular.svg#glyphicons_halflingsregular") format("svg");
}
* { box-sizing: border-box; }
a { color: rgb(51, 122, 183); text-decoration: none; }

]]></style></defs><path stroke-width="2" class="path" id="undefined" d="M773.9071,242.9752A489,489,0,1,0,937.8315,287.3635L970.1926,218.4413A565.1413859823683,565.1413859823683,0,1,1,780.7438,167.1414Z" stroke="#dddddd" fill="#eeeeee" style=""></path><path class="bgfield" id="C_A_A_A" d="M1013.6545,331.6771A489,489,0,0,0,937.8392,287.3671L970.2015,218.4455A565.1413859823683,565.1413859823683,0,0,1,1057.8218,269.6549Z" stroke="#dddddd" fill="#eeeeee" style=""></path><path class="bgfield" id="C_A_A_P" d="M1080.3223,388.8324A489,489,0,0,0,1013.6545,331.6771L1057.8218,269.6549A565.1413859823683,565.1413859823683,0,0,1,1134.8704,335.7098Z" stroke="#dddddd" fill="#eeeeee" style=""></path><path class="bgfield" id="C_A_A_O" d="M1135.6926,456.99A489,489,0,0,0,1080.3223,388.8324L1134.8704,335.7098A565.1413859823683,565.1413859823683,0,0,1,1198.8624,414.48Z" stroke="#dddddd" fill="#eeeeee" style=""></path><path class="bgfield" id="C_A_A_T" d="M1177.98,533.9517A489,489,0,0,0,1135.6926,456.99L1198.8624,414.48A565.1413859823683,565.1413859823683,0,0,1,1247.7342,503.4254Z" stroke="#dddddd" fill="#eeeeee" style=""></path><path class="bgfield" id="C_A_A_V" d="M1205.8206,617.2358A489,489,0,0,0,1177.98,533.9517L1247.7342,503.4254A565.1413859823683,565.1413859823683,0,0,1,1279.9098,599.6774Z" stroke="#dddddd" fill="#eeeeee" style=""></path><path class="bgfield" id="C_A_A_R" d="M1218.3166,704.1563A489,489,0,0,0,1205.8206,617.2358L1279.9098,599.6774A565.1413859823683,565.1413859823683,0,0,1,1294.3516,700.1322Z" stroke="#dddddd" fill="#eeeeee" style=""></path><path class="bgfield" id="C_A_A_Q" d="M1215.0651,791.9103A489,489,0,0,0,1218.3166,704.1563L1294.3516,700.1322A565.1413859823683,565.1413859823683,0,0,1,1290.5938,801.5502Z" stroke="#dddddd" fill="#eeeeee" style=""></path><path class="bgfield" id="C_A_A_W" d="M1196.1708,877.6677A489,489,0,0,0,1215.0651,791.9103L1290.5938,801.5502A565.1413859823683,565.1413859823683,0,0,1,1268.7575,900.6608Z" stroke="#dddddd" fill="#eeeeee" style=""></path><path class="bgfield" id="C_A_A_F" d="M1162.2432,958.663A489,489,0,0,0,1196.1708,877.6677L1268.7575,900.6608A565.1413859823683,565.1413859823683,0,0,1,1229.5471,994.2678Z" stroke="#dddddd" fill="#eeeeee" style=""></path><path class="bgfield" id="C_A_A_BD" d="M1114.3764,1032.2843A489,489,0,0,0,1162.2432,958.663L1229.5471,994.2678A565.1413859823683,565.1413859823683,0,0,1,1174.227,1079.3525Z" stroke="#dddddd" fill="#eeeeee" style=""></path><path class="bgfield" id="C_A_A_E" d="M1054.1139,1096.1573A489,489,0,0,0,1114.3764,1032.2843L1174.227,1079.3525A565.1413859823683,565.1413859823683,0,0,1,1104.5811,1153.1711Z" stroke="#dddddd" fill="#eeeeee" style=""></path><path class="bgfield" id="C_A_A_BC" d="M983.3992,1148.2223A489,489,0,0,0,1054.1139,1096.1573L1104.5811,1153.1711A565.1413859823683,565.1413859823683,0,0,1,1022.8555,1213.343Z" stroke="#dddddd" fill="#eeeeee" style=""></path><path class="bgfield" id="C_A_A_L" d="M904.5127,1186.8001A489,489,0,0,0,983.3992,1148.2223L1022.8555,1213.343A565.1413859823683,565.1413859823683,0,0,1,931.6857,1257.9277Z" stroke="#dddddd" fill="#eeeeee" style=""></path><path class="bgfield" id="C_A_A_D" d="M819.9983,1210.6467A489,489,0,0,0,904.5127,1186.8001L931.6857,1257.9277A565.1413859823683,565.1413859823683,0,0,1,834.0118,1285.4875Z" stroke="#dddddd" fill="#eeeeee" style=""></path><path class="bgfield" id="C_A_A_K" d="M732.5817,1218.9932A489,489,0,0,0,819.9983,1210.6467L834.0118,1285.4875A565.1413859823683,565.1413859823683,0,0,1,732.9837,1295.1335Z" stroke="#dddddd" fill="#eeeeee" style=""></path><path class="bgfield" id="C_A_A_J" d="M645.0818,1211.5703A489,489,0,0,0,732.5817,1218.9932L732.9837,1295.1335A565.1413859823683,565.1413859823683,0,0,1,631.8594,1286.5548Z" stroke="#dddddd" fill="#eeeeee" style=""></path><path class="bgfield" id="C_A_A_I" d="M560.3205,1188.6173A489,489,0,0,0,645.0818,1211.5703L631.8594,1286.5548A565.1413859823683,565.1413859823683,0,0,1,533.8999,1260.0279Z" stroke="#dddddd" fill="#eeeeee" style=""></path><path class="bgfield" id="C_A_A_BG" d="M481.031,1150.8746A489,489,0,0,0,560.3205,1188.6173L533.8999,1260.0279A565.1413859823683,565.1413859823683,0,0,1,442.2644,1216.4083Z" stroke="#dddddd" fill="#eeeeee" style=""></path><path class="bgfield" id="C_A_A_H" d="M409.7705,1099.5593A489,489,0,0,0,481.031,1150.8746L442.2644,1216.4083A565.1413859823683,565.1413859823683,0,0,1,359.908,1157.1027Z" stroke="#dddddd" fill="#eeeeee" style=""></path><path class="bgfield" id="C_A_A_BE" d="M348.8369,1036.3261A489,489,0,0,0,409.7705,1099.5593L359.908,1157.1027A565.1413859823683,565.1413859823683,0,0,1,289.4866,1084.0236Z" stroke="#dddddd" fill="#eeeeee" style=""></path><path class="bgfield" id="C_A_A_BF" d="M300.1953,963.2144A489,489,0,0,0,348.8369,1036.3261L289.4866,1084.0236A565.1413859823683,565.1413859823683,0,0,1,233.2711,999.5278Z" stroke="#dddddd" fill="#eeeeee" style=""></path><path class="bgfield" id="C_A_A_G" d="M265.4144,882.5818A489,489,0,0,0,300.1953,963.2144L233.2711,999.5278A565.1413859823683,565.1413859823683,0,0,1,193.0745,906.34Z" stroke="#dddddd" fill="#eeeeee" style=""></path><path class="bgfield" id="C_A_A_BB" d="M245.6157,797.0286A489,489,0,0,0,265.4144,882.5818L193.0745,906.34A565.1413859823683,565.1413859823683,0,0,1,170.193,807.4655Z" stroke="#dddddd" fill="#eeeeee" style=""></path><path class="bgfield" id="C_A_A_X" d="M241.4377,709.3139A489,489,0,0,0,245.6157,797.0286L170.193,807.4655A565.1413859823683,565.1413859823683,0,0,1,165.3645,706.0929Z" stroke="#dddddd" fill="#eeeeee" style=""></path><path class="bgfield" id="C_A_A_Y" d="M253.0153,622.2663A489,489,0,0,0,241.4377,709.3139L165.3645,706.0929A565.1413859823683,565.1413859823683,0,0,1,178.7448,605.4912Z" stroke="#dddddd" fill="#eeeeee" style=""></path><path class="bgfield" id="C_A_A_Z" d="M279.9749,538.6929A489,489,0,0,0,253.0153,622.2663L178.7448,605.4912A565.1413859823683,565.1413859823683,0,0,1,209.9022,508.9048Z" stroke="#dddddd" fill="#eeeeee" style=""></path><path class="bgfield" id="C_A_A_M" d="M321.4472,461.2889A489,489,0,0,0,279.9749,538.6929L209.9022,508.9048A565.1413859823683,565.1413859823683,0,0,1,257.8322,419.4484Z" stroke="#dddddd" fill="#eeeeee" style=""></path><path class="bgfield" id="C_A_A_U" d="M376.0949,392.5505A489,489,0,0,0,321.4472,461.2889L257.8322,419.4484A565.1413859823683,565.1413859823683,0,0,1,320.9889,340.0068Z" stroke="#dddddd" fill="#eeeeee" style=""></path><path class="bgfield" id="C_A_A_S" d="M442.1554,334.6944A489,489,0,0,0,376.0949,392.5505L320.9889,340.0068A565.1413859823683,565.1413859823683,0,0,1,397.3356,273.142Z" stroke="#dddddd" fill="#eeeeee" style=""></path><path class="bgfield" id="C_A_A_N" d="M517.4986,289.5864A489,489,0,0,0,442.1554,334.6944L397.3356,273.142A565.1413859823683,565.1413859823683,0,0,1,484.4104,221.0103Z" stroke="#dddddd" fill="#eeeeee" style=""></path><path class="bgfield" id="C_A_A_BA" d="M599.6947,258.6811A489,489,0,0,0,517.4986,289.5864L484.4104,221.0103A565.1413859823683,565.1413859823683,0,0,1,579.4051,185.2928Z" stroke="#dddddd" fill="#eeeeee" style=""></path><path class="bgfield" id="C_A_A_C" d="M686.0929,242.9752A489,489,0,0,0,599.6947,258.6811L579.4051,185.2928A565.1413859823683,565.1413859823683,0,0,1,679.2562,167.1414Z" stroke="#dddddd" fill="#eeeeee" style=""></path><path class="bgfield" id="C_A_A_B" d="M773.9071,242.9752A489,489,0,0,0,686.0929,242.9752L679.2562,167.1414A565.1413859823683,565.1413859823683,0,0,1,780.7438,167.1414Z" stroke="#dddddd" fill="#eeeeee" style=""></path><desc>Created with Raphaël 2.1.4</desc><defs></defs><path class="path" id="undefined" stroke-width="2" d="M730,696.341L730,577" stroke="#000000" fill="none" style=""></path><path stroke-width="2" class="path2" id="undefined" stroke-dasharray="1,3" d="M730,577L730,241" stroke="#c8c8c8" fill="none" style=""></path><a xlink:href="http://tools.gpcr.org/visualise/protein/bai2_human"><text transform="matrix(0,-1,1,0,491,969)" font-weight="bold" fill="#000000" stroke="none" font-size="12px" font-family="Verdana" text-anchor="start" y="239" x="730" style="text-anchor: start; font-family: Verdana; font-size: 12px; font-weight: bold;"><tspan dy="4.375">BAI2</tspan><title>Brain-specific angiogenesis inhibitor 2 (Homo sapiens)</title></text></a><path class="path" id="undefined" stroke-width="2" d="M723.98,696.8837L696.7332,546.9991" stroke="#000000" fill="none" style=""></path><path stroke-width="2" class="path2" id="undefined" stroke-dasharray="1,3" d="M696.7332,546.9991L642.5405,248.8848" stroke="#c8c8c8" fill="none" style=""></path><a xlink:href="http://tools.gpcr.org/visualise/protein/bai3_human"><text transform="matrix(0.1789,0.9839,-0.9839,0.1789,770.2616,-429.0731)" font-weight="bold" fill="#000000" stroke="none" font-size="12px" font-family="Verdana" text-anchor="end" y="246.917" x="642.1828" style="text-anchor: end; font-family: Verdana; font-size: 12px; font-weight: bold;"><tspan dy="4.374992553710939">BAI3</tspan><title>Brain-specific angiogenesis inhibitor 3 (Homo sapiens)</title></text></a><path class="path" id="undefined" stroke-width="2" d="M730,696.331L730,696.341A33.659,33.659,0,0,0,723.98,696.8837L723.9782,696.8739" stroke="#000000" fill="none" style=""></path><path class="path" id="undefined" stroke-width="2" d="M730,730L726.9778,696.477" stroke="#000000" fill="none" style=""></path><path class="path" id="undefined" stroke-width="2" d="M652.6193,524.1975L606.8211,402.3921" stroke="#000000" fill="none" style=""></path><path stroke-width="2" class="path2" id="undefined" stroke-dasharray="1,3" d="M606.8211,402.3921L557.9015,272.2849" stroke="#c8c8c8" fill="none" style=""></path><a xlink:href="http://tools.gpcr.org/visualise/protein/gp126_human"><text transform="matrix(0.3519,0.936,-0.936,0.3519,614.2103,-346.3057)" font-weight="bold" fill="#000000" stroke="none" font-size="12px" font-family="Verdana" text-anchor="end" y="270.4129" x="557.1976" style="text-anchor: end; font-family: Verdana; font-size: 12px; font-weight: bold;"><tspan dy="4.374997167968729">GPR126</tspan><title>G-protein coupled receptor 126 (Homo sapiens)</title></text></a><path class="path" id="undefined" stroke-width="2" d="M613.9034,536.0858L573.3288,468.3148" stroke="#000000" fill="none" style=""></path><path stroke-width="2" class="path2" id="undefined" stroke-dasharray="1,3" d="M573.3288,468.3148L478.8124,310.4457" stroke="#c8c8c8" fill="none" style=""></path><a xlink:href="http://tools.gpcr.org/visualise/protein/gpr64_human"><text transform="matrix(0.5137,0.858,-0.858,0.5137,497.2436,-259.7894)" font-weight="bold" fill="#000000" stroke="none" font-size="12px" font-family="Verdana" text-anchor="end" y="308.7297" x="477.7851" style="text-anchor: end; font-family: Verdana; font-size: 12px; font-weight: bold;"><tspan dy="4.374994189453105">GPR64</tspan><title>G-protein coupled receptor 64 (Homo sapiens)</title></text></a><path class="path" id="undefined" stroke-width="2" d="M581.0931,559.9768L486.8854,452.4098" stroke="#000000" fill="none" style=""></path><path stroke-width="2" class="path2" id="undefined" stroke-dasharray="1,3" d="M486.8854,452.4098L407.8238,362.1366" stroke="#c8c8c8" fill="none" style=""></path><a xlink:href="http://tools.gpcr.org/visualise/protein/gp112_human"><text transform="matrix(0.6588,0.7523,-0.7523,0.6588,409.9759,-182.7745)" font-weight="bold" fill="#000000" stroke="none" font-size="12px" font-family="Verdana" text-anchor="end" y="360.632" x="406.5061" style="text-anchor: end; font-family: Verdana; font-size: 12px; font-weight: bold;"><tspan dy="4.37501147460938">GPR112</tspan><title>Probable G-protein coupled receptor 112 (Homo sapiens)</title></text></a><path class="path" id="undefined" stroke-width="2" d="M613.8982,536.0772L613.9034,536.0858A226.0114,226.0114,0,0,0,581.0931,559.9768L581.0865,559.9693" stroke="#000000" fill="none" style=""></path><path class="path" id="undefined" stroke-width="2" d="M600.5764,552.2587L596.9608,547.2933" stroke="#000000" fill="none" style=""></path><path class="path" id="undefined" stroke-width="2" d="M652.6158,524.1882L652.6193,524.1975A219.8691,219.8691,0,0,0,600.5764,552.2587L600.5705,552.2506" stroke="#000000" fill="none" style=""></path><path class="path" id="undefined" stroke-width="2" d="M646.0016,574.215L625.6502,536.4709" stroke="#000000" fill="none" style=""></path><path class="path" id="undefined" stroke-width="2" d="M591.4591,619.8588L524.914,566.9549" stroke="#000000" fill="none" style=""></path><path stroke-width="2" class="path2" id="undefined" stroke-dasharray="1,3" d="M524.914,566.9549L347.2249,425.6905" stroke="#c8c8c8" fill="none" style=""></path><a xlink:href="http://tools.gpcr.org/visualise/protein/gp114_human"><text transform="matrix(0.7828,0.6223,-0.6223,0.7828,339.224,-122.9053)" font-weight="bold" fill="#000000" stroke="none" font-size="12px" font-family="Verdana" text-anchor="end" y="424.4459" x="345.6594" style="text-anchor: end; font-family: Verdana; font-size: 12px; font-weight: bold;"><tspan dy="4.37500766601562">GPR114</tspan><title>Probable G-protein coupled receptor 114 (Homo sapiens)</title></text></a><path class="path" id="undefined" stroke-width="2" d="M645.9969,574.2062L646.0016,574.215A176.9878,176.9878,0,0,0,591.4591,619.8588L591.4512,619.8525" stroke="#000000" fill="none" style=""></path><path class="path" id="undefined" stroke-width="2" d="M624.3035,603.6968L616.4139,594.2691" stroke="#000000" fill="none" style=""></path><path class="path" id="undefined" stroke-width="2" d="M584.8298,652.2191L466.4459,588.7901" stroke="#000000" fill="none" style=""></path><path stroke-width="2" class="path2" id="undefined" stroke-dasharray="1,3" d="M466.4459,588.7901L298.97,499.0581" stroke="#c8c8c8" fill="none" style=""></path><a xlink:href="http://tools.gpcr.org/visualise/protein/gpr56_human"><text transform="matrix(0.8815,0.4723,-0.4723,0.8815,270.4793,-81.3127)" font-weight="bold" fill="#000000" stroke="none" font-size="12px" font-family="Verdana" text-anchor="end" y="498.1135" x="297.2071" style="text-anchor: end; font-family: Verdana; font-size: 12px; font-weight: bold;"><tspan dy="4.375005126953113">GPR56</tspan><title>G-protein coupled receptor 56 (Homo sapiens)</title></text></a><path class="path" id="undefined" stroke-width="2" d="M624.2971,603.6892L624.3035,603.6968A164.6944,164.6944,0,0,0,584.8298,652.2191L584.821,652.2144" stroke="#000000" fill="none" style=""></path><path class="path" id="undefined" stroke-width="2" d="M621.4241,641.6718L602.2419,626.0668" stroke="#000000" fill="none" style=""></path><path class="path" id="undefined" stroke-width="2" d="M448.2496,639.1111L300.7801,591.5395" stroke="#000000" fill="none" style=""></path><path stroke-width="2" class="path2" id="undefined" stroke-dasharray="1,3" d="M300.7801,591.5395L264.6153,579.8732" stroke="#c8c8c8" fill="none" style=""></path><a xlink:href="http://tools.gpcr.org/visualise/protein/gp125_human"><text transform="matrix(0.9517,0.307,-0.307,0.9517,190.5243,-52.6804)" font-weight="bold" fill="#000000" stroke="none" font-size="12px" font-family="Verdana" text-anchor="end" y="579.2592" x="262.7119" style="text-anchor: end; font-family: Verdana; font-size: 12px; font-weight: bold;"><tspan dy="4.374983691406214">GPR125</tspan><title>Probable G-protein coupled receptor 125 (Homo sapiens)</title></text></a><path class="path" id="undefined" stroke-width="2" d="M436.5368,690.9688L249.2336,666.057" stroke="#000000" fill="none" style=""></path><path stroke-width="2" class="path2" id="undefined" stroke-dasharray="1,3" d="M249.2336,666.057L245.2686,665.5297" stroke="#c8c8c8" fill="none" style=""></path><a xlink:href="http://tools.gpcr.org/visualise/protein/gp124_human"><text transform="matrix(0.9913,0.1318,-0.1318,0.9913,89.8331,-26.2679)" font-weight="bold" fill="#000000" stroke="none" font-size="12px" font-family="Verdana" text-anchor="end" y="665.266" x="243.286" style="text-anchor: end; font-family: Verdana; font-size: 12px; font-weight: bold;"><tspan dy="4.375008789062463">GPR124</tspan><title>G-protein coupled receptor 124 (Homo sapiens)</title></text></a><path class="path" id="undefined" stroke-width="2" d="M448.2401,639.1081L448.2496,639.1111A296.0474,296.0474,0,0,0,436.5368,690.9688L436.5269,690.9674" stroke="#000000" fill="none" style=""></path><path class="path" id="undefined" stroke-width="2" d="M510.3857,680.397L441.2268,664.7765" stroke="#000000" fill="none" style=""></path><path class="path" id="undefined" stroke-width="2" d="M505.1086,740.7118L495.2661,741.1806" stroke="#000000" fill="none" style=""></path><path stroke-width="2" class="path2" id="undefined" stroke-dasharray="1,3" d="M495.2661,741.1806L241.5538,753.2652" stroke="#c8c8c8" fill="none" style=""></path><a xlink:href="http://tools.gpcr.org/visualise/protein/gp123_human"><text transform="matrix(0.9989,-0.0476,0.0476,0.9989,-35.5715,12.2505)" font-weight="bold" fill="#000000" stroke="none" font-size="12px" font-family="Verdana" text-anchor="end" y="753.3604" x="239.556" style="text-anchor: end; font-family: Verdana; font-size: 12px; font-weight: bold;"><tspan dy="4.374987402343777">GPR123</tspan><title>Probable G-protein coupled receptor 123 (Homo sapiens)</title></text></a><path class="path" id="undefined" stroke-width="2" d="M510.3759,680.3948L510.3857,680.397A225.1464,225.1464,0,0,0,505.1086,740.7118L505.0986,740.7123" stroke="#000000" fill="none" style=""></path><path class="path" id="undefined" stroke-width="2" d="M564.895,715.5546L505.7104,710.3764" stroke="#000000" fill="none" style=""></path><path class="path" id="undefined" stroke-width="2" d="M552.935,770.9763L404.5998,805.304" stroke="#000000" fill="none" style=""></path><path stroke-width="2" class="path2" id="undefined" stroke-dasharray="1,3" d="M404.5998,805.304L253.5907,840.2505" stroke="#c8c8c8" fill="none" style=""></path><a xlink:href="http://tools.gpcr.org/visualise/protein/gp128_human"><text transform="matrix(0.9743,-0.2255,0.2255,0.9743,-183.0663,78.3818)" font-weight="bold" fill="#000000" stroke="none" font-size="12px" font-family="Verdana" text-anchor="end" y="840.7015" x="251.6422" style="text-anchor: end; font-family: Verdana; font-size: 12px; font-weight: bold;"><tspan dy="4.37502294921876">GPR128</tspan><title>Probable G-protein coupled receptor 128 (Homo sapiens)</title></text></a><path class="path" id="undefined" stroke-width="2" d="M563.1189,801.9843L342.5118,897.1434" stroke="#000000" fill="none" style=""></path><path stroke-width="2" class="path2" id="undefined" stroke-dasharray="1,3" d="M342.5118,897.1434L280.9912,923.6804" stroke="#c8c8c8" fill="none" style=""></path><a xlink:href="http://tools.gpcr.org/visualise/protein/celr3_human"><text transform="matrix(0.9182,-0.3961,0.3961,0.9182,-343.3302,186.1709)" font-weight="bold" fill="#000000" stroke="none" font-size="12px" font-family="Verdana" text-anchor="end" y="924.4725" x="279.1548" style="text-anchor: end; font-family: Verdana; font-size: 12px; font-weight: bold;"><tspan dy="4.375026855468718">CELSR3</tspan><title>Cadherin EGF LAG seven-pass G-type receptor 3 (Homo sapiens)</title></text></a><path class="path" id="undefined" stroke-width="2" d="M552.9253,770.9786L552.935,770.9763A181.74450000000002,181.74450000000002,0,0,0,563.1189,801.9843L563.1097,801.9883" stroke="#000000" fill="none" style=""></path><path class="path" id="undefined" stroke-width="2" d="M572.539,781.7142L557.3295,786.7094" stroke="#000000" fill="none" style=""></path><path class="path" id="undefined" stroke-width="2" d="M564.8851,715.5537L564.895,715.5546A165.7357,165.7357,0,0,0,572.539,781.7142L572.5295,781.7173" stroke="#000000" fill="none" style=""></path><path class="path" id="undefined" stroke-width="2" d="M580.3771,747.2874L565.3596,749.0225" stroke="#000000" fill="none" style=""></path><path class="path" id="undefined" stroke-width="2" d="M495.4071,886.0757L404.4638,946.5807" stroke="#000000" fill="none" style=""></path><path stroke-width="2" class="path2" id="undefined" stroke-dasharray="1,3" d="M404.4638,946.5807L322.8716,1000.8643" stroke="#c8c8c8" fill="none" style=""></path><a xlink:href="http://tools.gpcr.org/visualise/protein/lphn2_human"><text transform="matrix(0.8326,-0.5539,0.5539,0.8326,-501.2287,345.6779)" font-weight="bold" fill="#000000" stroke="none" font-size="12px" font-family="Verdana" text-anchor="end" y="1001.9722" x="321.2065" style="text-anchor: end; font-family: Verdana; font-size: 12px; font-weight: bold;"><tspan dy="4.3749709960937935">LPHN2</tspan><title>Latrophilin-2 (Homo sapiens)</title></text></a><path class="path" id="undefined" stroke-width="2" d="M527.1045,925.5169L443.4086,1006.1691" stroke="#000000" fill="none" style=""></path><path stroke-width="2" class="path2" id="undefined" stroke-dasharray="1,3" d="M443.4086,1006.1691L377.8814,1069.3133" stroke="#c8c8c8" fill="none" style=""></path><a xlink:href="http://tools.gpcr.org/visualise/protein/lphn1_human"><text transform="matrix(0.7201,-0.6939,0.6939,0.7201,-637.5772,560.9213)" font-weight="bold" fill="#000000" stroke="none" font-size="12px" font-family="Verdana" text-anchor="end" y="1070.701" x="376.4412" style="text-anchor: end; font-family: Verdana; font-size: 12px; font-weight: bold;"><tspan dy="4.374950195312522">LPHN1</tspan><title>Latrophilin-1 (Homo sapiens)</title></text></a><path class="path" id="undefined" stroke-width="2" d="M495.3988,886.0812L495.4071,886.0757A281.7684,281.7684,0,0,0,527.1045,925.5169L527.0973,925.5238" stroke="#000000" fill="none" style=""></path><path class="path" id="undefined" stroke-width="2" d="M543.7454,879.6857L510.3687,906.5092" stroke="#000000" fill="none" style=""></path><path class="path" id="undefined" stroke-width="2" d="M590.3671,923.9052L543.0038,989.6776" stroke="#000000" fill="none" style=""></path><path stroke-width="2" class="path2" id="undefined" stroke-dasharray="1,3" d="M543.0038,989.6776L444.2465,1126.8198" stroke="#c8c8c8" fill="none" style=""></path><a xlink:href="http://tools.gpcr.org/visualise/protein/eltd1_human"><text transform="matrix(0.5844,-0.8115,0.8115,0.5844,-731.5632,828.5769)" font-weight="bold" fill="#000000" stroke="none" font-size="12px" font-family="Verdana" text-anchor="end" y="1128.4428" x="443.0778" style="text-anchor: end; font-family: Verdana; font-size: 12px; font-weight: bold;"><tspan dy="4.375050976562534">ELTD1</tspan><title>EGF, latrophilin and seven transmembrane domain-containing protein 1 (Homo sapiens)</title></text></a><path class="path" id="undefined" stroke-width="2" d="M543.7376,879.6919L543.7454,879.6857A238.94889999999998,238.94889999999998,0,0,0,590.3671,923.9052L590.3613,923.9133" stroke="#000000" fill="none" style=""></path><path class="path" id="undefined" stroke-width="2" d="M580.0113,888.1369L565.5632,903.3699" stroke="#000000" fill="none" style=""></path><path class="path" id="undefined" stroke-width="2" d="M636.323,926.7956L570.5434,1064.9845" stroke="#000000" fill="none" style=""></path><path stroke-width="2" class="path2" id="undefined" stroke-dasharray="1,3" d="M570.5434,1064.9845L519.8268,1171.5294" stroke="#c8c8c8" fill="none" style=""></path><a xlink:href="http://tools.gpcr.org/visualise/protein/lphn3_human"><text transform="matrix(0.4298,-0.9029,0.9029,0.4298,-763.5176,1137.6208)" font-weight="bold" fill="#000000" stroke="none" font-size="12px" font-family="Verdana" text-anchor="end" y="1173.3353" x="518.9672" style="text-anchor: end; font-family: Verdana; font-size: 12px; font-weight: bold;"><tspan dy="4.374972851562461">LPHN3</tspan><title>Latrophilin-3 (Homo sapiens)</title></text></a><path class="path" id="undefined" stroke-width="2" d="M580.0044,888.1442L580.0113,888.1369A217.95389999999998,217.95389999999998,0,0,0,636.323,926.7956L636.3187,926.8046" stroke="#000000" fill="none" style=""></path><path class="path" id="undefined" stroke-width="2" d="M620.0094,890.2164L606.6433,909.6859" stroke="#000000" fill="none" style=""></path><path class="path" id="undefined" stroke-width="2" d="M670.8005,948.6141L640.6078,1060.1106" stroke="#000000" fill="none" style=""></path><path stroke-width="2" class="path2" id="undefined" stroke-dasharray="1,3" d="M640.6078,1060.1106L602.1849,1202.0003" stroke="#c8c8c8" fill="none" style=""></path><a xlink:href="http://tools.gpcr.org/visualise/protein/emr1_human"><text transform="matrix(0.2614,-0.9652,0.9652,0.2614,-717.6778,1469.9924)" font-weight="bold" fill="#000000" stroke="none" font-size="12px" font-family="Verdana" text-anchor="end" y="1203.9308" x="601.6621" style="text-anchor: end; font-family: Verdana; font-size: 12px; font-weight: bold;"><tspan dy="4.37501386718759">EMR1</tspan><title>EGF-like module-containing mucin-like hormone receptor-like 1 (Homo sapiens)</title></text></a><path class="path" id="undefined" stroke-width="2" d="M707.4063,996.3297L700.8371,1073.7652" stroke="#000000" fill="none" style=""></path><path stroke-width="2" class="path2" id="undefined" stroke-dasharray="1,3" d="M700.8371,1073.7652L688.6648,1217.2498" stroke="#c8c8c8" fill="none" style=""></path><a xlink:href="http://tools.gpcr.org/visualise/protein/emr2_human"><text transform="matrix(0.0845,-0.9964,0.9964,0.0845,-584.5817,1802.2117)" font-weight="bold" fill="#000000" stroke="none" font-size="12px" font-family="Verdana" text-anchor="end" y="1219.2427" x="688.4958" style="text-anchor: end; font-family: Verdana; font-size: 12px; font-weight: bold;"><tspan dy="4.3750242187500135">EMR2</tspan><title>EGF-like module-containing mucin-like hormone receptor-like 2 (Homo sapiens)</title></text></a><path class="path" id="undefined" stroke-width="2" d="M755.4046,996.0762L759.8446,1042.5785" stroke="#000000" fill="none" style=""></path><path stroke-width="2" class="path2" id="undefined" stroke-dasharray="1,3" d="M759.8446,1042.5785L776.4778,1216.7862" stroke="#c8c8c8" fill="none" style=""></path><a xlink:href="http://tools.gpcr.org/visualise/protein/emr3_human"><text transform="matrix(0.095,0.9955,-0.9955,0.095,1916.1079,329.7848)" font-weight="bold" fill="#000000" stroke="none" font-size="12px" font-family="Verdana" text-anchor="start" y="1218.7772" x="776.6679" style="text-anchor: start; font-family: Verdana; font-size: 12px; font-weight: bold;"><tspan dy="4.3749783203124935">EMR3</tspan><title>EGF-like module-containing mucin-like hormone receptor-like 3 (Homo sapiens)</title></text></a><path class="path" id="undefined" stroke-width="2" d="M707.4054,996.3396L707.4063,996.3297A267.2863,267.2863,0,0,0,755.4046,996.0762L755.4056,996.0862" stroke="#000000" fill="none" style=""></path><path class="path" id="undefined" stroke-width="2" d="M731.1958,956.4846L731.4112,997.2826" stroke="#000000" fill="none" style=""></path><path class="path" id="undefined" stroke-width="2" d="M670.7979,948.6238L670.8005,948.6141A226.4878,226.4878,0,0,0,731.1958,956.4846L731.1958,956.4946" stroke="#000000" fill="none" style=""></path><path class="path" id="undefined" stroke-width="2" d="M703.6246,932.396L700.7325,954.5888" stroke="#000000" fill="none" style=""></path><path class="path" id="undefined" stroke-width="2" d="M788.2597,936.4767L827.7609,1076.4719" stroke="#000000" fill="none" style=""></path><path stroke-width="2" class="path2" id="undefined" stroke-dasharray="1,3" d="M827.7609,1076.4719L862.7919,1200.6244" stroke="#c8c8c8" fill="none" style=""></path><a xlink:href="http://tools.gpcr.org/visualise/protein/cd97_human"><text transform="matrix(0.2716,0.9624,-0.9624,0.2716,1786.2493,45.0946)" font-weight="bold" fill="#000000" stroke="none" font-size="12px" font-family="Verdana" text-anchor="start" y="1202.5492" x="863.335" style="text-anchor: start; font-family: Verdana; font-size: 12px; font-weight: bold;"><tspan dy="4.375005664062428">CD97</tspan><title>CD97 antigen (Homo sapiens)</title></text></a><path class="path" id="undefined" stroke-width="2" d="M824.2494,922.7274L842.9032,960.872" stroke="#000000" fill="none" style=""></path><path stroke-width="2" class="path2" id="undefined" stroke-dasharray="1,3" d="M842.9032,960.872L944.8236,1169.2856" stroke="#c8c8c8" fill="none" style=""></path><a xlink:href="http://tools.gpcr.org/visualise/protein/emr4_human"><text transform="matrix(0.4393,0.8983,-0.8983,0.4393,1582.2673,-192.9454)" font-weight="bold" fill="#000000" stroke="none" font-size="12px" font-family="Verdana" text-anchor="start" y="1171.0822" x="945.7023" style="text-anchor: start; font-family: Verdana; font-size: 12px; font-weight: bold;"><tspan dy="4.375046679687557">EMR4P</tspan><title>Putative EGF-like module-containing mucin-like hormone receptor-like 4 (Homo sapiens)</title></text></a><path class="path" id="undefined" stroke-width="2" d="M788.2624,936.4863L788.2597,936.4767A214.53859999999997,214.53859999999997,0,0,0,824.2494,922.7274L824.2538,922.7364" stroke="#000000" fill="none" style=""></path><path class="path" id="undefined" stroke-width="2" d="M802.8411,920.6671L806.5638,930.4116" stroke="#000000" fill="none" style=""></path><path class="path" id="undefined" stroke-width="2" d="M703.6233,932.4059L703.6246,932.396A204.10729999999998,204.10729999999998,0,0,0,802.8411,920.6671L802.8447,920.6765" stroke="#000000" fill="none" style=""></path><path class="path" id="undefined" stroke-width="2" d="M752.8147,922.9941L753.9616,932.6959" stroke="#000000" fill="none" style=""></path><path class="path" id="undefined" stroke-width="2" d="M620.0037,890.2246L620.0094,890.2164A194.3379,194.3379,0,0,0,752.8147,922.9941L752.8159,923.004" stroke="#000000" fill="none" style=""></path><path class="path" id="undefined" stroke-width="2" d="M687.7869,901.0347L683.4328,918.6762" stroke="#000000" fill="none" style=""></path><path class="path" id="undefined" stroke-width="2" d="M845.6518,887.0786L926.2496,996.5466" stroke="#000000" fill="none" style=""></path><path stroke-width="2" class="path2" id="undefined" stroke-dasharray="1,3" d="M926.2496,996.5466L1019.9276,1123.7804" stroke="#c8c8c8" fill="none" style=""></path><a xlink:href="http://tools.gpcr.org/visualise/protein/gp133_human"><text transform="matrix(0.5929,0.8053,-0.8053,0.5929,1321.9475,-364.1312)" font-weight="bold" fill="#000000" stroke="none" font-size="12px" font-family="Verdana" text-anchor="start" y="1125.3909" x="1021.1134" style="text-anchor: start; font-family: Verdana; font-size: 12px; font-weight: bold;"><tspan dy="4.3750308593751015">GPR133</tspan><title>Probable G-protein coupled receptor 133 (Homo sapiens)</title></text></a><path class="path" id="undefined" stroke-width="2" d="M871.8811,863.861L1014.4,998.3238" stroke="#000000" fill="none" style=""></path><path stroke-width="2" class="path2" id="undefined" stroke-dasharray="1,3" d="M1014.4,998.3238L1085.6818,1065.5763" stroke="#c8c8c8" fill="none" style=""></path><a xlink:href="http://tools.gpcr.org/visualise/protein/celr1_human"><text transform="matrix(0.7274,0.6863,-0.6863,0.7274,1028.5845,-455.1606)" font-weight="bold" fill="#000000" stroke="none" font-size="12px" font-family="Verdana" text-anchor="start" y="1066.9488" x="1087.1365" style="text-anchor: start; font-family: Verdana; font-size: 12px; font-weight: bold;"><tspan dy="4.374947460937392">CELSR1</tspan><title>Cadherin EGF LAG seven-pass G-type receptor 1 (Homo sapiens)</title></text></a><path class="path" id="undefined" stroke-width="2" d="M845.6578,887.0866L845.6518,887.0786A195.0616,195.0616,0,0,0,871.8811,863.861L871.8884,863.8679" stroke="#000000" fill="none" style=""></path><path class="path" id="undefined" stroke-width="2" d="M846.7652,861.9117L859.2887,876.0598" stroke="#000000" fill="none" style=""></path><path class="path" id="undefined" stroke-width="2" d="M687.7845,901.0444L687.7869,901.0347A176.167,176.167,0,0,0,846.7652,861.9117L846.7718,861.9192" stroke="#000000" fill="none" style=""></path><path class="path" id="undefined" stroke-width="2" d="M769.1572,889.1175L772.097,901.0633" stroke="#000000" fill="none" style=""></path><path class="path" id="undefined" stroke-width="2" d="M892.5879,835.7109L1046.906,936.045" stroke="#000000" fill="none" style=""></path><path stroke-width="2" class="path2" id="undefined" stroke-dasharray="1,3" d="M1046.906,936.045L1139.9658,996.5503" stroke="#c8c8c8" fill="none" style=""></path><a xlink:href="http://tools.gpcr.org/visualise/protein/gp144_human"><text transform="matrix(0.8384,0.5451,-0.5451,0.8384,728.3237,-461.0581)" font-weight="bold" fill="#000000" stroke="none" font-size="12px" font-family="Verdana" text-anchor="start" y="997.6405" x="1141.6425" style="text-anchor: start; font-family: Verdana; font-size: 12px; font-weight: bold;"><tspan dy="4.3749970703124745">GPR144</tspan><title>Probable G-protein coupled receptor 144 (Homo sapiens)</title></text></a><path class="path" id="undefined" stroke-width="2" d="M908.8731,804.927L1102.6292,886.0882" stroke="#000000" fill="none" style=""></path><path stroke-width="2" class="path2" id="undefined" stroke-dasharray="1,3" d="M1102.6292,886.0882L1181.0289,918.9285" stroke="#c8c8c8" fill="none" style=""></path><a xlink:href="http://tools.gpcr.org/visualise/protein/celr2_human"><text transform="matrix(0.9223,0.3864,-0.3864,0.9223,447.1837,-385.5959)" font-weight="bold" fill="#000000" stroke="none" font-size="12px" font-family="Verdana" text-anchor="start" y="919.7012" x="1182.8736" style="text-anchor: start; font-family: Verdana; font-size: 12px; font-weight: bold;"><tspan dy="4.375028124999972">CELSR2</tspan><title>Cadherin EGF LAG seven-pass G-type receptor 2 (Homo sapiens)</title></text></a><path class="path" id="undefined" stroke-width="2" d="M892.5963,835.7164L892.5879,835.7109A193.93200000000002,193.93200000000002,0,0,0,908.8731,804.927L908.8823,804.9308" stroke="#000000" fill="none" style=""></path><path class="path" id="undefined" stroke-width="2" d="M874.8455,806.6254L901.4229,820.6852" stroke="#000000" fill="none" style=""></path><path class="path" id="undefined" stroke-width="2" d="M769.1596,889.1272L769.1572,889.1175A163.8648,163.8648,0,0,0,874.8455,806.6254L874.8543,806.6301" stroke="#000000" fill="none" style=""></path><path class="path" id="undefined" stroke-width="2" d="M823.8846,850.2841L830.8242,859.1749" stroke="#000000" fill="none" style=""></path><path class="path" id="undefined" stroke-width="2" d="M1044.7965,799.3565L1181.1793,829.4046" stroke="#000000" fill="none" style=""></path><path stroke-width="2" class="path2" id="undefined" stroke-dasharray="1,3" d="M1181.1793,829.4046L1207.5469,835.214" stroke="#c8c8c8" fill="none" style=""></path><a xlink:href="http://tools.gpcr.org/visualise/protein/gp116_human"><text transform="matrix(0.9766,0.2152,-0.2152,0.9766,208.1268,-240.6657)" font-weight="bold" fill="#000000" stroke="none" font-size="12px" font-family="Verdana" text-anchor="start" y="835.6443" x="1209.5" style="text-anchor: start; font-family: Verdana; font-size: 12px; font-weight: bold;"><tspan dy="4.375012890625044">GPR116</tspan><title>Probable G-protein coupled receptor 116 (Homo sapiens)</title></text></a><path class="path" id="undefined" stroke-width="2" d="M1052.1253,741.9357L1162.7031,746.0329" stroke="#000000" fill="none" style=""></path><path stroke-width="2" class="path2" id="undefined" stroke-dasharray="1,3" d="M1162.7031,746.0329L1218.6647,748.1064" stroke="#c8c8c8" fill="none" style=""></path><a xlink:href="http://tools.gpcr.org/visualise/protein/gp110_human"><text transform="matrix(0.9993,0.037,-0.037,0.9993,28.5403,-44.6849)" font-weight="bold" fill="#000000" stroke="none" font-size="12px" font-family="Verdana" text-anchor="start" y="748.1805" x="1220.6633" style="text-anchor: start; font-family: Verdana; font-size: 12px; font-weight: bold;"><tspan dy="4.375019042968802">GPR110</tspan><title>Probable G-protein coupled receptor 110 (Homo sapiens)</title></text></a><path class="path" id="undefined" stroke-width="2" d="M1044.8062,799.3587L1044.7965,799.3565A322.3463,322.3463,0,0,0,1052.1253,741.9357L1052.1352,741.936" stroke="#000000" fill="none" style=""></path><path class="path" id="undefined" stroke-width="2" d="M1028.3399,768.078L1049.7524,770.8109" stroke="#000000" fill="none" style=""></path><path class="path" id="undefined" stroke-width="2" d="M1027.6994,687.2016L1135.8276,671.6567" stroke="#000000" fill="none" style=""></path><path stroke-width="2" class="path2" id="undefined" stroke-dasharray="1,3" d="M1135.8276,671.6567L1214.0237,660.415" stroke="#c8c8c8" fill="none" style=""></path><a xlink:href="http://tools.gpcr.org/visualise/protein/gp111_human"><text transform="matrix(0.9898,-0.1423,0.1423,0.9898,-81.5623,179.756)" font-weight="bold" fill="#000000" stroke="none" font-size="12px" font-family="Verdana" text-anchor="start" y="660.1304" x="1216.0033" style="text-anchor: start; font-family: Verdana; font-size: 12px; font-weight: bold;"><tspan dy="4.375028906250009">GPR111</tspan><title>Probable G-protein coupled receptor 111 (Homo sapiens)</title></text></a><path class="path" id="undefined" stroke-width="2" d="M1028.3498,768.0792L1028.3399,768.078A300.76009999999997,300.76009999999997,0,0,0,1027.6994,687.2016L1027.7093,687.2002" stroke="#000000" fill="none" style=""></path><path class="path" id="undefined" stroke-width="2" d="M1024.7675,727.6653L1030.7507,727.6179" stroke="#000000" fill="none" style=""></path><path class="path" id="undefined" stroke-width="2" d="M1009.5698,636.544L1071.4284,615.8657" stroke="#000000" fill="none" style=""></path><path stroke-width="2" class="path2" id="undefined" stroke-dasharray="1,3" d="M1071.4284,615.8657L1193.7736,574.9675" stroke="#c8c8c8" fill="none" style=""></path><a xlink:href="http://tools.gpcr.org/visualise/protein/gp115_human"><text transform="matrix(0.9484,-0.317,0.317,0.9484,-120.4046,408.7037)" font-weight="bold" fill="#000000" stroke="none" font-size="12px" font-family="Verdana" text-anchor="start" y="574.3334" x="1195.6704" style="text-anchor: start; font-family: Verdana; font-size: 12px; font-weight: bold;"><tspan dy="4.375025976562483">GPR115</tspan><title>Probable G-protein coupled receptor 115 (Homo sapiens)</title></text></a><path class="path" id="undefined" stroke-width="2" d="M1024.7775,727.6652L1024.7675,727.6653A294.77669999999995,294.77669999999995,0,0,0,1009.5698,636.544L1009.5793,636.5409" stroke="#000000" fill="none" style=""></path><path class="path" id="undefined" stroke-width="2" d="M979.5079,688.3859L1020.7604,681.5056" stroke="#000000" fill="none" style=""></path><path class="path" id="undefined" stroke-width="2" d="M951.6933,608.1886L1101.6004,525.8208" stroke="#000000" fill="none" style=""></path><path stroke-width="2" class="path2" id="undefined" stroke-dasharray="1,3" d="M1101.6004,525.8208L1158.5674,494.5197" stroke="#c8c8c8" fill="none" style=""></path><a xlink:href="http://tools.gpcr.org/visualise/protein/gp113_human"><text transform="matrix(0.8764,-0.4816,0.4816,0.8764,-94.2775,619.7535)" font-weight="bold" fill="#000000" stroke="none" font-size="12px" font-family="Verdana" text-anchor="start" y="493.5566" x="1160.3202" style="text-anchor: start; font-family: Verdana; font-size: 12px; font-weight: bold;"><tspan dy="4.374989892578128">GPR113</tspan><title>Probable G-protein coupled receptor 113 (Homo sapiens)</title></text></a><path class="path" id="undefined" stroke-width="2" d="M979.5178,688.3843L979.5079,688.3859A252.95439999999996,252.95439999999996,0,0,0,951.6933,608.1886L951.702,608.1838" stroke="#000000" fill="none" style=""></path><path class="path" id="undefined" stroke-width="2" d="M893.389,673.3321L968.9885,647.112" stroke="#000000" fill="none" style=""></path><path class="path" id="undefined" stroke-width="2" d="M894.4401,596.4108L962.0708,541.4684" stroke="#000000" fill="none" style=""></path><path stroke-width="2" class="path2" id="undefined" stroke-dasharray="1,3" d="M962.0708,541.4684L1109.5405,421.6658" stroke="#c8c8c8" fill="none" style=""></path><a xlink:href="http://tools.gpcr.org/visualise/protein/gpr97_human"><text transform="matrix(0.7762,-0.6305,0.6305,0.7762,-16.3712,794.6937)" font-weight="bold" fill="#000000" stroke="none" font-size="12px" font-family="Verdana" text-anchor="start" y="420.4047" x="1111.0928" style="text-anchor: start; font-family: Verdana; font-size: 12px; font-weight: bold;"><tspan dy="4.375006396484366">GPR97</tspan><title>Probable G-protein coupled receptor 97 (Homo sapiens)</title></text></a><path class="path" id="undefined" stroke-width="2" d="M867.8957,569.1541L1048.274,358.7552" stroke="#000000" fill="none" style=""></path><path stroke-width="2" class="path2" id="undefined" stroke-dasharray="1,3" d="M1048.274,358.7552L1048.274,358.7552" stroke="#c8c8c8" fill="none" style=""></path><a xlink:href="http://tools.gpcr.org/visualise/protein/gpr98_human"><text transform="matrix(0.6509,-0.7592,0.7592,0.6509,95.2303,921.5524)" font-weight="bold" fill="#000000" stroke="none" font-size="12px" font-family="Verdana" text-anchor="start" y="357.2368" x="1049.5757" style="text-anchor: start; font-family: Verdana; font-size: 12px; font-weight: bold;"><tspan dy="4.3750141113281416">VLGR1</tspan><title>G-protein coupled receptor 98 (Homo sapiens)</title></text></a><path class="path" id="undefined" stroke-width="2" d="M894.4478,596.4045L894.4401,596.4108A211.8646,211.8646,0,0,0,867.8957,569.1541L867.9022,569.1465" stroke="#000000" fill="none" style=""></path><path class="path" id="undefined" stroke-width="2" d="M853.893,609.3446L881.781,582.1854" stroke="#000000" fill="none" style=""></path><path class="path" id="undefined" stroke-width="2" d="M893.3984,673.3288L893.389,673.3321A172.93699999999998,172.93699999999998,0,0,0,853.893,609.3446L853.9002,609.3376" stroke="#000000" fill="none" style=""></path><path class="path" id="undefined" stroke-width="2" d="M859.8434,649.8547L877.1608,639.1655" stroke="#000000" fill="none" style=""></path><path class="path" id="undefined" stroke-width="2" d="M823.8908,850.2919L823.8846,850.2841A152.5863,152.5863,0,0,0,859.8434,649.8547L859.8519,649.8494" stroke="#000000" fill="none" style=""></path><path class="path" id="undefined" stroke-width="2" d="M878.2513,756.5974L880.1884,756.945" stroke="#000000" fill="none" style=""></path><path class="path" id="undefined" stroke-width="2" d="M580.3671,747.2885L580.3771,747.2874A150.6183,150.6183,0,0,0,878.2513,756.5974L878.2611,756.5992" stroke="#000000" fill="none" style=""></path><path class="path" id="undefined" stroke-width="2" d="M725.6275,869.8981L725.2947,880.5448" stroke="#000000" fill="none" style=""></path><path class="path" id="undefined" stroke-width="2" d="M621.4164,641.6655L621.4241,641.6718A139.9664,139.9664,0,0,0,725.6275,869.8981L725.6272,869.9081" stroke="#000000" fill="none" style=""></path><path class="path" id="undefined" stroke-width="2" d="M730,730L602.6771,788.1331" stroke="#000000" fill="none" style=""></path><path class="path" id="undefined" stroke-width="2" d="M730,730L857.1562,512.4332" stroke="#000000" fill="none" style=""></path><path stroke-width="2" class="path2" id="undefined" stroke-dasharray="1,3" d="M857.1562,512.4332L976.7435,307.8168" stroke="#c8c8c8" fill="none" style=""></path><a xlink:href="http://tools.gpcr.org/visualise/protein/bai1_human"><text transform="matrix(0.5046,-0.8634,0.8634,0.5046,220.1245,995.7936)" font-weight="bold" fill="#000000" stroke="none" font-size="12px" font-family="Verdana" text-anchor="start" y="306.0901" x="977.7527" style="text-anchor: start; font-family: Verdana; font-size: 12px; font-weight: bold;"><tspan dy="4.375012109375007">BAI1</tspan><title>Brain-specific angiogenesis inhibitor 1 (Homo sapiens)</title></text></a><g style="visibility: hidden;" transform="translate (680 1460)" id="leg_group" class="legend"></g><circle style="display: none;" stroke="#ff0000" fill="none" r="5" cy="666.057" cx="249.2336"></circle><circle style="display: none;" stroke="#ff0000" fill="none" r="5" cy="897.1434" cx="342.5118"></circle></svg>