<?xml version="1.0" standalone="no"?><!DOCTYPE svg PUBLIC "-//W3C//DTD SVG 1.1//EN" "http://www.w3.org/Graphics/SVG/1.1/DTD/svg11.dtd"><svg height="1340" version="1.1" width="1220" style="overflow: hidden; position: relative;" id="svgtree" class="svgtree" xmlns="http://www.w3.org/2000/svg" xmlns:xlink="http://www.w3.org/1999/xlink" viewBox="0 0 1220 1340"><defs><style type="text/css"><![CDATA[
a { background-color: transparent; }
@font-face { font-family: 'Glyphicons Halflings'; src: url(http://localhost:8000/static/bootstrap/fonts/glyphicons-halflings-regular.eot?#iefix) format(embedded-opentype), url(http://localhost:8000/static/bootstrap/fonts/glyphicons-halflings-regular.woff) format(woff), url(http://localhost:8000/static/bootstrap/fonts/glyphicons-halflings-regular.ttf) format(truetype), url(http://localhost:8000/static/bootstrap/fonts/glyphicons-halflings-regular.svg#glyphicons_halflingsregular) format(svg); }
* { box-sizing: border-box; }
a { color: rgb(51, 122, 183); text-decoration: none; }
.label { display: inline; padding: 0.2em 0.6em 0.3em; font-size: 75%; font-weight: 700; line-height: 1; color: rgb(255, 255, 255); text-align: center; white-space: nowrap; vertical-align: baseline; border-radius: 0.25em; }

]]></style></defs><path fill="#0a0a0a" stroke="#0a0a0a" d="M741.6795,133.7122A494.155426180037,494.155426180037,0,1,0,896.6376,207.4724L902.4382,199.3266A504.155426180037,504.155426180037,0,1,1,744.3443,124.0738Z" id="D" class="chart0" style="-webkit-tap-highlight-color: rgba(0, 0, 0, 0); fill: rgb(10, 10, 10); visibility: hidden;"></path><text x="395.4659" y="1060.7009" text-anchor="middle" font-family="Verdana" font-size="10px" stroke="none" fill="#ffffff" style="-webkit-tap-highlight-color: rgba(0, 0, 0, 0); text-anchor: middle; font-family: Verdana; font-size: 10px; font-weight: bold;" font-weight="bold" class="label" transform="matrix(-0.9029,-0.4298,0.4298,-0.9029,296.6458,2188.4222)"><tspan style="-webkit-tap-highlight-color: rgba(0, 0, 0, 0);" dy="2.505587500000047">CLASS FRIZZLED</tspan></text><path fill="#c86464" stroke="#000000" d="M738.7483,144.3144A483.155426180037,483.155426180037,0,1,0,890.257,216.4327L896.0575,208.287A493.155426180037,493.155426180037,0,1,1,741.413,134.676Z" id="D_A" class="chart1" style="-webkit-tap-highlight-color: rgba(0, 0, 0, 0); fill: rgb(200, 100, 100); visibility: hidden;"></path><path fill="#c464c8" stroke="#000000" d="M1042.5453,420.6978A472.155426180037,472.155426180037,0,0,0,883.8764,225.3931L889.6769,217.2473A482.155426180037,482.155426180037,0,0,1,1051.7064,416.6885Z" id="D_A_A" class="chart2" style="-webkit-tap-highlight-color: rgba(0, 0, 0, 0); fill: rgb(196, 100, 200); visibility: hidden;"></path><path fill="#c86467" stroke="#000000" d="M1078.3569,669.7707A472.155426180037,472.155426180037,0,0,0,1042.5453,420.6978L1051.7064,416.6885A482.155426180037,482.155426180037,0,0,1,1088.2765,671.0366Z" id="D_A_B" class="chart2" style="-webkit-tap-highlight-color: rgba(0, 0, 0, 0); fill: rgb(200, 100, 103); visibility: hidden;"></path><path fill="#c464c8" stroke="#000000" d="M735.8171,154.9167A472.155426180037,472.155426180037,0,1,0,1078.3569,669.7707L1088.2765,671.0366A482.155426180037,482.155426180037,0,1,1,738.4818,145.2783Z" id="D_A_A" class="chart2" style="-webkit-tap-highlight-color: rgba(0, 0, 0, 0); fill: rgb(196, 100, 200); visibility: hidden;"></path><path fill="#eeeeee" stroke="#dddddd" d="M718.9878,215.7886A409,409,0,1,0,847.2433,276.8385L883.877,225.3936A472.155426180037,472.155426180037,0,1,1,735.8171,154.9167Z" id="undefined" class="path" stroke-width="2" style="-webkit-tap-highlight-color: rgba(0, 0, 0, 0);"></path><path fill="#eeeeee" stroke="#dddddd" d="M984.6881,446.0188A409,409,0,0,0,847.2427,276.838L883.8764,225.3931A472.155426180037,472.155426180037,0,0,1,1042.5453,420.6978Z" id="D_A_A_A" class="bgfield" style="-webkit-tap-highlight-color: rgba(0, 0, 0, 0);"></path><path fill="#eeeeee" stroke="#dddddd" d="M1015.7096,661.7758A409,409,0,0,0,984.6881,446.0188L1042.5453,420.6978A472.155426180037,472.155426180037,0,0,1,1078.3569,669.7707Z" id="D_A_B_A" class="bgfield" style="-webkit-tap-highlight-color: rgba(0, 0, 0, 0); fill: rgb(109, 205, 225);"></path><path fill="#eeeeee" stroke="#dddddd" d="M931.496,862.8266A409,409,0,0,0,1015.7096,661.7758L1078.3569,669.7707A472.155426180037,472.155426180037,0,0,1,981.1396,901.8667Z" id="D_A_A_F" class="bgfield" style="-webkit-tap-highlight-color: rgba(0, 0, 0, 0);"></path><path fill="#eeeeee" stroke="#dddddd" d="M755.9669,992.0663A409,409,0,0,0,931.496,862.8266L981.1396,901.8667A472.155426180037,472.155426180037,0,0,1,778.5062,1051.0628Z" id="D_A_A_C" class="bgfield" style="-webkit-tap-highlight-color: rgba(0, 0, 0, 0);"></path><path fill="#eeeeee" stroke="#dddddd" d="M538.9782,1012.7864A409,409,0,0,0,755.9669,992.0663L778.5062,1051.0628A472.155426180037,472.155426180037,0,0,1,528.0115,1074.9824Z" id="D_A_A_D" class="bgfield" style="-webkit-tap-highlight-color: rgba(0, 0, 0, 0);"></path><path fill="#eeeeee" stroke="#dddddd" d="M342.1622,919.1018A409,409,0,0,0,538.9782,1012.7864L528.0115,1074.9824A472.155426180037,472.155426180037,0,0,1,300.8042,966.8315Z" id="D_A_A_I" class="bgfield" style="-webkit-tap-highlight-color: rgba(0, 0, 0, 0);"></path><path fill="#eeeeee" stroke="#dddddd" d="M221.421,737.6219A409,409,0,0,0,342.1622,919.1018L300.8042,966.8315A472.155426180037,472.155426180037,0,0,1,161.4188,757.3285Z" id="D_A_A_J" class="bgfield" style="-webkit-tap-highlight-color: rgba(0, 0, 0, 0);"></path><path fill="#eeeeee" stroke="#dddddd" d="M211.0492,519.8932A409,409,0,0,0,221.421,737.6219L161.4188,757.3285A472.155426180037,472.155426180037,0,0,1,149.4455,505.9794Z" id="D_A_A_H" class="bgfield" style="-webkit-tap-highlight-color: rgba(0, 0, 0, 0);"></path><path fill="#eeeeee" stroke="#dddddd" d="M313.9927,327.7578A409,409,0,0,0,211.0492,519.8932L149.4455,505.9794A472.155426180037,472.155426180037,0,0,1,268.285,284.1755Z" id="D_A_A_E" class="bgfield" style="-webkit-tap-highlight-color: rgba(0, 0, 0, 0);"></path><path fill="#eeeeee" stroke="#dddddd" d="M501.0122,215.7886A409,409,0,0,0,313.9927,327.7578L268.285,284.1755A472.155426180037,472.155426180037,0,0,1,484.1829,154.9167Z" id="D_A_A_G" class="bgfield" style="-webkit-tap-highlight-color: rgba(0, 0, 0, 0);"></path><path fill="#eeeeee" stroke="#dddddd" d="M718.9878,215.7886A409,409,0,0,0,501.0122,215.7886L484.1829,154.9167A472.155426180037,472.155426180037,0,0,1,735.8171,154.9167Z" id="D_A_A_B" class="bgfield" style="-webkit-tap-highlight-color: rgba(0, 0, 0, 0);"></path><desc style="-webkit-tap-highlight-color: rgba(0, 0, 0, 0);">Created with Raphaël 2.1.4</desc><defs style="-webkit-tap-highlight-color: rgba(0, 0, 0, 0);"></defs><path fill="none" stroke="#000000" d="M610,610L610,597" stroke-width="2" id="undefined" class="path" style="-webkit-tap-highlight-color: rgba(0, 0, 0, 0);"></path><path fill="none" stroke="#c8c8c8" d="M610,597L610,201" stroke-dasharray="1,3" id="undefined" class="path2" stroke-width="2" style="-webkit-tap-highlight-color: rgba(0, 0, 0, 0);"></path><a xlink:href="http://tools.gpcr.org/visualise/protein/fzd2_human" style="-webkit-tap-highlight-color: rgba(0, 0, 0, 0);"><text x="610" y="199" text-anchor="start" font-family="Verdana" font-size="12px" stroke="none" fill="#000000" style="-webkit-tap-highlight-color: rgba(0, 0, 0, 0); text-anchor: start; font-family: Verdana; font-size: 12px; font-weight: bold;" font-weight="bold" transform="matrix(0,-1,1,0,411,809)"><tspan style="-webkit-tap-highlight-color: rgba(0, 0, 0, 0);" dy="4.5">FZD2</tspan><title style="-webkit-tap-highlight-color: rgba(0, 0, 0, 0);">Frizzled-2 (Homo sapiens)</title></text></a><path fill="none" stroke="#000000" d="M608.5319,607.5478L601.2675,595.4143" stroke-width="2" id="undefined" class="path" style="-webkit-tap-highlight-color: rgba(0, 0, 0, 0);"></path><path fill="none" stroke="#c8c8c8" d="M601.2675,595.4143L399.9059,259.0848" stroke-dasharray="1,3" id="undefined" class="path2" stroke-width="2" style="-webkit-tap-highlight-color: rgba(0, 0, 0, 0);"></path><a xlink:href="http://tools.gpcr.org/visualise/protein/fzd7_human" style="-webkit-tap-highlight-color: rgba(0, 0, 0, 0);"><text x="398.8785" y="257.3689" text-anchor="end" font-family="Verdana" font-size="12px" stroke="none" fill="#000000" style="-webkit-tap-highlight-color: rgba(0, 0, 0, 0); text-anchor: end; font-family: Verdana; font-size: 12px; font-weight: bold;" font-weight="bold" transform="matrix(0.5137,0.858,-0.858,0.5137,414.8018,-217.0668)"><tspan style="-webkit-tap-highlight-color: rgba(0, 0, 0, 0);" dy="4.5017124999999965">FZD7</tspan><title style="-webkit-tap-highlight-color: rgba(0, 0, 0, 0);">Frizzled-7 (Homo sapiens)</title></text></a><path fill="none" stroke="#000000" d="M542.907,574.0525L518.3288,560.8838" stroke-width="2" id="undefined" class="path" style="-webkit-tap-highlight-color: rgba(0, 0, 0, 0);"></path><path fill="none" stroke="#c8c8c8" d="M518.3288,560.8838L249.4855,416.8412" stroke-dasharray="1,3" id="undefined" class="path2" stroke-width="2" style="-webkit-tap-highlight-color: rgba(0, 0, 0, 0);"></path><a xlink:href="http://tools.gpcr.org/visualise/protein/fzd5_human" style="-webkit-tap-highlight-color: rgba(0, 0, 0, 0);"><text x="247.7226" y="415.8967" text-anchor="end" font-family="Verdana" font-size="12px" stroke="none" fill="#000000" style="-webkit-tap-highlight-color: rgba(0, 0, 0, 0); text-anchor: end; font-family: Verdana; font-size: 12px; font-weight: bold;" font-weight="bold" transform="matrix(0.8815,0.4723,-0.4723,0.8815,225.7825,-67.6891)"><tspan style="-webkit-tap-highlight-color: rgba(0, 0, 0, 0);" dy="4.49826250000001">FZD5</tspan><title style="-webkit-tap-highlight-color: rgba(0, 0, 0, 0);">Frizzled-5 (Homo sapiens)</title></text></a><path fill="none" stroke="#000000" d="M533.9699,613.6218L508.1155,614.8534" stroke-width="2" id="undefined" class="path" style="-webkit-tap-highlight-color: rgba(0, 0, 0, 0);"></path><path fill="none" stroke="#c8c8c8" d="M508.1155,614.8534L201.4633,629.4612" stroke-dasharray="1,3" id="undefined" class="path2" stroke-width="2" style="-webkit-tap-highlight-color: rgba(0, 0, 0, 0);"></path><a xlink:href="http://tools.gpcr.org/visualise/protein/fzd8_human" style="-webkit-tap-highlight-color: rgba(0, 0, 0, 0);"><text x="199.4655" y="629.5564" text-anchor="end" font-family="Verdana" font-size="12px" stroke="none" fill="#000000" style="-webkit-tap-highlight-color: rgba(0, 0, 0, 0); text-anchor: end; font-family: Verdana; font-size: 12px; font-weight: bold;" font-weight="bold" transform="matrix(0.9989,-0.0476,0.0476,0.9989,-29.7299,10.2041)"><tspan style="-webkit-tap-highlight-color: rgba(0, 0, 0, 0);" dy="4.501712500000053">FZD8</tspan><title style="-webkit-tap-highlight-color: rgba(0, 0, 0, 0);">Frizzled-8 (Homo sapiens)</title></text></a><path fill="none" stroke="#000000" d="M542.8982,574.0478L542.907,574.0525A76.1163,76.1163,0,0,0,533.9699,613.6218L533.9599,613.6223" stroke-width="2" id="undefined" class="path" style="-webkit-tap-highlight-color: rgba(0, 0, 0, 0);"></path><path fill="none" stroke="#000000" d="M574.0473,601.8798L535.7539,593.2309" stroke-width="2" id="undefined" class="path" style="-webkit-tap-highlight-color: rgba(0, 0, 0, 0);"></path><path fill="none" stroke="#000000" d="M538.6587,657.4644L511.7568,675.3626" stroke-width="2" id="undefined" class="path" style="-webkit-tap-highlight-color: rgba(0, 0, 0, 0);"></path><path fill="none" stroke="#c8c8c8" d="M511.7568,675.3626L269.4791,836.5535" stroke-dasharray="1,3" id="undefined" class="path2" stroke-width="2" style="-webkit-tap-highlight-color: rgba(0, 0, 0, 0);"></path><a xlink:href="http://tools.gpcr.org/visualise/protein/fzd10_human" style="-webkit-tap-highlight-color: rgba(0, 0, 0, 0);"><text x="267.8139" y="837.6614" text-anchor="end" font-family="Verdana" font-size="12px" stroke="none" fill="#000000" style="-webkit-tap-highlight-color: rgba(0, 0, 0, 0); text-anchor: end; font-family: Verdana; font-size: 12px; font-weight: bold;" font-weight="bold" transform="matrix(0.8326,-0.5539,0.5539,0.8326,-419.1577,288.5977)"><tspan style="-webkit-tap-highlight-color: rgba(0, 0, 0, 0);" dy="4.497337499999958">FZD10</tspan><title style="-webkit-tap-highlight-color: rgba(0, 0, 0, 0);">Frizzled-10 (Homo sapiens)</title></text></a><path fill="none" stroke="#000000" d="M573.1718,687.3701L554.5565,726.4776" stroke-width="2" id="undefined" class="path" style="-webkit-tap-highlight-color: rgba(0, 0, 0, 0);"></path><path fill="none" stroke="#c8c8c8" d="M554.5565,726.4776L434.2142,979.2971" stroke-dasharray="1,3" id="undefined" class="path2" stroke-width="2" style="-webkit-tap-highlight-color: rgba(0, 0, 0, 0);"></path><a xlink:href="http://tools.gpcr.org/visualise/protein/fzd9_human" style="-webkit-tap-highlight-color: rgba(0, 0, 0, 0);"><text x="433.3546" y="981.1029" text-anchor="end" font-family="Verdana" font-size="12px" stroke="none" fill="#000000" style="-webkit-tap-highlight-color: rgba(0, 0, 0, 0); text-anchor: end; font-family: Verdana; font-size: 12px; font-weight: bold;" font-weight="bold" transform="matrix(0.4298,-0.9029,0.9029,0.4298,-638.7629,950.7181)"><tspan style="-webkit-tap-highlight-color: rgba(0, 0, 0, 0);" dy="4.501337499999977">FZD9</tspan><title style="-webkit-tap-highlight-color: rgba(0, 0, 0, 0);">Frizzled-9 (Homo sapiens)</title></text></a><path fill="none" stroke="#000000" d="M538.6504,657.4699L538.6587,657.4644A85.68809999999999,85.68809999999999,0,0,0,573.1718,687.3701L573.1675,687.3791" stroke-width="2" id="undefined" class="path" style="-webkit-tap-highlight-color: rgba(0, 0, 0, 0);"></path><path fill="none" stroke="#000000" d="M562.4146,664.9166L553.8863,674.7588" stroke-width="2" id="undefined" class="path" style="-webkit-tap-highlight-color: rgba(0, 0, 0, 0);"></path><path fill="none" stroke="#000000" d="M616.9073,682.336L621.5019,730.4521" stroke-width="2" id="undefined" class="path" style="-webkit-tap-highlight-color: rgba(0, 0, 0, 0);"></path><path fill="none" stroke="#c8c8c8" d="M621.5019,730.4521L648.8783,1017.148" stroke-dasharray="1,3" id="undefined" class="path2" stroke-width="2" style="-webkit-tap-highlight-color: rgba(0, 0, 0, 0);"></path><a xlink:href="http://tools.gpcr.org/visualise/protein/fzd4_human" style="-webkit-tap-highlight-color: rgba(0, 0, 0, 0);"><text x="649.0684" y="1019.1389" text-anchor="start" font-family="Verdana" font-size="12px" stroke="none" fill="#000000" style="-webkit-tap-highlight-color: rgba(0, 0, 0, 0); text-anchor: start; font-family: Verdana; font-size: 12px; font-weight: bold;" font-weight="bold" transform="matrix(0.0951,0.9955,-0.9955,0.0951,1601.894,276.1333)"><tspan style="-webkit-tap-highlight-color: rgba(0, 0, 0, 0);" dy="4.506087500000035">FZD4</tspan><title style="-webkit-tap-highlight-color: rgba(0, 0, 0, 0);">Frizzled-4 (Homo sapiens)</title></text></a><path fill="none" stroke="#000000" d="M562.4081,664.9242L562.4146,664.9166A72.66499999999999,72.66499999999999,0,0,0,616.9073,682.336L616.9083,682.3459" stroke-width="2" id="undefined" class="path" style="-webkit-tap-highlight-color: rgba(0, 0, 0, 0);"></path><path fill="none" stroke="#000000" d="M598.7772,645.1082L587.8746,679.2147" stroke-width="2" id="undefined" class="path" style="-webkit-tap-highlight-color: rgba(0, 0, 0, 0);"></path><path fill="none" stroke="#000000" d="M574.0376,601.8776L574.0473,601.8798A36.8583,36.8583,0,0,0,598.7772,645.1082L598.7741,645.1177" stroke-width="2" id="undefined" class="path" style="-webkit-tap-highlight-color: rgba(0, 0, 0, 0);"></path><path fill="none" stroke="#000000" d="M580.5111,626.8698L578.0069,628.3024" stroke-width="2" id="undefined" class="path" style="-webkit-tap-highlight-color: rgba(0, 0, 0, 0);"></path><path fill="none" stroke="#000000" d="M686.9912,714.5669L710.2016,746.0906" stroke-width="2" id="undefined" class="path" style="-webkit-tap-highlight-color: rgba(0, 0, 0, 0);"></path><path fill="none" stroke="#c8c8c8" d="M710.2016,746.0906L852.4997,939.3553" stroke-dasharray="1,3" id="undefined" class="path2" stroke-width="2" style="-webkit-tap-highlight-color: rgba(0, 0, 0, 0);"></path><a xlink:href="http://tools.gpcr.org/visualise/protein/fzd3_human" style="-webkit-tap-highlight-color: rgba(0, 0, 0, 0);"><text x="853.6855" y="940.9658" text-anchor="start" font-family="Verdana" font-size="12px" stroke="none" fill="#000000" style="-webkit-tap-highlight-color: rgba(0, 0, 0, 0); text-anchor: start; font-family: Verdana; font-size: 12px; font-weight: bold;" font-weight="bold" transform="matrix(0.5929,0.8053,-0.8053,0.5929,1105.259,-304.3881)"><tspan style="-webkit-tap-highlight-color: rgba(0, 0, 0, 0);" dy="4.504862499999945">FZD3</tspan><title style="-webkit-tap-highlight-color: rgba(0, 0, 0, 0);">Frizzled-3 (Homo sapiens)</title></text></a><path fill="none" stroke="#000000" d="M729.7708,660.168L778.7909,680.7009" stroke-width="2" id="undefined" class="path" style="-webkit-tap-highlight-color: rgba(0, 0, 0, 0);"></path><path fill="none" stroke="#c8c8c8" d="M778.7909,680.7009L987.2431,768.0147" stroke-dasharray="1,3" id="undefined" class="path2" stroke-width="2" style="-webkit-tap-highlight-color: rgba(0, 0, 0, 0);"></path><a xlink:href="http://tools.gpcr.org/visualise/protein/fzd6_human" style="-webkit-tap-highlight-color: rgba(0, 0, 0, 0);"><text x="989.0878" y="768.7874" text-anchor="start" font-family="Verdana" font-size="12px" stroke="none" fill="#000000" style="-webkit-tap-highlight-color: rgba(0, 0, 0, 0); text-anchor: start; font-family: Verdana; font-size: 12px; font-weight: bold;" font-weight="bold" transform="matrix(0.9224,0.3863,-0.3863,0.9224,373.8143,-322.4354)"><tspan style="-webkit-tap-highlight-color: rgba(0, 0, 0, 0);" dy="4.498337500000048">FZD6</tspan><title style="-webkit-tap-highlight-color: rgba(0, 0, 0, 0);">Frizzled-6 (Homo sapiens)</title></text></a><path fill="none" stroke="#000000" d="M686.9971,714.575L686.9912,714.5669A129.8533,129.8533,0,0,0,729.7708,660.168L729.78,660.1719" stroke-width="2" id="undefined" class="path" style="-webkit-tap-highlight-color: rgba(0, 0, 0, 0);"></path><path fill="none" stroke="#000000" d="M652.9185,643.7513L712.0718,690.2698" stroke-width="2" id="undefined" class="path" style="-webkit-tap-highlight-color: rgba(0, 0, 0, 0);"></path><path fill="none" stroke="#000000" d="M664.0441,602.2295L1014.8369,551.7927" stroke-width="2" id="undefined" class="path" style="-webkit-tap-highlight-color: rgba(0, 0, 0, 0);"></path><path fill="none" stroke="#c8c8c8" d="M1014.8369,551.7927L1014.8369,551.7927" stroke-dasharray="1,3" id="undefined" class="path2" stroke-width="2" style="-webkit-tap-highlight-color: rgba(0, 0, 0, 0);"></path><a xlink:href="http://tools.gpcr.org/visualise/protein/smo_human" style="-webkit-tap-highlight-color: rgba(0, 0, 0, 0);"><text x="1016.8165" y="551.508" text-anchor="start" font-family="Verdana" font-size="12px" stroke="none" fill="#000000" style="-webkit-tap-highlight-color: rgba(0, 0, 0, 0); text-anchor: start; font-family: Verdana; font-size: 12px; font-weight: bold;" font-weight="bold" transform="matrix(0.9898,-0.1423,0.1423,0.9898,-68.1386,150.3232)"><tspan style="-webkit-tap-highlight-color: rgba(0, 0, 0, 0);" dy="4.500187500000038">SMO</tspan><title style="-webkit-tap-highlight-color: rgba(0, 0, 0, 0);">Smoothened homolog (Homo sapiens)</title></text></a><path fill="none" stroke="#000000" d="M652.9264,643.7575L652.9185,643.7513A54.599900000000005,54.599900000000005,0,0,0,664.0441,602.2295L664.054,602.2281" stroke-width="2" id="undefined" class="path" style="-webkit-tap-highlight-color: rgba(0, 0, 0, 0);"></path><path fill="none" stroke="#000000" d="M642.8157,618.7929L662.7395,624.1314" stroke-width="2" id="undefined" class="path" style="-webkit-tap-highlight-color: rgba(0, 0, 0, 0);"></path><path fill="none" stroke="#000000" d="M580.5025,626.8748L580.5111,626.8698A33.9733,33.9733,0,0,0,642.8157,618.7929L642.8254,618.7955" stroke-width="2" id="undefined" class="path" style="-webkit-tap-highlight-color: rgba(0, 0, 0, 0);"></path><path fill="none" stroke="#000000" d="M610.3674,612.8344L614.3676,643.6914" stroke-width="2" id="undefined" class="path" style="-webkit-tap-highlight-color: rgba(0, 0, 0, 0);"></path><path fill="none" stroke="#000000" d="M608.5267,607.5392L608.5319,607.5478A2.8581,2.8581,0,0,0,610.3674,612.8344L610.3687,612.8443" stroke-width="2" id="undefined" class="path" style="-webkit-tap-highlight-color: rgba(0, 0, 0, 0);"></path><path fill="none" stroke="#000000" d="M610,610L607.3,610.9375" stroke-width="2" id="undefined" class="path" style="-webkit-tap-highlight-color: rgba(0, 0, 0, 0);"></path><path fill="none" stroke="#000000" d="M610,610L618.5376,603.0639" stroke-width="2" id="undefined" class="path" style="-webkit-tap-highlight-color: rgba(0, 0, 0, 0);"></path><path fill="none" stroke="#c8c8c8" d="M618.5376,603.0639L927.4435,352.1035" stroke-dasharray="1,3" id="undefined" class="path2" stroke-width="2" style="-webkit-tap-highlight-color: rgba(0, 0, 0, 0);"></path><a xlink:href="http://tools.gpcr.org/visualise/protein/fzd1_human" style="-webkit-tap-highlight-color: rgba(0, 0, 0, 0);"><text x="928.9958" y="350.8423" text-anchor="start" font-family="Verdana" font-size="12px" stroke="none" fill="#000000" style="-webkit-tap-highlight-color: rgba(0, 0, 0, 0); text-anchor: start; font-family: Verdana; font-size: 12px; font-weight: bold;" font-weight="bold" transform="matrix(0.7761,-0.6306,0.6306,0.7761,-13.2651,664.3196)"><tspan style="-webkit-tap-highlight-color: rgba(0, 0, 0, 0);" dy="4.506362500000023">FZD1</tspan><title style="-webkit-tap-highlight-color: rgba(0, 0, 0, 0);">Frizzled-1 (Homo sapiens)</title></text></a><g id="leg_group" class="legend" transform="translate (110 1220)"><g class="chart0" style="visibility: hidden;"><text x="0" y="30" font-family="Verdana" font-size="20" font-weight="bold">Class (Outer ring)</text><rect x="0" y="70" width="300" height="30" stroke="black" fill="transparent" stroke-width="5"></rect><rect x="10" y="80" height="10" width="30" class="chart" id="D" style="stroke:#000000; fill: #0a0a0a"></rect><text x="45" y="90" style="font-family:Verdana; font-size:12;">Class Frizzled</text></g><g class="chart1" style="visibility: hidden;"><text x="320" y="30" font-family="Verdana" font-size="20" font-weight="bold">Ligand type (Middle ring)</text><rect x="320" y="70" width="300" height="30" stroke="black" fill="transparent" stroke-width="5"></rect><rect x="330" y="80" height="10" width="30" class="chart" id="D_A" style="stroke:#000000; fill: #c86464"></rect><text x="365" y="90" style="font-family:Verdana; font-size:12;">Peptide receptors</text></g><g class="chart2" style="visibility: hidden;"><rect x="640" y="70" width="345" height="50" stroke="black" fill="transparent" stroke-width="5"></rect><text x="640" y="30" font-family="Verdana" font-size="20" font-weight="bold">Receptor type (Inner ring)</text><rect x="650" y="80" height="10" width="30" class="chart" id="D_A_A" style="stroke:#000000; fill: #c464c8"></rect><text x="685" y="90" style="font-family:Verdana; font-size:12;">Frizzled</text><rect x="650" y="100" height="10" width="30" class="chart" id="D_A_B" style="stroke:#000000; fill: #c86467"></rect><text x="685" y="110" style="font-family:Verdana; font-size:12;">Smoothened</text></g></g><circle cx="554.5565" cy="726.4776" r="5" fill="none" stroke="#ff0000" style="-webkit-tap-highlight-color: rgba(0, 0, 0, 0); display: none;"></circle></svg>