<?xml version="1.0" standalone="no"?><!DOCTYPE svg PUBLIC "-//W3C//DTD SVG 1.1//EN" "http://www.w3.org/Graphics/SVG/1.1/DTD/svg11.dtd"><svg height="1220" version="1.1" width="1120" style="overflow: hidden; position: relative;" id="svgtree" class="svgtree" xmlns="http://www.w3.org/2000/svg" xmlns:xlink="http://www.w3.org/1999/xlink" viewBox="0 0 1120 1220"><defs><style type="text/css"><![CDATA[
a { background-color: transparent; }
@font-face { font-family: 'Glyphicons Halflings'; src: url(http://localhost:8000/static/bootstrap/fonts/glyphicons-halflings-regular.eot?#iefix) format(embedded-opentype), url(http://localhost:8000/static/bootstrap/fonts/glyphicons-halflings-regular.woff) format(woff), url(http://localhost:8000/static/bootstrap/fonts/glyphicons-halflings-regular.ttf) format(truetype), url(http://localhost:8000/static/bootstrap/fonts/glyphicons-halflings-regular.svg#glyphicons_halflingsregular) format(svg); }
* { box-sizing: border-box; }
a { color: rgb(51, 122, 183); text-decoration: none; }
.label { display: inline; padding: 0.2em 0.6em 0.3em; font-size: 75%; font-weight: 700; line-height: 1; color: rgb(255, 255, 255); text-align: center; white-space: nowrap; vertical-align: baseline; border-radius: 0.25em; }

]]></style></defs><path fill="#0a0a0a" stroke="#0a0a0a" d="M784.0169,144.5351A472.01128688175095,472.01128688175095,0,1,0,912.6033,246.2077L920.0735,239.5597A482.01128688175095,482.01128688175095,0,1,1,788.7629,135.7331Z" id="F" class="chart0" style="-webkit-tap-highlight-color: rgba(0, 0, 0, 0); fill: rgb(10, 10, 10); visibility: hidden;"></path><text x="264.1412" y="934.1756" text-anchor="middle" font-family="Verdana" font-size="10px" stroke="none" fill="#ffffff" style="-webkit-tap-highlight-color: rgba(0, 0, 0, 0); text-anchor: middle; font-family: Verdana; font-size: 10px; font-weight: bold;" font-weight="bold" class="label" transform="matrix(-0.7844,-0.6202,0.6202,-0.7844,-108.0498,1830.7718)"><tspan style="-webkit-tap-highlight-color: rgba(0, 0, 0, 0);" dy="2.4959125000000313">OTHER 7TM PROTEINS</tspan></text><path fill="#c86464" stroke="#000000" d="M778.7962,154.2173A461.01128688175095,461.01128688175095,0,1,0,904.386,253.5205L911.8562,246.8725A471.01128688175095,471.01128688175095,0,1,1,783.5423,145.4153Z" id="F_A" class="chart1" style="-webkit-tap-highlight-color: rgba(0, 0, 0, 0); fill: rgb(200, 100, 100); visibility: hidden;"></path><path fill="#c864b2" stroke="#000000" d="M773.5756,163.8995A450.01128688175095,450.01128688175095,0,1,0,896.1688,260.8333L903.639,254.1853A460.01128688175095,460.01128688175095,0,1,1,778.3216,155.0975Z" id="F_A_A" class="chart2" style="-webkit-tap-highlight-color: rgba(0, 0, 0, 0); fill: rgb(200, 100, 178); visibility: hidden;"></path><path fill="#eeeeee" stroke="#dddddd" d="M737.9752,229.9245A375,375,0,1,0,840.1345,310.7016L896.1698,260.8345A450.01128688175095,450.01128688175095,0,1,1,773.5756,163.8995Z" id="undefined" class="path" stroke-width="2" style="-webkit-tap-highlight-color: rgba(0, 0, 0, 0);"></path><path fill="#eeeeee" stroke="#dddddd" d="M922.2224,657.0562A375,375,0,0,0,840.1336,310.7007L896.1688,260.8333A450.01128688175095,450.01128688175095,0,0,1,994.6778,676.4704Z" id="F_A_A_A" class="bgfield" style="-webkit-tap-highlight-color: rgba(0, 0, 0, 0);"></path><path fill="#eeeeee" stroke="#dddddd" d="M677.955,915.9658A375,375,0,0,0,922.2224,657.0562L994.6778,676.4704A450.01128688175095,450.01128688175095,0,0,1,701.5496,987.1696Z" id="F_A_A_F" class="bgfield" style="-webkit-tap-highlight-color: rgba(0, 0, 0, 0);"></path><path fill="#eeeeee" stroke="#dddddd" d="M327.4121,854.1562A375,375,0,0,0,677.955,915.9658L701.5496,987.1696A450.01128688175095,450.01128688175095,0,0,1,280.8875,912.9963Z" id="F_A_A_B" class="bgfield" style="-webkit-tap-highlight-color: rgba(0, 0, 0, 0);"></path><path fill="#eeeeee" stroke="#dddddd" d="M186.427,527.3169A375,375,0,0,0,327.4121,854.1562L280.8875,912.9963A450.01128688175095,450.01128688175095,0,0,1,111.7011,520.7793Z" id="F_A_A_D" class="bgfield" style="-webkit-tap-highlight-color: rgba(0, 0, 0, 0);"></path><path fill="#eeeeee" stroke="#dddddd" d="M382.0248,229.9245A375,375,0,0,0,186.427,527.3169L111.7011,520.7793A450.01128688175095,450.01128688175095,0,0,1,346.4244,163.8995Z" id="F_A_A_C" class="bgfield" style="-webkit-tap-highlight-color: rgba(0, 0, 0, 0);"></path><path fill="#eeeeee" stroke="#dddddd" d="M737.9752,229.9245A375,375,0,0,0,382.0248,229.9245L346.4244,163.8995A450.01128688175095,450.01128688175095,0,0,1,773.5756,163.8995Z" id="F_A_A_E" class="bgfield" style="-webkit-tap-highlight-color: rgba(0, 0, 0, 0);"></path><desc style="-webkit-tap-highlight-color: rgba(0, 0, 0, 0);">Created with Raphaël 2.1.4</desc><defs style="-webkit-tap-highlight-color: rgba(0, 0, 0, 0);"></defs><path fill="none" stroke="#000000" d="M560,560L560,503" stroke-width="2" id="undefined" class="path" style="-webkit-tap-highlight-color: rgba(0, 0, 0, 0);"></path><path fill="none" stroke="#c8c8c8" d="M560,503L560,185" stroke-dasharray="1,3" id="undefined" class="path2" stroke-width="2" style="-webkit-tap-highlight-color: rgba(0, 0, 0, 0);"></path><a xlink:href="http://tools.gpcr.org/visualise/protein/gp143_human" style="-webkit-tap-highlight-color: rgba(0, 0, 0, 0);"><text x="560" y="183" text-anchor="start" font-family="Verdana" font-size="12px" stroke="none" fill="#000000" style="-webkit-tap-highlight-color: rgba(0, 0, 0, 0); text-anchor: start; font-family: Verdana; font-size: 12px; font-weight: bold;" font-weight="bold" transform="matrix(0,-1,1,0,377,743)"><tspan style="-webkit-tap-highlight-color: rgba(0, 0, 0, 0);" dy="4.5">GPR143</tspan><title style="-webkit-tap-highlight-color: rgba(0, 0, 0, 0);">G-protein coupled receptor 143 (Homo sapiens)</title></text></a><path fill="none" stroke="#000000" d="M414.5891,464.3618L321.0504,402.8406" stroke-width="2" id="undefined" class="path" style="-webkit-tap-highlight-color: rgba(0, 0, 0, 0);"></path><path fill="none" stroke="#c8c8c8" d="M321.0504,402.8406L246.692,353.9343" stroke-dasharray="1,3" id="undefined" class="path2" stroke-width="2" style="-webkit-tap-highlight-color: rgba(0, 0, 0, 0);"></path><a xlink:href="http://tools.gpcr.org/visualise/protein/o51e1_human" style="-webkit-tap-highlight-color: rgba(0, 0, 0, 0);"><text x="245.021" y="352.8353" text-anchor="end" font-family="Verdana" font-size="12px" stroke="none" fill="#000000" style="-webkit-tap-highlight-color: rgba(0, 0, 0, 0); text-anchor: end; font-family: Verdana; font-size: 12px; font-weight: bold;" font-weight="bold" transform="matrix(0.8355,0.5495,-0.5495,0.8355,234.1949,-76.5955)"><tspan style="-webkit-tap-highlight-color: rgba(0, 0, 0, 0);" dy="4.499362500000018">OR51E1</tspan><title style="-webkit-tap-highlight-color: rgba(0, 0, 0, 0);">Olfactory receptor 51E1 (Homo sapiens)</title></text></a><path fill="none" stroke="#000000" d="M274.5583,683.1279L215.6691,708.5303" stroke-width="2" id="undefined" class="path" style="-webkit-tap-highlight-color: rgba(0, 0, 0, 0);"></path><path fill="none" stroke="#c8c8c8" d="M215.6691,708.5303L215.6691,708.5303" stroke-dasharray="1,3" id="undefined" class="path2" stroke-width="2" style="-webkit-tap-highlight-color: rgba(0, 0, 0, 0);"></path><a xlink:href="http://tools.gpcr.org/visualise/protein/tpra1_human" style="-webkit-tap-highlight-color: rgba(0, 0, 0, 0);"><text x="213.8327" y="709.3225" text-anchor="end" font-family="Verdana" font-size="12px" stroke="none" fill="#000000" style="-webkit-tap-highlight-color: rgba(0, 0, 0, 0); text-anchor: end; font-family: Verdana; font-size: 12px; font-weight: bold;" font-weight="bold" transform="matrix(0.9182,-0.3961,0.3961,0.9182,-263.4609,142.7065)"><tspan style="-webkit-tap-highlight-color: rgba(0, 0, 0, 0);" dy="4.502187499999991">TPRA1</tspan><title style="-webkit-tap-highlight-color: rgba(0, 0, 0, 0);">Transmembrane protein adipocyte-associated 1 (Homo sapiens)</title></text></a><path fill="none" stroke="#000000" d="M506.0193,866.1429L494.8826,929.303" stroke-width="2" id="undefined" class="path" style="-webkit-tap-highlight-color: rgba(0, 0, 0, 0);"></path><path fill="none" stroke="#c8c8c8" d="M494.8826,929.303L494.8826,929.303" stroke-dasharray="1,3" id="undefined" class="path2" stroke-width="2" style="-webkit-tap-highlight-color: rgba(0, 0, 0, 0);"></path><a xlink:href="http://tools.gpcr.org/visualise/protein/g137a_human" style="-webkit-tap-highlight-color: rgba(0, 0, 0, 0);"><text x="494.5353" y="931.2726" text-anchor="end" font-family="Verdana" font-size="12px" stroke="none" fill="#000000" style="-webkit-tap-highlight-color: rgba(0, 0, 0, 0); text-anchor: end; font-family: Verdana; font-size: 12px; font-weight: bold;" font-weight="bold" transform="matrix(0.1736,-0.9848,0.9848,0.1736,-508.4638,1256.5828)"><tspan style="-webkit-tap-highlight-color: rgba(0, 0, 0, 0);" dy="4.499162500000011">GPR137</tspan><title style="-webkit-tap-highlight-color: rgba(0, 0, 0, 0);">Integral membrane protein GPR137 (Homo sapiens)</title></text></a><path fill="none" stroke="#000000" d="M274.5492,683.1319L274.5583,683.1279A310.8656,310.8656,0,0,0,506.0193,866.1429L506.0176,866.1528" stroke-width="2" id="undefined" class="path" style="-webkit-tap-highlight-color: rgba(0, 0, 0, 0);"></path><path fill="none" stroke="#000000" d="M452.0526,696.5224L367.1907,803.8483" stroke-width="2" id="undefined" class="path" style="-webkit-tap-highlight-color: rgba(0, 0, 0, 0);"></path><path fill="none" stroke="#000000" d="M414.5807,464.3563L414.5891,464.3618A174.04309999999998,174.04309999999998,0,0,0,452.0526,696.5224L452.0464,696.5302" stroke-width="2" id="undefined" class="path" style="-webkit-tap-highlight-color: rgba(0, 0, 0, 0);"></path><path fill="none" stroke="#000000" d="M476.233,573.5175L388.1796,587.7267" stroke-width="2" id="undefined" class="path" style="-webkit-tap-highlight-color: rgba(0, 0, 0, 0);"></path><path fill="none" stroke="#000000" d="M621.7182,618.2279L633.4649,629.3102" stroke-width="2" id="undefined" class="path" style="-webkit-tap-highlight-color: rgba(0, 0, 0, 0);"></path><path fill="none" stroke="#c8c8c8" d="M633.4649,629.3102L832.7657,817.34" stroke-dasharray="1,3" id="undefined" class="path2" stroke-width="2" style="-webkit-tap-highlight-color: rgba(0, 0, 0, 0);"></path><a xlink:href="http://tools.gpcr.org/visualise/protein/gp157_human" style="-webkit-tap-highlight-color: rgba(0, 0, 0, 0);"><text x="834.2205" y="818.7125" text-anchor="start" font-family="Verdana" font-size="12px" stroke="none" fill="#000000" style="-webkit-tap-highlight-color: rgba(0, 0, 0, 0); text-anchor: start; font-family: Verdana; font-size: 12px; font-weight: bold;" font-weight="bold" transform="matrix(0.7274,0.6862,-0.6862,0.7274,789.2624,-349.2741)"><tspan style="-webkit-tap-highlight-color: rgba(0, 0, 0, 0);" dy="4.501562499999977">GPR157</tspan><title style="-webkit-tap-highlight-color: rgba(0, 0, 0, 0);">Probable G-protein coupled receptor 157 (Homo sapiens)</title></text></a><path fill="none" stroke="#000000" d="M476.2232,573.5191L476.233,573.5175A84.8506,84.8506,0,0,0,621.7182,618.2279L621.7255,618.2347" stroke-width="2" id="undefined" class="path" style="-webkit-tap-highlight-color: rgba(0, 0, 0, 0);"></path><path fill="none" stroke="#000000" d="M560,560L535.0743,641.1069" stroke-width="2" id="undefined" class="path" style="-webkit-tap-highlight-color: rgba(0, 0, 0, 0);"></path><path fill="none" stroke="#000000" d="M560,560L673.8462,533.0176" stroke-width="2" id="undefined" class="path" style="-webkit-tap-highlight-color: rgba(0, 0, 0, 0);"></path><path fill="none" stroke="#c8c8c8" d="M673.8462,533.0176L924.8916,473.518" stroke-dasharray="1,3" id="undefined" class="path2" stroke-width="2" style="-webkit-tap-highlight-color: rgba(0, 0, 0, 0);"></path><a xlink:href="http://tools.gpcr.org/visualise/protein/gp107_human" style="-webkit-tap-highlight-color: rgba(0, 0, 0, 0);"><text x="926.8377" y="473.0567" text-anchor="start" font-family="Verdana" font-size="12px" stroke="none" fill="#000000" style="-webkit-tap-highlight-color: rgba(0, 0, 0, 0); text-anchor: start; font-family: Verdana; font-size: 12px; font-weight: bold;" font-weight="bold" transform="matrix(0.973,-0.2306,0.2306,0.973,-84.1121,226.4977)"><tspan style="-webkit-tap-highlight-color: rgba(0, 0, 0, 0);" dy="4.502012499999978">GPR107</tspan><title style="-webkit-tap-highlight-color: rgba(0, 0, 0, 0);">Protein GPR107 (Homo sapiens)</title></text></a><g id="leg_group" class="legend" transform="translate (60 1120)"><g class="chart0" style="visibility: hidden;"><text x="0" y="30" font-family="Verdana" font-size="20" font-weight="bold">Class (Outer ring)</text><rect x="0" y="70" width="300" height="30" stroke="black" fill="transparent" stroke-width="5"></rect><rect x="10" y="80" height="10" width="30" class="chart" id="F" style="stroke:#000000; fill: #0a0a0a"></rect><text x="45" y="90" style="font-family:Verdana; font-size:12;">Other 7TM proteins</text></g><g class="chart1" style="visibility: hidden;"><text x="320" y="30" font-family="Verdana" font-size="20" font-weight="bold">Ligand type (Middle ring)</text><rect x="320" y="70" width="300" height="30" stroke="black" fill="transparent" stroke-width="5"></rect><rect x="330" y="80" height="10" width="30" class="chart" id="F_A" style="stroke:#000000; fill: #c86464"></rect><text x="365" y="90" style="font-family:Verdana; font-size:12;">Other</text></g><g class="chart2" style="visibility: hidden;"><rect x="640" y="70" width="345" height="30" stroke="black" fill="transparent" stroke-width="5"></rect><text x="640" y="30" font-family="Verdana" font-size="20" font-weight="bold">Receptor type (Inner ring)</text><rect x="650" y="80" height="10" width="30" class="chart" id="F_A_A" style="stroke:#000000; fill: #c864b2"></rect><text x="685" y="90" style="font-family:Verdana; font-size:12;">Other 7TM orphans</text></g></g></svg>