<?xml version="1.0" standalone="no"?><!DOCTYPE svg PUBLIC "-//W3C//DTD SVG 1.1//EN" "http://www.w3.org/Graphics/SVG/1.1/DTD/svg11.dtd"><svg viewBox="0 0 920 1000" xmlns:xlink="http://www.w3.org/1999/xlink" xmlns="http://www.w3.org/2000/svg" class="svgtree" id="svgtree" style="overflow: hidden; position: relative; left: -0.616638px;" width="920" version="1.1" height="1000"><defs><style type="text/css"><![CDATA[
a { background-color: transparent; }
@font-face {
  font-family: "Glyphicons Halflings";
  src: url("../fonts/glyphicons-halflings-regular.eot?#iefix") format("embedded-opentype"), url("../fonts/glyphicons-halflings-regular.woff") format("woff"), url("../fonts/glyphicons-halflings-regular.ttf") format("truetype"), url("../fonts/glyphicons-halflings-regular.svg#glyphicons_halflingsregular") format("svg");
}
* { box-sizing: border-box; }
a { color: rgb(51, 122, 183); text-decoration: none; }

]]></style></defs><path stroke-width="2" class="path" id="undefined" d="M606.177,188.898A308,308,0,1,0,690.0838,255.2429L747.0291,204.5659A384.2294386047706,384.2294386047706,0,1,1,642.3555,121.8008Z" stroke="#dddddd" fill="#eeeeee" style=""></path><path class="bgfield" id="F_A_A_A" d="M757.5054,539.7155A308,308,0,0,0,690.0831,255.2421L747.0282,204.5649A384.2294386047706,384.2294386047706,0,0,1,831.1374,559.4449Z" stroke="#dddddd" fill="#eeeeee" style=""></path><path class="bgfield" id="F_A_A_F" d="M556.8804,752.3665A308,308,0,0,0,757.5054,539.7155L831.1374,559.4449A384.2294386047706,384.2294386047706,0,0,1,580.8581,824.7267Z" stroke="#dddddd" fill="#eeeeee" style=""></path><path class="bgfield" id="F_A_A_B" d="M268.9678,701.6003A308,308,0,0,0,556.8804,752.3665L580.8581,824.7267A384.2294386047706,384.2294386047706,0,0,1,221.6877,761.3959Z" stroke="#dddddd" fill="#eeeeee" style=""></path><path class="bgfield" id="F_A_A_E" d="M153.172,433.1563A308,308,0,0,0,268.9678,701.6003L221.6877,761.3959A384.2294386047706,384.2294386047706,0,0,1,77.2326,426.5125Z" stroke="#dddddd" fill="#eeeeee" style=""></path><path class="bgfield" id="F_A_A_C" d="M313.823,188.898A308,308,0,0,0,153.172,433.1563L77.2326,426.5125A384.2294386047706,384.2294386047706,0,0,1,277.6445,121.8008Z" stroke="#dddddd" fill="#eeeeee" style=""></path><path class="bgfield" id="F_A_A_D" d="M606.177,188.898A308,308,0,0,0,313.823,188.898L277.6445,121.8008A384.2294386047706,384.2294386047706,0,0,1,642.3555,121.8008Z" stroke="#dddddd" fill="#eeeeee" style=""></path><desc>Created with Raphaël 2.1.4</desc><defs></defs><path class="path" id="undefined" stroke-width="2" d="M460,460L460,383" stroke="#000000" fill="none" style=""></path><path stroke-width="2" class="path2" id="undefined" stroke-dasharray="1,3" d="M460,383L460,152" stroke="#c8c8c8" fill="none" style=""></path><a xlink:href="http://tools.gpcr.org/visualise/protein/tpra1_human"><text transform="matrix(0,-1,1,0,310,610)" font-weight="bold" fill="#000000" stroke="none" font-size="12px" font-family="Verdana" text-anchor="start" y="150" x="460" style="text-anchor: start; font-family: Verdana; font-size: 12px; font-weight: bold;"><tspan dy="4.375">TPRA1</tspan><title>Transmembrane protein adipocyte-associated 1 (Homo sapiens)</title></text></a><path class="path" id="undefined" stroke-width="2" d="M379.5151,407.0643L311.2831,362.1875" stroke="#000000" fill="none" style=""></path><path stroke-width="2" class="path2" id="undefined" stroke-dasharray="1,3" d="M311.2831,362.1875L202.6697,290.7514" stroke="#c8c8c8" fill="none" style=""></path><a xlink:href="http://tools.gpcr.org/visualise/protein/o51e1_human"><text transform="matrix(0.8355,0.5495,-0.5495,0.8355,192.2331,-62.7992)" font-weight="bold" fill="#000000" stroke="none" font-size="12px" font-family="Verdana" text-anchor="end" y="289.6524" x="200.9987" style="text-anchor: end; font-family: Verdana; font-size: 12px; font-weight: bold;"><tspan dy="4.37499521484375">OR51E1</tspan><title>Olfactory receptor 51E1 (Homo sapiens)</title></text></a><path class="path" id="undefined" stroke-width="2" d="M282.297,536.6538L267.1747,543.177" stroke="#000000" fill="none" style=""></path><path stroke-width="2" class="path2" id="undefined" stroke-dasharray="1,3" d="M267.1747,543.177L177.1896,581.9929" stroke="#c8c8c8" fill="none" style=""></path><a xlink:href="http://tools.gpcr.org/visualise/protein/gp143_human"><text transform="matrix(0.9182,-0.3961,0.3961,0.9182,-216.4889,117.1167)" font-weight="bold" fill="#000000" stroke="none" font-size="12px" font-family="Verdana" text-anchor="end" y="582.7851" x="175.3531" style="text-anchor: end; font-family: Verdana; font-size: 12px; font-weight: bold;"><tspan dy="4.375004785156307">GPR143</tspan><title>G-protein coupled receptor 143 (Homo sapiens)</title></text></a><path class="path" id="undefined" stroke-width="2" d="M418.338,696.2792L407.2115,759.3816" stroke="#000000" fill="none" style=""></path><path stroke-width="2" class="path2" id="undefined" stroke-dasharray="1,3" d="M407.2115,759.3816L406.5169,763.3209" stroke="#c8c8c8" fill="none" style=""></path><a xlink:href="http://tools.gpcr.org/visualise/protein/g137a_human"><text transform="matrix(0.1736,-0.9848,0.9848,0.1736,-418.0246,1032.3996)" font-weight="bold" fill="#000000" stroke="none" font-size="12px" font-family="Verdana" text-anchor="end" y="765.2905" x="406.1696" style="text-anchor: end; font-family: Verdana; font-size: 12px; font-weight: bold;"><tspan dy="4.374972656249952">GPR137</tspan><title>Integral membrane protein GPR137 (Homo sapiens)</title></text></a><path class="path" id="undefined" stroke-width="2" d="M634.5148,624.6455L684.0316,671.3619" stroke="#000000" fill="none" style=""></path><path stroke-width="2" class="path2" id="undefined" stroke-dasharray="1,3" d="M684.0316,671.3619L684.0316,671.3619" stroke="#c8c8c8" fill="none" style=""></path><a xlink:href="http://tools.gpcr.org/visualise/protein/gp157_human"><text transform="matrix(0.7274,0.6862,-0.6862,0.7274,648.5378,-287.004)" font-weight="bold" fill="#000000" stroke="none" font-size="12px" font-family="Verdana" text-anchor="start" y="672.7344" x="685.4863" style="text-anchor: start; font-family: Verdana; font-size: 12px; font-weight: bold;"><tspan dy="4.375025000000051">GPR157</tspan><title>Probable G-protein coupled receptor 157 (Homo sapiens)</title></text></a><path class="path" id="undefined" stroke-width="2" d="M418.3363,696.289L418.338,696.2792A239.9241,239.9241,0,0,0,634.5148,624.6455L634.5221,624.6524" stroke="#000000" fill="none" style=""></path><path class="path" id="undefined" stroke-width="2" d="M520.8746,643.7075L535.4675,687.746" stroke="#000000" fill="none" style=""></path><path class="path" id="undefined" stroke-width="2" d="M282.2878,536.6578L282.297,536.6538A193.5308,193.5308,0,0,0,520.8746,643.7075L520.8778,643.717" stroke="#000000" fill="none" style=""></path><path class="path" id="undefined" stroke-width="2" d="M420.5623,547.8902L380.7705,636.5697" stroke="#000000" fill="none" style=""></path><path class="path" id="undefined" stroke-width="2" d="M379.5067,407.0588L379.5151,407.0643A96.3328,96.3328,0,0,0,420.5623,547.8902L420.5583,547.8993" stroke="#000000" fill="none" style=""></path><path class="path" id="undefined" stroke-width="2" d="M460,460L367.5158,486.9569" stroke="#000000" fill="none" style=""></path><path class="path" id="undefined" stroke-width="2" d="M460,460L655.5819,413.6456" stroke="#000000" fill="none" style=""></path><path stroke-width="2" class="path2" id="undefined" stroke-dasharray="1,3" d="M655.5819,413.6456L759.6976,388.9694" stroke="#c8c8c8" fill="none" style=""></path><a xlink:href="http://tools.gpcr.org/visualise/protein/gp107_human"><text transform="matrix(0.973,-0.2306,0.2306,0.973,-69.0665,186.1218)" font-weight="bold" fill="#000000" stroke="none" font-size="12px" font-family="Verdana" text-anchor="start" y="388.5082" x="761.6437" style="text-anchor: start; font-family: Verdana; font-size: 12px; font-weight: bold;"><tspan dy="4.374990771484363">GPR107</tspan><title>Protein GPR107 (Homo sapiens)</title></text></a><g transform="translate (410 920)" id="leg_group" class="legend"></g><circle style="display: none;" stroke="#ff0000" fill="none" r="5" cy="759.3816" cx="407.2115"></circle></svg>