<?xml version="1.0" standalone="no"?><!DOCTYPE svg PUBLIC "-//W3C//DTD SVG 1.1//EN" "http://www.w3.org/Graphics/SVG/1.1/DTD/svg11.dtd"><svg viewBox="0 0 1020 1100" xmlns:xlink="http://www.w3.org/1999/xlink" xmlns="http://www.w3.org/2000/svg" class="svgtree" id="svgtree" style="overflow: hidden; position: relative; left: -0.5px;" width="1020" version="1.1" height="1100"><defs><style type="text/css"><![CDATA[
a { background-color: transparent; }
@font-face {
  font-family: "Glyphicons Halflings";
  src: url("../fonts/glyphicons-halflings-regular.eot?#iefix") format("embedded-opentype"), url("../fonts/glyphicons-halflings-regular.woff") format("woff"), url("../fonts/glyphicons-halflings-regular.ttf") format("truetype"), url("../fonts/glyphicons-halflings-regular.svg#glyphicons_halflingsregular") format("svg");
}
* { box-sizing: border-box; }
a { color: rgb(51, 122, 183); text-decoration: none; }

]]></style></defs><path stroke-width="2" class="path" id="undefined" d="M672.3134,208.9712A342,342,0,1,0,765.4826,282.6399L824.4823,230.1347A420.9794691360616,420.9794691360616,0,1,1,709.7971,139.4533Z" stroke="#dddddd" fill="#eeeeee" style=""></path><path class="bgfield" id="F_A_A_A" d="M840.3469,598.5152A342,342,0,0,0,765.4818,282.639L824.4813,230.1336A420.9794691360616,420.9794691360616,0,0,1,916.6352,618.9564Z" stroke="#dddddd" fill="#eeeeee" style=""></path><path class="bgfield" id="F_A_A_F" d="M617.575,834.6408A342,342,0,0,0,840.3469,598.5152L916.6352,618.9564A420.9794691360616,420.9794691360616,0,0,1,642.4177,909.6114Z" stroke="#dddddd" fill="#eeeeee" style=""></path><path class="bgfield" id="F_A_A_E" d="M297.8799,778.2705A342,342,0,0,0,617.575,834.6408L642.4177,909.6114A420.9794691360616,420.9794691360616,0,0,1,248.8941,840.2233Z" stroke="#dddddd" fill="#eeeeee" style=""></path><path class="bgfield" id="F_A_A_B" d="M169.3014,480.193A342,342,0,0,0,297.8799,778.2705L248.8941,840.2233A420.9794691360616,420.9794691360616,0,0,1,90.6225,473.3096Z" stroke="#dddddd" fill="#eeeeee" style=""></path><path class="bgfield" id="F_A_A_C" d="M347.6866,208.9712A342,342,0,0,0,169.3014,480.193L90.6225,473.3096A420.9794691360616,420.9794691360616,0,0,1,310.2029,139.4533Z" stroke="#dddddd" fill="#eeeeee" style=""></path><path class="bgfield" id="F_A_A_D" d="M672.3134,208.9712A342,342,0,0,0,347.6866,208.9712L310.2029,139.4533A420.9794691360616,420.9794691360616,0,0,1,709.7971,139.4533Z" stroke="#dddddd" fill="#eeeeee" style=""></path><desc>Created with Raphaël 2.1.4</desc><defs></defs><path class="path" id="undefined" stroke-width="2" d="M510,510L510,447" stroke="#000000" fill="none" style=""></path><path stroke-width="2" class="path2" id="undefined" stroke-dasharray="1,3" d="M510,447L510,168" stroke="#c8c8c8" fill="none" style=""></path><a xlink:href="http://tools.gpcr.org/visualise/protein/tpra1_human"><text transform="matrix(0,-1,1,0,344,676)" font-weight="bold" fill="#000000" stroke="none" font-size="12px" font-family="Verdana" text-anchor="start" y="166" x="510" style="text-anchor: start; font-family: Verdana; font-size: 12px; font-weight: bold;"><tspan dy="5">TPRA1</tspan><title>Transmembrane protein adipocyte-associated 1 (Homo sapiens)</title></text></a><path class="path" id="undefined" stroke-width="2" d="M338.3403,397.0978L224.2631,322.0681" stroke="#000000" fill="none" style=""></path><path stroke-width="2" class="path2" id="undefined" stroke-dasharray="1,3" d="M224.2631,322.0681L224.2631,322.0681" stroke="#c8c8c8" fill="none" style=""></path><a xlink:href="http://tools.gpcr.org/visualise/protein/o51e1_human"><text transform="matrix(0.8355,0.5495,-0.5495,0.8355,212.9943,-69.513)" font-weight="bold" fill="#000000" stroke="none" font-size="12px" font-family="Verdana" text-anchor="end" y="320.9691" x="222.5921" style="text-anchor: end; font-family: Verdana; font-size: 12px; font-weight: bold;"><tspan dy="5.000014306640651">OR51E1</tspan><title>Olfactory receptor 51E1 (Homo sapiens)</title></text></a><path class="path" id="undefined" stroke-width="2" d="M321.343,591.3789L267.5911,614.5653" stroke="#000000" fill="none" style=""></path><path stroke-width="2" class="path2" id="undefined" stroke-dasharray="1,3" d="M267.5911,614.5653L195.9702,645.4596" stroke="#c8c8c8" fill="none" style=""></path><a xlink:href="http://tools.gpcr.org/visualise/protein/g137a_human"><text transform="matrix(0.9182,-0.3961,0.3961,0.9182,-240.0908,129.746)" font-weight="bold" fill="#000000" stroke="none" font-size="12px" font-family="Verdana" text-anchor="end" y="646.2518" x="194.1338" style="text-anchor: end; font-family: Verdana; font-size: 12px; font-weight: bold;"><tspan dy="5.000029980468753">GPR137</tspan><title>Integral membrane protein GPR137 (Homo sapiens)</title></text></a><path class="path" id="undefined" stroke-width="2" d="M338.3319,397.0923L338.3403,397.0978A205.4604,205.4604,0,0,0,321.343,591.3789L321.3339,591.3829" stroke="#000000" fill="none" style=""></path><path class="path" id="undefined" stroke-width="2" d="M374.5612,498.1509L305.3214,492.0933" stroke="#000000" fill="none" style=""></path><path class="path" id="undefined" stroke-width="2" d="M486.3917,643.8907L481.3483,672.4933" stroke="#000000" fill="none" style=""></path><path stroke-width="2" class="path2" id="undefined" stroke-dasharray="1,3" d="M481.3483,672.4933L450.6129,846.8044" stroke="#c8c8c8" fill="none" style=""></path><a xlink:href="http://tools.gpcr.org/visualise/protein/gp143_human"><text transform="matrix(0.1736,-0.9848,0.9848,0.1736,-463.8009,1144.8126)" font-weight="bold" fill="#000000" stroke="none" font-size="12px" font-family="Verdana" text-anchor="end" y="848.774" x="450.2656" style="text-anchor: end; font-family: Verdana; font-size: 12px; font-weight: bold;"><tspan dy="5.000013183593751">GPR143</tspan><title>G-protein coupled receptor 143 (Homo sapiens)</title></text></a><path class="path" id="undefined" stroke-width="2" d="M374.5513,498.15L374.5612,498.1509A135.9561,135.9561,0,0,0,486.3917,643.8907L486.39,643.9005" stroke="#000000" fill="none" style=""></path><path class="path" id="undefined" stroke-width="2" d="M450.8863,555.3597L402.1389,592.765" stroke="#000000" fill="none" style=""></path><path class="path" id="undefined" stroke-width="2" d="M564.1977,561.1326L678.0237,668.5214" stroke="#000000" fill="none" style=""></path><path stroke-width="2" class="path2" id="undefined" stroke-dasharray="1,3" d="M678.0237,668.5214L758.7623,744.6941" stroke="#c8c8c8" fill="none" style=""></path><a xlink:href="http://tools.gpcr.org/visualise/protein/gp157_human"><text transform="matrix(0.7274,0.6862,-0.6862,0.7274,719.2346,-318.2951)" font-weight="bold" fill="#000000" stroke="none" font-size="12px" font-family="Verdana" text-anchor="start" y="746.0665" x="760.2171" style="text-anchor: start; font-family: Verdana; font-size: 12px; font-weight: bold;"><tspan dy="4.999971679687519">GPR157</tspan><title>Probable G-protein coupled receptor 157 (Homo sapiens)</title></text></a><path class="path" id="undefined" stroke-width="2" d="M450.8784,555.3658L450.8863,555.3597A74.5113,74.5113,0,0,0,564.1977,561.1326L564.2049,561.1395" stroke="#000000" fill="none" style=""></path><path class="path" id="undefined" stroke-width="2" d="M510,510L506.2088,584.4148" stroke="#000000" fill="none" style=""></path><path class="path" id="undefined" stroke-width="2" d="M510,510L679.3097,469.8723" stroke="#000000" fill="none" style=""></path><path stroke-width="2" class="path2" id="undefined" stroke-dasharray="1,3" d="M679.3097,469.8723L842.7811,431.1284" stroke="#c8c8c8" fill="none" style=""></path><a xlink:href="http://tools.gpcr.org/visualise/protein/gp107_human"><text transform="matrix(0.973,-0.2306,0.2306,0.973,-76.5496,206.4189)" font-weight="bold" fill="#000000" stroke="none" font-size="12px" font-family="Verdana" text-anchor="start" y="430.6672" x="844.7272" style="text-anchor: start; font-family: Verdana; font-size: 12px; font-weight: bold;"><tspan dy="4.999994189453105">GPR107</tspan><title>Protein GPR107 (Homo sapiens)</title></text></a><g transform="translate (460 1020)" id="leg_group" class="legend"></g></svg>